G04*
G04 #@! TF.GenerationSoftware,Altium Limited,Altium Designer,22.11.1 (43)*
G04*
G04 Layer_Physical_Order=2*
G04 Layer_Color=36540*
%FSLAX25Y25*%
%MOIN*%
G70*
G04*
G04 #@! TF.SameCoordinates,C353F027-9E8A-41FA-9674-E24DC2C26849*
G04*
G04*
G04 #@! TF.FilePolarity,Positive*
G04*
G01*
G75*
%ADD64C,0.05512*%
%ADD65C,0.06693*%
%ADD89C,0.13291*%
G04:AMPARAMS|DCode=90|XSize=62.99mil|YSize=47.24mil|CornerRadius=11.81mil|HoleSize=0mil|Usage=FLASHONLY|Rotation=180.000|XOffset=0mil|YOffset=0mil|HoleType=Round|Shape=RoundedRectangle|*
%AMROUNDEDRECTD90*
21,1,0.06299,0.02362,0,0,180.0*
21,1,0.03937,0.04724,0,0,180.0*
1,1,0.02362,-0.01968,0.01181*
1,1,0.02362,0.01968,0.01181*
1,1,0.02362,0.01968,-0.01181*
1,1,0.02362,-0.01968,-0.01181*
%
%ADD90ROUNDEDRECTD90*%
G04:AMPARAMS|DCode=91|XSize=62.99mil|YSize=39.37mil|CornerRadius=9.84mil|HoleSize=0mil|Usage=FLASHONLY|Rotation=180.000|XOffset=0mil|YOffset=0mil|HoleType=Round|Shape=RoundedRectangle|*
%AMROUNDEDRECTD91*
21,1,0.06299,0.01968,0,0,180.0*
21,1,0.04331,0.03937,0,0,180.0*
1,1,0.01968,-0.02165,0.00984*
1,1,0.01968,0.02165,0.00984*
1,1,0.01968,0.02165,-0.00984*
1,1,0.01968,-0.02165,-0.00984*
%
%ADD91ROUNDEDRECTD91*%
G04:AMPARAMS|DCode=92|XSize=157.48mil|YSize=70.87mil|CornerRadius=17.72mil|HoleSize=0mil|Usage=FLASHONLY|Rotation=270.000|XOffset=0mil|YOffset=0mil|HoleType=Round|Shape=RoundedRectangle|*
%AMROUNDEDRECTD92*
21,1,0.15748,0.03543,0,0,270.0*
21,1,0.12205,0.07087,0,0,270.0*
1,1,0.03543,-0.01772,-0.06102*
1,1,0.03543,-0.01772,0.06102*
1,1,0.03543,0.01772,0.06102*
1,1,0.03543,0.01772,-0.06102*
%
%ADD92ROUNDEDRECTD92*%
G04:AMPARAMS|DCode=93|XSize=157.48mil|YSize=70.87mil|CornerRadius=17.72mil|HoleSize=0mil|Usage=FLASHONLY|Rotation=180.000|XOffset=0mil|YOffset=0mil|HoleType=Round|Shape=RoundedRectangle|*
%AMROUNDEDRECTD93*
21,1,0.15748,0.03543,0,0,180.0*
21,1,0.12205,0.07087,0,0,180.0*
1,1,0.03543,-0.06102,0.01772*
1,1,0.03543,0.06102,0.01772*
1,1,0.03543,0.06102,-0.01772*
1,1,0.03543,-0.06102,-0.01772*
%
%ADD93ROUNDEDRECTD93*%
%ADD94C,0.05709*%
%ADD95C,0.02362*%
%ADD96C,0.05000*%
G36*
X157664Y109245D02*
X159058Y108872D01*
X160391Y108319D01*
X161641Y107598D01*
X162786Y106719D01*
X163806Y105699D01*
X164684Y104554D01*
X165406Y103305D01*
X165958Y101971D01*
X166332Y100577D01*
X166520Y99147D01*
Y98425D01*
Y-98425D01*
Y-99147D01*
X166332Y-100577D01*
X165958Y-101971D01*
X165406Y-103305D01*
X164684Y-104554D01*
X163806Y-105699D01*
X162786Y-106719D01*
X161641Y-107598D01*
X160391Y-108319D01*
X159058Y-108872D01*
X157664Y-109245D01*
X156233Y-109433D01*
X78526D01*
X78447Y-108933D01*
X79790Y-108497D01*
X81612Y-107569D01*
X83267Y-106367D01*
X84713Y-104920D01*
X85915Y-103266D01*
X86843Y-101444D01*
X87475Y-99499D01*
X87795Y-97479D01*
Y-95434D01*
X87475Y-93414D01*
X86843Y-91469D01*
X85915Y-89647D01*
X84713Y-87993D01*
X83267Y-86547D01*
X81612Y-85345D01*
X79790Y-84416D01*
X77846Y-83785D01*
X75826Y-83465D01*
X73781D01*
X71761Y-83785D01*
X69816Y-84416D01*
X67994Y-85345D01*
X66339Y-86547D01*
X64893Y-87993D01*
X63691Y-89647D01*
X62763Y-91469D01*
X62131Y-93414D01*
X61811Y-95434D01*
Y-97479D01*
X62131Y-99499D01*
X62763Y-101444D01*
X63691Y-103266D01*
X64893Y-104920D01*
X66339Y-106367D01*
X67994Y-107569D01*
X69816Y-108497D01*
X71159Y-108933D01*
X71080Y-109433D01*
X-149820D01*
X-149899Y-108933D01*
X-148556Y-108497D01*
X-146734Y-107569D01*
X-145080Y-106367D01*
X-143633Y-104920D01*
X-142431Y-103266D01*
X-141503Y-101444D01*
X-140871Y-99499D01*
X-140551Y-97479D01*
Y-95434D01*
X-140871Y-93414D01*
X-141503Y-91469D01*
X-142431Y-89647D01*
X-143633Y-87993D01*
X-145080Y-86547D01*
X-146734Y-85345D01*
X-148556Y-84416D01*
X-150501Y-83785D01*
X-152521Y-83465D01*
X-154566D01*
X-156586Y-83785D01*
X-158530Y-84416D01*
X-160353Y-85345D01*
X-162007Y-86547D01*
X-163453Y-87993D01*
X-164655Y-89647D01*
X-165584Y-91469D01*
X-166020Y-92813D01*
X-166520Y-92734D01*
Y92734D01*
X-166020Y92813D01*
X-165584Y91469D01*
X-164655Y89647D01*
X-163453Y87993D01*
X-162007Y86547D01*
X-160353Y85345D01*
X-158530Y84416D01*
X-156586Y83785D01*
X-154566Y83465D01*
X-152521D01*
X-150501Y83785D01*
X-148556Y84416D01*
X-146734Y85345D01*
X-145080Y86547D01*
X-143633Y87993D01*
X-142431Y89647D01*
X-141503Y91469D01*
X-140871Y93414D01*
X-140551Y95434D01*
Y97479D01*
X-140871Y99499D01*
X-141503Y101444D01*
X-142431Y103266D01*
X-143633Y104920D01*
X-145080Y106367D01*
X-146734Y107569D01*
X-148556Y108497D01*
X-149899Y108933D01*
X-149820Y109433D01*
X71080D01*
X71159Y108933D01*
X69816Y108497D01*
X67994Y107569D01*
X66339Y106367D01*
X64893Y104920D01*
X63691Y103266D01*
X62763Y101444D01*
X62131Y99499D01*
X61811Y97479D01*
Y95434D01*
X62131Y93414D01*
X62763Y91469D01*
X63691Y89647D01*
X64893Y87993D01*
X66339Y86547D01*
X67994Y85345D01*
X69816Y84416D01*
X71761Y83785D01*
X73781Y83465D01*
X75826D01*
X77846Y83785D01*
X79790Y84416D01*
X81612Y85345D01*
X83267Y86547D01*
X84713Y87993D01*
X85915Y89647D01*
X86843Y91469D01*
X87475Y93414D01*
X87795Y95434D01*
Y97479D01*
X87475Y99499D01*
X86843Y101444D01*
X85915Y103266D01*
X84713Y104920D01*
X83267Y106367D01*
X81612Y107569D01*
X79790Y108497D01*
X78447Y108933D01*
X78526Y109433D01*
X156233D01*
X157664Y109245D01*
D02*
G37*
%LPC*%
G36*
X50591Y103714D02*
Y100591D01*
X53714D01*
X53485Y101444D01*
X52993Y102296D01*
X52297Y102993D01*
X51444Y103485D01*
X50591Y103714D01*
D02*
G37*
G36*
X49409D02*
X48556Y103485D01*
X47703Y102993D01*
X47007Y102296D01*
X46515Y101444D01*
X46286Y100591D01*
X49409D01*
Y103714D01*
D02*
G37*
G36*
X-16339Y101528D02*
Y99016D01*
X-13827D01*
X-13994Y99641D01*
X-14409Y100359D01*
X-14995Y100945D01*
X-15713Y101360D01*
X-16339Y101528D01*
D02*
G37*
G36*
X-87599Y101528D02*
Y99016D01*
X-85087D01*
X-85254Y99641D01*
X-85669Y100359D01*
X-86255Y100945D01*
X-86973Y101360D01*
X-87599Y101528D01*
D02*
G37*
G36*
X-88779Y101528D02*
X-89405Y101360D01*
X-90123Y100945D01*
X-90709Y100359D01*
X-91124Y99641D01*
X-91291Y99016D01*
X-88779D01*
Y101528D01*
D02*
G37*
G36*
X-17520Y101528D02*
X-18145Y101360D01*
X-18863Y100945D01*
X-19449Y100359D01*
X-19864Y99641D01*
X-20032Y99016D01*
X-17520D01*
Y101528D01*
D02*
G37*
G36*
X53714Y99410D02*
X50591D01*
Y96286D01*
X51444Y96515D01*
X52297Y97007D01*
X52993Y97703D01*
X53485Y98556D01*
X53714Y99410D01*
D02*
G37*
G36*
X49409D02*
X46286D01*
X46515Y98556D01*
X47007Y97703D01*
X47703Y97007D01*
X48556Y96515D01*
X49409Y96286D01*
Y99410D01*
D02*
G37*
G36*
X40544Y104134D02*
X39456D01*
X38404Y103852D01*
X37462Y103308D01*
X36692Y102538D01*
X36148Y101596D01*
X35866Y100544D01*
Y99456D01*
X36148Y98404D01*
X36692Y97462D01*
X37462Y96692D01*
X38404Y96148D01*
X39456Y95866D01*
X40544D01*
X41596Y96148D01*
X42538Y96692D01*
X43308Y97462D01*
X43852Y98404D01*
X44134Y99456D01*
Y100544D01*
X43852Y101596D01*
X43308Y102538D01*
X42538Y103308D01*
X41596Y103852D01*
X40544Y104134D01*
D02*
G37*
G36*
X30544D02*
X29456D01*
X28404Y103852D01*
X27462Y103308D01*
X26692Y102538D01*
X26148Y101596D01*
X25866Y100544D01*
Y99456D01*
X26148Y98404D01*
X26692Y97462D01*
X27462Y96692D01*
X28404Y96148D01*
X29456Y95866D01*
X30544D01*
X31596Y96148D01*
X32538Y96692D01*
X33308Y97462D01*
X33852Y98404D01*
X34134Y99456D01*
Y100544D01*
X33852Y101596D01*
X33308Y102538D01*
X32538Y103308D01*
X31596Y103852D01*
X30544Y104134D01*
D02*
G37*
G36*
X20544D02*
X19456D01*
X18404Y103852D01*
X17462Y103308D01*
X16692Y102538D01*
X16148Y101596D01*
X15866Y100544D01*
Y99456D01*
X16148Y98404D01*
X16692Y97462D01*
X17462Y96692D01*
X18404Y96148D01*
X19456Y95866D01*
X20544D01*
X21596Y96148D01*
X22538Y96692D01*
X23308Y97462D01*
X23852Y98404D01*
X24134Y99456D01*
Y100544D01*
X23852Y101596D01*
X23308Y102538D01*
X22538Y103308D01*
X21596Y103852D01*
X20544Y104134D01*
D02*
G37*
G36*
X-13827Y97835D02*
X-16339D01*
Y95323D01*
X-15713Y95490D01*
X-14995Y95905D01*
X-14409Y96491D01*
X-13994Y97210D01*
X-13827Y97835D01*
D02*
G37*
G36*
X-88779D02*
X-91291D01*
X-91124Y97210D01*
X-90709Y96491D01*
X-90123Y95905D01*
X-89405Y95490D01*
X-88779Y95323D01*
Y97835D01*
D02*
G37*
G36*
X-85087D02*
X-87599D01*
Y95323D01*
X-86973Y95490D01*
X-86255Y95905D01*
X-85669Y96491D01*
X-85254Y97210D01*
X-85087Y97835D01*
D02*
G37*
G36*
X-17520D02*
X-20032D01*
X-19864Y97210D01*
X-19449Y96491D01*
X-18863Y95905D01*
X-18145Y95490D01*
X-17520Y95323D01*
Y97835D01*
D02*
G37*
G36*
X-3543Y101969D02*
X-10630D01*
Y94882D01*
X-3543D01*
Y101969D01*
D02*
G37*
G36*
X-26305D02*
X-27238D01*
X-28139Y101727D01*
X-28947Y101260D01*
X-29607Y100601D01*
X-30073Y99793D01*
X-30315Y98892D01*
Y97959D01*
X-30073Y97057D01*
X-29607Y96250D01*
X-28947Y95590D01*
X-28139Y95123D01*
X-27238Y94882D01*
X-26305D01*
X-25404Y95123D01*
X-24596Y95590D01*
X-23936Y96250D01*
X-23470Y97057D01*
X-23228Y97959D01*
Y98892D01*
X-23470Y99793D01*
X-23936Y100601D01*
X-24596Y101260D01*
X-25404Y101727D01*
X-26305Y101969D01*
D02*
G37*
G36*
X-36148D02*
X-37081D01*
X-37982Y101727D01*
X-38790Y101260D01*
X-39450Y100601D01*
X-39916Y99793D01*
X-40157Y98892D01*
Y97959D01*
X-39916Y97057D01*
X-39450Y96250D01*
X-38790Y95590D01*
X-37982Y95123D01*
X-37081Y94882D01*
X-36148D01*
X-35247Y95123D01*
X-34438Y95590D01*
X-33779Y96250D01*
X-33312Y97057D01*
X-33071Y97959D01*
Y98892D01*
X-33312Y99793D01*
X-33779Y100601D01*
X-34438Y101260D01*
X-35247Y101727D01*
X-36148Y101969D01*
D02*
G37*
G36*
X-45990D02*
X-46923D01*
X-47824Y101727D01*
X-48632Y101260D01*
X-49292Y100601D01*
X-49758Y99793D01*
X-50000Y98892D01*
Y97959D01*
X-49758Y97057D01*
X-49292Y96250D01*
X-48632Y95590D01*
X-47824Y95123D01*
X-46923Y94882D01*
X-45990D01*
X-45089Y95123D01*
X-44281Y95590D01*
X-43621Y96250D01*
X-43155Y97057D01*
X-42913Y97959D01*
Y98892D01*
X-43155Y99793D01*
X-43621Y100601D01*
X-44281Y101260D01*
X-45089Y101727D01*
X-45990Y101969D01*
D02*
G37*
G36*
X-55833D02*
X-56766D01*
X-57667Y101727D01*
X-58475Y101260D01*
X-59135Y100601D01*
X-59601Y99793D01*
X-59842Y98892D01*
Y97959D01*
X-59601Y97057D01*
X-59135Y96250D01*
X-58475Y95590D01*
X-57667Y95123D01*
X-56766Y94882D01*
X-55833D01*
X-54932Y95123D01*
X-54124Y95590D01*
X-53464Y96250D01*
X-52997Y97057D01*
X-52756Y97959D01*
Y98892D01*
X-52997Y99793D01*
X-53464Y100601D01*
X-54124Y101260D01*
X-54932Y101727D01*
X-55833Y101969D01*
D02*
G37*
G36*
X-74803D02*
X-81890D01*
Y94882D01*
X-74803D01*
Y101969D01*
D02*
G37*
G36*
X-97565D02*
X-98498D01*
X-99399Y101727D01*
X-100207Y101260D01*
X-100867Y100601D01*
X-101333Y99793D01*
X-101575Y98892D01*
Y97959D01*
X-101333Y97057D01*
X-100867Y96250D01*
X-100207Y95590D01*
X-99399Y95123D01*
X-98498Y94882D01*
X-97565D01*
X-96664Y95123D01*
X-95856Y95590D01*
X-95196Y96250D01*
X-94730Y97057D01*
X-94488Y97959D01*
Y98892D01*
X-94730Y99793D01*
X-95196Y100601D01*
X-95856Y101260D01*
X-96664Y101727D01*
X-97565Y101969D01*
D02*
G37*
G36*
X-107407D02*
X-108341D01*
X-109242Y101727D01*
X-110050Y101260D01*
X-110709Y100601D01*
X-111176Y99793D01*
X-111417Y98892D01*
Y97959D01*
X-111176Y97057D01*
X-110709Y96250D01*
X-110050Y95590D01*
X-109242Y95123D01*
X-108341Y94882D01*
X-107407D01*
X-106506Y95123D01*
X-105698Y95590D01*
X-105039Y96250D01*
X-104572Y97057D01*
X-104331Y97959D01*
Y98892D01*
X-104572Y99793D01*
X-105039Y100601D01*
X-105698Y101260D01*
X-106506Y101727D01*
X-107407Y101969D01*
D02*
G37*
G36*
X-117250D02*
X-118183D01*
X-119084Y101727D01*
X-119892Y101260D01*
X-120552Y100601D01*
X-121018Y99793D01*
X-121260Y98892D01*
Y97959D01*
X-121018Y97057D01*
X-120552Y96250D01*
X-119892Y95590D01*
X-119084Y95123D01*
X-118183Y94882D01*
X-117250D01*
X-116349Y95123D01*
X-115541Y95590D01*
X-114881Y96250D01*
X-114415Y97057D01*
X-114173Y97959D01*
Y98892D01*
X-114415Y99793D01*
X-114881Y100601D01*
X-115541Y101260D01*
X-116349Y101727D01*
X-117250Y101969D01*
D02*
G37*
G36*
X-127093D02*
X-128025D01*
X-128927Y101727D01*
X-129735Y101260D01*
X-130394Y100601D01*
X-130861Y99793D01*
X-131102Y98892D01*
Y97959D01*
X-130861Y97057D01*
X-130394Y96250D01*
X-129735Y95590D01*
X-128927Y95123D01*
X-128025Y94882D01*
X-127093D01*
X-126191Y95123D01*
X-125383Y95590D01*
X-124724Y96250D01*
X-124257Y97057D01*
X-124016Y97959D01*
Y98892D01*
X-124257Y99793D01*
X-124724Y100601D01*
X-125383Y101260D01*
X-126191Y101727D01*
X-127093Y101969D01*
D02*
G37*
G36*
X155392Y84969D02*
X154608D01*
X153885Y84669D01*
X153331Y84115D01*
X153032Y83392D01*
Y82608D01*
X153331Y81885D01*
X153885Y81331D01*
X154608Y81032D01*
X155392D01*
X156115Y81331D01*
X156669Y81885D01*
X156968Y82608D01*
Y83392D01*
X156669Y84115D01*
X156115Y84669D01*
X155392Y84969D01*
D02*
G37*
G36*
X143450Y84941D02*
X142550D01*
X141718Y84596D01*
X141081Y83960D01*
X140736Y83127D01*
Y82227D01*
X141081Y81395D01*
X141718Y80758D01*
X142550Y80413D01*
X143450D01*
X144282Y80758D01*
X144919Y81395D01*
X145264Y82227D01*
Y83127D01*
X144919Y83960D01*
X144282Y84596D01*
X143450Y84941D01*
D02*
G37*
G36*
X99650D02*
X98750D01*
X97918Y84596D01*
X97281Y83960D01*
X96936Y83127D01*
Y82227D01*
X97281Y81395D01*
X97918Y80758D01*
X98750Y80413D01*
X99650D01*
X100482Y80758D01*
X101119Y81395D01*
X101464Y82227D01*
Y83127D01*
X101119Y83960D01*
X100482Y84596D01*
X99650Y84941D01*
D02*
G37*
G36*
X-5208Y71868D02*
X-5992D01*
X-6715Y71569D01*
X-7269Y71015D01*
X-7569Y70292D01*
Y69508D01*
X-7269Y68785D01*
X-6715Y68231D01*
X-5992Y67931D01*
X-5208D01*
X-4485Y68231D01*
X-3931Y68785D01*
X-3632Y69508D01*
Y70292D01*
X-3931Y71015D01*
X-4485Y71569D01*
X-5208Y71868D01*
D02*
G37*
G36*
X-116208Y67068D02*
X-116992D01*
X-117715Y66769D01*
X-118269Y66215D01*
X-118569Y65492D01*
Y64708D01*
X-118269Y63985D01*
X-117715Y63431D01*
X-116992Y63131D01*
X-116208D01*
X-115485Y63431D01*
X-114931Y63985D01*
X-114631Y64708D01*
Y65492D01*
X-114931Y66215D01*
X-115485Y66769D01*
X-116208Y67068D01*
D02*
G37*
G36*
X-93908Y66668D02*
X-94692D01*
X-95415Y66369D01*
X-95969Y65815D01*
X-96268Y65092D01*
Y64308D01*
X-95969Y63585D01*
X-95415Y63031D01*
X-94692Y62731D01*
X-93908D01*
X-93185Y63031D01*
X-92631Y63585D01*
X-92331Y64308D01*
Y65092D01*
X-92631Y65815D01*
X-93185Y66369D01*
X-93908Y66668D01*
D02*
G37*
G36*
X-33608Y66469D02*
X-34392D01*
X-35115Y66169D01*
X-35669Y65615D01*
X-35969Y64892D01*
Y64108D01*
X-35669Y63385D01*
X-35115Y62831D01*
X-34392Y62532D01*
X-33608D01*
X-32885Y62831D01*
X-32331Y63385D01*
X-32032Y64108D01*
Y64892D01*
X-32331Y65615D01*
X-32885Y66169D01*
X-33608Y66469D01*
D02*
G37*
G36*
X61592Y66168D02*
X60808D01*
X60085Y65869D01*
X59531Y65315D01*
X59232Y64592D01*
Y63808D01*
X59531Y63085D01*
X60085Y62531D01*
X60808Y62231D01*
X61592D01*
X62315Y62531D01*
X62869Y63085D01*
X63169Y63808D01*
Y64592D01*
X62869Y65315D01*
X62315Y65869D01*
X61592Y66168D01*
D02*
G37*
G36*
X-129409Y63714D02*
Y60591D01*
X-126286D01*
X-126515Y61444D01*
X-127007Y62296D01*
X-127703Y62993D01*
X-128556Y63485D01*
X-129409Y63714D01*
D02*
G37*
G36*
X-139409D02*
Y60591D01*
X-136286D01*
X-136515Y61444D01*
X-137007Y62296D01*
X-137704Y62993D01*
X-138556Y63485D01*
X-139409Y63714D01*
D02*
G37*
G36*
X-140591D02*
X-141444Y63485D01*
X-142297Y62993D01*
X-142993Y62296D01*
X-143485Y61444D01*
X-143714Y60591D01*
X-140591D01*
Y63714D01*
D02*
G37*
G36*
X-130591D02*
X-131444Y63485D01*
X-132297Y62993D01*
X-132993Y62296D01*
X-133485Y61444D01*
X-133714Y60591D01*
X-130591D01*
Y63714D01*
D02*
G37*
G36*
X-149409Y63714D02*
Y60590D01*
X-146286D01*
X-146515Y61444D01*
X-147007Y62296D01*
X-147704Y62993D01*
X-148556Y63485D01*
X-149409Y63714D01*
D02*
G37*
G36*
X-150591Y63714D02*
X-151444Y63485D01*
X-152296Y62993D01*
X-152993Y62296D01*
X-153485Y61444D01*
X-153714Y60590D01*
X-150591D01*
Y63714D01*
D02*
G37*
G36*
X78792Y64169D02*
X78008D01*
X77285Y63869D01*
X76731Y63315D01*
X76432Y62592D01*
Y61808D01*
X76731Y61085D01*
X77285Y60531D01*
X78008Y60232D01*
X78792D01*
X79515Y60531D01*
X80069Y61085D01*
X80369Y61808D01*
Y62592D01*
X80069Y63315D01*
X79515Y63869D01*
X78792Y64169D01*
D02*
G37*
G36*
X30392Y62094D02*
X29608D01*
X28885Y61795D01*
X28331Y61241D01*
X28032Y60518D01*
Y59734D01*
X28331Y59011D01*
X28885Y58457D01*
X29608Y58157D01*
X30392D01*
X31115Y58457D01*
X31669Y59011D01*
X31969Y59734D01*
Y60518D01*
X31669Y61241D01*
X31115Y61795D01*
X30392Y62094D01*
D02*
G37*
G36*
X20392Y62032D02*
X19608D01*
X18885Y61732D01*
X18331Y61178D01*
X18032Y60454D01*
Y59671D01*
X18331Y58948D01*
X18885Y58394D01*
X19608Y58095D01*
X20392D01*
X21115Y58394D01*
X21669Y58948D01*
X21969Y59671D01*
Y60454D01*
X21669Y61178D01*
X21115Y61732D01*
X20392Y62032D01*
D02*
G37*
G36*
X-146286Y59409D02*
X-149409D01*
Y56286D01*
X-148556Y56515D01*
X-147704Y57007D01*
X-147007Y57704D01*
X-146515Y58556D01*
X-146286Y59409D01*
D02*
G37*
G36*
X-126286Y59409D02*
X-129409D01*
Y56286D01*
X-128556Y56515D01*
X-127703Y57007D01*
X-127007Y57704D01*
X-126515Y58556D01*
X-126286Y59409D01*
D02*
G37*
G36*
X-136286D02*
X-139409D01*
Y56286D01*
X-138556Y56515D01*
X-137704Y57007D01*
X-137007Y57704D01*
X-136515Y58556D01*
X-136286Y59409D01*
D02*
G37*
G36*
X-130591D02*
X-133714D01*
X-133485Y58556D01*
X-132993Y57704D01*
X-132297Y57007D01*
X-131444Y56515D01*
X-130591Y56286D01*
Y59409D01*
D02*
G37*
G36*
X-140591D02*
X-143714D01*
X-143485Y58556D01*
X-142993Y57704D01*
X-142297Y57007D01*
X-141444Y56515D01*
X-140591Y56286D01*
Y59409D01*
D02*
G37*
G36*
X-150591Y59409D02*
X-153714D01*
X-153485Y58556D01*
X-152993Y57704D01*
X-152296Y57007D01*
X-151444Y56515D01*
X-150591Y56286D01*
Y59409D01*
D02*
G37*
G36*
X-74904Y58957D02*
X-75687D01*
X-76410Y58657D01*
X-76964Y58103D01*
X-77264Y57380D01*
Y56597D01*
X-76964Y55873D01*
X-76410Y55319D01*
X-75687Y55020D01*
X-74904D01*
X-74180Y55319D01*
X-73627Y55873D01*
X-73327Y56597D01*
Y57380D01*
X-73627Y58103D01*
X-74180Y58657D01*
X-74904Y58957D01*
D02*
G37*
G36*
X-58290Y58366D02*
X-59230D01*
X-60098Y58007D01*
X-60762Y57342D01*
X-61122Y56474D01*
Y55534D01*
X-60762Y54666D01*
X-60098Y54001D01*
X-59230Y53642D01*
X-58290D01*
X-57422Y54001D01*
X-56757Y54666D01*
X-56398Y55534D01*
Y56474D01*
X-56757Y57342D01*
X-57422Y58007D01*
X-58290Y58366D01*
D02*
G37*
G36*
X81692Y57368D02*
X80908D01*
X80185Y57069D01*
X79631Y56515D01*
X79331Y55792D01*
Y55008D01*
X79631Y54285D01*
X80185Y53731D01*
X80908Y53431D01*
X81692D01*
X82415Y53731D01*
X82969Y54285D01*
X83268Y55008D01*
Y55792D01*
X82969Y56515D01*
X82415Y57069D01*
X81692Y57368D01*
D02*
G37*
G36*
X60792Y52768D02*
X60008D01*
X59285Y52469D01*
X58731Y51915D01*
X58432Y51192D01*
Y50408D01*
X58731Y49685D01*
X59285Y49131D01*
X60008Y48831D01*
X60792D01*
X61515Y49131D01*
X62069Y49685D01*
X62369Y50408D01*
Y51192D01*
X62069Y51915D01*
X61515Y52469D01*
X60792Y52768D01*
D02*
G37*
G36*
X-119567Y54089D02*
X-120433D01*
X-121269Y53865D01*
X-122019Y53432D01*
X-122631Y52820D01*
X-123063Y52070D01*
X-123287Y51234D01*
Y50369D01*
X-123063Y49533D01*
X-122631Y48783D01*
X-122019Y48171D01*
X-121269Y47738D01*
X-120433Y47514D01*
X-119567D01*
X-118731Y47738D01*
X-117982Y48171D01*
X-117369Y48783D01*
X-116937Y49533D01*
X-116713Y50369D01*
Y51234D01*
X-116937Y52070D01*
X-117369Y52820D01*
X-117982Y53432D01*
X-118731Y53865D01*
X-119567Y54089D01*
D02*
G37*
G36*
X-129456Y54134D02*
X-130544D01*
X-131596Y53852D01*
X-132538Y53308D01*
X-133308Y52538D01*
X-133852Y51596D01*
X-134134Y50544D01*
Y49456D01*
X-133852Y48404D01*
X-133308Y47462D01*
X-132538Y46692D01*
X-131596Y46148D01*
X-130544Y45866D01*
X-129456D01*
X-128404Y46148D01*
X-127462Y46692D01*
X-126692Y47462D01*
X-126148Y48404D01*
X-125866Y49456D01*
Y50544D01*
X-126148Y51596D01*
X-126692Y52538D01*
X-127462Y53308D01*
X-128404Y53852D01*
X-129456Y54134D01*
D02*
G37*
G36*
X-139456D02*
X-140544D01*
X-141596Y53852D01*
X-142538Y53308D01*
X-143308Y52538D01*
X-143852Y51596D01*
X-144134Y50544D01*
Y49456D01*
X-143852Y48404D01*
X-143308Y47462D01*
X-142538Y46692D01*
X-141596Y46148D01*
X-140544Y45866D01*
X-139456D01*
X-138404Y46148D01*
X-137462Y46692D01*
X-136692Y47462D01*
X-136148Y48404D01*
X-135866Y49456D01*
Y50544D01*
X-136148Y51596D01*
X-136692Y52538D01*
X-137462Y53308D01*
X-138404Y53852D01*
X-139456Y54134D01*
D02*
G37*
G36*
X-149456D02*
X-150544D01*
X-151596Y53852D01*
X-152538Y53308D01*
X-153308Y52538D01*
X-153852Y51596D01*
X-154134Y50544D01*
Y49456D01*
X-153852Y48404D01*
X-153308Y47462D01*
X-152538Y46692D01*
X-151596Y46148D01*
X-150544Y45866D01*
X-149456D01*
X-148404Y46148D01*
X-147462Y46692D01*
X-146692Y47462D01*
X-146148Y48404D01*
X-145866Y49456D01*
Y50544D01*
X-146148Y51596D01*
X-146692Y52538D01*
X-147462Y53308D01*
X-148404Y53852D01*
X-149456Y54134D01*
D02*
G37*
G36*
X64592Y47069D02*
X63808D01*
X63085Y46769D01*
X62531Y46215D01*
X62231Y45492D01*
Y44708D01*
X62531Y43985D01*
X63085Y43431D01*
X63808Y43132D01*
X64592D01*
X65315Y43431D01*
X65869Y43985D01*
X66168Y44708D01*
Y45492D01*
X65869Y46215D01*
X65315Y46769D01*
X64592Y47069D01*
D02*
G37*
G36*
X70292Y44469D02*
X69508D01*
X68785Y44169D01*
X68231Y43615D01*
X67931Y42892D01*
Y42108D01*
X68231Y41385D01*
X68785Y40831D01*
X69508Y40532D01*
X70292D01*
X71015Y40831D01*
X71569Y41385D01*
X71868Y42108D01*
Y42892D01*
X71569Y43615D01*
X71015Y44169D01*
X70292Y44469D01*
D02*
G37*
G36*
X-115020Y43642D02*
X-115885D01*
X-116722Y43418D01*
X-117471Y42985D01*
X-118083Y42373D01*
X-118516Y41623D01*
X-118740Y40787D01*
Y39922D01*
X-118516Y39085D01*
X-118083Y38336D01*
X-117471Y37724D01*
X-116722Y37291D01*
X-115885Y37067D01*
X-115020D01*
X-114184Y37291D01*
X-113434Y37724D01*
X-112822Y38336D01*
X-112389Y39085D01*
X-112165Y39922D01*
Y40787D01*
X-112389Y41623D01*
X-112822Y42373D01*
X-113434Y42985D01*
X-114184Y43418D01*
X-115020Y43642D01*
D02*
G37*
G36*
X-129456Y44134D02*
X-130544D01*
X-131596Y43852D01*
X-132538Y43308D01*
X-133308Y42538D01*
X-133852Y41596D01*
X-134134Y40544D01*
Y39456D01*
X-133852Y38404D01*
X-133308Y37462D01*
X-132538Y36692D01*
X-131596Y36148D01*
X-130544Y35866D01*
X-129456D01*
X-128404Y36148D01*
X-127462Y36692D01*
X-126692Y37462D01*
X-126148Y38404D01*
X-125866Y39456D01*
Y40544D01*
X-126148Y41596D01*
X-126692Y42538D01*
X-127462Y43308D01*
X-128404Y43852D01*
X-129456Y44134D01*
D02*
G37*
G36*
X-139456D02*
X-140544D01*
X-141596Y43852D01*
X-142538Y43308D01*
X-143308Y42538D01*
X-143852Y41596D01*
X-144134Y40544D01*
Y39456D01*
X-143852Y38404D01*
X-143308Y37462D01*
X-142538Y36692D01*
X-141596Y36148D01*
X-140544Y35866D01*
X-139456D01*
X-138404Y36148D01*
X-137462Y36692D01*
X-136692Y37462D01*
X-136148Y38404D01*
X-135866Y39456D01*
Y40544D01*
X-136148Y41596D01*
X-136692Y42538D01*
X-137462Y43308D01*
X-138404Y43852D01*
X-139456Y44134D01*
D02*
G37*
G36*
X-149456D02*
X-150544D01*
X-151596Y43852D01*
X-152538Y43308D01*
X-153308Y42538D01*
X-153852Y41596D01*
X-154134Y40544D01*
Y39456D01*
X-153852Y38404D01*
X-153308Y37462D01*
X-152538Y36692D01*
X-151596Y36148D01*
X-150544Y35866D01*
X-149456D01*
X-148404Y36148D01*
X-147462Y36692D01*
X-146692Y37462D01*
X-146148Y38404D01*
X-145866Y39456D01*
Y40544D01*
X-146148Y41596D01*
X-146692Y42538D01*
X-147462Y43308D01*
X-148404Y43852D01*
X-149456Y44134D01*
D02*
G37*
G36*
X-110492Y36457D02*
X-111358D01*
X-112194Y36233D01*
X-112944Y35800D01*
X-113556Y35188D01*
X-113989Y34438D01*
X-114213Y33602D01*
Y32737D01*
X-113989Y31900D01*
X-113556Y31151D01*
X-112944Y30539D01*
X-112194Y30106D01*
X-111358Y29882D01*
X-110492D01*
X-109656Y30106D01*
X-108907Y30539D01*
X-108295Y31151D01*
X-107862Y31900D01*
X-107638Y32737D01*
Y33602D01*
X-107862Y34438D01*
X-108295Y35188D01*
X-108907Y35800D01*
X-109656Y36233D01*
X-110492Y36457D01*
D02*
G37*
G36*
X-149456Y34134D02*
X-150544D01*
X-151596Y33852D01*
X-152538Y33308D01*
X-153308Y32538D01*
X-153852Y31596D01*
X-154134Y30544D01*
Y29456D01*
X-153852Y28404D01*
X-153308Y27462D01*
X-152538Y26692D01*
X-151596Y26148D01*
X-150544Y25866D01*
X-149456D01*
X-148404Y26148D01*
X-147462Y26692D01*
X-146692Y27462D01*
X-146148Y28404D01*
X-145866Y29456D01*
Y30544D01*
X-146148Y31596D01*
X-146692Y32538D01*
X-147462Y33308D01*
X-148404Y33852D01*
X-149456Y34134D01*
D02*
G37*
G36*
X44092Y28569D02*
X43308D01*
X42585Y28269D01*
X42031Y27715D01*
X41732Y26992D01*
Y26208D01*
X42031Y25485D01*
X42585Y24931D01*
X43308Y24632D01*
X44092D01*
X44815Y24931D01*
X45369Y25485D01*
X45669Y26208D01*
Y26992D01*
X45369Y27715D01*
X44815Y28269D01*
X44092Y28569D01*
D02*
G37*
G36*
X36724Y27929D02*
X35941D01*
X35217Y27630D01*
X34664Y27076D01*
X34364Y26352D01*
Y25569D01*
X34664Y24846D01*
X35217Y24292D01*
X35941Y23992D01*
X36724D01*
X37447Y24292D01*
X38001Y24846D01*
X38301Y25569D01*
Y26352D01*
X38001Y27076D01*
X37447Y27630D01*
X36724Y27929D01*
D02*
G37*
G36*
X44471Y23803D02*
X43687D01*
X42964Y23504D01*
X42410Y22950D01*
X42111Y22227D01*
Y21443D01*
X42410Y20720D01*
X42964Y20166D01*
X43687Y19866D01*
X44471D01*
X45194Y20166D01*
X45748Y20720D01*
X46048Y21443D01*
Y22227D01*
X45748Y22950D01*
X45194Y23504D01*
X44471Y23803D01*
D02*
G37*
G36*
X39559Y23131D02*
X38776D01*
X38053Y22831D01*
X37499Y22278D01*
X37199Y21554D01*
Y20771D01*
X37499Y20048D01*
X38053Y19494D01*
X38776Y19194D01*
X39559D01*
X40283Y19494D01*
X40837Y20048D01*
X41136Y20771D01*
Y21554D01*
X40837Y22278D01*
X40283Y22831D01*
X39559Y23131D01*
D02*
G37*
G36*
X116992Y21969D02*
X116208D01*
X115485Y21669D01*
X114931Y21115D01*
X114631Y20392D01*
Y19608D01*
X114931Y18885D01*
X115485Y18331D01*
X116208Y18032D01*
X116992D01*
X117715Y18331D01*
X118269Y18885D01*
X118569Y19608D01*
Y20392D01*
X118269Y21115D01*
X117715Y21669D01*
X116992Y21969D01*
D02*
G37*
G36*
X60392Y24468D02*
X59608D01*
X58885Y24169D01*
X58331Y23615D01*
X58031Y22892D01*
Y22108D01*
X58331Y21385D01*
X58885Y20831D01*
X59608Y20531D01*
X60070D01*
X60424Y20424D01*
X60532Y20070D01*
Y19608D01*
X60831Y18885D01*
X61385Y18331D01*
X62108Y18032D01*
X62892D01*
X63615Y18331D01*
X64169Y18885D01*
X64468Y19608D01*
Y20392D01*
X64169Y21115D01*
X63615Y21669D01*
X62892Y21969D01*
X62430D01*
X62076Y22076D01*
X61968Y22430D01*
Y22892D01*
X61669Y23615D01*
X61115Y24169D01*
X60392Y24468D01*
D02*
G37*
G36*
X-95255Y23622D02*
X-96084D01*
X-96885Y23407D01*
X-97603Y22993D01*
X-98190Y22406D01*
X-98604Y21688D01*
X-98819Y20887D01*
Y20058D01*
X-98604Y19257D01*
X-98190Y18539D01*
X-97603Y17952D01*
X-96885Y17537D01*
X-96084Y17323D01*
X-95255D01*
X-94454Y17537D01*
X-93735Y17952D01*
X-93149Y18539D01*
X-92734Y19257D01*
X-92520Y20058D01*
Y20887D01*
X-92734Y21688D01*
X-93149Y22406D01*
X-93735Y22993D01*
X-94454Y23407D01*
X-95255Y23622D01*
D02*
G37*
G36*
X71792Y21169D02*
X71008D01*
X70285Y20869D01*
X69731Y20315D01*
X69432Y19592D01*
Y18808D01*
X69731Y18085D01*
X70285Y17531D01*
X71008Y17232D01*
X71792D01*
X72515Y17531D01*
X73069Y18085D01*
X73369Y18808D01*
Y19592D01*
X73069Y20315D01*
X72515Y20869D01*
X71792Y21169D01*
D02*
G37*
G36*
X158071Y16169D02*
X156496D01*
Y14370D01*
X159476D01*
Y14764D01*
X159369Y15301D01*
X159064Y15757D01*
X158608Y16062D01*
X158071Y16169D01*
D02*
G37*
G36*
X155315D02*
X153740D01*
X153202Y16062D01*
X152747Y15757D01*
X152442Y15301D01*
X152335Y14764D01*
Y14370D01*
X155315D01*
Y16169D01*
D02*
G37*
G36*
X53192Y21668D02*
X52408D01*
X51685Y21369D01*
X51131Y20815D01*
X50832Y20092D01*
Y19308D01*
X51082Y18704D01*
X50922Y18427D01*
X50866Y18356D01*
X50763Y18267D01*
X50047D01*
X49323Y17968D01*
X48770Y17414D01*
X48470Y16691D01*
Y15907D01*
X48770Y15184D01*
X49323Y14630D01*
X50047Y14330D01*
X50830D01*
X51553Y14630D01*
X52107Y15184D01*
X52407Y15907D01*
Y16691D01*
X52157Y17295D01*
X52317Y17572D01*
X52372Y17642D01*
X52476Y17731D01*
X53192D01*
X53915Y18031D01*
X54469Y18585D01*
X54769Y19308D01*
Y20092D01*
X54469Y20815D01*
X53915Y21369D01*
X53192Y21668D01*
D02*
G37*
G36*
X-58270Y15354D02*
X-59053D01*
X-59777Y15055D01*
X-60330Y14501D01*
X-60630Y13777D01*
Y12994D01*
X-60330Y12271D01*
X-59777Y11717D01*
X-59053Y11417D01*
X-58270D01*
X-57546Y11717D01*
X-56993Y12271D01*
X-56693Y12994D01*
Y13777D01*
X-56993Y14501D01*
X-57546Y15055D01*
X-58270Y15354D01*
D02*
G37*
G36*
X159476Y13189D02*
X156496D01*
Y11390D01*
X158071D01*
X158608Y11497D01*
X159064Y11802D01*
X159369Y12258D01*
X159476Y12795D01*
Y13189D01*
D02*
G37*
G36*
X155315D02*
X152335D01*
Y12795D01*
X152442Y12258D01*
X152747Y11802D01*
X153202Y11497D01*
X153740Y11390D01*
X155315D01*
Y13189D01*
D02*
G37*
G36*
X145866Y13047D02*
Y10433D01*
X148480D01*
X148302Y11096D01*
X147875Y11837D01*
X147270Y12442D01*
X146529Y12869D01*
X145866Y13047D01*
D02*
G37*
G36*
X144685Y13047D02*
X144022Y12869D01*
X143281Y12442D01*
X142676Y11837D01*
X142249Y11096D01*
X142071Y10433D01*
X144685D01*
Y13047D01*
D02*
G37*
G36*
X148480Y9252D02*
X145866D01*
Y6638D01*
X146529Y6816D01*
X147270Y7243D01*
X147875Y7848D01*
X148302Y8589D01*
X148480Y9252D01*
D02*
G37*
G36*
X144685D02*
X142071D01*
X142249Y8589D01*
X142676Y7848D01*
X143281Y7243D01*
X144022Y6816D01*
X144685Y6638D01*
Y9252D01*
D02*
G37*
G36*
X72609Y4151D02*
X71826D01*
X71103Y3851D01*
X70549Y3297D01*
X70249Y2574D01*
Y1791D01*
X70549Y1067D01*
X71103Y513D01*
X71826Y214D01*
X72609D01*
X73333Y513D01*
X73887Y1067D01*
X74186Y1791D01*
Y2574D01*
X73887Y3297D01*
X73333Y3851D01*
X72609Y4151D01*
D02*
G37*
G36*
X-73014Y2539D02*
X-73797D01*
X-74520Y2240D01*
X-75074Y1686D01*
X-75374Y962D01*
Y179D01*
X-75074Y-544D01*
X-74520Y-1098D01*
X-73797Y-1398D01*
X-73014D01*
X-72290Y-1098D01*
X-71737Y-544D01*
X-71437Y179D01*
Y962D01*
X-71737Y1686D01*
X-72290Y2240D01*
X-73014Y2539D01*
D02*
G37*
G36*
X-159456Y4134D02*
X-160544D01*
X-161596Y3852D01*
X-162538Y3308D01*
X-163308Y2538D01*
X-163852Y1596D01*
X-164134Y544D01*
Y-544D01*
X-163852Y-1596D01*
X-163308Y-2538D01*
X-162538Y-3308D01*
X-161596Y-3852D01*
X-160544Y-4134D01*
X-159456D01*
X-158404Y-3852D01*
X-157462Y-3308D01*
X-156692Y-2538D01*
X-156148Y-1596D01*
X-155866Y-544D01*
Y544D01*
X-156148Y1596D01*
X-156692Y2538D01*
X-157462Y3308D01*
X-158404Y3852D01*
X-159456Y4134D01*
D02*
G37*
G36*
X43253Y-1395D02*
X42470D01*
X41746Y-1695D01*
X41192Y-2249D01*
X40893Y-2972D01*
Y-3755D01*
X41192Y-4479D01*
X41746Y-5033D01*
X42470Y-5332D01*
X43253D01*
X43976Y-5033D01*
X44530Y-4479D01*
X44830Y-3755D01*
Y-2972D01*
X44530Y-2249D01*
X43976Y-1695D01*
X43253Y-1395D01*
D02*
G37*
G36*
X60092Y-4732D02*
X59308D01*
X58585Y-5031D01*
X58031Y-5585D01*
X57731Y-6308D01*
Y-7092D01*
X58031Y-7815D01*
X58585Y-8369D01*
X59308Y-8669D01*
X60092D01*
X60815Y-8369D01*
X61369Y-7815D01*
X61668Y-7092D01*
Y-6308D01*
X61369Y-5585D01*
X60815Y-5031D01*
X60092Y-4732D01*
D02*
G37*
G36*
X145866Y-6638D02*
Y-9252D01*
X148480D01*
X148302Y-8589D01*
X147875Y-7848D01*
X147270Y-7243D01*
X146529Y-6816D01*
X145866Y-6638D01*
D02*
G37*
G36*
X144685Y-6638D02*
X144022Y-6816D01*
X143281Y-7243D01*
X142676Y-7848D01*
X142249Y-8589D01*
X142071Y-9252D01*
X144685D01*
Y-6638D01*
D02*
G37*
G36*
X135433Y-4713D02*
X134567D01*
X133731Y-4937D01*
X132982Y-5369D01*
X132369Y-5982D01*
X131937Y-6731D01*
X131713Y-7567D01*
Y-8433D01*
X131937Y-9269D01*
X132369Y-10018D01*
X132982Y-10631D01*
X133731Y-11063D01*
X134567Y-11287D01*
X135433D01*
X136269Y-11063D01*
X137019Y-10631D01*
X137631Y-10018D01*
X138063Y-9269D01*
X138287Y-8433D01*
Y-7567D01*
X138063Y-6731D01*
X137631Y-5982D01*
X137019Y-5369D01*
X136269Y-4937D01*
X135433Y-4713D01*
D02*
G37*
G36*
X148480Y-10433D02*
X145866D01*
Y-13047D01*
X146529Y-12869D01*
X147270Y-12442D01*
X147875Y-11837D01*
X148302Y-11096D01*
X148480Y-10433D01*
D02*
G37*
G36*
X144685D02*
X142071D01*
X142249Y-11096D01*
X142676Y-11837D01*
X143281Y-12442D01*
X144022Y-12869D01*
X144685Y-13047D01*
Y-10433D01*
D02*
G37*
G36*
X157874Y-10993D02*
X156496D01*
Y-13189D01*
X159480D01*
Y-12598D01*
X159357Y-11984D01*
X159009Y-11463D01*
X158489Y-11115D01*
X157874Y-10993D01*
D02*
G37*
G36*
X155315D02*
X153937D01*
X153323Y-11115D01*
X152802Y-11463D01*
X152454Y-11984D01*
X152331Y-12598D01*
Y-13189D01*
X155315D01*
Y-10993D01*
D02*
G37*
G36*
X-159456Y-5866D02*
X-160544D01*
X-161596Y-6148D01*
X-162538Y-6692D01*
X-163308Y-7462D01*
X-163852Y-8404D01*
X-164134Y-9456D01*
Y-10544D01*
X-163852Y-11596D01*
X-163308Y-12538D01*
X-162538Y-13308D01*
X-161596Y-13852D01*
X-160544Y-14134D01*
X-159456D01*
X-158404Y-13852D01*
X-157462Y-13308D01*
X-156692Y-12538D01*
X-156148Y-11596D01*
X-155866Y-10544D01*
Y-9456D01*
X-156148Y-8404D01*
X-156692Y-7462D01*
X-157462Y-6692D01*
X-158404Y-6148D01*
X-159456Y-5866D01*
D02*
G37*
G36*
X30091Y-320D02*
X29308D01*
X28585Y-620D01*
X28031Y-1173D01*
X27731Y-1897D01*
Y-2680D01*
X28031Y-3404D01*
X28529Y-3901D01*
X28108Y-4322D01*
X27808Y-5046D01*
Y-5829D01*
X28108Y-6552D01*
X28275Y-6719D01*
X28187Y-7161D01*
X27633Y-7715D01*
X27334Y-8438D01*
Y-9221D01*
X27633Y-9945D01*
X27990Y-10302D01*
X27948Y-10517D01*
X27394Y-11071D01*
X27094Y-11795D01*
Y-12578D01*
X27394Y-13301D01*
X27948Y-13855D01*
X28671Y-14155D01*
X29454D01*
X29944Y-14493D01*
X30111Y-14895D01*
X30664Y-15448D01*
X31388Y-15748D01*
X32171D01*
X32895Y-15448D01*
X33448Y-14895D01*
X33748Y-14171D01*
Y-13388D01*
X33448Y-12664D01*
X32895Y-12111D01*
X32171Y-11811D01*
X31388D01*
X30898Y-11473D01*
X30731Y-11071D01*
X30374Y-10714D01*
X30417Y-10498D01*
X30971Y-9945D01*
X31271Y-9221D01*
Y-8438D01*
X30971Y-7715D01*
X30804Y-7548D01*
X30892Y-7106D01*
X31446Y-6552D01*
X31745Y-5829D01*
Y-5046D01*
X31446Y-4322D01*
X30948Y-3824D01*
X31368Y-3404D01*
X31668Y-2680D01*
Y-1897D01*
X31368Y-1173D01*
X30815Y-620D01*
X30091Y-320D01*
D02*
G37*
G36*
X159480Y-14370D02*
X156496D01*
Y-16566D01*
X157874D01*
X158489Y-16444D01*
X159009Y-16096D01*
X159357Y-15575D01*
X159480Y-14961D01*
Y-14370D01*
D02*
G37*
G36*
X155315D02*
X152331D01*
Y-14961D01*
X152454Y-15575D01*
X152802Y-16096D01*
X153323Y-16444D01*
X153937Y-16566D01*
X155315D01*
Y-14370D01*
D02*
G37*
G36*
X-159456Y-15866D02*
X-160544D01*
X-161596Y-16148D01*
X-162538Y-16692D01*
X-163308Y-17462D01*
X-163852Y-18404D01*
X-164134Y-19456D01*
Y-20544D01*
X-163852Y-21596D01*
X-163308Y-22538D01*
X-162538Y-23308D01*
X-161596Y-23852D01*
X-160544Y-24134D01*
X-159456D01*
X-158404Y-23852D01*
X-157462Y-23308D01*
X-156692Y-22538D01*
X-156148Y-21596D01*
X-155866Y-20544D01*
Y-19456D01*
X-156148Y-18404D01*
X-156692Y-17462D01*
X-157462Y-16692D01*
X-158404Y-16148D01*
X-159456Y-15866D01*
D02*
G37*
G36*
X21750Y-21850D02*
X20967D01*
X20243Y-22150D01*
X19689Y-22704D01*
X19390Y-23427D01*
Y-24211D01*
X19689Y-24934D01*
X20243Y-25488D01*
X20967Y-25787D01*
X21750D01*
X22473Y-25488D01*
X23027Y-24934D01*
X23327Y-24211D01*
Y-23427D01*
X23027Y-22704D01*
X22473Y-22150D01*
X21750Y-21850D01*
D02*
G37*
G36*
X72992Y-22731D02*
X72208D01*
X71485Y-23031D01*
X70931Y-23585D01*
X70631Y-24308D01*
Y-25092D01*
X70931Y-25815D01*
X71485Y-26369D01*
X72208Y-26669D01*
X72992D01*
X73715Y-26369D01*
X74269Y-25815D01*
X74568Y-25092D01*
Y-24308D01*
X74269Y-23585D01*
X73715Y-23031D01*
X72992Y-22731D01*
D02*
G37*
G36*
X49992Y-22831D02*
X49208D01*
X48485Y-23131D01*
X47931Y-23685D01*
X47631Y-24408D01*
Y-25192D01*
X47931Y-25915D01*
X48485Y-26469D01*
X49208Y-26768D01*
X49992D01*
X50715Y-26469D01*
X51269Y-25915D01*
X51569Y-25192D01*
Y-24408D01*
X51269Y-23685D01*
X50715Y-23131D01*
X49992Y-22831D01*
D02*
G37*
G36*
X58266Y-22835D02*
X57482D01*
X56759Y-23134D01*
X56205Y-23688D01*
X55905Y-24412D01*
Y-25195D01*
X56205Y-25918D01*
X56759Y-26472D01*
X57482Y-26772D01*
X58266D01*
X58989Y-26472D01*
X59543Y-25918D01*
X59842Y-25195D01*
Y-24412D01*
X59543Y-23688D01*
X58989Y-23134D01*
X58266Y-22835D01*
D02*
G37*
G36*
X-159409Y-26286D02*
Y-29409D01*
X-156286D01*
X-156515Y-28556D01*
X-157007Y-27703D01*
X-157703Y-27007D01*
X-158556Y-26515D01*
X-159409Y-26286D01*
D02*
G37*
G36*
X-160591Y-26286D02*
X-161444Y-26515D01*
X-162296Y-27007D01*
X-162993Y-27703D01*
X-163485Y-28556D01*
X-163714Y-29409D01*
X-160591D01*
Y-26286D01*
D02*
G37*
G36*
X-53608Y-24032D02*
X-54392D01*
X-55115Y-24331D01*
X-55669Y-24885D01*
X-55968Y-25608D01*
Y-26392D01*
X-55669Y-27115D01*
X-55115Y-27669D01*
X-54392Y-27968D01*
X-53608D01*
X-53169Y-27787D01*
X-52787Y-28169D01*
X-52969Y-28608D01*
Y-29392D01*
X-52669Y-30115D01*
X-52115Y-30669D01*
X-51392Y-30968D01*
X-50608D01*
X-49885Y-30669D01*
X-49331Y-30115D01*
X-49031Y-29392D01*
Y-28608D01*
X-49331Y-27885D01*
X-49885Y-27331D01*
X-50608Y-27031D01*
X-51392D01*
X-51831Y-27213D01*
X-52213Y-26831D01*
X-52031Y-26392D01*
Y-25608D01*
X-52331Y-24885D01*
X-52885Y-24331D01*
X-53608Y-24032D01*
D02*
G37*
G36*
X-60608D02*
X-61392D01*
X-62115Y-24331D01*
X-62669Y-24885D01*
X-62968Y-25608D01*
Y-26392D01*
X-62669Y-27115D01*
X-62115Y-27669D01*
X-61392Y-27968D01*
X-60608D01*
X-60169Y-27787D01*
X-59787Y-28169D01*
X-59969Y-28608D01*
Y-29392D01*
X-59669Y-30115D01*
X-59115Y-30669D01*
X-58392Y-30968D01*
X-57608D01*
X-56885Y-30669D01*
X-56331Y-30115D01*
X-56032Y-29392D01*
Y-28608D01*
X-56331Y-27885D01*
X-56885Y-27331D01*
X-57608Y-27031D01*
X-58392D01*
X-58831Y-27213D01*
X-59213Y-26831D01*
X-59031Y-26392D01*
Y-25608D01*
X-59331Y-24885D01*
X-59885Y-24331D01*
X-60608Y-24032D01*
D02*
G37*
G36*
X-156286Y-30591D02*
X-159409D01*
Y-33714D01*
X-158556Y-33485D01*
X-157703Y-32993D01*
X-157007Y-32296D01*
X-156515Y-31444D01*
X-156286Y-30591D01*
D02*
G37*
G36*
X-160591D02*
X-163714D01*
X-163485Y-31444D01*
X-162993Y-32296D01*
X-162296Y-32993D01*
X-161444Y-33485D01*
X-160591Y-33714D01*
Y-30591D01*
D02*
G37*
G36*
X29132Y-34744D02*
X28349D01*
X27625Y-35044D01*
X27071Y-35598D01*
X26772Y-36321D01*
Y-37104D01*
X27071Y-37828D01*
X27625Y-38381D01*
X28349Y-38681D01*
X29132D01*
X29855Y-38381D01*
X30409Y-37828D01*
X30709Y-37104D01*
Y-36321D01*
X30409Y-35598D01*
X29855Y-35044D01*
X29132Y-34744D01*
D02*
G37*
G36*
X-159456Y-35866D02*
X-160544D01*
X-161596Y-36148D01*
X-162538Y-36692D01*
X-163308Y-37462D01*
X-163852Y-38404D01*
X-164134Y-39456D01*
Y-40544D01*
X-163852Y-41596D01*
X-163308Y-42538D01*
X-162538Y-43308D01*
X-161596Y-43852D01*
X-160544Y-44134D01*
X-159456D01*
X-158404Y-43852D01*
X-157462Y-43308D01*
X-156692Y-42538D01*
X-156148Y-41596D01*
X-155866Y-40544D01*
Y-39456D01*
X-156148Y-38404D01*
X-156692Y-37462D01*
X-157462Y-36692D01*
X-158404Y-36148D01*
X-159456Y-35866D01*
D02*
G37*
G36*
Y-45866D02*
X-160544D01*
X-161596Y-46148D01*
X-162538Y-46692D01*
X-163308Y-47462D01*
X-163852Y-48404D01*
X-164134Y-49456D01*
Y-50544D01*
X-163852Y-51596D01*
X-163308Y-52538D01*
X-162538Y-53308D01*
X-161596Y-53852D01*
X-160544Y-54134D01*
X-159456D01*
X-158404Y-53852D01*
X-157462Y-53308D01*
X-156692Y-52538D01*
X-156148Y-51596D01*
X-155866Y-50544D01*
Y-49456D01*
X-156148Y-48404D01*
X-156692Y-47462D01*
X-157462Y-46692D01*
X-158404Y-46148D01*
X-159456Y-45866D01*
D02*
G37*
G36*
X46502Y-50547D02*
X34298D01*
X33630Y-50635D01*
X33007Y-50893D01*
X32473Y-51303D01*
X32062Y-51838D01*
X31804Y-52460D01*
X31716Y-53128D01*
Y-56672D01*
X31804Y-57340D01*
X32062Y-57962D01*
X32473Y-58497D01*
X33007Y-58907D01*
X33630Y-59165D01*
X34298Y-59253D01*
X46502D01*
X47170Y-59165D01*
X47793Y-58907D01*
X48327Y-58497D01*
X48738Y-57962D01*
X48996Y-57340D01*
X49084Y-56672D01*
Y-53128D01*
X48996Y-52460D01*
X48738Y-51838D01*
X48327Y-51303D01*
X47793Y-50893D01*
X47170Y-50635D01*
X46502Y-50547D01*
D02*
G37*
G36*
X125433Y-56713D02*
X124567D01*
X123731Y-56937D01*
X122982Y-57369D01*
X122369Y-57981D01*
X121937Y-58731D01*
X121713Y-59567D01*
Y-60433D01*
X121937Y-61269D01*
X122369Y-62019D01*
X122982Y-62631D01*
X123731Y-63063D01*
X124567Y-63287D01*
X125433D01*
X126269Y-63063D01*
X127018Y-62631D01*
X127631Y-62019D01*
X128063Y-61269D01*
X128287Y-60433D01*
Y-59567D01*
X128063Y-58731D01*
X127631Y-57981D01*
X127018Y-57369D01*
X126269Y-56937D01*
X125433Y-56713D01*
D02*
G37*
G36*
X-159456Y-55866D02*
X-160544D01*
X-161596Y-56148D01*
X-162538Y-56692D01*
X-163308Y-57462D01*
X-163852Y-58404D01*
X-164134Y-59456D01*
Y-60544D01*
X-163852Y-61596D01*
X-163308Y-62538D01*
X-162538Y-63308D01*
X-161596Y-63852D01*
X-160544Y-64134D01*
X-159456D01*
X-158404Y-63852D01*
X-157462Y-63308D01*
X-156692Y-62538D01*
X-156148Y-61596D01*
X-155866Y-60544D01*
Y-59456D01*
X-156148Y-58404D01*
X-156692Y-57462D01*
X-157462Y-56692D01*
X-158404Y-56148D01*
X-159456Y-55866D01*
D02*
G37*
G36*
X157433Y-57813D02*
X156567D01*
X155731Y-58037D01*
X154982Y-58469D01*
X154369Y-59082D01*
X153937Y-59831D01*
X153713Y-60667D01*
Y-61533D01*
X153937Y-62369D01*
X154369Y-63118D01*
X154982Y-63731D01*
X155731Y-64163D01*
X156567Y-64387D01*
X157433D01*
X158269Y-64163D01*
X159019Y-63731D01*
X159631Y-63118D01*
X160063Y-62369D01*
X160287Y-61533D01*
Y-60667D01*
X160063Y-59831D01*
X159631Y-59082D01*
X159019Y-58469D01*
X158269Y-58037D01*
X157433Y-57813D01*
D02*
G37*
G36*
X139533Y-58113D02*
X138667D01*
X137831Y-58337D01*
X137082Y-58769D01*
X136469Y-59382D01*
X136037Y-60131D01*
X135813Y-60967D01*
Y-61833D01*
X136037Y-62669D01*
X136469Y-63419D01*
X137082Y-64031D01*
X137831Y-64463D01*
X138667Y-64687D01*
X139533D01*
X140369Y-64463D01*
X141119Y-64031D01*
X141731Y-63419D01*
X142163Y-62669D01*
X142387Y-61833D01*
Y-60967D01*
X142163Y-60131D01*
X141731Y-59382D01*
X141119Y-58769D01*
X140369Y-58337D01*
X139533Y-58113D01*
D02*
G37*
G36*
X533Y-58313D02*
X-333D01*
X-1169Y-58537D01*
X-1918Y-58969D01*
X-2531Y-59582D01*
X-2963Y-60331D01*
X-3187Y-61167D01*
Y-62033D01*
X-2963Y-62869D01*
X-2531Y-63618D01*
X-1918Y-64231D01*
X-1169Y-64663D01*
X-333Y-64887D01*
X533D01*
X1369Y-64663D01*
X2118Y-64231D01*
X2731Y-63618D01*
X3163Y-62869D01*
X3387Y-62033D01*
Y-61167D01*
X3163Y-60331D01*
X2731Y-59582D01*
X2118Y-58969D01*
X1369Y-58537D01*
X533Y-58313D01*
D02*
G37*
G36*
X-16341Y-62008D02*
X-17124D01*
X-17847Y-62308D01*
X-18401Y-62861D01*
X-18701Y-63585D01*
Y-64368D01*
X-18401Y-65091D01*
X-17847Y-65645D01*
X-17124Y-65945D01*
X-16341D01*
X-15617Y-65645D01*
X-15064Y-65091D01*
X-14764Y-64368D01*
Y-63585D01*
X-15064Y-62861D01*
X-15617Y-62308D01*
X-16341Y-62008D01*
D02*
G37*
G36*
X61069Y-58401D02*
X59888D01*
Y-66120D01*
X63277D01*
Y-60609D01*
X63109Y-59764D01*
X62630Y-59048D01*
X61914Y-58569D01*
X61069Y-58401D01*
D02*
G37*
G36*
X58707D02*
X57526D01*
X56681Y-58569D01*
X55965Y-59048D01*
X55486Y-59764D01*
X55318Y-60609D01*
Y-66120D01*
X58707D01*
Y-58401D01*
D02*
G37*
G36*
X-159456Y-65866D02*
X-160544D01*
X-161596Y-66148D01*
X-162538Y-66692D01*
X-163308Y-67462D01*
X-163852Y-68404D01*
X-164134Y-69456D01*
Y-70544D01*
X-163852Y-71596D01*
X-163308Y-72538D01*
X-162538Y-73308D01*
X-161596Y-73852D01*
X-160544Y-74134D01*
X-159456D01*
X-158404Y-73852D01*
X-157462Y-73308D01*
X-156692Y-72538D01*
X-156148Y-71596D01*
X-155866Y-70544D01*
Y-69456D01*
X-156148Y-68404D01*
X-156692Y-67462D01*
X-157462Y-66692D01*
X-158404Y-66148D01*
X-159456Y-65866D01*
D02*
G37*
G36*
X63277Y-67302D02*
X59888D01*
Y-75021D01*
X61069D01*
X61914Y-74853D01*
X62630Y-74375D01*
X63109Y-73658D01*
X63277Y-72813D01*
Y-67302D01*
D02*
G37*
G36*
X58707D02*
X55318D01*
Y-72813D01*
X55486Y-73658D01*
X55965Y-74375D01*
X56681Y-74853D01*
X57526Y-75021D01*
X58707D01*
Y-67302D01*
D02*
G37*
G36*
X46502Y-73755D02*
X40991D01*
Y-77144D01*
X48710D01*
Y-75963D01*
X48542Y-75118D01*
X48063Y-74402D01*
X47347Y-73923D01*
X46502Y-73755D01*
D02*
G37*
G36*
X39810D02*
X34298D01*
X33453Y-73923D01*
X32737Y-74402D01*
X32258Y-75118D01*
X32090Y-75963D01*
Y-77144D01*
X39810D01*
Y-73755D01*
D02*
G37*
G36*
X48710Y-78325D02*
X40991D01*
Y-81714D01*
X46502D01*
X47347Y-81546D01*
X48063Y-81067D01*
X48542Y-80351D01*
X48710Y-79506D01*
Y-78325D01*
D02*
G37*
G36*
X39810D02*
X32090D01*
Y-79506D01*
X32258Y-80351D01*
X32737Y-81067D01*
X33453Y-81546D01*
X34298Y-81714D01*
X39810D01*
Y-78325D01*
D02*
G37*
G36*
X-78741Y-81861D02*
X-78843D01*
Y-88310D01*
X-72395D01*
Y-88207D01*
X-72665Y-86847D01*
X-73196Y-85566D01*
X-73966Y-84413D01*
X-74946Y-83432D01*
X-76099Y-82662D01*
X-77381Y-82131D01*
X-78741Y-81861D01*
D02*
G37*
G36*
X-80024D02*
X-80127D01*
X-81487Y-82131D01*
X-82768Y-82662D01*
X-83921Y-83432D01*
X-84902Y-84413D01*
X-85672Y-85566D01*
X-86203Y-86847D01*
X-86473Y-88207D01*
Y-88310D01*
X-80024D01*
Y-81861D01*
D02*
G37*
G36*
X-130473D02*
X-130576D01*
Y-88310D01*
X-124127D01*
Y-88207D01*
X-124397Y-86847D01*
X-124928Y-85566D01*
X-125698Y-84413D01*
X-126679Y-83432D01*
X-127832Y-82662D01*
X-129113Y-82131D01*
X-130473Y-81861D01*
D02*
G37*
G36*
X-131757D02*
X-131860D01*
X-133220Y-82131D01*
X-134501Y-82662D01*
X-135653Y-83432D01*
X-136634Y-84413D01*
X-137404Y-85566D01*
X-137935Y-86847D01*
X-138206Y-88207D01*
Y-88310D01*
X-131757D01*
Y-81861D01*
D02*
G37*
G36*
X-26183Y-85630D02*
X-26966D01*
X-27690Y-85930D01*
X-28244Y-86483D01*
X-28543Y-87207D01*
Y-87990D01*
X-28244Y-88714D01*
X-27690Y-89267D01*
X-26966Y-89567D01*
X-26183D01*
X-25460Y-89267D01*
X-24906Y-88714D01*
X-24606Y-87990D01*
Y-87207D01*
X-24906Y-86483D01*
X-25460Y-85930D01*
X-26183Y-85630D01*
D02*
G37*
G36*
X-72395Y-89490D02*
X-78843D01*
Y-95939D01*
X-78741D01*
X-77381Y-95669D01*
X-76099Y-95138D01*
X-74946Y-94368D01*
X-73966Y-93387D01*
X-73196Y-92234D01*
X-72665Y-90953D01*
X-72395Y-89593D01*
Y-89490D01*
D02*
G37*
G36*
X-80024D02*
X-86473D01*
Y-89593D01*
X-86203Y-90953D01*
X-85672Y-92234D01*
X-84902Y-93387D01*
X-83921Y-94368D01*
X-82768Y-95138D01*
X-81487Y-95669D01*
X-80127Y-95939D01*
X-80024D01*
Y-89490D01*
D02*
G37*
G36*
X-124127D02*
X-130576D01*
Y-95939D01*
X-130473D01*
X-129113Y-95669D01*
X-127832Y-95138D01*
X-126679Y-94368D01*
X-125698Y-93387D01*
X-124928Y-92234D01*
X-124397Y-90953D01*
X-124127Y-89593D01*
Y-89490D01*
D02*
G37*
G36*
X-131757D02*
X-138206D01*
Y-89593D01*
X-137935Y-90953D01*
X-137404Y-92234D01*
X-136634Y-93387D01*
X-135653Y-94368D01*
X-134501Y-95138D01*
X-133220Y-95669D01*
X-131860Y-95939D01*
X-131757D01*
Y-89490D01*
D02*
G37*
%LPD*%
D64*
X-88189Y98425D02*
D03*
X-16929D02*
D03*
D65*
X-160000Y-30000D02*
D03*
X-130000Y60000D02*
D03*
X-140000D02*
D03*
X-150000D02*
D03*
X50000Y100000D02*
D03*
D89*
X-131166Y-88900D02*
D03*
X-79434D02*
D03*
D90*
X155905Y-13780D02*
D03*
D91*
Y13780D02*
D03*
D92*
X59298Y-66711D02*
D03*
D93*
X40400Y-77735D02*
D03*
D94*
X145276Y9843D02*
D03*
Y-9843D02*
D03*
D95*
X29300Y6900D02*
D03*
X-11250Y-11261D02*
D03*
X2150D02*
D03*
X15750Y-5732D02*
D03*
X15450Y-2561D02*
D03*
X-63169Y-8484D02*
D03*
X46500Y-1002D02*
D03*
Y-5726D02*
D03*
X85835Y49500D02*
D03*
X130700Y82500D02*
D03*
X140700Y5100D02*
D03*
X155900Y18400D02*
D03*
X161800Y-3800D02*
D03*
X161700Y3700D02*
D03*
X155900Y-18100D02*
D03*
X67300Y-33900D02*
D03*
X-66535Y55905D02*
D03*
X88800Y-11512D02*
D03*
X112308Y10798D02*
D03*
X86700Y3400D02*
D03*
Y8600D02*
D03*
X130709Y-41732D02*
D03*
X55900Y64200D02*
D03*
X56000Y51100D02*
D03*
X63800Y51200D02*
D03*
X-88681Y-3543D02*
D03*
X-85138Y-1181D02*
D03*
X22089Y14778D02*
D03*
X-63829Y55856D02*
D03*
X-79134Y56693D02*
D03*
X-81595D02*
D03*
X9750Y15839D02*
D03*
X-68898Y-8268D02*
D03*
X-74016Y12598D02*
D03*
X87795Y-22835D02*
D03*
X88100Y-17700D02*
D03*
X68900Y67100D02*
D03*
X69200Y60800D02*
D03*
X47500Y38600D02*
D03*
X72900Y23000D02*
D03*
X96636Y50364D02*
D03*
X55800Y-5726D02*
D03*
Y3723D02*
D03*
Y-1002D02*
D03*
X51175Y3723D02*
D03*
X46500D02*
D03*
X51175Y-5726D02*
D03*
Y-1002D02*
D03*
X61500Y-33900D02*
D03*
X45100Y-34600D02*
D03*
X-9250Y14439D02*
D03*
X87700Y83400D02*
D03*
X-16200Y-74200D02*
D03*
X-19300D02*
D03*
X-19291Y-77362D02*
D03*
X-16142D02*
D03*
D96*
X-65748Y-54331D02*
D03*
X-84000Y-70500D02*
D03*
X79300Y-76287D02*
D03*
X5906Y-101181D02*
D03*
X18110Y-96457D02*
D03*
X102613Y-102513D02*
D03*
X-70079Y-76772D02*
D03*
X125700Y-94100D02*
D03*
X-6299Y-103150D02*
D03*
X-42913Y-105118D02*
D03*
X18504Y-79528D02*
D03*
X133000Y-56300D02*
D03*
X116400Y-56500D02*
D03*
X12598Y-55512D02*
D03*
X-1575Y-54724D02*
D03*
X-16929D02*
D03*
X-32283Y-55512D02*
D03*
X16800Y-68500D02*
D03*
X146300Y-105100D02*
D03*
X162300Y-56000D02*
D03*
X99900Y-56200D02*
D03*
X80700D02*
D03*
X-62205Y-102756D02*
D03*
M02*
