G04*
G04 #@! TF.GenerationSoftware,Altium Limited,Altium Designer,22.11.1 (43)*
G04*
G04 Layer_Color=255*
%FSLAX25Y25*%
%MOIN*%
G70*
G04*
G04 #@! TF.SameCoordinates,C353F027-9E8A-41FA-9674-E24DC2C26849*
G04*
G04*
G04 #@! TF.FilePolarity,Positive*
G04*
G01*
G75*
G04:AMPARAMS|DCode=19|XSize=63.39mil|YSize=22.84mil|CornerRadius=2.85mil|HoleSize=0mil|Usage=FLASHONLY|Rotation=270.000|XOffset=0mil|YOffset=0mil|HoleType=Round|Shape=RoundedRectangle|*
%AMROUNDEDRECTD19*
21,1,0.06339,0.01713,0,0,270.0*
21,1,0.05768,0.02284,0,0,270.0*
1,1,0.00571,-0.00856,-0.02884*
1,1,0.00571,-0.00856,0.02884*
1,1,0.00571,0.00856,0.02884*
1,1,0.00571,0.00856,-0.02884*
%
%ADD19ROUNDEDRECTD19*%
%ADD20R,0.01200X0.02100*%
%ADD21R,0.02100X0.01200*%
%ADD22R,0.04409X0.11339*%
%ADD23R,0.05512X0.05906*%
%ADD24R,0.05906X0.05512*%
G04:AMPARAMS|DCode=25|XSize=76.91mil|YSize=17.01mil|CornerRadius=8.51mil|HoleSize=0mil|Usage=FLASHONLY|Rotation=270.000|XOffset=0mil|YOffset=0mil|HoleType=Round|Shape=RoundedRectangle|*
%AMROUNDEDRECTD25*
21,1,0.07691,0.00000,0,0,270.0*
21,1,0.05990,0.01701,0,0,270.0*
1,1,0.01701,0.00000,-0.02995*
1,1,0.01701,0.00000,0.02995*
1,1,0.01701,0.00000,0.02995*
1,1,0.01701,0.00000,-0.02995*
%
%ADD25ROUNDEDRECTD25*%
%ADD26R,0.01701X0.07691*%
%ADD27R,0.03740X0.03740*%
%ADD28R,0.03740X0.03740*%
%ADD29R,0.02756X0.03543*%
%ADD30R,0.00787X0.03445*%
%ADD31R,0.03445X0.00787*%
%ADD32R,0.04134X0.05118*%
%ADD33R,0.05315X0.01575*%
%ADD34R,0.07480X0.05906*%
G04:AMPARAMS|DCode=35|XSize=51.58mil|YSize=127.56mil|CornerRadius=3.87mil|HoleSize=0mil|Usage=FLASHONLY|Rotation=270.000|XOffset=0mil|YOffset=0mil|HoleType=Round|Shape=RoundedRectangle|*
%AMROUNDEDRECTD35*
21,1,0.05158,0.11982,0,0,270.0*
21,1,0.04384,0.12756,0,0,270.0*
1,1,0.00774,-0.05991,-0.02192*
1,1,0.00774,-0.05991,0.02192*
1,1,0.00774,0.05991,0.02192*
1,1,0.00774,0.05991,-0.02192*
%
%ADD35ROUNDEDRECTD35*%
G04:AMPARAMS|DCode=36|XSize=51.58mil|YSize=36.61mil|CornerRadius=2.75mil|HoleSize=0mil|Usage=FLASHONLY|Rotation=270.000|XOffset=0mil|YOffset=0mil|HoleType=Round|Shape=RoundedRectangle|*
%AMROUNDEDRECTD36*
21,1,0.05158,0.03112,0,0,270.0*
21,1,0.04608,0.03661,0,0,270.0*
1,1,0.00549,-0.01556,-0.02304*
1,1,0.00549,-0.01556,0.02304*
1,1,0.00549,0.01556,0.02304*
1,1,0.00549,0.01556,-0.02304*
%
%ADD36ROUNDEDRECTD36*%
%ADD37R,0.09252X0.12598*%
%ADD38R,0.05900X0.05900*%
%ADD39R,0.01000X0.03600*%
%ADD40R,0.03600X0.01000*%
%ADD41R,0.05118X0.04331*%
%ADD42R,0.03150X0.06693*%
%ADD43R,0.03543X0.02756*%
G04:AMPARAMS|DCode=53|XSize=125.98mil|YSize=125.98mil|CornerRadius=6.3mil|HoleSize=0mil|Usage=FLASHONLY|Rotation=270.000|XOffset=0mil|YOffset=0mil|HoleType=Round|Shape=RoundedRectangle|*
%AMROUNDEDRECTD53*
21,1,0.12598,0.11339,0,0,270.0*
21,1,0.11339,0.12598,0,0,270.0*
1,1,0.01260,-0.05669,-0.05669*
1,1,0.01260,-0.05669,0.05669*
1,1,0.01260,0.05669,0.05669*
1,1,0.01260,0.05669,-0.05669*
%
%ADD53ROUNDEDRECTD53*%
%ADD63R,0.05512X0.05512*%
%ADD64C,0.05512*%
%ADD65C,0.06693*%
%ADD72C,0.24410*%
%ADD73C,0.02953*%
%ADD89C,0.13291*%
G04:AMPARAMS|DCode=90|XSize=62.99mil|YSize=47.24mil|CornerRadius=11.81mil|HoleSize=0mil|Usage=FLASHONLY|Rotation=180.000|XOffset=0mil|YOffset=0mil|HoleType=Round|Shape=RoundedRectangle|*
%AMROUNDEDRECTD90*
21,1,0.06299,0.02362,0,0,180.0*
21,1,0.03937,0.04724,0,0,180.0*
1,1,0.02362,-0.01968,0.01181*
1,1,0.02362,0.01968,0.01181*
1,1,0.02362,0.01968,-0.01181*
1,1,0.02362,-0.01968,-0.01181*
%
%ADD90ROUNDEDRECTD90*%
G04:AMPARAMS|DCode=91|XSize=62.99mil|YSize=39.37mil|CornerRadius=9.84mil|HoleSize=0mil|Usage=FLASHONLY|Rotation=180.000|XOffset=0mil|YOffset=0mil|HoleType=Round|Shape=RoundedRectangle|*
%AMROUNDEDRECTD91*
21,1,0.06299,0.01968,0,0,180.0*
21,1,0.04331,0.03937,0,0,180.0*
1,1,0.01968,-0.02165,0.00984*
1,1,0.01968,0.02165,0.00984*
1,1,0.01968,0.02165,-0.00984*
1,1,0.01968,-0.02165,-0.00984*
%
%ADD91ROUNDEDRECTD91*%
G04:AMPARAMS|DCode=92|XSize=157.48mil|YSize=70.87mil|CornerRadius=17.72mil|HoleSize=0mil|Usage=FLASHONLY|Rotation=270.000|XOffset=0mil|YOffset=0mil|HoleType=Round|Shape=RoundedRectangle|*
%AMROUNDEDRECTD92*
21,1,0.15748,0.03543,0,0,270.0*
21,1,0.12205,0.07087,0,0,270.0*
1,1,0.03543,-0.01772,-0.06102*
1,1,0.03543,-0.01772,0.06102*
1,1,0.03543,0.01772,0.06102*
1,1,0.03543,0.01772,-0.06102*
%
%ADD92ROUNDEDRECTD92*%
G04:AMPARAMS|DCode=93|XSize=157.48mil|YSize=70.87mil|CornerRadius=17.72mil|HoleSize=0mil|Usage=FLASHONLY|Rotation=180.000|XOffset=0mil|YOffset=0mil|HoleType=Round|Shape=RoundedRectangle|*
%AMROUNDEDRECTD93*
21,1,0.15748,0.03543,0,0,180.0*
21,1,0.12205,0.07087,0,0,180.0*
1,1,0.03543,-0.06102,0.01772*
1,1,0.03543,0.06102,0.01772*
1,1,0.03543,0.06102,-0.01772*
1,1,0.03543,-0.06102,-0.01772*
%
%ADD93ROUNDEDRECTD93*%
%ADD94C,0.05709*%
D19*
X112200Y26707D02*
D03*
X107200D02*
D03*
X102200D02*
D03*
X97200D02*
D03*
Y55093D02*
D03*
X102200D02*
D03*
X107200D02*
D03*
X112200D02*
D03*
D20*
X74269Y49000D02*
D03*
X72300D02*
D03*
X70332D02*
D03*
Y56000D02*
D03*
X72300D02*
D03*
X74269D02*
D03*
D21*
X67850Y49547D02*
D03*
Y51516D02*
D03*
Y53484D02*
D03*
Y55453D02*
D03*
X76750D02*
D03*
Y53484D02*
D03*
Y51516D02*
D03*
Y49547D02*
D03*
D22*
X-119079Y-74805D02*
D03*
X-109237D02*
D03*
X-101363D02*
D03*
X-91521D02*
D03*
D23*
X-116874Y69900D02*
D03*
X-109000D02*
D03*
X-94226Y70000D02*
D03*
X-102100D02*
D03*
X-18500D02*
D03*
X-10626D02*
D03*
X-26100D02*
D03*
X-33974D02*
D03*
X112205Y-27559D02*
D03*
X120079D02*
D03*
X-984Y-73819D02*
D03*
X6890D02*
D03*
X-984Y-89567D02*
D03*
X6890D02*
D03*
X-984Y-81693D02*
D03*
X6890D02*
D03*
D24*
X20000Y68063D02*
D03*
Y75937D02*
D03*
X30000Y68126D02*
D03*
Y76000D02*
D03*
X87795Y-35433D02*
D03*
X21400Y-28863D02*
D03*
Y-36737D02*
D03*
X-38189Y-82677D02*
D03*
Y-90551D02*
D03*
X-46260Y-82677D02*
D03*
Y-90551D02*
D03*
X87795Y-27559D02*
D03*
X-93307Y8661D02*
D03*
Y787D02*
D03*
X98819Y-27559D02*
D03*
Y-35433D02*
D03*
X-19685Y-101378D02*
D03*
Y-93504D02*
D03*
X-27559Y-101378D02*
D03*
Y-93504D02*
D03*
X-54134Y-90551D02*
D03*
Y-82677D02*
D03*
X-62008Y-90551D02*
D03*
Y-82677D02*
D03*
D25*
X-58760Y19979D02*
D03*
X-61319D02*
D03*
X-63878D02*
D03*
X-66437D02*
D03*
X-68996D02*
D03*
X-71555D02*
D03*
X-74114D02*
D03*
X-76673D02*
D03*
X-79232D02*
D03*
X-81791D02*
D03*
X-84350D02*
D03*
X-86910D02*
D03*
Y47737D02*
D03*
X-84350D02*
D03*
X-81791D02*
D03*
X-79232D02*
D03*
X-76673D02*
D03*
X-74114D02*
D03*
X-71555D02*
D03*
X-68996D02*
D03*
X-66437D02*
D03*
X-63878D02*
D03*
X-61319D02*
D03*
D26*
X-58760D02*
D03*
D27*
X-85433Y2657D02*
D03*
Y7579D02*
D03*
X112200Y15139D02*
D03*
Y20061D02*
D03*
X9636Y12033D02*
D03*
Y7112D02*
D03*
Y-10309D02*
D03*
Y-5388D02*
D03*
X67317Y-29447D02*
D03*
Y-24525D02*
D03*
X45269Y-29742D02*
D03*
Y-24821D02*
D03*
X67400Y23861D02*
D03*
Y18939D02*
D03*
X61411Y-29447D02*
D03*
Y-24525D02*
D03*
X47200Y26539D02*
D03*
Y31461D02*
D03*
X130315Y-73425D02*
D03*
Y-68504D02*
D03*
X86100Y-65039D02*
D03*
Y-69961D02*
D03*
X120079Y-73425D02*
D03*
Y-68504D02*
D03*
X125197Y-73425D02*
D03*
Y-68504D02*
D03*
X150654Y-56368D02*
D03*
Y-61290D02*
D03*
X144749Y-56368D02*
D03*
Y-61290D02*
D03*
X74300Y62339D02*
D03*
Y67261D02*
D03*
X79528Y-34350D02*
D03*
Y-29429D02*
D03*
X-68898Y787D02*
D03*
Y-4134D02*
D03*
X-62992Y787D02*
D03*
Y-4134D02*
D03*
X-8600Y-94761D02*
D03*
Y-89839D02*
D03*
D28*
X77159Y-11631D02*
D03*
X82080D02*
D03*
X81982Y8447D02*
D03*
X77061D02*
D03*
Y3329D02*
D03*
X81982D02*
D03*
X19774Y-2337D02*
D03*
X24695D02*
D03*
X19774Y-7061D02*
D03*
X24695D02*
D03*
X77061Y-17143D02*
D03*
X81982D02*
D03*
X5413Y-66929D02*
D03*
X492D02*
D03*
X60921Y55300D02*
D03*
X56000D02*
D03*
X60921Y60400D02*
D03*
X56000D02*
D03*
D29*
X76765Y-6907D02*
D03*
X82671D02*
D03*
X76765Y-1887D02*
D03*
X82671D02*
D03*
X25187Y2387D02*
D03*
X19282D02*
D03*
D30*
X61411Y12532D02*
D03*
X59836D02*
D03*
X58261D02*
D03*
X56687D02*
D03*
X55112D02*
D03*
X53537D02*
D03*
X51962D02*
D03*
X50387D02*
D03*
X48813D02*
D03*
X47238D02*
D03*
X45663D02*
D03*
X44088D02*
D03*
X42513D02*
D03*
X40939D02*
D03*
Y-14535D02*
D03*
X42513D02*
D03*
X44088D02*
D03*
X45663D02*
D03*
X47238D02*
D03*
X48813D02*
D03*
X50387D02*
D03*
X51962D02*
D03*
X53537D02*
D03*
X55112D02*
D03*
X56687D02*
D03*
X58261D02*
D03*
X59836D02*
D03*
X61411D02*
D03*
D31*
X37641Y9235D02*
D03*
Y7660D02*
D03*
Y6085D02*
D03*
Y4510D02*
D03*
Y2935D02*
D03*
Y1361D02*
D03*
Y-214D02*
D03*
Y-1789D02*
D03*
Y-3364D02*
D03*
Y-4939D02*
D03*
Y-6513D02*
D03*
Y-8088D02*
D03*
Y-9663D02*
D03*
Y-11238D02*
D03*
X64708D02*
D03*
Y-9663D02*
D03*
Y-8088D02*
D03*
Y-6513D02*
D03*
Y-4939D02*
D03*
Y-3364D02*
D03*
Y-1789D02*
D03*
Y-214D02*
D03*
Y1361D02*
D03*
Y2935D02*
D03*
Y4510D02*
D03*
Y6085D02*
D03*
Y7660D02*
D03*
Y9235D02*
D03*
D32*
X-1092Y5340D02*
D03*
X-7982Y-3715D02*
D03*
Y5340D02*
D03*
X-1092Y-3715D02*
D03*
D33*
X145276Y0D02*
D03*
Y-2559D02*
D03*
Y-5118D02*
D03*
Y2559D02*
D03*
Y5118D02*
D03*
D34*
X155905Y-3937D02*
D03*
Y3937D02*
D03*
D35*
X103347Y-95453D02*
D03*
X147638D02*
D03*
D36*
X94331Y-69114D02*
D03*
X103347D02*
D03*
X112362D02*
D03*
X138622D02*
D03*
X147638D02*
D03*
X156653D02*
D03*
D37*
X-41339Y-67323D02*
D03*
X-58661D02*
D03*
D38*
X-17716Y-75793D02*
D03*
D39*
X-20670Y-69893D02*
D03*
X-18701D02*
D03*
X-16732D02*
D03*
X-14763D02*
D03*
Y-81693D02*
D03*
X-16732D02*
D03*
X-18701D02*
D03*
X-20670D02*
D03*
D40*
X-11816Y-72839D02*
D03*
Y-74808D02*
D03*
Y-76777D02*
D03*
Y-78746D02*
D03*
X-23616D02*
D03*
Y-76777D02*
D03*
Y-74808D02*
D03*
Y-72839D02*
D03*
D41*
X131102Y-36220D02*
D03*
Y-27953D02*
D03*
D42*
X136307Y82677D02*
D03*
X149693D02*
D03*
X105893D02*
D03*
X92507D02*
D03*
D43*
X112700Y77047D02*
D03*
Y82953D02*
D03*
D53*
X51175Y-1002D02*
D03*
D63*
X-78347Y98425D02*
D03*
X-7087D02*
D03*
D64*
X-88189D02*
D03*
X-98032D02*
D03*
X-107874D02*
D03*
X-117717D02*
D03*
X-127559D02*
D03*
X-16929D02*
D03*
X-26772D02*
D03*
X-36614D02*
D03*
X-46457D02*
D03*
X-56299D02*
D03*
D65*
X-160000Y-70000D02*
D03*
Y-60000D02*
D03*
Y-30000D02*
D03*
Y-10000D02*
D03*
Y0D02*
D03*
Y-20000D02*
D03*
X-130000Y60000D02*
D03*
Y50000D02*
D03*
Y40000D02*
D03*
X-140000Y60000D02*
D03*
Y50000D02*
D03*
Y40000D02*
D03*
X-150000Y50000D02*
D03*
Y40000D02*
D03*
Y30000D02*
D03*
Y60000D02*
D03*
X50000Y100000D02*
D03*
X20000D02*
D03*
X30000D02*
D03*
X40000D02*
D03*
X-160000Y-40000D02*
D03*
Y-50000D02*
D03*
D72*
X74803Y-96457D02*
D03*
X-153543D02*
D03*
X74803Y96457D02*
D03*
X-153543D02*
D03*
D73*
X143000Y82677D02*
D03*
X99200D02*
D03*
D89*
X-131166Y-88900D02*
D03*
X-79434D02*
D03*
D90*
X155905Y-13780D02*
D03*
D91*
Y13780D02*
D03*
D92*
X59298Y-66711D02*
D03*
D93*
X40400Y-77735D02*
D03*
Y-54900D02*
D03*
D94*
X145276Y9843D02*
D03*
Y-9843D02*
D03*
M02*
