G04*
G04 #@! TF.GenerationSoftware,Altium Limited,Altium Designer,22.11.1 (43)*
G04*
G04 Layer_Color=8388736*
%FSLAX25Y25*%
%MOIN*%
G70*
G04*
G04 #@! TF.SameCoordinates,C353F027-9E8A-41FA-9674-E24DC2C26849*
G04*
G04*
G04 #@! TF.FilePolarity,Negative*
G04*
G01*
G75*
%ADD12C,0.01968*%
G04:AMPARAMS|DCode=25|XSize=76.91mil|YSize=17.01mil|CornerRadius=8.51mil|HoleSize=0mil|Usage=FLASHONLY|Rotation=270.000|XOffset=0mil|YOffset=0mil|HoleType=Round|Shape=RoundedRectangle|*
%AMROUNDEDRECTD25*
21,1,0.07691,0.00000,0,0,270.0*
21,1,0.05990,0.01701,0,0,270.0*
1,1,0.01701,0.00000,-0.02995*
1,1,0.01701,0.00000,0.02995*
1,1,0.01701,0.00000,0.02995*
1,1,0.01701,0.00000,-0.02995*
%
%ADD25ROUNDEDRECTD25*%
%ADD26R,0.01701X0.07691*%
%ADD32R,0.04134X0.05118*%
%ADD38R,0.05900X0.05900*%
%ADD39R,0.01000X0.03600*%
%ADD40R,0.03600X0.01000*%
%ADD42R,0.03150X0.06693*%
G04:AMPARAMS|DCode=44|XSize=66.38mil|YSize=25.83mil|CornerRadius=4.35mil|HoleSize=0mil|Usage=FLASHONLY|Rotation=270.000|XOffset=0mil|YOffset=0mil|HoleType=Round|Shape=RoundedRectangle|*
%AMROUNDEDRECTD44*
21,1,0.06638,0.01713,0,0,270.0*
21,1,0.05768,0.02583,0,0,270.0*
1,1,0.00870,-0.00856,-0.02884*
1,1,0.00870,-0.00856,0.02884*
1,1,0.00870,0.00856,0.02884*
1,1,0.00870,0.00856,-0.02884*
%
%ADD44ROUNDEDRECTD44*%
%ADD45R,0.01499X0.02399*%
%ADD46R,0.02399X0.01499*%
%ADD47R,0.04709X0.11638*%
%ADD48R,0.05811X0.06205*%
%ADD49R,0.06205X0.05811*%
%ADD50R,0.04039X0.04039*%
%ADD51R,0.04039X0.04039*%
%ADD52R,0.03055X0.03842*%
G04:AMPARAMS|DCode=53|XSize=125.98mil|YSize=125.98mil|CornerRadius=6.3mil|HoleSize=0mil|Usage=FLASHONLY|Rotation=270.000|XOffset=0mil|YOffset=0mil|HoleType=Round|Shape=RoundedRectangle|*
%AMROUNDEDRECTD53*
21,1,0.12598,0.11339,0,0,270.0*
21,1,0.11339,0.12598,0,0,270.0*
1,1,0.01260,-0.05669,-0.05669*
1,1,0.01260,-0.05669,0.05669*
1,1,0.01260,0.05669,0.05669*
1,1,0.01260,0.05669,-0.05669*
%
%ADD53ROUNDEDRECTD53*%
%ADD54R,0.01181X0.03839*%
%ADD55R,0.03839X0.01181*%
%ADD56R,0.05614X0.01874*%
%ADD57R,0.07780X0.06205*%
G04:AMPARAMS|DCode=58|XSize=54.57mil|YSize=130.55mil|CornerRadius=5.36mil|HoleSize=0mil|Usage=FLASHONLY|Rotation=270.000|XOffset=0mil|YOffset=0mil|HoleType=Round|Shape=RoundedRectangle|*
%AMROUNDEDRECTD58*
21,1,0.05457,0.11982,0,0,270.0*
21,1,0.04384,0.13055,0,0,270.0*
1,1,0.01073,-0.05991,-0.02192*
1,1,0.01073,-0.05991,0.02192*
1,1,0.01073,0.05991,0.02192*
1,1,0.01073,0.05991,-0.02192*
%
%ADD58ROUNDEDRECTD58*%
G04:AMPARAMS|DCode=59|XSize=54.57mil|YSize=39.61mil|CornerRadius=4.24mil|HoleSize=0mil|Usage=FLASHONLY|Rotation=270.000|XOffset=0mil|YOffset=0mil|HoleType=Round|Shape=RoundedRectangle|*
%AMROUNDEDRECTD59*
21,1,0.05457,0.03112,0,0,270.0*
21,1,0.04608,0.03961,0,0,270.0*
1,1,0.00848,-0.01556,-0.02304*
1,1,0.00848,-0.01556,0.02304*
1,1,0.00848,0.01556,0.02304*
1,1,0.00848,0.01556,-0.02304*
%
%ADD59ROUNDEDRECTD59*%
%ADD60R,0.09551X0.12898*%
%ADD61R,0.05417X0.04630*%
%ADD62R,0.03842X0.03055*%
%ADD63R,0.05512X0.05512*%
%ADD64C,0.05512*%
%ADD65C,0.06693*%
%ADD66C,0.13591*%
G04:AMPARAMS|DCode=67|XSize=65.98mil|YSize=50.24mil|CornerRadius=13.31mil|HoleSize=0mil|Usage=FLASHONLY|Rotation=180.000|XOffset=0mil|YOffset=0mil|HoleType=Round|Shape=RoundedRectangle|*
%AMROUNDEDRECTD67*
21,1,0.06598,0.02362,0,0,180.0*
21,1,0.03937,0.05024,0,0,180.0*
1,1,0.02661,-0.01968,0.01181*
1,1,0.02661,0.01968,0.01181*
1,1,0.02661,0.01968,-0.01181*
1,1,0.02661,-0.01968,-0.01181*
%
%ADD67ROUNDEDRECTD67*%
G04:AMPARAMS|DCode=68|XSize=65.98mil|YSize=42.36mil|CornerRadius=11.34mil|HoleSize=0mil|Usage=FLASHONLY|Rotation=180.000|XOffset=0mil|YOffset=0mil|HoleType=Round|Shape=RoundedRectangle|*
%AMROUNDEDRECTD68*
21,1,0.06598,0.01968,0,0,180.0*
21,1,0.04331,0.04236,0,0,180.0*
1,1,0.02268,-0.02165,0.00984*
1,1,0.02268,0.02165,0.00984*
1,1,0.02268,0.02165,-0.00984*
1,1,0.02268,-0.02165,-0.00984*
%
%ADD68ROUNDEDRECTD68*%
G04:AMPARAMS|DCode=69|XSize=160.47mil|YSize=73.86mil|CornerRadius=19.21mil|HoleSize=0mil|Usage=FLASHONLY|Rotation=270.000|XOffset=0mil|YOffset=0mil|HoleType=Round|Shape=RoundedRectangle|*
%AMROUNDEDRECTD69*
21,1,0.16047,0.03543,0,0,270.0*
21,1,0.12205,0.07386,0,0,270.0*
1,1,0.03842,-0.01772,-0.06102*
1,1,0.03842,-0.01772,0.06102*
1,1,0.03842,0.01772,0.06102*
1,1,0.03842,0.01772,-0.06102*
%
%ADD69ROUNDEDRECTD69*%
G04:AMPARAMS|DCode=70|XSize=160.47mil|YSize=73.86mil|CornerRadius=19.21mil|HoleSize=0mil|Usage=FLASHONLY|Rotation=180.000|XOffset=0mil|YOffset=0mil|HoleType=Round|Shape=RoundedRectangle|*
%AMROUNDEDRECTD70*
21,1,0.16047,0.03543,0,0,180.0*
21,1,0.12205,0.07386,0,0,180.0*
1,1,0.03842,-0.06102,0.01772*
1,1,0.03842,0.06102,0.01772*
1,1,0.03842,0.06102,-0.01772*
1,1,0.03842,-0.06102,-0.01772*
%
%ADD70ROUNDEDRECTD70*%
%ADD71C,0.06008*%
%ADD72C,0.24410*%
%ADD73C,0.02953*%
G36*
X159675Y-8908D02*
X159703Y-8916D01*
X159729Y-8930D01*
X159752Y-8949D01*
X159771Y-8972D01*
X159785Y-8998D01*
X159793Y-9026D01*
X159796Y-9055D01*
Y-14173D01*
X159793Y-14202D01*
X159785Y-14231D01*
X159771Y-14257D01*
X159752Y-14279D01*
X159729Y-14298D01*
X159703Y-14312D01*
X159675Y-14321D01*
X159646Y-14324D01*
X157828D01*
Y-16142D01*
X157825Y-16171D01*
X157816Y-16199D01*
X157802Y-16225D01*
X157784Y-16248D01*
X157761Y-16267D01*
X157735Y-16281D01*
X157707Y-16289D01*
X157677Y-16292D01*
X154134Y-16292D01*
X154104Y-16289D01*
X154076Y-16281D01*
X154050Y-16267D01*
X154028Y-16248D01*
X154009Y-16225D01*
X153995Y-16199D01*
X153986Y-16171D01*
X153983Y-16142D01*
Y-14324D01*
X152165D01*
X152136Y-14321D01*
X152108Y-14312D01*
X152082Y-14298D01*
X152059Y-14279D01*
X152040Y-14257D01*
X152026Y-14231D01*
X152018Y-14202D01*
X152015Y-14173D01*
Y-9055D01*
X152018Y-9026D01*
X152026Y-8998D01*
X152040Y-8972D01*
X152059Y-8949D01*
X152082Y-8930D01*
X152108Y-8916D01*
X152136Y-8908D01*
X152165Y-8905D01*
X159646D01*
X159675Y-8908D01*
D02*
G37*
G36*
X157706Y16289D02*
X157735Y16281D01*
X157761Y16267D01*
X157783Y16248D01*
X157802Y16225D01*
X157816Y16199D01*
X157825Y16171D01*
X157827Y16142D01*
Y14324D01*
X159646D01*
X159675Y14321D01*
X159703Y14312D01*
X159729Y14298D01*
X159752Y14279D01*
X159771Y14257D01*
X159785Y14231D01*
X159793Y14203D01*
X159796Y14173D01*
Y9055D01*
X159793Y9026D01*
X159785Y8998D01*
X159771Y8972D01*
X159752Y8949D01*
X159729Y8930D01*
X159703Y8916D01*
X159675Y8908D01*
X159646Y8905D01*
X152165D01*
X152136Y8908D01*
X152108Y8916D01*
X152082Y8930D01*
X152059Y8949D01*
X152040Y8972D01*
X152026Y8998D01*
X152018Y9026D01*
X152015Y9055D01*
Y14173D01*
X152018Y14203D01*
X152026Y14231D01*
X152040Y14257D01*
X152059Y14279D01*
X152082Y14298D01*
X152108Y14312D01*
X152136Y14321D01*
X152165Y14324D01*
X153983D01*
Y16142D01*
X153986Y16171D01*
X153995Y16199D01*
X154009Y16225D01*
X154027Y16248D01*
X154050Y16267D01*
X154076Y16281D01*
X154104Y16289D01*
X154134Y16292D01*
X157677Y16292D01*
X157706Y16289D01*
D02*
G37*
D12*
X158661Y-14173D02*
X158169Y-13321D01*
X157185D01*
X156693Y-14173D01*
X157185Y-15026D01*
X158169D01*
X158661Y-14173D01*
X155118D02*
X154626Y-13321D01*
X153642D01*
X153150Y-14173D01*
X153642Y-15026D01*
X154626D01*
X155118Y-14173D01*
X158661Y14173D02*
X158169Y15026D01*
X157185D01*
X156693Y14173D01*
X157185Y13321D01*
X158169D01*
X158661Y14173D01*
X155118D02*
X154626Y15026D01*
X153642D01*
X153150Y14173D01*
X153642Y13321D01*
X154626D01*
X155118Y14173D01*
D25*
X-58760Y19979D02*
D03*
X-61319D02*
D03*
X-63878D02*
D03*
X-66437D02*
D03*
X-68996D02*
D03*
X-71555D02*
D03*
X-74114D02*
D03*
X-76673D02*
D03*
X-79232D02*
D03*
X-81791D02*
D03*
X-84350D02*
D03*
X-86910D02*
D03*
Y47737D02*
D03*
X-84350D02*
D03*
X-81791D02*
D03*
X-79232D02*
D03*
X-76673D02*
D03*
X-74114D02*
D03*
X-71555D02*
D03*
X-68996D02*
D03*
X-66437D02*
D03*
X-63878D02*
D03*
X-61319D02*
D03*
D26*
X-58760D02*
D03*
D32*
X-1092Y5340D02*
D03*
X-7982Y-3715D02*
D03*
Y5340D02*
D03*
X-1092Y-3715D02*
D03*
D38*
X-17716Y-75793D02*
D03*
D39*
X-20670Y-69893D02*
D03*
X-18701D02*
D03*
X-16732D02*
D03*
X-14763D02*
D03*
Y-81693D02*
D03*
X-16732D02*
D03*
X-18701D02*
D03*
X-20670D02*
D03*
D40*
X-11816Y-72839D02*
D03*
Y-74808D02*
D03*
Y-76777D02*
D03*
Y-78746D02*
D03*
X-23616D02*
D03*
Y-76777D02*
D03*
Y-74808D02*
D03*
Y-72839D02*
D03*
D42*
X136307Y82677D02*
D03*
X149693D02*
D03*
X105893D02*
D03*
X92507D02*
D03*
D44*
X112200Y26707D02*
D03*
X107200D02*
D03*
X102200D02*
D03*
X97200D02*
D03*
Y55093D02*
D03*
X102200D02*
D03*
X107200D02*
D03*
X112200D02*
D03*
D45*
X74269Y49000D02*
D03*
X72300D02*
D03*
X70332D02*
D03*
Y56000D02*
D03*
X72300D02*
D03*
X74269D02*
D03*
D46*
X67850Y49547D02*
D03*
Y51516D02*
D03*
Y53484D02*
D03*
Y55453D02*
D03*
X76750D02*
D03*
Y53484D02*
D03*
Y51516D02*
D03*
Y49547D02*
D03*
D47*
X-119079Y-74805D02*
D03*
X-109237D02*
D03*
X-101363D02*
D03*
X-91521D02*
D03*
D48*
X-116874Y69900D02*
D03*
X-109000D02*
D03*
X-94226Y70000D02*
D03*
X-102100D02*
D03*
X-18500D02*
D03*
X-10626D02*
D03*
X-26100D02*
D03*
X-33974D02*
D03*
X112205Y-27559D02*
D03*
X120079D02*
D03*
X-984Y-73819D02*
D03*
X6890D02*
D03*
X-984Y-89567D02*
D03*
X6890D02*
D03*
X-984Y-81693D02*
D03*
X6890D02*
D03*
D49*
X20000Y68063D02*
D03*
Y75937D02*
D03*
X30000Y68126D02*
D03*
Y76000D02*
D03*
X87795Y-35433D02*
D03*
X21400Y-28863D02*
D03*
Y-36737D02*
D03*
X-38189Y-82677D02*
D03*
Y-90551D02*
D03*
X-46260Y-82677D02*
D03*
Y-90551D02*
D03*
X87795Y-27559D02*
D03*
X-93307Y8661D02*
D03*
Y787D02*
D03*
X98819Y-27559D02*
D03*
Y-35433D02*
D03*
X-19685Y-101378D02*
D03*
Y-93504D02*
D03*
X-27559Y-101378D02*
D03*
Y-93504D02*
D03*
X-54134Y-90551D02*
D03*
Y-82677D02*
D03*
X-62008Y-90551D02*
D03*
Y-82677D02*
D03*
D50*
X-85433Y2657D02*
D03*
Y7579D02*
D03*
X112200Y15139D02*
D03*
Y20061D02*
D03*
X9636Y12033D02*
D03*
Y7112D02*
D03*
Y-10309D02*
D03*
Y-5388D02*
D03*
X67317Y-29447D02*
D03*
Y-24525D02*
D03*
X45269Y-29742D02*
D03*
Y-24821D02*
D03*
X67400Y23861D02*
D03*
Y18939D02*
D03*
X61411Y-29447D02*
D03*
Y-24525D02*
D03*
X47200Y26539D02*
D03*
Y31461D02*
D03*
X130315Y-73425D02*
D03*
Y-68504D02*
D03*
X86100Y-65039D02*
D03*
Y-69961D02*
D03*
X120079Y-73425D02*
D03*
Y-68504D02*
D03*
X125197Y-73425D02*
D03*
Y-68504D02*
D03*
X150654Y-56368D02*
D03*
Y-61290D02*
D03*
X144749Y-56368D02*
D03*
Y-61290D02*
D03*
X74300Y62339D02*
D03*
Y67261D02*
D03*
X79528Y-34350D02*
D03*
Y-29429D02*
D03*
X-68898Y787D02*
D03*
Y-4134D02*
D03*
X-62992Y787D02*
D03*
Y-4134D02*
D03*
X-8600Y-94761D02*
D03*
Y-89839D02*
D03*
D51*
X77159Y-11631D02*
D03*
X82080D02*
D03*
X81982Y8447D02*
D03*
X77061D02*
D03*
Y3329D02*
D03*
X81982D02*
D03*
X19774Y-2337D02*
D03*
X24695D02*
D03*
X19774Y-7061D02*
D03*
X24695D02*
D03*
X77061Y-17143D02*
D03*
X81982D02*
D03*
X5413Y-66929D02*
D03*
X492D02*
D03*
X60921Y55300D02*
D03*
X56000D02*
D03*
X60921Y60400D02*
D03*
X56000D02*
D03*
D52*
X76765Y-6907D02*
D03*
X82671D02*
D03*
X76765Y-1887D02*
D03*
X82671D02*
D03*
X25187Y2387D02*
D03*
X19282D02*
D03*
D53*
X51175Y-1002D02*
D03*
D54*
X61411Y12532D02*
D03*
X59836D02*
D03*
X58261D02*
D03*
X56687D02*
D03*
X55112D02*
D03*
X53537D02*
D03*
X51962D02*
D03*
X50387D02*
D03*
X48813D02*
D03*
X47238D02*
D03*
X45663D02*
D03*
X44088D02*
D03*
X42513D02*
D03*
X40939D02*
D03*
Y-14535D02*
D03*
X42513D02*
D03*
X44088D02*
D03*
X45663D02*
D03*
X47238D02*
D03*
X48813D02*
D03*
X50387D02*
D03*
X51962D02*
D03*
X53537D02*
D03*
X55112D02*
D03*
X56687D02*
D03*
X58261D02*
D03*
X59836D02*
D03*
X61411D02*
D03*
D55*
X37641Y9235D02*
D03*
Y7660D02*
D03*
Y6085D02*
D03*
Y4510D02*
D03*
Y2935D02*
D03*
Y1361D02*
D03*
Y-214D02*
D03*
Y-1789D02*
D03*
Y-3364D02*
D03*
Y-4939D02*
D03*
Y-6513D02*
D03*
Y-8088D02*
D03*
Y-9663D02*
D03*
Y-11238D02*
D03*
X64708D02*
D03*
Y-9663D02*
D03*
Y-8088D02*
D03*
Y-6513D02*
D03*
Y-4939D02*
D03*
Y-3364D02*
D03*
Y-1789D02*
D03*
Y-214D02*
D03*
Y1361D02*
D03*
Y2935D02*
D03*
Y4510D02*
D03*
Y6085D02*
D03*
Y7660D02*
D03*
Y9235D02*
D03*
D56*
X145276Y0D02*
D03*
Y-2559D02*
D03*
Y-5118D02*
D03*
Y2559D02*
D03*
Y5118D02*
D03*
D57*
X155905Y-3937D02*
D03*
Y3937D02*
D03*
D58*
X103347Y-95453D02*
D03*
X147638D02*
D03*
D59*
X94331Y-69114D02*
D03*
X103347D02*
D03*
X112362D02*
D03*
X138622D02*
D03*
X147638D02*
D03*
X156653D02*
D03*
D60*
X-41339Y-67323D02*
D03*
X-58661D02*
D03*
D61*
X131102Y-36220D02*
D03*
Y-27953D02*
D03*
D62*
X112700Y77047D02*
D03*
Y82953D02*
D03*
D63*
X-78347Y98425D02*
D03*
X-7087D02*
D03*
D64*
X-88189D02*
D03*
X-98032D02*
D03*
X-107874D02*
D03*
X-117717D02*
D03*
X-127559D02*
D03*
X-16929D02*
D03*
X-26772D02*
D03*
X-36614D02*
D03*
X-46457D02*
D03*
X-56299D02*
D03*
D65*
X-160000Y-70000D02*
D03*
Y-60000D02*
D03*
Y-30000D02*
D03*
Y-10000D02*
D03*
Y0D02*
D03*
Y-20000D02*
D03*
X-130000Y60000D02*
D03*
Y50000D02*
D03*
Y40000D02*
D03*
X-140000Y60000D02*
D03*
Y50000D02*
D03*
Y40000D02*
D03*
X-150000Y50000D02*
D03*
Y40000D02*
D03*
Y30000D02*
D03*
Y60000D02*
D03*
X50000Y100000D02*
D03*
X20000D02*
D03*
X30000D02*
D03*
X40000D02*
D03*
X-160000Y-40000D02*
D03*
Y-50000D02*
D03*
D66*
X-131166Y-88900D02*
D03*
X-79434D02*
D03*
D67*
X155905Y-13780D02*
D03*
D68*
Y13780D02*
D03*
D69*
X59298Y-66711D02*
D03*
D70*
X40400Y-77735D02*
D03*
Y-54900D02*
D03*
D71*
X145276Y9843D02*
D03*
Y-9843D02*
D03*
D72*
X74803Y-96457D02*
D03*
X-153543D02*
D03*
X74803Y96457D02*
D03*
X-153543D02*
D03*
D73*
X143000Y82677D02*
D03*
X99200D02*
D03*
M02*
