G04*
G04 #@! TF.GenerationSoftware,Altium Limited,Altium Designer,22.11.1 (43)*
G04*
G04 Layer_Physical_Order=1*
G04 Layer_Color=255*
%FSLAX25Y25*%
%MOIN*%
G70*
G04*
G04 #@! TF.SameCoordinates,C353F027-9E8A-41FA-9674-E24DC2C26849*
G04*
G04*
G04 #@! TF.FilePolarity,Positive*
G04*
G01*
G75*
%ADD10C,0.00787*%
%ADD11C,0.00984*%
%ADD12C,0.01968*%
%ADD15C,0.00600*%
%ADD17C,0.00591*%
G04:AMPARAMS|DCode=19|XSize=63.39mil|YSize=22.84mil|CornerRadius=2.85mil|HoleSize=0mil|Usage=FLASHONLY|Rotation=270.000|XOffset=0mil|YOffset=0mil|HoleType=Round|Shape=RoundedRectangle|*
%AMROUNDEDRECTD19*
21,1,0.06339,0.01713,0,0,270.0*
21,1,0.05768,0.02284,0,0,270.0*
1,1,0.00571,-0.00856,-0.02884*
1,1,0.00571,-0.00856,0.02884*
1,1,0.00571,0.00856,0.02884*
1,1,0.00571,0.00856,-0.02884*
%
%ADD19ROUNDEDRECTD19*%
%ADD20R,0.01200X0.02100*%
%ADD21R,0.02100X0.01200*%
%ADD22R,0.04409X0.11339*%
%ADD23R,0.05512X0.05906*%
%ADD24R,0.05906X0.05512*%
G04:AMPARAMS|DCode=25|XSize=76.91mil|YSize=17.01mil|CornerRadius=8.51mil|HoleSize=0mil|Usage=FLASHONLY|Rotation=270.000|XOffset=0mil|YOffset=0mil|HoleType=Round|Shape=RoundedRectangle|*
%AMROUNDEDRECTD25*
21,1,0.07691,0.00000,0,0,270.0*
21,1,0.05990,0.01701,0,0,270.0*
1,1,0.01701,0.00000,-0.02995*
1,1,0.01701,0.00000,0.02995*
1,1,0.01701,0.00000,0.02995*
1,1,0.01701,0.00000,-0.02995*
%
%ADD25ROUNDEDRECTD25*%
%ADD26R,0.01701X0.07691*%
%ADD27R,0.03740X0.03740*%
%ADD28R,0.03740X0.03740*%
%ADD29R,0.02756X0.03543*%
%ADD30R,0.00787X0.03445*%
%ADD31R,0.03445X0.00787*%
%ADD32R,0.04134X0.05118*%
%ADD33R,0.05315X0.01575*%
%ADD34R,0.07480X0.05906*%
G04:AMPARAMS|DCode=35|XSize=51.58mil|YSize=127.56mil|CornerRadius=3.87mil|HoleSize=0mil|Usage=FLASHONLY|Rotation=270.000|XOffset=0mil|YOffset=0mil|HoleType=Round|Shape=RoundedRectangle|*
%AMROUNDEDRECTD35*
21,1,0.05158,0.11982,0,0,270.0*
21,1,0.04384,0.12756,0,0,270.0*
1,1,0.00774,-0.05991,-0.02192*
1,1,0.00774,-0.05991,0.02192*
1,1,0.00774,0.05991,0.02192*
1,1,0.00774,0.05991,-0.02192*
%
%ADD35ROUNDEDRECTD35*%
G04:AMPARAMS|DCode=36|XSize=51.58mil|YSize=36.61mil|CornerRadius=2.75mil|HoleSize=0mil|Usage=FLASHONLY|Rotation=270.000|XOffset=0mil|YOffset=0mil|HoleType=Round|Shape=RoundedRectangle|*
%AMROUNDEDRECTD36*
21,1,0.05158,0.03112,0,0,270.0*
21,1,0.04608,0.03661,0,0,270.0*
1,1,0.00549,-0.01556,-0.02304*
1,1,0.00549,-0.01556,0.02304*
1,1,0.00549,0.01556,0.02304*
1,1,0.00549,0.01556,-0.02304*
%
%ADD36ROUNDEDRECTD36*%
%ADD37R,0.09252X0.12598*%
%ADD38R,0.05900X0.05900*%
%ADD39R,0.01000X0.03600*%
%ADD40R,0.03600X0.01000*%
%ADD41R,0.05118X0.04331*%
%ADD42R,0.03150X0.06693*%
%ADD43R,0.03543X0.02756*%
G04:AMPARAMS|DCode=53|XSize=125.98mil|YSize=125.98mil|CornerRadius=6.3mil|HoleSize=0mil|Usage=FLASHONLY|Rotation=270.000|XOffset=0mil|YOffset=0mil|HoleType=Round|Shape=RoundedRectangle|*
%AMROUNDEDRECTD53*
21,1,0.12598,0.11339,0,0,270.0*
21,1,0.11339,0.12598,0,0,270.0*
1,1,0.01260,-0.05669,-0.05669*
1,1,0.01260,-0.05669,0.05669*
1,1,0.01260,0.05669,0.05669*
1,1,0.01260,0.05669,-0.05669*
%
%ADD53ROUNDEDRECTD53*%
%ADD63R,0.05512X0.05512*%
%ADD64C,0.05512*%
%ADD65C,0.06693*%
%ADD72C,0.24410*%
%ADD73C,0.02953*%
%ADD74C,0.00598*%
%ADD75C,0.03937*%
%ADD76C,0.03150*%
%ADD77C,0.01575*%
%ADD78C,0.02362*%
%ADD79C,0.00394*%
%ADD80C,0.04724*%
%ADD81R,0.10451X0.06500*%
%ADD82R,0.23763X0.16437*%
%ADD83R,0.29000X0.08000*%
%ADD84R,0.16535X0.16929*%
%ADD85R,0.18750X0.08100*%
%ADD86R,0.09800X0.12200*%
%ADD87R,0.18898X0.05610*%
%ADD88R,0.11909X0.24508*%
%ADD89C,0.13291*%
G04:AMPARAMS|DCode=90|XSize=62.99mil|YSize=47.24mil|CornerRadius=11.81mil|HoleSize=0mil|Usage=FLASHONLY|Rotation=180.000|XOffset=0mil|YOffset=0mil|HoleType=Round|Shape=RoundedRectangle|*
%AMROUNDEDRECTD90*
21,1,0.06299,0.02362,0,0,180.0*
21,1,0.03937,0.04724,0,0,180.0*
1,1,0.02362,-0.01968,0.01181*
1,1,0.02362,0.01968,0.01181*
1,1,0.02362,0.01968,-0.01181*
1,1,0.02362,-0.01968,-0.01181*
%
%ADD90ROUNDEDRECTD90*%
G04:AMPARAMS|DCode=91|XSize=62.99mil|YSize=39.37mil|CornerRadius=9.84mil|HoleSize=0mil|Usage=FLASHONLY|Rotation=180.000|XOffset=0mil|YOffset=0mil|HoleType=Round|Shape=RoundedRectangle|*
%AMROUNDEDRECTD91*
21,1,0.06299,0.01968,0,0,180.0*
21,1,0.04331,0.03937,0,0,180.0*
1,1,0.01968,-0.02165,0.00984*
1,1,0.01968,0.02165,0.00984*
1,1,0.01968,0.02165,-0.00984*
1,1,0.01968,-0.02165,-0.00984*
%
%ADD91ROUNDEDRECTD91*%
G04:AMPARAMS|DCode=92|XSize=157.48mil|YSize=70.87mil|CornerRadius=17.72mil|HoleSize=0mil|Usage=FLASHONLY|Rotation=270.000|XOffset=0mil|YOffset=0mil|HoleType=Round|Shape=RoundedRectangle|*
%AMROUNDEDRECTD92*
21,1,0.15748,0.03543,0,0,270.0*
21,1,0.12205,0.07087,0,0,270.0*
1,1,0.03543,-0.01772,-0.06102*
1,1,0.03543,-0.01772,0.06102*
1,1,0.03543,0.01772,0.06102*
1,1,0.03543,0.01772,-0.06102*
%
%ADD92ROUNDEDRECTD92*%
G04:AMPARAMS|DCode=93|XSize=157.48mil|YSize=70.87mil|CornerRadius=17.72mil|HoleSize=0mil|Usage=FLASHONLY|Rotation=180.000|XOffset=0mil|YOffset=0mil|HoleType=Round|Shape=RoundedRectangle|*
%AMROUNDEDRECTD93*
21,1,0.15748,0.03543,0,0,180.0*
21,1,0.12205,0.07087,0,0,180.0*
1,1,0.03543,-0.06102,0.01772*
1,1,0.03543,0.06102,0.01772*
1,1,0.03543,0.06102,-0.01772*
1,1,0.03543,-0.06102,-0.01772*
%
%ADD93ROUNDEDRECTD93*%
%ADD94C,0.05709*%
%ADD95C,0.02362*%
%ADD96C,0.05000*%
%ADD97C,0.03150*%
%ADD98C,0.04724*%
G36*
X157677Y14173D02*
X154134D01*
Y16142D01*
X157677Y16142D01*
Y14173D01*
D02*
G37*
G36*
X26850Y11656D02*
Y7631D01*
X26388Y7440D01*
X25933Y7895D01*
X25573Y8135D01*
X25149Y8220D01*
X12294D01*
Y9769D01*
X11900D01*
Y11443D01*
X7372D01*
Y9769D01*
X6979D01*
Y8220D01*
X6842D01*
X6418Y8135D01*
X6059Y7895D01*
X1830Y3667D01*
X1369Y3858D01*
Y4750D01*
X-1092D01*
X-3553D01*
Y2387D01*
X-3553D01*
X-3697Y1947D01*
X-4647D01*
X-5128Y1994D01*
Y8687D01*
X-10836D01*
Y1994D01*
X-9090D01*
Y1872D01*
X-9005Y1448D01*
X-8765Y1088D01*
X-7733Y56D01*
X-7374Y-184D01*
X-6950Y-268D01*
X-6965Y-762D01*
X-7391D01*
Y-3124D01*
X-5521D01*
Y-769D01*
X-5521Y-762D01*
X-5506Y-268D01*
X-4405D01*
X-3946Y-368D01*
Y-7061D01*
X1762D01*
Y-4823D01*
X2946D01*
X4295Y-6172D01*
X4654Y-6412D01*
X5078Y-6496D01*
X6979D01*
Y-8046D01*
X7372D01*
Y-9719D01*
X9636D01*
X11900D01*
Y-8046D01*
X12294D01*
Y-2731D01*
X11700D01*
X11509Y-2269D01*
X15057Y1280D01*
X17117D01*
Y-172D01*
X17510D01*
Y-1356D01*
X15450D01*
X14989Y-1448D01*
X14599Y-1709D01*
X14338Y-2100D01*
X14246Y-2561D01*
X14338Y-3022D01*
X14599Y-3412D01*
X14989Y-3673D01*
X15450Y-3765D01*
X17510D01*
Y-4601D01*
X17510D01*
Y-4798D01*
X17388Y-5034D01*
X16838Y-5157D01*
X16682Y-5000D01*
X16602Y-4881D01*
X16211Y-4620D01*
X15750Y-4528D01*
X15290Y-4620D01*
X14899Y-4881D01*
X14638Y-5271D01*
X14546Y-5732D01*
Y-5772D01*
X14546Y-5772D01*
X14638Y-6233D01*
X14899Y-6623D01*
X16088Y-7812D01*
X16478Y-8073D01*
X16939Y-8165D01*
X16939Y-8165D01*
X17510D01*
Y-9325D01*
X19184D01*
Y-7061D01*
X20365D01*
Y-9325D01*
X22038D01*
Y-9719D01*
X26850D01*
Y-14919D01*
X26750Y-14961D01*
X-14894D01*
X-15246Y-14605D01*
X-14964Y16612D01*
X-14577Y16999D01*
X8529D01*
X8771Y16499D01*
X8638Y16300D01*
X8546Y15839D01*
Y14297D01*
X7372D01*
Y12624D01*
X11900D01*
Y14297D01*
X10955D01*
Y15839D01*
X10863Y16300D01*
X10730Y16499D01*
X10972Y16999D01*
X21508D01*
X26850Y11656D01*
D02*
G37*
G36*
X159646Y9055D02*
X152165D01*
Y14173D01*
X159646D01*
Y9055D01*
D02*
G37*
G36*
X25286Y5408D02*
X25095Y4947D01*
X23022D01*
Y320D01*
X22038D01*
Y-73D01*
X21447D01*
Y4947D01*
X17117D01*
Y3495D01*
X14598D01*
X14175Y3411D01*
X13815Y3171D01*
X8853Y-1791D01*
X8613Y-2151D01*
X8528Y-2575D01*
Y-2731D01*
X6979D01*
Y-4280D01*
X5537D01*
X4188Y-2932D01*
X3829Y-2691D01*
X3405Y-2607D01*
X1762D01*
Y-368D01*
X1618D01*
X1493Y-168D01*
X1429Y132D01*
X6517Y5220D01*
X6979Y5028D01*
Y4454D01*
X12294D01*
Y6004D01*
X24690D01*
X25286Y5408D01*
D02*
G37*
G36*
X62000Y-5897D02*
X61498D01*
X61369Y-5585D01*
X60815Y-5031D01*
X60503Y-4902D01*
Y7700D01*
X60442Y8007D01*
X60268Y8268D01*
X60007Y8442D01*
X59700Y8503D01*
X42800D01*
X42493Y8442D01*
X42232Y8268D01*
X42058Y8007D01*
X41997Y7700D01*
Y6200D01*
Y-1591D01*
X41746Y-1695D01*
X41192Y-2249D01*
X40893Y-2972D01*
Y-3755D01*
X41192Y-4479D01*
X41746Y-5033D01*
X42470Y-5332D01*
X43253D01*
X43560Y-5205D01*
X44060Y-5539D01*
Y-6671D01*
X44170Y-7224D01*
X44484Y-7693D01*
X44952Y-8006D01*
X45505Y-8116D01*
X56844D01*
X56997Y-8085D01*
X57497Y-8495D01*
Y-8700D01*
X57558Y-9007D01*
X57732Y-9268D01*
X57993Y-9442D01*
X58300Y-9503D01*
X62000D01*
Y-11800D01*
X40300D01*
Y9700D01*
X62000D01*
Y-5897D01*
D02*
G37*
G36*
X59700Y-6700D02*
X62000D01*
Y-7600D01*
X62200D01*
Y-8700D01*
X58300D01*
Y-6700D01*
Y6200D01*
X44000D01*
Y-4000D01*
X42800D01*
Y6200D01*
Y7700D01*
X59700D01*
Y-6700D01*
D02*
G37*
G36*
X159646Y-14173D02*
X152165D01*
Y-9055D01*
X159646D01*
Y-14173D01*
D02*
G37*
G36*
X157677Y-16142D02*
X154134Y-16142D01*
Y-14173D01*
X157677D01*
Y-16142D01*
D02*
G37*
G36*
X73900Y-49100D02*
Y-67900D01*
X96100D01*
Y-73000D01*
X68445D01*
Y-67900D01*
X68655D01*
X68500Y-67845D01*
Y-56600D01*
X48710D01*
Y-55490D01*
X40400D01*
Y-54900D01*
X39810D01*
Y-50921D01*
X34298D01*
X33453Y-51089D01*
X32737Y-51567D01*
X32628Y-51729D01*
X32132Y-51572D01*
X32200Y-49000D01*
X73800D01*
X73900Y-49100D01*
D02*
G37*
G36*
X22047Y-109433D02*
X-68898D01*
Y-95591D01*
X-68067Y-94760D01*
X-67625Y-94184D01*
X-67347Y-93514D01*
X-67253Y-92794D01*
Y-89484D01*
X-65816Y-88047D01*
X-65354Y-88239D01*
Y-89961D01*
X-62598D01*
Y-87402D01*
X-64517D01*
X-64709Y-86940D01*
X-64013Y-86244D01*
X-62795D01*
X-62732Y-86236D01*
X-35039D01*
X-34962Y-86221D01*
X-34449D01*
Y-85967D01*
X-34298Y-85740D01*
X-34236Y-85433D01*
Y-79823D01*
X-34298Y-79516D01*
X-34449Y-79289D01*
Y-79134D01*
X-34653D01*
X-34732Y-79081D01*
X-35039Y-79020D01*
X-53134D01*
Y-60925D01*
X-53195Y-60618D01*
X-53248Y-60539D01*
Y-60236D01*
X-53551D01*
X-53630Y-60184D01*
X-53937Y-60122D01*
X-65847D01*
X-66154Y-60184D01*
X-66414Y-60357D01*
X-66588Y-60618D01*
X-66649Y-60925D01*
Y-81130D01*
X-67130Y-81499D01*
X-68436Y-82805D01*
X-68898Y-82613D01*
Y-50787D01*
X22047D01*
Y-109433D01*
D02*
G37*
G36*
X166520Y-98425D02*
Y-99147D01*
X166332Y-100577D01*
X165958Y-101971D01*
X165406Y-103305D01*
X164684Y-104554D01*
X163806Y-105699D01*
X162786Y-106719D01*
X161641Y-107598D01*
X160391Y-108319D01*
X159058Y-108872D01*
X157664Y-109245D01*
X156233Y-109433D01*
X78526D01*
X78447Y-108933D01*
X79790Y-108497D01*
X81612Y-107569D01*
X83267Y-106367D01*
X84713Y-104920D01*
X85915Y-103266D01*
X86843Y-101444D01*
X87475Y-99499D01*
X87795Y-97479D01*
Y-95434D01*
X87475Y-93414D01*
X86843Y-91469D01*
X85915Y-89647D01*
X84713Y-87993D01*
X83267Y-86547D01*
X81612Y-85345D01*
X79790Y-84416D01*
X77846Y-83785D01*
X75826Y-83465D01*
X75197D01*
Y-73803D01*
X96100D01*
X96407Y-73742D01*
X96668Y-73568D01*
X96842Y-73307D01*
X96903Y-73000D01*
Y-71754D01*
X96970Y-71418D01*
Y-66810D01*
X96887Y-66396D01*
X96653Y-66044D01*
X96301Y-65810D01*
X95887Y-65727D01*
X92775D01*
X92360Y-65810D01*
X92009Y-66044D01*
X91774Y-66396D01*
X91692Y-66810D01*
Y-67097D01*
X88364D01*
Y-65630D01*
X83836D01*
Y-67097D01*
X75197D01*
Y-51181D01*
X166520D01*
Y-98425D01*
D02*
G37*
%LPC*%
G36*
X1369Y8293D02*
X-502D01*
Y5931D01*
X1369D01*
Y8293D01*
D02*
G37*
G36*
X-1683D02*
X-3553D01*
Y5931D01*
X-1683D01*
Y8293D01*
D02*
G37*
G36*
X-8573Y-762D02*
X-10442D01*
Y-3124D01*
X-8573D01*
Y-762D01*
D02*
G37*
G36*
X-5521Y-4306D02*
X-7391D01*
Y-6668D01*
X-5521D01*
Y-4306D01*
D02*
G37*
G36*
X-8573D02*
X-10442D01*
Y-6668D01*
X-8573D01*
Y-4306D01*
D02*
G37*
G36*
X11900Y-10900D02*
X10227D01*
Y-12573D01*
X11900D01*
Y-10900D01*
D02*
G37*
G36*
X9046D02*
X7372D01*
Y-12573D01*
X9046D01*
Y-10900D01*
D02*
G37*
G36*
X46502Y-50921D02*
X40991D01*
Y-54309D01*
X48710D01*
Y-53128D01*
X48542Y-52284D01*
X48063Y-51567D01*
X47347Y-51089D01*
X46502Y-50921D01*
D02*
G37*
G36*
X7677Y-64665D02*
X6004D01*
Y-66339D01*
X7677D01*
Y-64665D01*
D02*
G37*
G36*
Y-67520D02*
X6004D01*
Y-69193D01*
X7677D01*
Y-67520D01*
D02*
G37*
G36*
X533Y-58313D02*
X-333D01*
X-1169Y-58537D01*
X-1918Y-58969D01*
X-2531Y-59582D01*
X-2963Y-60331D01*
X-3187Y-61167D01*
Y-62033D01*
X-3130Y-62249D01*
Y-66699D01*
X-3021Y-67521D01*
X-2977Y-67629D01*
Y-69997D01*
X-13051D01*
X-13475Y-69581D01*
Y-67305D01*
X-15528D01*
Y-65556D01*
X-15064Y-65091D01*
X-14764Y-64368D01*
Y-63585D01*
X-15064Y-62861D01*
X-15617Y-62308D01*
X-16341Y-62008D01*
X-17124D01*
X-17847Y-62308D01*
X-18401Y-62861D01*
X-18701Y-63585D01*
Y-64368D01*
X-18401Y-65091D01*
X-17936Y-65556D01*
Y-67305D01*
X-18019D01*
Y-67699D01*
X-18110D01*
Y-69893D01*
X-19291D01*
Y-67699D01*
X-19594D01*
Y-67699D01*
X-19776D01*
Y-67699D01*
X-20079D01*
Y-69893D01*
X-21260D01*
Y-67699D01*
X-21497D01*
Y-60827D01*
X-21558Y-60519D01*
X-21732Y-60259D01*
X-21993Y-60085D01*
X-22300Y-60024D01*
X-46063D01*
X-46370Y-60085D01*
X-46597Y-60236D01*
X-46752D01*
Y-60441D01*
X-46805Y-60519D01*
X-46866Y-60827D01*
Y-77264D01*
X-46805Y-77571D01*
X-46631Y-77832D01*
X-46370Y-78005D01*
X-46063Y-78067D01*
X-28061D01*
X-27869Y-78528D01*
X-33332Y-83991D01*
X-33593Y-84382D01*
X-33685Y-84842D01*
X-33685Y-84843D01*
Y-88035D01*
X-33982Y-88276D01*
X-34449Y-88072D01*
Y-87008D01*
X-41929D01*
Y-94095D01*
X-34449D01*
Y-91755D01*
X-34449Y-91755D01*
X-33988Y-91664D01*
X-33597Y-91403D01*
X-31629Y-89434D01*
X-31629Y-89434D01*
X-31368Y-89043D01*
X-31276Y-88583D01*
Y-85341D01*
X-25969Y-80034D01*
X-21957D01*
Y-84280D01*
X-21874D01*
Y-89961D01*
X-23319D01*
X-23425Y-89961D01*
Y-89961D01*
X-23819D01*
Y-89961D01*
X-25827D01*
X-25927Y-89461D01*
X-25460Y-89267D01*
X-24906Y-88714D01*
X-24606Y-87990D01*
Y-87207D01*
X-24906Y-86483D01*
X-25460Y-85930D01*
X-26183Y-85630D01*
X-26966D01*
X-27690Y-85930D01*
X-28244Y-86483D01*
X-28543Y-87207D01*
Y-87990D01*
X-28450Y-88216D01*
X-28672Y-88548D01*
X-28763Y-89009D01*
X-28763Y-89009D01*
Y-89961D01*
X-31299D01*
Y-97047D01*
X-25339D01*
X-25140Y-97504D01*
X-25404Y-97835D01*
X-31299D01*
Y-104921D01*
X-23819D01*
Y-99737D01*
X-23468Y-99448D01*
X-23031Y-99634D01*
Y-100787D01*
X-20276D01*
Y-98228D01*
X-22102D01*
X-22398Y-97868D01*
X-22403Y-97728D01*
X-21722Y-97047D01*
X-15945D01*
Y-89961D01*
X-19466D01*
Y-84352D01*
X-19426Y-84280D01*
X-19382D01*
Y-84240D01*
X-19291Y-84149D01*
Y-81693D01*
X-18110D01*
Y-83887D01*
X-17807D01*
X-17322Y-83887D01*
Y-81693D01*
X-16141D01*
Y-83887D01*
X-15838D01*
X-15353Y-83887D01*
Y-81693D01*
X-14763D01*
Y-81102D01*
X-13869D01*
Y-80034D01*
X-9669D01*
Y-87182D01*
X-11258D01*
Y-92497D01*
X-10864D01*
Y-94170D01*
X-6336D01*
Y-92497D01*
X-5943D01*
Y-87182D01*
X-7260D01*
Y-79208D01*
X-7260Y-79208D01*
X-7352Y-78747D01*
X-7448Y-78603D01*
X-7181Y-78103D01*
X-4528D01*
Y-85433D01*
X-4528D01*
Y-85827D01*
X-4528D01*
Y-93307D01*
X2559D01*
Y-85827D01*
X2559D01*
Y-85433D01*
X2559D01*
Y-77953D01*
X2559D01*
Y-77559D01*
X2559D01*
Y-73212D01*
X2583Y-73032D01*
Y-69587D01*
X3150D01*
Y-69193D01*
X4823D01*
Y-66929D01*
Y-64665D01*
X3224D01*
Y-62642D01*
X3387Y-62033D01*
Y-61167D01*
X3163Y-60331D01*
X2731Y-59582D01*
X2118Y-58969D01*
X1369Y-58537D01*
X533Y-58313D01*
D02*
G37*
G36*
X10039Y-70473D02*
X7480D01*
Y-73228D01*
X10039D01*
Y-70473D01*
D02*
G37*
G36*
X6299D02*
X3740D01*
Y-73228D01*
X6299D01*
Y-70473D01*
D02*
G37*
G36*
X10039Y-74410D02*
X7480D01*
Y-77165D01*
X10039D01*
Y-74410D01*
D02*
G37*
G36*
X6299D02*
X3740D01*
Y-77165D01*
X6299D01*
Y-74410D01*
D02*
G37*
G36*
X10039Y-78347D02*
X7480D01*
Y-81102D01*
X10039D01*
Y-78347D01*
D02*
G37*
G36*
X6299D02*
X3740D01*
Y-81102D01*
X6299D01*
Y-78347D01*
D02*
G37*
G36*
X-13869Y-82284D02*
X-14172D01*
Y-83887D01*
X-13869D01*
Y-82284D01*
D02*
G37*
G36*
X10039D02*
X7480D01*
Y-85039D01*
X10039D01*
Y-82284D01*
D02*
G37*
G36*
X6299D02*
X3740D01*
Y-85039D01*
X6299D01*
Y-82284D01*
D02*
G37*
G36*
X10039Y-86221D02*
X7480D01*
Y-88976D01*
X10039D01*
Y-86221D01*
D02*
G37*
G36*
X6299D02*
X3740D01*
Y-88976D01*
X6299D01*
Y-86221D01*
D02*
G37*
G36*
X-42913Y-87402D02*
X-45669D01*
Y-89961D01*
X-42913D01*
Y-87402D01*
D02*
G37*
G36*
X-58661D02*
X-61417D01*
Y-89961D01*
X-58661D01*
Y-87402D01*
D02*
G37*
G36*
X-50787D02*
X-53543D01*
Y-89961D01*
X-50787D01*
Y-87402D01*
D02*
G37*
G36*
X-54724D02*
X-57480D01*
Y-89961D01*
X-54724D01*
Y-87402D01*
D02*
G37*
G36*
X-46850D02*
X-49606D01*
Y-89961D01*
X-46850D01*
Y-87402D01*
D02*
G37*
G36*
X10039Y-90158D02*
X7480D01*
Y-92913D01*
X10039D01*
Y-90158D01*
D02*
G37*
G36*
X6299D02*
X3740D01*
Y-92913D01*
X6299D01*
Y-90158D01*
D02*
G37*
G36*
X-42913Y-91142D02*
X-45669D01*
Y-93701D01*
X-42913D01*
Y-91142D01*
D02*
G37*
G36*
X-46850D02*
X-49606D01*
Y-93701D01*
X-46850D01*
Y-91142D01*
D02*
G37*
G36*
X-50787D02*
X-53543D01*
Y-93701D01*
X-50787D01*
Y-91142D01*
D02*
G37*
G36*
X-54724D02*
X-57480D01*
Y-93701D01*
X-54724D01*
Y-91142D01*
D02*
G37*
G36*
X-58661D02*
X-61417D01*
Y-93701D01*
X-58661D01*
Y-91142D01*
D02*
G37*
G36*
X-62598D02*
X-65354D01*
Y-93701D01*
X-62598D01*
Y-91142D01*
D02*
G37*
G36*
X-6336Y-95351D02*
X-8009D01*
Y-97024D01*
X-6336D01*
Y-95351D01*
D02*
G37*
G36*
X-9191D02*
X-10864D01*
Y-97024D01*
X-9191D01*
Y-95351D01*
D02*
G37*
G36*
X-16339Y-98228D02*
X-19094D01*
Y-100787D01*
X-16339D01*
Y-98228D01*
D02*
G37*
G36*
Y-101969D02*
X-19094D01*
Y-104527D01*
X-16339D01*
Y-101969D01*
D02*
G37*
G36*
X-20276D02*
X-23031D01*
Y-104527D01*
X-20276D01*
Y-101969D01*
D02*
G37*
G36*
X152918Y-54105D02*
X151245D01*
Y-55778D01*
X152918D01*
Y-54105D01*
D02*
G37*
G36*
X150064D02*
X148391D01*
Y-55778D01*
X150064D01*
Y-54105D01*
D02*
G37*
G36*
X147013D02*
X145339D01*
Y-55778D01*
X147013D01*
Y-54105D01*
D02*
G37*
G36*
X144158D02*
X142485D01*
Y-55778D01*
X144158D01*
Y-54105D01*
D02*
G37*
G36*
X152918Y-56959D02*
X148391D01*
Y-58632D01*
X147997D01*
Y-58697D01*
X147406D01*
Y-58632D01*
X147013D01*
Y-56959D01*
X142485D01*
Y-58510D01*
X140669D01*
X140369Y-58337D01*
X139533Y-58113D01*
X138667D01*
X137831Y-58337D01*
X137082Y-58769D01*
X136469Y-59382D01*
X136037Y-60131D01*
X135813Y-60967D01*
Y-61833D01*
X136037Y-62669D01*
X136469Y-63419D01*
X137082Y-64031D01*
X137831Y-64463D01*
X138667Y-64687D01*
X139533D01*
X140369Y-64463D01*
X141051Y-64069D01*
X142097D01*
Y-71700D01*
X142158Y-72007D01*
X142332Y-72268D01*
X142593Y-72442D01*
X142900Y-72503D01*
X152700D01*
X153007Y-72442D01*
X153268Y-72268D01*
X153442Y-72007D01*
X153503Y-71700D01*
Y-64069D01*
X155568D01*
X155731Y-64163D01*
X156567Y-64387D01*
X157433D01*
X158269Y-64163D01*
X159019Y-63731D01*
X159631Y-63118D01*
X160063Y-62369D01*
X160287Y-61533D01*
Y-60667D01*
X160063Y-59831D01*
X159631Y-59082D01*
X159019Y-58469D01*
X158269Y-58037D01*
X157433Y-57813D01*
X156567D01*
X155731Y-58037D01*
X154982Y-58469D01*
X154941Y-58510D01*
X152918D01*
Y-56959D01*
D02*
G37*
G36*
X88364Y-62776D02*
X86690D01*
Y-64449D01*
X88364D01*
Y-62776D01*
D02*
G37*
G36*
X85510D02*
X83836D01*
Y-64449D01*
X85510D01*
Y-62776D01*
D02*
G37*
G36*
X125433Y-56713D02*
X124567D01*
X123731Y-56937D01*
X122982Y-57369D01*
X122369Y-57981D01*
X121937Y-58731D01*
X121713Y-59567D01*
Y-60433D01*
X121937Y-61269D01*
X122369Y-62019D01*
X122982Y-62631D01*
X123394Y-62869D01*
Y-65724D01*
X122858D01*
Y-65106D01*
X122764Y-64387D01*
X122486Y-63716D01*
X122044Y-63141D01*
X119738Y-60834D01*
X119162Y-60393D01*
X118492Y-60115D01*
X117772Y-60020D01*
X105653D01*
X104933Y-60115D01*
X104263Y-60393D01*
X103687Y-60834D01*
X101381Y-63141D01*
X100939Y-63716D01*
X100662Y-64387D01*
X100567Y-65106D01*
Y-69114D01*
X100662Y-69834D01*
X100707Y-69945D01*
Y-71418D01*
X100790Y-71833D01*
X101025Y-72184D01*
X101376Y-72419D01*
X101790Y-72501D01*
X104903D01*
X105317Y-72419D01*
X105668Y-72184D01*
X105903Y-71833D01*
X105985Y-71418D01*
Y-69945D01*
X106031Y-69834D01*
X106126Y-69114D01*
Y-66258D01*
X106804Y-65580D01*
X116621D01*
X117299Y-66258D01*
Y-68504D01*
X117394Y-69223D01*
X117421Y-69290D01*
Y-71161D01*
X117815D01*
Y-72835D01*
X120079D01*
X122343D01*
Y-71284D01*
X122933D01*
Y-72835D01*
X125197D01*
X127461D01*
Y-71284D01*
X128051D01*
Y-72835D01*
X130315D01*
X132579D01*
Y-71284D01*
X135983D01*
Y-71418D01*
X136066Y-71833D01*
X136300Y-72184D01*
X136652Y-72419D01*
X137066Y-72501D01*
X140178D01*
X140593Y-72419D01*
X140944Y-72184D01*
X141179Y-71833D01*
X141261Y-71418D01*
Y-69945D01*
X141307Y-69834D01*
X141402Y-69114D01*
Y-68642D01*
X141307Y-67922D01*
X141261Y-67811D01*
Y-66810D01*
X141179Y-66396D01*
X140944Y-66044D01*
X140593Y-65810D01*
X140178Y-65727D01*
X138507D01*
X138484Y-65724D01*
X130610D01*
X130610Y-65724D01*
X126606D01*
Y-62869D01*
X127018Y-62631D01*
X127631Y-62019D01*
X128063Y-61269D01*
X128287Y-60433D01*
Y-59567D01*
X128063Y-58731D01*
X127631Y-57981D01*
X127018Y-57369D01*
X126269Y-56937D01*
X125433Y-56713D01*
D02*
G37*
G36*
X113918Y-66129D02*
X112953D01*
Y-68524D01*
X114600D01*
Y-66810D01*
X114548Y-66549D01*
X114400Y-66328D01*
X114179Y-66180D01*
X113918Y-66129D01*
D02*
G37*
G36*
X111772D02*
X110806D01*
X110545Y-66180D01*
X110324Y-66328D01*
X110177Y-66549D01*
X110125Y-66810D01*
Y-68524D01*
X111772D01*
Y-66129D01*
D02*
G37*
G36*
X158210D02*
X157244D01*
Y-68524D01*
X158891D01*
Y-66810D01*
X158839Y-66549D01*
X158692Y-66328D01*
X158470Y-66180D01*
X158210Y-66129D01*
D02*
G37*
G36*
X156063D02*
X155097D01*
X154837Y-66180D01*
X154616Y-66328D01*
X154468Y-66549D01*
X154416Y-66810D01*
Y-68524D01*
X156063D01*
Y-66129D01*
D02*
G37*
G36*
X158891Y-69705D02*
X157244D01*
Y-72100D01*
X158210D01*
X158470Y-72048D01*
X158692Y-71900D01*
X158839Y-71679D01*
X158891Y-71418D01*
Y-69705D01*
D02*
G37*
G36*
X156063D02*
X154416D01*
Y-71418D01*
X154468Y-71679D01*
X154616Y-71900D01*
X154837Y-72048D01*
X155097Y-72100D01*
X156063D01*
Y-69705D01*
D02*
G37*
G36*
X114600Y-69705D02*
X112953D01*
Y-72100D01*
X113918D01*
X114179Y-72048D01*
X114400Y-71900D01*
X114548Y-71679D01*
X114600Y-71418D01*
Y-69705D01*
D02*
G37*
G36*
X111772D02*
X110125D01*
Y-71418D01*
X110177Y-71679D01*
X110324Y-71900D01*
X110545Y-72048D01*
X110806Y-72100D01*
X111772D01*
Y-69705D01*
D02*
G37*
G36*
X132579Y-74016D02*
X130905D01*
Y-75689D01*
X132579D01*
Y-74016D01*
D02*
G37*
G36*
X129724D02*
X128051D01*
Y-75689D01*
X129724D01*
Y-74016D01*
D02*
G37*
G36*
X127461D02*
X125787D01*
Y-75689D01*
X127461D01*
Y-74016D01*
D02*
G37*
G36*
X124606D02*
X122933D01*
Y-75689D01*
X124606D01*
Y-74016D01*
D02*
G37*
G36*
X122343D02*
X120669D01*
Y-75689D01*
X122343D01*
Y-74016D01*
D02*
G37*
G36*
X119488D02*
X117815D01*
Y-75689D01*
X119488D01*
Y-74016D01*
D02*
G37*
G36*
X153629Y-92064D02*
X141647D01*
X141189Y-92155D01*
X140800Y-92414D01*
X140541Y-92803D01*
X140450Y-93261D01*
Y-97645D01*
X140541Y-98103D01*
X140800Y-98491D01*
X141189Y-98751D01*
X141647Y-98842D01*
X153629D01*
X154087Y-98751D01*
X154475Y-98491D01*
X154735Y-98103D01*
X154826Y-97645D01*
Y-93261D01*
X154735Y-92803D01*
X154475Y-92414D01*
X154087Y-92155D01*
X153629Y-92064D01*
D02*
G37*
G36*
X109338D02*
X97355D01*
X96897Y-92155D01*
X96509Y-92414D01*
X96249Y-92803D01*
X96158Y-93261D01*
Y-97645D01*
X96249Y-98103D01*
X96509Y-98491D01*
X96897Y-98751D01*
X97355Y-98842D01*
X109338D01*
X109796Y-98751D01*
X110184Y-98491D01*
X110444Y-98103D01*
X110535Y-97645D01*
Y-93261D01*
X110444Y-92803D01*
X110184Y-92414D01*
X109796Y-92155D01*
X109338Y-92064D01*
D02*
G37*
%LPD*%
D10*
X15750Y-5772D02*
Y-5732D01*
Y-5772D02*
X16939Y-6961D01*
X19673D01*
X15450Y-2561D02*
X19550D01*
X19673Y-6961D02*
X19774Y-7061D01*
X19550Y-2561D02*
X19774Y-2337D01*
X67300Y-33900D02*
Y-29463D01*
X67317Y-29447D01*
X-27559Y-89009D02*
X-26575Y-88025D01*
Y-87598D01*
X-27559Y-93504D02*
Y-89009D01*
X-16732Y-63976D02*
X-16732Y-63977D01*
Y-69893D02*
Y-63977D01*
Y-69893D02*
X-16732Y-69893D01*
X9750Y12147D02*
Y15839D01*
X9636Y12033D02*
X9750Y12147D01*
X62262Y-8088D02*
X64708D01*
X-23622Y-97244D02*
X-19882Y-93504D01*
X-24803Y-99016D02*
X-23622Y-97835D01*
Y-97244D01*
X-19882Y-93504D02*
X-19685D01*
X-27559Y-101378D02*
X-25197Y-99016D01*
X-24803D01*
X-32480Y-84842D02*
X-26384Y-78746D01*
X-32480Y-88583D02*
Y-84842D01*
X-34449Y-90551D02*
X-32480Y-88583D01*
X-38189Y-90551D02*
X-34449D01*
X-26384Y-78746D02*
X-23616D01*
X-20670Y-92519D02*
X-19685Y-93504D01*
X-20670Y-92519D02*
Y-81693D01*
X-8926Y-78746D02*
X-8465Y-79208D01*
Y-89567D02*
Y-79208D01*
X-11816Y-78746D02*
X-8926D01*
D11*
X-66486Y47787D02*
Y55856D01*
X-66535Y55905D02*
X-66486Y55856D01*
Y47787D02*
X-66437Y47737D01*
X-79232Y56595D02*
X-79134Y56693D01*
X-79232Y47737D02*
Y56595D01*
X-81840Y47787D02*
Y56447D01*
X-81595Y56693D01*
X-81840Y47787D02*
X-81791Y47737D01*
X-63829Y47787D02*
Y55856D01*
X-63878Y47737D02*
X-63829Y47787D01*
X-74065Y12648D02*
Y19930D01*
X-74114Y19979D02*
X-74065Y19930D01*
Y12648D02*
X-74016Y12598D01*
D12*
X158661Y-14173D02*
X158169Y-13321D01*
X157185D01*
X156693Y-14173D01*
X157185Y-15026D01*
X158169D01*
X158661Y-14173D01*
X155118D02*
X154626Y-13321D01*
X153642D01*
X153150Y-14173D01*
X153642Y-15026D01*
X154626D01*
X155118Y-14173D01*
X158661Y14173D02*
X158169Y15026D01*
X157185D01*
X156693Y14173D01*
X157185Y13321D01*
X158169D01*
X158661Y14173D01*
X155118D02*
X154626Y15026D01*
X153642D01*
X153150Y14173D01*
X153642Y13321D01*
X154626D01*
X155118Y14173D01*
X130700Y82500D02*
X130807D01*
X130984Y82677D01*
X140718Y5118D02*
X145276D01*
X140700Y5100D02*
X140718Y5118D01*
X155900Y18400D02*
X155905Y18395D01*
Y13780D02*
Y18395D01*
X156043Y-3800D02*
X161800D01*
X155905Y-3937D02*
X156043Y-3800D01*
X156142Y3700D02*
X161700D01*
X155905Y3937D02*
X156142Y3700D01*
X155900Y-18100D02*
X155905Y-18094D01*
Y-13780D01*
D15*
X70269Y-6513D02*
X71450Y-7694D01*
X75978D01*
X76765Y-6907D01*
X64708Y-6513D02*
X70269D01*
X64708Y-4939D02*
X70119D01*
X71699Y-3359D01*
X75687D01*
X76765Y-2281D01*
Y-1887D01*
D17*
X85132D02*
X86362Y-3118D01*
X111676D01*
X82671Y-1887D02*
X85132D01*
X111676Y-3118D02*
X114794Y0D01*
X82671Y-6907D02*
X85132D01*
X86362Y-5677D02*
X112736D01*
X85132Y-6907D02*
X86362Y-5677D01*
X112736D02*
X115854Y-2559D01*
X145276D01*
X114794Y0D02*
X145276D01*
D19*
X112200Y26707D02*
D03*
X107200D02*
D03*
X102200D02*
D03*
X97200D02*
D03*
Y55093D02*
D03*
X102200D02*
D03*
X107200D02*
D03*
X112200D02*
D03*
D20*
X74269Y49000D02*
D03*
X72300D02*
D03*
X70332D02*
D03*
Y56000D02*
D03*
X72300D02*
D03*
X74269D02*
D03*
D21*
X67850Y49547D02*
D03*
Y51516D02*
D03*
Y53484D02*
D03*
Y55453D02*
D03*
X76750D02*
D03*
Y53484D02*
D03*
Y51516D02*
D03*
Y49547D02*
D03*
D22*
X-119079Y-74805D02*
D03*
X-109237D02*
D03*
X-101363D02*
D03*
X-91521D02*
D03*
D23*
X-116874Y69900D02*
D03*
X-109000D02*
D03*
X-94226Y70000D02*
D03*
X-102100D02*
D03*
X-18500D02*
D03*
X-10626D02*
D03*
X-26100D02*
D03*
X-33974D02*
D03*
X112205Y-27559D02*
D03*
X120079D02*
D03*
X-984Y-73819D02*
D03*
X6890D02*
D03*
X-984Y-89567D02*
D03*
X6890D02*
D03*
X-984Y-81693D02*
D03*
X6890D02*
D03*
D24*
X20000Y68063D02*
D03*
Y75937D02*
D03*
X30000Y68126D02*
D03*
Y76000D02*
D03*
X87795Y-35433D02*
D03*
X21400Y-28863D02*
D03*
Y-36737D02*
D03*
X-38189Y-82677D02*
D03*
Y-90551D02*
D03*
X-46260Y-82677D02*
D03*
Y-90551D02*
D03*
X87795Y-27559D02*
D03*
X-93307Y8661D02*
D03*
Y787D02*
D03*
X98819Y-27559D02*
D03*
Y-35433D02*
D03*
X-19685Y-101378D02*
D03*
Y-93504D02*
D03*
X-27559Y-101378D02*
D03*
Y-93504D02*
D03*
X-54134Y-90551D02*
D03*
Y-82677D02*
D03*
X-62008Y-90551D02*
D03*
Y-82677D02*
D03*
D25*
X-58760Y19979D02*
D03*
X-61319D02*
D03*
X-63878D02*
D03*
X-66437D02*
D03*
X-68996D02*
D03*
X-71555D02*
D03*
X-74114D02*
D03*
X-76673D02*
D03*
X-79232D02*
D03*
X-81791D02*
D03*
X-84350D02*
D03*
X-86910D02*
D03*
Y47737D02*
D03*
X-84350D02*
D03*
X-81791D02*
D03*
X-79232D02*
D03*
X-76673D02*
D03*
X-74114D02*
D03*
X-71555D02*
D03*
X-68996D02*
D03*
X-66437D02*
D03*
X-63878D02*
D03*
X-61319D02*
D03*
D26*
X-58760D02*
D03*
D27*
X-85433Y2657D02*
D03*
Y7579D02*
D03*
X112200Y15139D02*
D03*
Y20061D02*
D03*
X9636Y12033D02*
D03*
Y7112D02*
D03*
Y-10309D02*
D03*
Y-5388D02*
D03*
X67317Y-29447D02*
D03*
Y-24525D02*
D03*
X45269Y-29742D02*
D03*
Y-24821D02*
D03*
X67400Y23861D02*
D03*
Y18939D02*
D03*
X61411Y-29447D02*
D03*
Y-24525D02*
D03*
X47200Y26539D02*
D03*
Y31461D02*
D03*
X130315Y-73425D02*
D03*
Y-68504D02*
D03*
X86100Y-65039D02*
D03*
Y-69961D02*
D03*
X120079Y-73425D02*
D03*
Y-68504D02*
D03*
X125197Y-73425D02*
D03*
Y-68504D02*
D03*
X150654Y-56368D02*
D03*
Y-61290D02*
D03*
X144749Y-56368D02*
D03*
Y-61290D02*
D03*
X74300Y62339D02*
D03*
Y67261D02*
D03*
X79528Y-34350D02*
D03*
Y-29429D02*
D03*
X-68898Y787D02*
D03*
Y-4134D02*
D03*
X-62992Y787D02*
D03*
Y-4134D02*
D03*
X-8600Y-94761D02*
D03*
Y-89839D02*
D03*
D28*
X77159Y-11631D02*
D03*
X82080D02*
D03*
X81982Y8447D02*
D03*
X77061D02*
D03*
Y3329D02*
D03*
X81982D02*
D03*
X19774Y-2337D02*
D03*
X24695D02*
D03*
X19774Y-7061D02*
D03*
X24695D02*
D03*
X77061Y-17143D02*
D03*
X81982D02*
D03*
X5413Y-66929D02*
D03*
X492D02*
D03*
X60921Y55300D02*
D03*
X56000D02*
D03*
X60921Y60400D02*
D03*
X56000D02*
D03*
D29*
X76765Y-6907D02*
D03*
X82671D02*
D03*
X76765Y-1887D02*
D03*
X82671D02*
D03*
X25187Y2387D02*
D03*
X19282D02*
D03*
D30*
X61411Y12532D02*
D03*
X59836D02*
D03*
X58261D02*
D03*
X56687D02*
D03*
X55112D02*
D03*
X53537D02*
D03*
X51962D02*
D03*
X50387D02*
D03*
X48813D02*
D03*
X47238D02*
D03*
X45663D02*
D03*
X44088D02*
D03*
X42513D02*
D03*
X40939D02*
D03*
Y-14535D02*
D03*
X42513D02*
D03*
X44088D02*
D03*
X45663D02*
D03*
X47238D02*
D03*
X48813D02*
D03*
X50387D02*
D03*
X51962D02*
D03*
X53537D02*
D03*
X55112D02*
D03*
X56687D02*
D03*
X58261D02*
D03*
X59836D02*
D03*
X61411D02*
D03*
D31*
X37641Y9235D02*
D03*
Y7660D02*
D03*
Y6085D02*
D03*
Y4510D02*
D03*
Y2935D02*
D03*
Y1361D02*
D03*
Y-214D02*
D03*
Y-1789D02*
D03*
Y-3364D02*
D03*
Y-4939D02*
D03*
Y-6513D02*
D03*
Y-8088D02*
D03*
Y-9663D02*
D03*
Y-11238D02*
D03*
X64708D02*
D03*
Y-9663D02*
D03*
Y-8088D02*
D03*
Y-6513D02*
D03*
Y-4939D02*
D03*
Y-3364D02*
D03*
Y-1789D02*
D03*
Y-214D02*
D03*
Y1361D02*
D03*
Y2935D02*
D03*
Y4510D02*
D03*
Y6085D02*
D03*
Y7660D02*
D03*
Y9235D02*
D03*
D32*
X-1092Y5340D02*
D03*
X-7982Y-3715D02*
D03*
Y5340D02*
D03*
X-1092Y-3715D02*
D03*
D33*
X145276Y0D02*
D03*
Y-2559D02*
D03*
Y-5118D02*
D03*
Y2559D02*
D03*
Y5118D02*
D03*
D34*
X155905Y-3937D02*
D03*
Y3937D02*
D03*
D35*
X103347Y-95453D02*
D03*
X147638D02*
D03*
D36*
X94331Y-69114D02*
D03*
X103347D02*
D03*
X112362D02*
D03*
X138622D02*
D03*
X147638D02*
D03*
X156653D02*
D03*
D37*
X-41339Y-67323D02*
D03*
X-58661D02*
D03*
D38*
X-17716Y-75793D02*
D03*
D39*
X-20670Y-69893D02*
D03*
X-18701D02*
D03*
X-16732D02*
D03*
X-14763D02*
D03*
Y-81693D02*
D03*
X-16732D02*
D03*
X-18701D02*
D03*
X-20670D02*
D03*
D40*
X-11816Y-72839D02*
D03*
Y-74808D02*
D03*
Y-76777D02*
D03*
Y-78746D02*
D03*
X-23616D02*
D03*
Y-76777D02*
D03*
Y-74808D02*
D03*
Y-72839D02*
D03*
D41*
X131102Y-36220D02*
D03*
Y-27953D02*
D03*
D42*
X136307Y82677D02*
D03*
X149693D02*
D03*
X105893D02*
D03*
X92507D02*
D03*
D43*
X112700Y77047D02*
D03*
Y82953D02*
D03*
D53*
X51175Y-1002D02*
D03*
D63*
X-78347Y98425D02*
D03*
X-7087D02*
D03*
D64*
X-88189D02*
D03*
X-98032D02*
D03*
X-107874D02*
D03*
X-117717D02*
D03*
X-127559D02*
D03*
X-16929D02*
D03*
X-26772D02*
D03*
X-36614D02*
D03*
X-46457D02*
D03*
X-56299D02*
D03*
D65*
X-160000Y-70000D02*
D03*
Y-60000D02*
D03*
Y-30000D02*
D03*
Y-10000D02*
D03*
Y0D02*
D03*
Y-20000D02*
D03*
X-130000Y60000D02*
D03*
Y50000D02*
D03*
Y40000D02*
D03*
X-140000Y60000D02*
D03*
Y50000D02*
D03*
Y40000D02*
D03*
X-150000Y50000D02*
D03*
Y40000D02*
D03*
Y30000D02*
D03*
Y60000D02*
D03*
X50000Y100000D02*
D03*
X20000D02*
D03*
X30000D02*
D03*
X40000D02*
D03*
X-160000Y-40000D02*
D03*
Y-50000D02*
D03*
D72*
X74803Y-96457D02*
D03*
X-153543D02*
D03*
X74803Y96457D02*
D03*
X-153543D02*
D03*
D73*
X143000Y82677D02*
D03*
X99200D02*
D03*
D74*
X112218Y59300D02*
Y76565D01*
Y57739D02*
Y59300D01*
X110541Y60959D02*
X112200Y59300D01*
Y55493D02*
Y57739D01*
X95382Y60959D02*
X110541D01*
X-81791Y1419D02*
Y19979D01*
X-69620Y-10752D02*
X-43895D01*
X-81791Y1419D02*
X-69620Y-10752D01*
X52706Y16109D02*
Y21525D01*
X72300Y41119D01*
X55100Y21360D02*
X74269Y40528D01*
X53632Y14882D02*
X55100Y16350D01*
Y21360D01*
X-160000Y-50000D02*
X-144000D01*
X30000Y76000D02*
Y100000D01*
X70837Y76000D02*
X88103Y58734D01*
X30000Y76000D02*
X70837D01*
X74269Y44713D02*
Y48898D01*
Y40528D02*
Y44713D01*
X88103Y48561D02*
Y58734D01*
X84255Y44713D02*
X88103Y48561D01*
X74269Y44713D02*
X84255D01*
X-144000Y-50000D02*
X-135000Y-41000D01*
X-70000D01*
X-58000Y-29000D01*
X-160000Y-40000D02*
X-75000D01*
X-61000Y-26000D01*
X-84016Y-60000D02*
X-54000Y-29984D01*
X-160000Y-60000D02*
X-84016D01*
X-54000Y-29984D02*
Y-26000D01*
X-81992Y-60992D02*
Y-59992D01*
X-51000Y-29000D01*
X-160000Y-70000D02*
X-144000D01*
X-134992Y-60992D02*
X-81992D01*
X-144000Y-70000D02*
X-134992Y-60992D01*
X29300Y6527D02*
Y6900D01*
Y6527D02*
X32891Y2935D01*
X37641D01*
X29748Y-2337D02*
X32810D01*
X29700Y-2289D02*
X29748Y-2337D01*
X24695D02*
X24744Y-2289D01*
X29700D01*
X31421Y-214D02*
X37641D01*
X30452Y368D02*
X30839D01*
X31421Y-214D01*
X28433Y2387D02*
X30452Y368D01*
X32810Y-2337D02*
X33358Y-1789D01*
X9636Y7112D02*
X25149D01*
X30900Y1361D02*
X37641D01*
X25149Y7112D02*
X30900Y1361D01*
X25187Y2387D02*
X28433D01*
X29371Y-5437D02*
X29777D01*
X27746Y-7061D02*
X29371Y-5437D01*
X31221Y-7200D02*
X32735D01*
X29591Y-8830D02*
X31221Y-7200D01*
X29302Y-8830D02*
X29591D01*
X41442Y-20369D02*
X43994Y-17817D01*
X-83365Y-16400D02*
X32366D01*
X-84598Y-19376D02*
X39901D01*
X-106047Y-733D02*
X-85420Y-21361D01*
X-85009Y-20369D02*
X41442D01*
X-84187Y-18384D02*
X39490D01*
X-85420Y-21361D02*
X43047D01*
X-83776Y-17392D02*
X33281D01*
X-102079Y911D02*
X-83776Y-17392D01*
X-101087Y1322D02*
X-83365Y-16400D01*
X32366D02*
X34047Y-14719D01*
X33281Y-17392D02*
X35039Y-15634D01*
X-103071Y500D02*
X-84187Y-18384D01*
X39490D02*
X40939Y-16935D01*
X-104063Y89D02*
X-84598Y-19376D01*
X39901D02*
X42419Y-16858D01*
X43047Y-21361D02*
X45663Y-18744D01*
X-105055Y-322D02*
X-85009Y-20369D01*
X43994Y-17817D02*
Y-14629D01*
X35039Y-15634D02*
Y-11588D01*
X34047Y-14719D02*
Y-11177D01*
X45663Y-18744D02*
Y-14535D01*
X-63169Y-8484D02*
Y-4311D01*
X-43895Y-10752D02*
X-15036Y18107D01*
X59836Y15326D02*
X62431Y17921D01*
Y19931D02*
X62500Y20000D01*
X59836Y12532D02*
Y15326D01*
X62431Y17921D02*
Y19931D01*
X60000Y16893D02*
Y22500D01*
X58261Y12532D02*
Y15154D01*
X60000Y16893D01*
X-160000Y13731D02*
X-145567Y28164D01*
Y44433D01*
X-140000Y50000D01*
X-160000Y0D02*
Y13731D01*
X-159350Y42224D02*
X-157126Y40000D01*
X-159350Y42224D02*
Y63779D01*
X-153839Y69291D01*
X-160546Y-75724D02*
X-118843D01*
X-164433Y-71836D02*
X-160546Y-75724D01*
X-164433Y-71836D02*
Y-14433D01*
X-160000Y-10000D01*
X53537Y12532D02*
X53632Y12626D01*
Y14882D01*
X50413Y16273D02*
X50438Y16299D01*
X51962Y12532D02*
X52057Y12626D01*
Y14710D01*
X52706Y15360D02*
Y16109D01*
X52057Y14710D02*
X52706Y15360D01*
X50413Y12557D02*
Y16273D01*
X67713Y51516D02*
Y53484D01*
X64200Y45100D02*
X67006D01*
X70332Y48425D02*
Y48898D01*
X67006Y45100D02*
X70332Y48425D01*
X76887Y49547D02*
X76910Y49524D01*
X85812D01*
X85835Y49500D01*
X69500Y42500D02*
X69900D01*
X72300Y41119D02*
Y48898D01*
X48171Y21171D02*
X69500Y42500D01*
X39168Y20861D02*
X44088Y15941D01*
X39168Y20861D02*
Y21163D01*
X44088Y12532D02*
Y15941D01*
X36332Y20791D02*
X42419Y14704D01*
X36332Y20791D02*
Y25961D01*
X43701Y19457D02*
X44000Y19756D01*
Y21756D01*
X44079Y21835D01*
X43701Y17731D02*
Y19457D01*
X46347Y19653D02*
X47143Y18857D01*
X46347Y25686D02*
X47200Y26539D01*
X46347Y19653D02*
Y25686D01*
X43700Y26600D02*
X47139D01*
X47200Y26539D01*
X48171Y15354D02*
Y21171D01*
X130984Y82677D02*
X136307D01*
X112218Y76565D02*
X112700Y77047D01*
X95793Y59967D02*
X106868D01*
X93084Y58661D02*
X95382Y60959D01*
X107218Y55711D02*
Y59616D01*
X106868Y59967D02*
X107218Y59616D01*
X-116600Y65100D02*
Y69626D01*
X-116874Y69900D02*
X-116600Y69626D01*
X-94300Y69926D02*
X-94226Y70000D01*
X-94300Y64700D02*
Y69926D01*
X-107874Y97096D02*
Y98425D01*
Y97096D02*
X-106047Y95269D01*
Y-733D02*
Y95269D01*
X-105055Y-322D02*
Y91402D01*
X-102079Y911D02*
Y25271D01*
X-103071Y500D02*
Y25681D01*
X-105055Y91402D02*
X-98032Y98425D01*
X-104063Y89D02*
Y26092D01*
X-101087Y1322D02*
Y24859D01*
X-100450Y25496D02*
X-81573D01*
X-104063Y26092D02*
X-101683Y28473D01*
X-101087Y24859D02*
X-100450Y25496D01*
X-102079Y25271D02*
X-100861Y26488D01*
X-103071Y25681D02*
X-101272Y27480D01*
X31780Y-13780D02*
X31951Y-13608D01*
X29063Y-12186D02*
X29152D01*
X34825Y-6513D01*
X31951Y-13608D02*
Y-11701D01*
X35469Y-8183D01*
X-10526Y69900D02*
X-5600D01*
X-10626Y70000D02*
X-10526Y69900D01*
X-34000Y64500D02*
Y69974D01*
X-33974Y70000D01*
X-23100Y66323D02*
X35469Y7754D01*
X-23100Y66323D02*
Y94753D01*
X-26772Y98425D02*
X-23100Y94753D01*
X-21508Y66193D02*
Y101771D01*
Y66193D02*
X35450Y9235D01*
X37641D01*
X20000Y60063D02*
Y68063D01*
X30000Y60126D02*
Y68126D01*
X20000Y77874D02*
Y100000D01*
X74300Y62339D02*
X74439Y62200D01*
X78400D01*
X-22004Y102268D02*
X-21508Y101771D01*
X-34445Y102268D02*
X-22004D01*
X82200Y-11512D02*
X88800D01*
X82080Y-11631D02*
X82200Y-11512D01*
X112261Y20000D02*
X116600D01*
X112200Y20061D02*
X112261Y20000D01*
X81982Y3329D02*
X82053Y3400D01*
X86700D01*
X82135Y8600D02*
X86700D01*
X81982Y8447D02*
X82135Y8600D01*
X149693Y82677D02*
X150016Y83000D01*
X155000D01*
X-110925Y33169D02*
X-110375Y33719D01*
Y52315D01*
X-115453Y40354D02*
Y44010D01*
X-113913Y45550D01*
X-127351Y69291D02*
X-110375Y52315D01*
X-113913Y45550D02*
Y54450D01*
X-144913Y55087D02*
X-114550D01*
X-153839Y69291D02*
X-127351D01*
X-150000Y50000D02*
X-144913Y55087D01*
X-114550D02*
X-113913Y54450D01*
X-157126Y40000D02*
X-150000D01*
X42419Y12626D02*
Y14704D01*
Y12626D02*
X42513Y12532D01*
X43701Y17731D02*
X45663Y15769D01*
Y12532D02*
Y15769D01*
X48171Y15354D02*
X48718Y14806D01*
X47143Y12626D02*
Y18857D01*
X48718Y12626D02*
Y14806D01*
Y12626D02*
X48813Y12532D01*
X50387D02*
X50413Y12557D01*
X47143Y12626D02*
X47238Y12532D01*
X130709Y-41732D02*
Y-36614D01*
X131102Y-36220D01*
X125000Y-68307D02*
X125197Y-68504D01*
X81274Y55426D02*
X81300Y55400D01*
X76887Y55453D02*
X76913Y55426D01*
X81274D01*
X55900Y60500D02*
Y64200D01*
Y60500D02*
X56000Y60400D01*
Y51100D02*
Y55300D01*
X60400Y50800D02*
Y54779D01*
X60921Y55300D01*
X63800Y51669D02*
X65616Y53484D01*
X63800Y51200D02*
Y51669D01*
X-23428Y11118D02*
X-15447Y19099D01*
X-61319Y12836D02*
X-59601Y11118D01*
X-23428D01*
X-61319Y12836D02*
Y19979D01*
X-15447Y19099D02*
X22549D01*
X35469Y6179D01*
X-93110Y787D02*
X-88779Y-3543D01*
X-93307Y787D02*
X-93110D01*
X-88779Y-3543D02*
X-88681D01*
X-85138Y-1181D02*
Y2362D01*
X-85433Y2657D02*
X-85138Y2362D01*
X19702Y-27165D02*
X21358Y-28821D01*
Y-23819D01*
Y-28821D02*
X21400Y-28863D01*
X21424Y-36713D02*
X28740D01*
X21400Y-36737D02*
X21424Y-36713D01*
X35390Y-11238D02*
X37641D01*
X35039Y-11588D02*
X35390Y-11238D01*
X35467Y-9758D02*
X37547D01*
X34047Y-11177D02*
X35467Y-9758D01*
X35469Y7754D02*
X37547D01*
X35469Y6179D02*
X37547D01*
X-15036Y18107D02*
X21966D01*
X35469Y4605D01*
X37547D01*
Y7754D02*
X37641Y7660D01*
X-35674Y99365D02*
Y101039D01*
X-36614Y98425D02*
X-35674Y99365D01*
Y101039D02*
X-34445Y102268D01*
X32735Y-7200D02*
X34997Y-4939D01*
X37641D01*
X34825Y-6513D02*
X37641D01*
X42419Y-14629D02*
X42513Y-14535D01*
X42419Y-16858D02*
Y-14629D01*
X43994D02*
X44088Y-14535D01*
X-6950Y839D02*
X570D01*
X-7982Y1872D02*
X-6950Y839D01*
X570D02*
X6842Y7112D01*
X35124Y-3364D02*
X37641D01*
X29777Y-5437D02*
X33050D01*
X35124Y-3364D01*
X24695Y-7061D02*
X27746D01*
X35469Y-8183D02*
X37547D01*
X37641Y-8088D01*
X40939Y-16935D02*
Y-14535D01*
X-63878Y19979D02*
Y23155D01*
X-101683Y28473D02*
X-69195D01*
X-63878Y23155D01*
X-66437Y19979D02*
Y23155D01*
X-70762Y27480D02*
X-66437Y23155D01*
X-101272Y27480D02*
X-70762D01*
X37547Y6179D02*
X37641Y6085D01*
X37547Y-9758D02*
X37641Y-9663D01*
X-7982Y1872D02*
Y5340D01*
X-80007Y26488D02*
X-76673Y23155D01*
X-81573Y25496D02*
X-79232Y23155D01*
Y19979D02*
Y23155D01*
X-100861Y26488D02*
X-80007D01*
X-76673Y19979D02*
Y23155D01*
X37547Y4605D02*
X37641Y4510D01*
X45269Y-20541D02*
X47238Y-18572D01*
X45269Y-24821D02*
Y-20541D01*
X47238Y-18572D02*
Y-14535D01*
X6842Y7112D02*
X9636D01*
Y-5388D02*
Y-2575D01*
X14598Y2387D01*
X19282D01*
X-73405Y571D02*
X-69114D01*
X-68898Y787D01*
X-63169Y-4311D02*
X-62992Y-4134D01*
X-68898Y-8268D02*
Y-4134D01*
Y787D02*
X-62992D01*
X-68996Y886D02*
Y19979D01*
Y886D02*
X-68898Y787D01*
X55112Y-30719D02*
X60561Y-36168D01*
X55112Y-30719D02*
Y-14535D01*
X57874Y-24803D02*
X61133D01*
X61411Y-24525D01*
X60561Y-36168D02*
X68350D01*
X70167Y-34350D01*
X79528D01*
X72835Y-50000D02*
X97638D01*
X112205Y-35433D01*
Y-27559D01*
X130709D02*
X131102Y-27953D01*
X120079Y-27559D02*
X130709D01*
X112205Y-27559D02*
X112205Y-27559D01*
X98819Y-27559D02*
X112205D01*
X87795Y-35433D02*
X98819D01*
X79528Y-34350D02*
X86713D01*
X87795Y-35433D01*
X79528Y-29429D02*
X85925D01*
X87795Y-27559D01*
Y-22835D01*
X47238Y-14535D02*
Y-11338D01*
X47200Y-11300D02*
X47238Y-11338D01*
X67491Y-24700D02*
X72600D01*
X67317Y-24525D02*
X67491Y-24700D01*
X45290Y-24800D02*
X49600D01*
X45269Y-24821D02*
X45290Y-24800D01*
X73417Y-11631D02*
X77159D01*
X69874Y-8088D02*
X73417Y-11631D01*
X64708Y-8088D02*
X69874D01*
X82539Y-17700D02*
X88100D01*
X81982Y-17143D02*
X82539Y-17700D01*
X61200Y60679D02*
Y64200D01*
X60921Y60400D02*
X61200Y60679D01*
X65616Y53484D02*
X67713D01*
X69327Y60800D02*
X72300Y57827D01*
Y56102D02*
Y57827D01*
X69200Y60800D02*
X69327D01*
X61074Y55453D02*
X67713D01*
X60921Y55300D02*
X61074Y55453D01*
X60921Y55300D02*
Y60400D01*
X68900Y67100D02*
X74139D01*
X74300Y67261D01*
X74269Y56102D02*
Y62308D01*
X74300Y62339D01*
X47200Y31461D02*
X47500Y31761D01*
Y38600D01*
X67400Y18939D02*
X67661Y19200D01*
X71400D01*
X67129Y10808D02*
X93084Y36763D01*
X68121Y10397D02*
X94076Y36352D01*
Y58250D02*
X95793Y59967D01*
X94076Y36352D02*
Y58250D01*
X93084Y36763D02*
Y58661D01*
X98774Y14974D02*
X107218Y23418D01*
X78310Y14974D02*
X98774D01*
X107218Y23418D02*
Y27325D01*
X71313Y9379D02*
X77899Y15966D01*
X72305Y8968D02*
X78310Y14974D01*
X72305Y6879D02*
Y8968D01*
X71313Y7462D02*
Y9379D01*
X66881Y7754D02*
X68121Y8995D01*
X102218Y43091D02*
Y55711D01*
X69328Y8627D02*
Y10201D01*
X102218Y43091D01*
X68121Y8995D02*
Y10397D01*
X70320Y9790D02*
X77488Y16958D01*
X67129Y9680D02*
Y10808D01*
X64708Y9235D02*
X64803Y9329D01*
X66778D01*
X67129Y9680D01*
X73297Y7097D02*
X74643Y8444D01*
X73297Y5065D02*
Y7097D01*
X74643Y8444D02*
X77057D01*
X77061Y8447D01*
X66881Y1455D02*
X72305Y6879D01*
X77899Y15966D02*
X94566D01*
X77488Y16958D02*
X90758D01*
X66881Y3030D02*
X71313Y7462D01*
X66967Y4605D02*
X70320Y7959D01*
Y9790D01*
X66786Y6085D02*
X69328Y8627D01*
X72493Y4261D02*
X73297Y5065D01*
X64803Y4605D02*
X66967D01*
X64803Y7754D02*
X66881D01*
X64708Y7660D02*
X64803Y7754D01*
X64708Y6085D02*
X66786D01*
X64708Y1361D02*
X64803Y1455D01*
X66881D01*
X64803Y3030D02*
X66881D01*
X64708Y2935D02*
X64803Y3030D01*
X64708Y4510D02*
X64803Y4605D01*
X72423Y23000D02*
X72900D01*
X67400Y23861D02*
X71562D01*
X72423Y23000D01*
X61506Y14849D02*
X61856Y15200D01*
X67049D01*
X67400Y15551D02*
Y18939D01*
X61506Y12626D02*
Y14849D01*
X67049Y15200D02*
X67400Y15551D01*
X61411Y12532D02*
X61506Y12626D01*
X96927Y50655D02*
Y55420D01*
X96636Y50364D02*
X96927Y50655D01*
Y55420D02*
X97218Y55711D01*
X67380Y23880D02*
X67400Y23861D01*
X112200Y20061D02*
X112218Y20079D01*
Y27325D01*
X61411Y-11189D02*
X61600Y-11000D01*
X61411Y-14535D02*
Y-11189D01*
X61838Y-11238D02*
X64708D01*
X61600Y-11000D02*
X61838Y-11238D01*
X62000Y-9787D02*
X62650D01*
X62679Y-9758D02*
X64614D01*
X62650Y-9787D02*
X62679Y-9758D01*
X64614D02*
X64708Y-9663D01*
X90758Y16958D02*
X97218Y23418D01*
Y27325D01*
X71943Y-1789D02*
X77061Y3329D01*
X33358Y-1789D02*
X37641D01*
X3405Y-3715D02*
X5078Y-5388D01*
X-1092Y-3715D02*
X3405D01*
X5078Y-5388D02*
X9636D01*
X94566Y15966D02*
X102209Y23609D01*
X74843Y-17143D02*
X77061D01*
X102209Y27316D02*
X102218Y27325D01*
X102209Y23609D02*
Y27316D01*
X45100Y-34600D02*
Y-29911D01*
X45269Y-29742D01*
X61300Y-1500D02*
X61589Y-1789D01*
X61500Y-2800D02*
X62064Y-3364D01*
X72100Y2300D02*
X72493Y2693D01*
Y4261D01*
X71982Y2182D02*
X72218D01*
X69586Y-214D02*
X71982Y2182D01*
X67363Y-9663D02*
X74843Y-17143D01*
X64708Y-9663D02*
X67363D01*
X67317Y-24525D02*
Y-11468D01*
X64708Y-11238D02*
X67086D01*
X67317Y-11468D01*
X61411Y-29447D02*
X61500Y-29535D01*
Y-33900D02*
Y-29535D01*
X61411Y-24525D02*
Y-14535D01*
Y-24525D02*
X61411Y-24525D01*
X64708Y-3364D02*
X67314D01*
X61589Y-1789D02*
X64708D01*
X68889D01*
X67314Y-3364D02*
X68889Y-1789D01*
X71943D01*
X62064Y-3364D02*
X64708D01*
Y-214D02*
X69586D01*
X87700Y83400D02*
X92507D01*
X112253D02*
X112700Y82953D01*
X105893Y83400D02*
X112253D01*
D75*
X-119079Y-95995D02*
X-116773Y-98302D01*
X-75540D01*
X-119079Y-95995D02*
Y-74805D01*
X-75540Y-98302D02*
X-70032Y-92794D01*
Y-88332D01*
X-65165Y-83465D01*
X-62795D01*
X-62008Y-82677D01*
X-197Y-73032D02*
Y-66943D01*
X-984Y-73819D02*
X-197Y-73032D01*
Y-66943D02*
X47Y-66699D01*
X156810Y-61290D02*
X157000Y-61100D01*
X150654Y-61290D02*
X156810D01*
X139100Y-61400D02*
X139210Y-61290D01*
X144749D01*
X138484Y-68504D02*
X138622Y-68642D01*
X130315Y-68504D02*
X130610D01*
X130610Y-68504D01*
X138484D01*
X138622Y-69114D02*
Y-68642D01*
X103347Y-65106D02*
X105653Y-62800D01*
X117772D01*
X103347Y-69114D02*
Y-65106D01*
X120079Y-68504D02*
Y-65106D01*
X117772Y-62800D02*
X120079Y-65106D01*
X125197Y-68504D02*
X130315D01*
X120079D02*
X125197D01*
X-984Y-73819D02*
X-984Y-73819D01*
Y-89567D02*
Y-81693D01*
Y-73819D01*
D76*
X-91535Y-72030D02*
X-90905Y-71400D01*
X-85401D02*
X-84501Y-70500D01*
X-91535Y-75472D02*
Y-72030D01*
X-90905Y-71400D02*
X-85401D01*
X-84501Y-70500D02*
X-84000D01*
D77*
X-71555Y47737D02*
Y56595D01*
X-70260Y57890D01*
X-69291Y56921D01*
Y54764D02*
X-68996Y54469D01*
X-69291Y54764D02*
Y56921D01*
X-84350Y47737D02*
Y55610D01*
X-85532Y56791D02*
X-84350Y55610D01*
X-68996Y47737D02*
Y54469D01*
X-74114Y47737D02*
Y55330D01*
X-75295Y56511D02*
X-74114Y55330D01*
X-75295Y56511D02*
Y56804D01*
X135000Y-8000D02*
X137882Y-5118D01*
X145276D01*
X125000Y-68307D02*
Y-60000D01*
X-58711Y13435D02*
X-58661Y13386D01*
X-58760Y19979D02*
X-58711Y19930D01*
Y13435D02*
Y19930D01*
X-61319Y53445D02*
X-58760Y56004D01*
X-61319Y47737D02*
Y53445D01*
X-76673Y55426D02*
X-75295Y56804D01*
X-76673Y47737D02*
Y55426D01*
X-75295Y56804D02*
Y56988D01*
X-86910Y55413D02*
X-85532Y56791D01*
X-86910Y47737D02*
Y55413D01*
D78*
X-70260Y57890D02*
X-56299Y71850D01*
Y98425D01*
X-58760Y47737D02*
Y56004D01*
X-8405Y97107D02*
X-7087Y98425D01*
X-85532Y56791D02*
Y82972D01*
X-78347Y90158D01*
Y98425D01*
D79*
X112308Y10798D02*
Y15032D01*
X112200Y15139D02*
X112308Y15032D01*
D80*
X47Y-61653D02*
X100Y-61600D01*
X47Y-66699D02*
Y-61653D01*
D81*
X-7825Y-74050D02*
D03*
D82*
X-34181Y-69045D02*
D03*
D83*
X-129500Y50000D02*
D03*
D84*
X-91732Y15945D02*
D03*
D85*
X40875Y-52550D02*
D03*
D86*
X147800Y-65600D02*
D03*
D87*
X-44488Y-82628D02*
D03*
D88*
X-59892Y-73179D02*
D03*
D89*
X-131166Y-88900D02*
D03*
X-79434D02*
D03*
D90*
X155905Y-13780D02*
D03*
D91*
Y13780D02*
D03*
D92*
X59298Y-66711D02*
D03*
D93*
X40400Y-77735D02*
D03*
Y-54900D02*
D03*
D94*
X145276Y9843D02*
D03*
Y-9843D02*
D03*
D95*
X52800Y19700D02*
D03*
X-51000Y-29000D02*
D03*
X-54000Y-26000D02*
D03*
X-58000Y-29000D02*
D03*
X29300Y6900D02*
D03*
X29700Y-2289D02*
D03*
X29777Y-5437D02*
D03*
X-11250Y-11261D02*
D03*
X2150D02*
D03*
X15750Y-5732D02*
D03*
X15450Y-2561D02*
D03*
X-61000Y-26000D02*
D03*
X-63169Y-8484D02*
D03*
X46500Y-1002D02*
D03*
Y-5726D02*
D03*
X62500Y20000D02*
D03*
X60000Y22500D02*
D03*
X50438Y16299D02*
D03*
X64200Y45100D02*
D03*
X85835Y49500D02*
D03*
X69900Y42500D02*
D03*
X39168Y21163D02*
D03*
X36332Y25961D02*
D03*
X44079Y21835D02*
D03*
X43700Y26600D02*
D03*
X130700Y82500D02*
D03*
X-116600Y65100D02*
D03*
X-94300Y64700D02*
D03*
X140700Y5100D02*
D03*
X155900Y18400D02*
D03*
X161800Y-3800D02*
D03*
X161700Y3700D02*
D03*
X155900Y-18100D02*
D03*
X67300Y-33900D02*
D03*
X29063Y-12186D02*
D03*
X31780Y-13780D02*
D03*
X-66535Y55905D02*
D03*
X-5600Y69900D02*
D03*
X-34000Y64500D02*
D03*
X20000Y60063D02*
D03*
X30000Y60126D02*
D03*
X78400Y62200D02*
D03*
X88800Y-11512D02*
D03*
X112308Y10798D02*
D03*
X116600Y20000D02*
D03*
X86700Y3400D02*
D03*
Y8600D02*
D03*
X155000Y83000D02*
D03*
X-26575Y-87598D02*
D03*
X130709Y-41732D02*
D03*
X-16732Y-63976D02*
D03*
X81300Y55400D02*
D03*
X55900Y64200D02*
D03*
X56000Y51100D02*
D03*
X60400Y50800D02*
D03*
X63800Y51200D02*
D03*
X-58661Y13386D02*
D03*
X-88681Y-3543D02*
D03*
X-85138Y-1181D02*
D03*
X21358Y-23819D02*
D03*
X28740Y-36713D02*
D03*
X22089Y14778D02*
D03*
X-63829Y55856D02*
D03*
X-79134Y56693D02*
D03*
X-81595D02*
D03*
X-75295Y56988D02*
D03*
X29302Y-8830D02*
D03*
X9750Y15839D02*
D03*
X-73405Y571D02*
D03*
X-68898Y-8268D02*
D03*
X-74016Y12598D02*
D03*
X57874Y-24803D02*
D03*
X87795Y-22835D02*
D03*
X72600Y-24700D02*
D03*
X49600Y-24800D02*
D03*
X88100Y-17700D02*
D03*
X61200Y64200D02*
D03*
X68900Y67100D02*
D03*
X69200Y60800D02*
D03*
X47500Y38600D02*
D03*
X71400Y19200D02*
D03*
X72900Y23000D02*
D03*
X96636Y50364D02*
D03*
X55800Y-5726D02*
D03*
Y3723D02*
D03*
Y-1002D02*
D03*
X51175Y3723D02*
D03*
X46500D02*
D03*
X51175Y-5726D02*
D03*
Y-1002D02*
D03*
X72218Y2182D02*
D03*
X42861Y-3364D02*
D03*
X59700Y-6700D02*
D03*
X61500Y-33900D02*
D03*
X45100Y-34600D02*
D03*
X-9250Y14439D02*
D03*
X87700Y83400D02*
D03*
X-16200Y-74200D02*
D03*
X-19300D02*
D03*
X-19291Y-77362D02*
D03*
X-16142D02*
D03*
D96*
X-65748Y-54331D02*
D03*
X-84000Y-70500D02*
D03*
X-115453Y40354D02*
D03*
X-110925Y33169D02*
D03*
X-120000Y50802D02*
D03*
X79300Y-76287D02*
D03*
X135000Y-8000D02*
D03*
X5906Y-101181D02*
D03*
X18110Y-96457D02*
D03*
X102613Y-102513D02*
D03*
X-70079Y-76772D02*
D03*
X125700Y-94100D02*
D03*
X-6299Y-103150D02*
D03*
X-42913Y-105118D02*
D03*
X18504Y-79528D02*
D03*
X100Y-61600D02*
D03*
X125000Y-60000D02*
D03*
X133000Y-56300D02*
D03*
X116400Y-56500D02*
D03*
X12598Y-55512D02*
D03*
X-1575Y-54724D02*
D03*
X-16929D02*
D03*
X-32283Y-55512D02*
D03*
X16800Y-68500D02*
D03*
X157000Y-61100D02*
D03*
X139100Y-61400D02*
D03*
X146300Y-105100D02*
D03*
X162300Y-56000D02*
D03*
X99900Y-56200D02*
D03*
X80700D02*
D03*
X-62205Y-102756D02*
D03*
D97*
X-58760Y56004D02*
D03*
D98*
X-95669Y20472D02*
D03*
M02*
