G04*
G04 #@! TF.GenerationSoftware,Altium Limited,Altium Designer,22.11.1 (43)*
G04*
G04 Layer_Color=16711935*
%FSLAX25Y25*%
%MOIN*%
G70*
G04*
G04 #@! TF.SameCoordinates,C353F027-9E8A-41FA-9674-E24DC2C26849*
G04*
G04*
G04 #@! TF.FilePolarity,Positive*
G04*
G01*
G75*
%ADD13C,0.01000*%
%ADD79C,0.00394*%
D13*
X167323Y98425D02*
X167282Y99401D01*
X167162Y100369D01*
X166961Y101325D01*
X166683Y102260D01*
X166328Y103170D01*
X165899Y104047D01*
X165400Y104885D01*
X164832Y105680D01*
X164201Y106425D01*
X163511Y107115D01*
X162766Y107746D01*
X161972Y108313D01*
X161133Y108813D01*
X160256Y109241D01*
X159347Y109596D01*
X158411Y109875D01*
X157456Y110075D01*
X156487Y110196D01*
X155512Y110236D01*
Y-110236D02*
X156487Y-110196D01*
X157456Y-110075D01*
X158411Y-109875D01*
X159347Y-109596D01*
X160256Y-109241D01*
X161133Y-108813D01*
X161972Y-108313D01*
X162766Y-107746D01*
X163511Y-107115D01*
X164201Y-106425D01*
X164832Y-105680D01*
X165400Y-104885D01*
X165899Y-104047D01*
X166328Y-103170D01*
X166683Y-102260D01*
X166961Y-101325D01*
X167162Y-100369D01*
X167282Y-99401D01*
X167323Y-98425D01*
X-155512Y110236D02*
X-156487Y110196D01*
X-157456Y110075D01*
X-158411Y109875D01*
X-159347Y109596D01*
X-160256Y109241D01*
X-161133Y108813D01*
X-161972Y108313D01*
X-162766Y107746D01*
X-163511Y107115D01*
X-164201Y106425D01*
X-164832Y105680D01*
X-165400Y104885D01*
X-165899Y104047D01*
X-166328Y103170D01*
X-166683Y102260D01*
X-166961Y101325D01*
X-167162Y100369D01*
X-167282Y99401D01*
X-167323Y98425D01*
Y-98425D02*
X-167282Y-99401D01*
X-167162Y-100369D01*
X-166961Y-101325D01*
X-166683Y-102260D01*
X-166328Y-103170D01*
X-165899Y-104047D01*
X-165400Y-104885D01*
X-164832Y-105680D01*
X-164201Y-106425D01*
X-163511Y-107115D01*
X-162766Y-107746D01*
X-161972Y-108313D01*
X-161133Y-108813D01*
X-160256Y-109241D01*
X-159347Y-109596D01*
X-158411Y-109875D01*
X-157456Y-110075D01*
X-156487Y-110196D01*
X-155512Y-110236D01*
X155512D01*
X-155512Y110236D02*
X155512D01*
X167323Y-98425D02*
Y98425D01*
X-167323Y-98425D02*
Y98425D01*
D79*
X161614Y-18504D02*
Y17579D01*
X162008Y-28346D02*
X160827D01*
Y-27756D01*
X161024Y-27559D01*
X161417D01*
X161614Y-27756D01*
Y-28346D01*
X161024Y-26379D02*
X160827Y-26575D01*
Y-26969D01*
X161024Y-27166D01*
X161811D01*
X162008Y-26969D01*
Y-26575D01*
X161811Y-26379D01*
X160827Y-25985D02*
X162008D01*
Y-25395D01*
X161811Y-25198D01*
X161614D01*
X161417Y-25395D01*
Y-25985D01*
Y-25395D01*
X161221Y-25198D01*
X161024D01*
X160827Y-25395D01*
Y-25985D01*
Y-22836D02*
Y-23624D01*
X162008D01*
Y-22836D01*
X161417Y-23624D02*
Y-23230D01*
X160827Y-22443D02*
X162008D01*
Y-21853D01*
X161811Y-21656D01*
X161024D01*
X160827Y-21853D01*
Y-22443D01*
X161024Y-20475D02*
X160827Y-20672D01*
Y-21065D01*
X161024Y-21262D01*
X161811D01*
X162008Y-21065D01*
Y-20672D01*
X161811Y-20475D01*
X161417D01*
Y-20868D01*
X160827Y-19294D02*
Y-20081D01*
X162008D01*
Y-19294D01*
X161417Y-20081D02*
Y-19688D01*
M02*
