G04*
G04 #@! TF.GenerationSoftware,Altium Limited,Altium Designer,22.11.1 (43)*
G04*
G04 Layer_Color=128*
%FSLAX25Y25*%
%MOIN*%
G70*
G04*
G04 #@! TF.SameCoordinates,C353F027-9E8A-41FA-9674-E24DC2C26849*
G04*
G04*
G04 #@! TF.FilePolarity,Positive*
G04*
G01*
G75*
%ADD14C,0.00500*%
D14*
X-80118Y98425D02*
X-76575D01*
X-78347Y96653D02*
Y100197D01*
X-89961Y98425D02*
X-86417D01*
X-88189Y96653D02*
Y100197D01*
X-99803Y98425D02*
X-96260D01*
X-98032Y96653D02*
Y100197D01*
X-109646Y98425D02*
X-106102D01*
X-107874Y96653D02*
Y100197D01*
X-119488Y98425D02*
X-115945D01*
X-117717Y96653D02*
Y100197D01*
X-129331Y98425D02*
X-125787D01*
X-127559Y96653D02*
Y100197D01*
X-161969Y-70000D02*
X-158031D01*
X-160000Y-71969D02*
Y-68032D01*
X-161969Y-60000D02*
X-158031D01*
X-160000Y-61968D02*
Y-58031D01*
X-135812Y-88900D02*
X-126521D01*
X-131166Y-93546D02*
Y-84254D01*
X-84079Y-88900D02*
X-74788D01*
X-79434Y-93546D02*
Y-84254D01*
X154724Y-13780D02*
X157087D01*
X155905Y-14961D02*
Y-12598D01*
X154724Y13780D02*
X157087D01*
X155905Y12598D02*
Y14961D01*
X57723Y-66711D02*
X60872D01*
X59298Y-68286D02*
Y-65136D01*
X38825Y-77735D02*
X41975D01*
X40400Y-79309D02*
Y-76160D01*
X38825Y-54900D02*
X41975D01*
X40400Y-56475D02*
Y-53325D01*
X-161969Y-30000D02*
X-158031D01*
X-160000Y-31969D02*
Y-28032D01*
X-161969Y-10000D02*
X-158031D01*
X-160000Y-11969D02*
Y-8032D01*
X-161969Y0D02*
X-158031D01*
X-160000Y-1969D02*
Y1969D01*
X-161969Y-20000D02*
X-158031D01*
X-160000Y-21969D02*
Y-18032D01*
X-131968Y60000D02*
X-128032D01*
X-130000Y58031D02*
Y61968D01*
X-131968Y50000D02*
X-128032D01*
X-130000Y48031D02*
Y51968D01*
X-131968Y40000D02*
X-128032D01*
X-130000Y38032D02*
Y41969D01*
X-141969Y60000D02*
X-138031D01*
X-140000Y58031D02*
Y61968D01*
X-141969Y50000D02*
X-138031D01*
X-140000Y48031D02*
Y51968D01*
X-141969Y40000D02*
X-138031D01*
X-140000Y38032D02*
Y41969D01*
X-151969Y50000D02*
X-148031D01*
X-150000Y48031D02*
Y51968D01*
X-151969Y40000D02*
X-148031D01*
X-150000Y38032D02*
Y41969D01*
X-151969Y30000D02*
X-148031D01*
X-150000Y28032D02*
Y31969D01*
X-151969Y60000D02*
X-148031D01*
X-150000Y58031D02*
Y61968D01*
X48031Y100000D02*
X51968D01*
X50000Y98032D02*
Y101969D01*
X18032Y100000D02*
X21969D01*
X20000Y98032D02*
Y101969D01*
X28032Y100000D02*
X31969D01*
X30000Y98032D02*
Y101969D01*
X38032Y100000D02*
X41969D01*
X40000Y98032D02*
Y101969D01*
X-161969Y-40000D02*
X-158031D01*
X-160000Y-41969D02*
Y-38032D01*
X-161969Y-50000D02*
X-158031D01*
X-160000Y-51968D02*
Y-48031D01*
X143602Y9843D02*
X146949D01*
X145276Y8169D02*
Y11516D01*
X143602Y-9843D02*
X146949D01*
X145276Y-11516D02*
Y-8169D01*
X69390Y-96457D02*
X80216D01*
X74803Y-101870D02*
Y-91043D01*
X-158957Y-96457D02*
X-148130D01*
X-153543Y-101870D02*
Y-91043D01*
X69390Y96457D02*
X80216D01*
X74803Y91043D02*
Y101870D01*
X-158957Y96457D02*
X-148130D01*
X-153543Y91043D02*
Y101870D01*
X141524Y82677D02*
X144476D01*
X143000Y81201D02*
Y84153D01*
X97724Y82677D02*
X100676D01*
X99200Y81201D02*
Y84153D01*
X-8858Y98425D02*
X-5315D01*
X-7087Y96653D02*
Y100197D01*
X-18701Y98425D02*
X-15157D01*
X-16929Y96653D02*
Y100197D01*
X-28543Y98425D02*
X-25000D01*
X-26772Y96653D02*
Y100197D01*
X-38386Y98425D02*
X-34843D01*
X-36614Y96653D02*
Y100197D01*
X-48228Y98425D02*
X-44685D01*
X-46457Y96653D02*
Y100197D01*
X-58071Y98425D02*
X-54528D01*
X-56299Y96653D02*
Y100197D01*
X52210Y19700D02*
X53391D01*
X52800Y19109D02*
Y20290D01*
X-51591Y-29000D02*
X-50409D01*
X-51000Y-29591D02*
Y-28409D01*
X-54590Y-26000D02*
X-53409D01*
X-54000Y-26591D02*
Y-25409D01*
X-58591Y-29000D02*
X-57410D01*
X-58000Y-29591D02*
Y-28409D01*
X28709Y6900D02*
X29891D01*
X29300Y6309D02*
Y7491D01*
X29109Y-2289D02*
X30290D01*
X29700Y-2879D02*
Y-1698D01*
X29186Y-5437D02*
X30367D01*
X29777Y-6028D02*
Y-4847D01*
X-11840Y-11261D02*
X-10659D01*
X-11250Y-11851D02*
Y-10670D01*
X1560Y-11261D02*
X2741D01*
X2150Y-11851D02*
Y-10670D01*
X15160Y-5732D02*
X16341D01*
X15750Y-6323D02*
Y-5142D01*
X14860Y-2561D02*
X16041D01*
X15450Y-3151D02*
Y-1970D01*
X-61590Y-26000D02*
X-60409D01*
X-61000Y-26591D02*
Y-25409D01*
X-67148Y-54331D02*
X-64348D01*
X-65748Y-55731D02*
Y-52931D01*
X-63760Y-8484D02*
X-62579D01*
X-63169Y-9075D02*
Y-7894D01*
X45909Y-1002D02*
X47091D01*
X46500Y-1592D02*
Y-411D01*
X45909Y-5726D02*
X47091D01*
X46500Y-6317D02*
Y-5135D01*
X61910Y20000D02*
X63090D01*
X62500Y19410D02*
Y20591D01*
X59409Y22500D02*
X60590D01*
X60000Y21910D02*
Y23090D01*
X49848Y16299D02*
X51029D01*
X50438Y15708D02*
Y16889D01*
X63609Y45100D02*
X64790D01*
X64200Y44509D02*
Y45691D01*
X85245Y49500D02*
X86426D01*
X85835Y48909D02*
Y50091D01*
X69310Y42500D02*
X70490D01*
X69900Y41909D02*
Y43091D01*
X38577Y21163D02*
X39758D01*
X39168Y20572D02*
Y21753D01*
X35742Y25961D02*
X36923D01*
X36332Y25370D02*
Y26551D01*
X43488Y21835D02*
X44670D01*
X44079Y21244D02*
Y22425D01*
X43109Y26600D02*
X44291D01*
X43700Y26009D02*
Y27191D01*
X130109Y82500D02*
X131291D01*
X130700Y81910D02*
Y83091D01*
X-117191Y65100D02*
X-116009D01*
X-116600Y64509D02*
Y65690D01*
X-94890Y64700D02*
X-93709D01*
X-94300Y64109D02*
Y65290D01*
X-85400Y-70500D02*
X-82600D01*
X-84000Y-71900D02*
Y-69100D01*
X140109Y5100D02*
X141291D01*
X140700Y4509D02*
Y5691D01*
X155309Y18400D02*
X156491D01*
X155900Y17809D02*
Y18991D01*
X161209Y-3800D02*
X162391D01*
X161800Y-4391D02*
Y-3209D01*
X161109Y3700D02*
X162291D01*
X161700Y3109D02*
Y4291D01*
X155309Y-18100D02*
X156491D01*
X155900Y-18690D02*
Y-17510D01*
X66710Y-33900D02*
X67891D01*
X67300Y-34491D02*
Y-33309D01*
X28472Y-12186D02*
X29653D01*
X29063Y-12777D02*
Y-11596D01*
X31189Y-13780D02*
X32370D01*
X31780Y-14370D02*
Y-13189D01*
X-67126Y55905D02*
X-65945D01*
X-66535Y55315D02*
Y56496D01*
X-6191Y69900D02*
X-5009D01*
X-5600Y69310D02*
Y70490D01*
X-34591Y64500D02*
X-33409D01*
X-34000Y63910D02*
Y65091D01*
X19410Y60063D02*
X20591D01*
X20000Y59472D02*
Y60654D01*
X29409Y60126D02*
X30591D01*
X30000Y59535D02*
Y60716D01*
X77810Y62200D02*
X78991D01*
X78400Y61610D02*
Y62791D01*
X88209Y-11512D02*
X89390D01*
X88800Y-12102D02*
Y-10921D01*
X111717Y10798D02*
X112898D01*
X112308Y10207D02*
Y11388D01*
X116009Y20000D02*
X117191D01*
X116600Y19410D02*
Y20591D01*
X86110Y3400D02*
X87291D01*
X86700Y2809D02*
Y3991D01*
X86110Y8600D02*
X87291D01*
X86700Y8009D02*
Y9191D01*
X154409Y83000D02*
X155591D01*
X155000Y82410D02*
Y83591D01*
X-116853Y40354D02*
X-114053D01*
X-115453Y38954D02*
Y41754D01*
X-112325Y33169D02*
X-109525D01*
X-110925Y31769D02*
Y34569D01*
X-121400Y50802D02*
X-118600D01*
X-120000Y49402D02*
Y52202D01*
X77900Y-76287D02*
X80700D01*
X79300Y-77687D02*
Y-74887D01*
X-27165Y-87598D02*
X-25984D01*
X-26575Y-88189D02*
Y-87008D01*
X130118Y-41732D02*
X131299D01*
X130709Y-42323D02*
Y-41142D01*
X133600Y-8000D02*
X136400D01*
X135000Y-9400D02*
Y-6600D01*
X4505Y-101181D02*
X7305D01*
X5906Y-102581D02*
Y-99781D01*
X16710Y-96457D02*
X19510D01*
X18110Y-97857D02*
Y-95057D01*
X101213Y-102513D02*
X104013D01*
X102613Y-103913D02*
Y-101113D01*
X-71479Y-76772D02*
X-68679D01*
X-70079Y-78172D02*
Y-75372D01*
X124300Y-94100D02*
X127100D01*
X125700Y-95500D02*
Y-92700D01*
X-7699Y-103150D02*
X-4899D01*
X-6299Y-104550D02*
Y-101750D01*
X-44313Y-105118D02*
X-41513D01*
X-42913Y-106518D02*
Y-103718D01*
X17104Y-79528D02*
X19904D01*
X18504Y-80928D02*
Y-78128D01*
X-17323Y-63976D02*
X-16142D01*
X-16732Y-64567D02*
Y-63386D01*
X-1300Y-61600D02*
X1500D01*
X100Y-63000D02*
Y-60200D01*
X123600Y-60000D02*
X126400D01*
X125000Y-61400D02*
Y-58600D01*
X131600Y-56300D02*
X134400D01*
X133000Y-57700D02*
Y-54900D01*
X115000Y-56500D02*
X117800D01*
X116400Y-57900D02*
Y-55100D01*
X80709Y55400D02*
X81890D01*
X81300Y54809D02*
Y55990D01*
X55309Y64200D02*
X56490D01*
X55900Y63609D02*
Y64790D01*
X55409Y51100D02*
X56590D01*
X56000Y50509D02*
Y51691D01*
X59809Y50800D02*
X60991D01*
X60400Y50209D02*
Y51390D01*
X63209Y51200D02*
X64390D01*
X63800Y50609D02*
Y51790D01*
X-59252Y13386D02*
X-58071D01*
X-58661Y12795D02*
Y13976D01*
X-89272Y-3543D02*
X-88090D01*
X-88681Y-4134D02*
Y-2953D01*
X-85728Y-1181D02*
X-84547D01*
X-85138Y-1772D02*
Y-591D01*
X20768Y-23819D02*
X21949D01*
X21358Y-24409D02*
Y-23228D01*
X28150Y-36713D02*
X29331D01*
X28740Y-37303D02*
Y-36122D01*
X21498Y14778D02*
X22679D01*
X22089Y14187D02*
Y15368D01*
X-59547Y56004D02*
X-57973D01*
X-58760Y55216D02*
Y56791D01*
X-64419Y55856D02*
X-63238D01*
X-63829Y55266D02*
Y56447D01*
X-79724Y56693D02*
X-78543D01*
X-79134Y56102D02*
Y57284D01*
X-82185Y56693D02*
X-81004D01*
X-81595Y56102D02*
Y57284D01*
X-75886Y56988D02*
X-74705D01*
X-75295Y56398D02*
Y57579D01*
X28711Y-8830D02*
X29893D01*
X29302Y-9420D02*
Y-8239D01*
X9160Y15839D02*
X10341D01*
X9750Y15249D02*
Y16430D01*
X-73996Y571D02*
X-72815D01*
X-73405Y-20D02*
Y1161D01*
X-69488Y-8268D02*
X-68307D01*
X-68898Y-8858D02*
Y-7677D01*
X-96850Y20472D02*
X-94488D01*
X-95669Y19291D02*
Y21654D01*
X11198Y-55512D02*
X13998D01*
X12598Y-56912D02*
Y-54112D01*
X-2975Y-54724D02*
X-175D01*
X-1575Y-56124D02*
Y-53324D01*
X-18329Y-54724D02*
X-15529D01*
X-16929Y-56124D02*
Y-53324D01*
X-33683Y-55512D02*
X-30883D01*
X-32283Y-56912D02*
Y-54112D01*
X-74606Y12598D02*
X-73425D01*
X-74016Y12008D02*
Y13189D01*
X57284Y-24803D02*
X58465D01*
X57874Y-25394D02*
Y-24213D01*
X87205Y-22835D02*
X88386D01*
X87795Y-23425D02*
Y-22244D01*
X72009Y-24700D02*
X73190D01*
X72600Y-25291D02*
Y-24110D01*
X49009Y-24800D02*
X50191D01*
X49600Y-25390D02*
Y-24209D01*
X87510Y-17700D02*
X88691D01*
X88100Y-18291D02*
Y-17109D01*
X60610Y64200D02*
X61791D01*
X61200Y63609D02*
Y64790D01*
X68309Y67100D02*
X69490D01*
X68900Y66509D02*
Y67690D01*
X68609Y60800D02*
X69791D01*
X69200Y60210D02*
Y61391D01*
X46909Y38600D02*
X48091D01*
X47500Y38009D02*
Y39191D01*
X70810Y19200D02*
X71991D01*
X71400Y18609D02*
Y19791D01*
X72309Y23000D02*
X73491D01*
X72900Y22410D02*
Y23591D01*
X96046Y50364D02*
X97227D01*
X96636Y49773D02*
Y50954D01*
X15400Y-68500D02*
X18200D01*
X16800Y-69900D02*
Y-67100D01*
X55209Y-5726D02*
X56391D01*
X55800Y-6317D02*
Y-5135D01*
X55209Y3723D02*
X56391D01*
X55800Y3132D02*
Y4313D01*
X55209Y-1002D02*
X56391D01*
X55800Y-1592D02*
Y-411D01*
X50584Y3723D02*
X51765D01*
X51175Y3132D02*
Y4313D01*
X45909Y3723D02*
X47091D01*
X46500Y3132D02*
Y4313D01*
X50584Y-5726D02*
X51765D01*
X51175Y-6317D02*
Y-5135D01*
X50584Y-1002D02*
X51765D01*
X51175Y-1592D02*
Y-411D01*
X71627Y2182D02*
X72808D01*
X72218Y1592D02*
Y2773D01*
X42271Y-3364D02*
X43452D01*
X42861Y-3954D02*
Y-2773D01*
X59109Y-6700D02*
X60290D01*
X59700Y-7291D02*
Y-6109D01*
X60909Y-33900D02*
X62090D01*
X61500Y-34491D02*
Y-33309D01*
X44509Y-34600D02*
X45691D01*
X45100Y-35191D02*
Y-34009D01*
X-9840Y14439D02*
X-8659D01*
X-9250Y13849D02*
Y15030D01*
X87110Y83400D02*
X88291D01*
X87700Y82810D02*
Y83991D01*
X155600Y-61100D02*
X158400D01*
X157000Y-62500D02*
Y-59700D01*
X137700Y-61400D02*
X140500D01*
X139100Y-62800D02*
Y-60000D01*
X144900Y-105100D02*
X147700D01*
X146300Y-106500D02*
Y-103700D01*
X160900Y-56000D02*
X163700D01*
X162300Y-57400D02*
Y-54600D01*
X98500Y-56200D02*
X101300D01*
X99900Y-57600D02*
Y-54800D01*
X79300Y-56200D02*
X82100D01*
X80700Y-57600D02*
Y-54800D01*
X-16791Y-74200D02*
X-15609D01*
X-16200Y-74791D02*
Y-73610D01*
X-19891Y-74200D02*
X-18710D01*
X-19300Y-74791D02*
Y-73610D01*
X-19882Y-77362D02*
X-18701D01*
X-19291Y-77953D02*
Y-76772D01*
X-16732Y-77362D02*
X-15551D01*
X-16142Y-77953D02*
Y-76772D01*
X-63605Y-102756D02*
X-60805D01*
X-62205Y-104156D02*
Y-101356D01*
M02*
