G04*
G04 #@! TF.GenerationSoftware,Altium Limited,Altium Designer,22.11.1 (43)*
G04*
G04 Layer_Color=16711935*
%FSLAX25Y25*%
%MOIN*%
G70*
G04*
G04 #@! TF.SameCoordinates,C353F027-9E8A-41FA-9674-E24DC2C26849*
G04*
G04*
G04 #@! TF.FilePolarity,Negative*
G04*
G01*
G75*
%ADD63R,0.05512X0.05512*%
%ADD64C,0.05512*%
%ADD65C,0.06693*%
%ADD66C,0.13591*%
G04:AMPARAMS|DCode=67|XSize=65.98mil|YSize=50.24mil|CornerRadius=13.31mil|HoleSize=0mil|Usage=FLASHONLY|Rotation=180.000|XOffset=0mil|YOffset=0mil|HoleType=Round|Shape=RoundedRectangle|*
%AMROUNDEDRECTD67*
21,1,0.06598,0.02362,0,0,180.0*
21,1,0.03937,0.05024,0,0,180.0*
1,1,0.02661,-0.01968,0.01181*
1,1,0.02661,0.01968,0.01181*
1,1,0.02661,0.01968,-0.01181*
1,1,0.02661,-0.01968,-0.01181*
%
%ADD67ROUNDEDRECTD67*%
G04:AMPARAMS|DCode=68|XSize=65.98mil|YSize=42.36mil|CornerRadius=11.34mil|HoleSize=0mil|Usage=FLASHONLY|Rotation=180.000|XOffset=0mil|YOffset=0mil|HoleType=Round|Shape=RoundedRectangle|*
%AMROUNDEDRECTD68*
21,1,0.06598,0.01968,0,0,180.0*
21,1,0.04331,0.04236,0,0,180.0*
1,1,0.02268,-0.02165,0.00984*
1,1,0.02268,0.02165,0.00984*
1,1,0.02268,0.02165,-0.00984*
1,1,0.02268,-0.02165,-0.00984*
%
%ADD68ROUNDEDRECTD68*%
G04:AMPARAMS|DCode=69|XSize=160.47mil|YSize=73.86mil|CornerRadius=19.21mil|HoleSize=0mil|Usage=FLASHONLY|Rotation=270.000|XOffset=0mil|YOffset=0mil|HoleType=Round|Shape=RoundedRectangle|*
%AMROUNDEDRECTD69*
21,1,0.16047,0.03543,0,0,270.0*
21,1,0.12205,0.07386,0,0,270.0*
1,1,0.03842,-0.01772,-0.06102*
1,1,0.03842,-0.01772,0.06102*
1,1,0.03842,0.01772,0.06102*
1,1,0.03842,0.01772,-0.06102*
%
%ADD69ROUNDEDRECTD69*%
G04:AMPARAMS|DCode=70|XSize=160.47mil|YSize=73.86mil|CornerRadius=19.21mil|HoleSize=0mil|Usage=FLASHONLY|Rotation=180.000|XOffset=0mil|YOffset=0mil|HoleType=Round|Shape=RoundedRectangle|*
%AMROUNDEDRECTD70*
21,1,0.16047,0.03543,0,0,180.0*
21,1,0.12205,0.07386,0,0,180.0*
1,1,0.03842,-0.06102,0.01772*
1,1,0.03842,0.06102,0.01772*
1,1,0.03842,0.06102,-0.01772*
1,1,0.03842,-0.06102,-0.01772*
%
%ADD70ROUNDEDRECTD70*%
%ADD71C,0.06008*%
%ADD72C,0.24410*%
%ADD73C,0.02953*%
D63*
X-78347Y98425D02*
D03*
X-7087D02*
D03*
D64*
X-88189D02*
D03*
X-98032D02*
D03*
X-107874D02*
D03*
X-117717D02*
D03*
X-127559D02*
D03*
X-16929D02*
D03*
X-26772D02*
D03*
X-36614D02*
D03*
X-46457D02*
D03*
X-56299D02*
D03*
D65*
X-160000Y-70000D02*
D03*
Y-60000D02*
D03*
Y-30000D02*
D03*
Y-10000D02*
D03*
Y0D02*
D03*
Y-20000D02*
D03*
X-130000Y60000D02*
D03*
Y50000D02*
D03*
Y40000D02*
D03*
X-140000Y60000D02*
D03*
Y50000D02*
D03*
Y40000D02*
D03*
X-150000Y50000D02*
D03*
Y40000D02*
D03*
Y30000D02*
D03*
Y60000D02*
D03*
X50000Y100000D02*
D03*
X20000D02*
D03*
X30000D02*
D03*
X40000D02*
D03*
X-160000Y-40000D02*
D03*
Y-50000D02*
D03*
D66*
X-131166Y-88900D02*
D03*
X-79434D02*
D03*
D67*
X155905Y-13780D02*
D03*
D68*
Y13780D02*
D03*
D69*
X59298Y-66711D02*
D03*
D70*
X40400Y-77735D02*
D03*
Y-54900D02*
D03*
D71*
X145276Y9843D02*
D03*
Y-9843D02*
D03*
D72*
X74803Y-96457D02*
D03*
X-153543D02*
D03*
X74803Y96457D02*
D03*
X-153543D02*
D03*
D73*
X143000Y82677D02*
D03*
X99200D02*
D03*
M02*
