M48
;Layer_Color=9474304
;FILE_FORMAT=2:5
INCH,TZ
;TYPE=PLATED
T1F00S00C0.01181
T2F00S00C0.01575
T3F00S00C0.02362
T5F00S00C0.02800
T7F00S00C0.03346
T8F00S00C0.03543
T9F00S00C0.03937
T10F00S00C0.09291
T11F00S00C0.10827
;TYPE=NON_PLATED
T12F00S00C0.02953
%
T01
X-26575Y-87598
X-85138Y-1181
X-88681Y-3543
X-81595Y56693
X-94300Y64700
X-116600Y65100
X-79134Y56693
X-75295Y56988
X-66535Y55905
X-63829Y55856
X-34000Y64500
X-5600Y69900
X20000Y60063
X30000Y60126
X55900Y64200
X61200
X68900Y67100
X69200Y60800
X63800Y51200
X60400Y50800
X56000Y51100
X64200Y45100
X69900Y42500
X72900Y23000
X71400Y19200
X62500Y20000
X60000Y22500
X52800Y19700
X50438Y16299
X44079Y21835
X43700Y26600
X36332Y25961
X39168Y21163
X22089Y14778
X9750Y15839
X-9250Y14439
X-11250Y-11261
X2150
X15750Y-5732
X15450Y-2561
X29700Y-2289
X29777Y-5437
X29302Y-8830
X29063Y-12186
X31780Y-13780
X21358Y-23819
X28740Y-36713
X45100Y-34600
X49600Y-24800
X57874Y-24803
X61500Y-33900
X67300
X72600Y-24700
X72218Y2182
X55800Y3723
X51175
X46500
Y-1002
X51175
X55800
Y-5726
X51175
X46500
X42861Y-3364
X59700Y-6700
X29300Y6900
X47500Y38600
X-58661Y13386
X-74016Y12598
X-73405Y571
X-68898Y-8268
X-63169Y-8484
X-61000Y-26000
X-58000Y-29000
X-51000
X-54000Y-26000
X-16732Y-63976
X-16200Y-74200
X-19300
X-19291Y-77362
X-16142
X87795Y-22835
X88100Y-17700
X88800Y-11512
X86700Y3400
Y8600
X112308Y10798
X116600Y20000
X140700Y5100
X161700Y3700
X161800Y-3800
X155900Y-18100
Y18400
X130709Y-41732
X96636Y50364
X85835Y49500
X81300Y55400
X78400Y62200
X87700Y83400
X130700Y82500
X155000Y83000
T02
X-58760Y56004
T03
X-95669Y20472
T05
X102613Y-102513
X125700Y-94100
X146300Y-105100
X18110Y-96457
X5906Y-101181
X-6299Y-103150
X-42913Y-105118
X-62205Y-102756
X-84000Y-70500
X-110925Y33169
X-115453Y40354
X-120000Y50802
X-65748Y-54331
X-70079Y-76772
X-32283Y-55512
X-16929Y-54724
X-1575
X100Y-61600
X12598Y-55512
X16800Y-68500
X18504Y-79528
X79300Y-76287
X80700Y-56200
X99900
X116400Y-56500
X125000Y-60000
X133000Y-56300
X139100Y-61400
X157000Y-61100
X162300Y-56000
X135000Y-8000
T07
X145276Y-9843
Y9843
T08
X-78347Y98425
X-56299
X-46457
X-36614
X-26772
X-16929
X-7087
X-88189
X-98032
X-107874
X-117717
X-127559
T09
X-160000Y-70000
Y-60000
Y-50000
Y-40000
Y-30000
Y-20000
Y-10000
Y0
X-150000Y30000
Y40000
X-140000
X-130000
Y50000
Y60000
X-140000
Y50000
X-150000
Y60000
X20000Y100000
X30000
X40000
X50000
T10
X-79434Y-88900
X-131166
T11
X74803Y-96457
X-153543
X74803Y96457
X-153543
T12
X99200Y82677
X143000
M30
