G04*
G04 #@! TF.GenerationSoftware,Altium Limited,Altium Designer,22.11.1 (43)*
G04*
G04 Layer_Color=65535*
%FSLAX25Y25*%
%MOIN*%
G70*
G04*
G04 #@! TF.SameCoordinates,3EAF4D91-0D8D-45E1-A7EC-BFDBC9DB4610*
G04*
G04*
G04 #@! TF.FilePolarity,Positive*
G04*
G01*
G75*
%ADD10C,0.00787*%
%ADD11C,0.00984*%
%ADD12C,0.01000*%
%ADD13C,0.00500*%
D10*
X159528Y-88268D02*
X158740D01*
X159528D01*
X15945Y-19193D02*
X84449D01*
X15945D02*
Y3445D01*
X84449D01*
Y-19193D02*
Y3445D01*
X94685Y-19193D02*
X163189D01*
X94685D02*
Y3445D01*
X163189D01*
Y-19193D02*
Y3445D01*
X179527Y-46031D02*
Y-43150D01*
Y-64961D02*
Y-62079D01*
X155118Y-43150D02*
X179527D01*
X155118Y-64961D02*
Y-43150D01*
Y-64961D02*
X179527D01*
X170081Y-20472D02*
Y-15749D01*
X172443D01*
X173230Y-16536D01*
Y-18110D01*
X172443Y-18897D01*
X170081D01*
X174804Y-15749D02*
X177953D01*
X176379D01*
Y-20472D01*
X179527Y-15749D02*
Y-20472D01*
Y-18110D01*
X182676D01*
Y-15749D01*
Y-20472D01*
X186612D02*
Y-15749D01*
X184250Y-18110D01*
X187399D01*
X-5903Y-22047D02*
Y-17324D01*
X-3541D01*
X-2754Y-18111D01*
Y-19685D01*
X-3541Y-20472D01*
X-5903D01*
X-1180Y-17324D02*
X1969D01*
X395D01*
Y-22047D01*
X3543Y-17324D02*
Y-22047D01*
Y-19685D01*
X6692D01*
Y-17324D01*
Y-22047D01*
X8266Y-18111D02*
X9053Y-17324D01*
X10627D01*
X11415Y-18111D01*
Y-18898D01*
X10627Y-19685D01*
X9840D01*
X10627D01*
X11415Y-20472D01*
Y-21259D01*
X10627Y-22047D01*
X9053D01*
X8266Y-21259D01*
X16145Y-179920D02*
Y-175198D01*
X18506D01*
X19293Y-175985D01*
Y-177559D01*
X18506Y-178346D01*
X16145D01*
X20867Y-175198D02*
X24016D01*
X22442D01*
Y-179920D01*
X25590Y-175198D02*
Y-179920D01*
Y-177559D01*
X28739D01*
Y-175198D01*
Y-179920D01*
X33462D02*
X30313D01*
X33462Y-176772D01*
Y-175985D01*
X32675Y-175198D01*
X31100D01*
X30313Y-175985D01*
X144491Y-180314D02*
Y-175591D01*
X146852D01*
X147639Y-176379D01*
Y-177953D01*
X146852Y-178740D01*
X144491D01*
X149214Y-175591D02*
X152362D01*
X150788D01*
Y-180314D01*
X153937Y-175591D02*
Y-180314D01*
Y-177953D01*
X157085D01*
Y-175591D01*
Y-180314D01*
X158659D02*
X160234D01*
X159447D01*
Y-175591D01*
X158659Y-176379D01*
X96459Y-128347D02*
X99607D01*
X98033D01*
Y-133070D01*
X101181Y-128347D02*
Y-133070D01*
X103543D01*
X104330Y-132283D01*
Y-131496D01*
X103543Y-130709D01*
X101181D01*
X103543D01*
X104330Y-129921D01*
Y-129134D01*
X103543Y-128347D01*
X101181D01*
X105904Y-133070D02*
X107478D01*
X106691D01*
Y-128347D01*
X105904Y-129134D01*
X27559Y-23229D02*
X25985D01*
X26772D01*
Y-27165D01*
X25985Y-27952D01*
X25198D01*
X24411Y-27165D01*
X29134Y-24016D02*
X29921Y-23229D01*
X31495D01*
X32282Y-24016D01*
Y-24803D01*
X31495Y-25591D01*
X30708D01*
X31495D01*
X32282Y-26378D01*
Y-27165D01*
X31495Y-27952D01*
X29921D01*
X29134Y-27165D01*
X146063Y-22835D02*
X144489D01*
X145276D01*
Y-26771D01*
X144489Y-27558D01*
X143702D01*
X142915Y-26771D01*
X150786Y-27558D02*
X147637D01*
X150786Y-24410D01*
Y-23623D01*
X149999Y-22835D01*
X148425D01*
X147637Y-23623D01*
X162323Y-68694D02*
X160749D01*
X161536D01*
Y-72629D01*
X160749Y-73417D01*
X159961D01*
X159174Y-72629D01*
X163897Y-73417D02*
X165471D01*
X164684D01*
Y-68694D01*
X163897Y-69481D01*
X87010Y-51182D02*
Y-55905D01*
X89371D01*
X90158Y-55118D01*
Y-54330D01*
X89371Y-53543D01*
X87010D01*
X89371D01*
X90158Y-52756D01*
Y-51969D01*
X89371Y-51182D01*
X87010D01*
X94094D02*
X92520D01*
X91733Y-51969D01*
Y-55118D01*
X92520Y-55905D01*
X94094D01*
X94881Y-55118D01*
Y-51969D01*
X94094Y-51182D01*
X96455Y-55905D02*
X98030D01*
X97243D01*
Y-51182D01*
X96455Y-51969D01*
D11*
X87008Y-5807D02*
X86270Y-5381D01*
Y-6233D01*
X87008Y-5807D01*
X165748D02*
X165010Y-5381D01*
Y-6233D01*
X165748Y-5807D01*
X167815Y-67520D02*
X167077Y-67093D01*
Y-67946D01*
X167815Y-67520D01*
D12*
X133425Y-52028D02*
X132468Y-52218D01*
X131657Y-52760D01*
X131115Y-53571D01*
X130925Y-54528D01*
X131115Y-55484D01*
X131657Y-56295D01*
X132468Y-56837D01*
X133425Y-57028D01*
Y-52028D02*
Y-38028D01*
Y-71028D02*
Y-57028D01*
X53425Y-71028D02*
X133425D01*
X53425D02*
Y-38028D01*
X133425D01*
X-7998Y-113961D02*
X-2000D01*
Y-110962D01*
X-2999Y-109962D01*
X-3999D01*
X-4999Y-110962D01*
Y-113961D01*
Y-110962D01*
X-5998Y-109962D01*
X-6998D01*
X-7998Y-110962D01*
Y-113961D01*
X-5998Y-107963D02*
X-2000D01*
X-3999D01*
X-4999Y-106963D01*
X-5998Y-105963D01*
Y-104964D01*
X-2000Y-98966D02*
Y-100965D01*
X-2999Y-101964D01*
X-4999D01*
X-5998Y-100965D01*
Y-98966D01*
X-4999Y-97966D01*
X-3999D01*
Y-101964D01*
X-5998Y-94967D02*
Y-92967D01*
X-4999Y-91968D01*
X-2000D01*
Y-94967D01*
X-2999Y-95967D01*
X-3999Y-94967D01*
Y-91968D01*
X-2000Y-89968D02*
X-7998D01*
X-3999D02*
X-5998Y-86969D01*
X-3999Y-89968D02*
X-2000Y-86969D01*
Y-82971D02*
Y-80971D01*
X-2999Y-79972D01*
X-4999D01*
X-5998Y-80971D01*
Y-82971D01*
X-4999Y-83970D01*
X-2999D01*
X-2000Y-82971D01*
X-5998Y-77972D02*
X-2999D01*
X-2000Y-76973D01*
Y-73974D01*
X-5998D01*
X-6998Y-70974D02*
X-5998D01*
Y-71974D01*
Y-69975D01*
Y-70974D01*
X-2999D01*
X-2000Y-69975D01*
X-1000Y-66976D02*
Y-62977D01*
X-7998Y-60978D02*
X-3999D01*
X-2000Y-58978D01*
X-3999Y-56979D01*
X-7998D01*
X-2000Y-54980D02*
Y-52980D01*
Y-53980D01*
X-7998D01*
X-6998Y-54980D01*
X-2000Y-49981D02*
X-2999D01*
Y-48982D01*
X-2000D01*
Y-49981D01*
X-6998Y-44983D02*
X-7998Y-43983D01*
Y-41984D01*
X-6998Y-40984D01*
X-2999D01*
X-2000Y-41984D01*
Y-43983D01*
X-2999Y-44983D01*
X-6998D01*
D13*
X174055Y-163425D02*
Y-93425D01*
X4055Y-163425D02*
X174055D01*
X4055D02*
Y-93425D01*
X174055D01*
M02*
