G04*
G04 #@! TF.GenerationSoftware,Altium Limited,Altium Designer,22.11.1 (43)*
G04*
G04 Layer_Color=16711935*
%FSLAX25Y25*%
%MOIN*%
G70*
G04*
G04 #@! TF.SameCoordinates,3EAF4D91-0D8D-45E1-A7EC-BFDBC9DB4610*
G04*
G04*
G04 #@! TF.FilePolarity,Positive*
G04*
G01*
G75*
%ADD12C,0.01000*%
D12*
X190945Y1969D02*
X190904Y2944D01*
X190784Y3912D01*
X190584Y4868D01*
X190305Y5804D01*
X189950Y6713D01*
X189521Y7590D01*
X189022Y8428D01*
X188454Y9223D01*
X187823Y9968D01*
X187133Y10658D01*
X186388Y11289D01*
X185594Y11856D01*
X184755Y12356D01*
X183878Y12785D01*
X182969Y13140D01*
X182033Y13418D01*
X181078Y13618D01*
X180109Y13739D01*
X179134Y13780D01*
Y-190945D02*
X180109Y-190904D01*
X181078Y-190784D01*
X182033Y-190584D01*
X182969Y-190305D01*
X183878Y-189950D01*
X184755Y-189521D01*
X185594Y-189022D01*
X186388Y-188454D01*
X187133Y-187823D01*
X187823Y-187133D01*
X188454Y-186388D01*
X189022Y-185594D01*
X189521Y-184755D01*
X189950Y-183878D01*
X190305Y-182969D01*
X190584Y-182033D01*
X190784Y-181078D01*
X190904Y-180109D01*
X190945Y-179134D01*
X-1969Y13780D02*
X-2944Y13739D01*
X-3912Y13618D01*
X-4868Y13418D01*
X-5804Y13140D01*
X-6713Y12785D01*
X-7590Y12356D01*
X-8428Y11856D01*
X-9223Y11289D01*
X-9968Y10658D01*
X-10658Y9968D01*
X-11289Y9223D01*
X-11856Y8428D01*
X-12356Y7590D01*
X-12785Y6713D01*
X-13140Y5804D01*
X-13418Y4868D01*
X-13618Y3912D01*
X-13739Y2944D01*
X-13780Y1969D01*
Y-179134D02*
X-13739Y-180109D01*
X-13618Y-181078D01*
X-13418Y-182033D01*
X-13140Y-182969D01*
X-12785Y-183878D01*
X-12356Y-184755D01*
X-11856Y-185594D01*
X-11289Y-186388D01*
X-10658Y-187133D01*
X-9968Y-187823D01*
X-9223Y-188454D01*
X-8428Y-189022D01*
X-7590Y-189521D01*
X-6713Y-189950D01*
X-5804Y-190305D01*
X-4868Y-190584D01*
X-3912Y-190784D01*
X-2944Y-190904D01*
X-1969Y-190945D01*
X179134D01*
X-1969Y13780D02*
X179134D01*
X190945Y-179134D02*
Y1969D01*
X-13780Y-179134D02*
Y1969D01*
M02*
