G04*
G04 #@! TF.GenerationSoftware,Altium Limited,Altium Designer,22.11.1 (43)*
G04*
G04 Layer_Physical_Order=1*
G04 Layer_Color=255*
%FSLAX25Y25*%
%MOIN*%
G70*
G04*
G04 #@! TF.SameCoordinates,3EAF4D91-0D8D-45E1-A7EC-BFDBC9DB4610*
G04*
G04*
G04 #@! TF.FilePolarity,Positive*
G04*
G01*
G75*
%ADD10C,0.00787*%
%ADD17R,0.05512X0.05512*%
%ADD18C,0.05512*%
%ADD23C,0.05906*%
%ADD24C,0.07874*%
%ADD25C,0.01500*%
%ADD26C,0.23622*%
%ADD27R,0.07087X0.07087*%
%ADD28C,0.07087*%
%ADD29R,0.06299X0.06299*%
%ADD30C,0.06299*%
%ADD31R,0.05500X0.10000*%
%ADD32O,0.05500X0.10000*%
G36*
X175406Y12477D02*
X174215Y12288D01*
X172329Y11675D01*
X170562Y10775D01*
X168958Y9610D01*
X167556Y8207D01*
X166390Y6603D01*
X165490Y4836D01*
X164877Y2950D01*
X164567Y991D01*
Y-991D01*
X164877Y-2950D01*
X165490Y-4836D01*
X166390Y-6603D01*
X167556Y-8207D01*
X168958Y-9610D01*
X170562Y-10775D01*
X172329Y-11675D01*
X174215Y-12288D01*
X176174Y-12598D01*
X178157D01*
X180115Y-12288D01*
X182001Y-11675D01*
X183768Y-10775D01*
X185373Y-9610D01*
X186775Y-8207D01*
X187941Y-6603D01*
X188841Y-4836D01*
X189454Y-2950D01*
X189642Y-1760D01*
X190142Y-1799D01*
Y-175366D01*
X189642Y-175406D01*
X189454Y-174215D01*
X188841Y-172329D01*
X187941Y-170562D01*
X186775Y-168958D01*
X185373Y-167556D01*
X183768Y-166390D01*
X182001Y-165490D01*
X180115Y-164877D01*
X178157Y-164567D01*
X176174D01*
X174215Y-164877D01*
X172329Y-165490D01*
X170562Y-166390D01*
X168958Y-167556D01*
X167556Y-168958D01*
X166390Y-170562D01*
X165490Y-172329D01*
X164877Y-174215D01*
X164567Y-176174D01*
Y-178157D01*
X164877Y-180115D01*
X165490Y-182001D01*
X166390Y-183768D01*
X167556Y-185373D01*
X168958Y-186775D01*
X170562Y-187941D01*
X172329Y-188841D01*
X174215Y-189454D01*
X175406Y-189642D01*
X175366Y-190142D01*
X1799D01*
X1760Y-189642D01*
X2950Y-189454D01*
X4836Y-188841D01*
X6603Y-187941D01*
X8207Y-186775D01*
X9610Y-185373D01*
X10775Y-183768D01*
X11675Y-182001D01*
X12288Y-180115D01*
X12598Y-178157D01*
Y-176174D01*
X12288Y-174215D01*
X11675Y-172329D01*
X10775Y-170562D01*
X9610Y-168958D01*
X8207Y-167556D01*
X6603Y-166390D01*
X4836Y-165490D01*
X2950Y-164877D01*
X991Y-164567D01*
X-991D01*
X-2950Y-164877D01*
X-4836Y-165490D01*
X-6603Y-166390D01*
X-8207Y-167556D01*
X-9610Y-168958D01*
X-10775Y-170562D01*
X-11675Y-172329D01*
X-12288Y-174215D01*
X-12477Y-175406D01*
X-12977Y-175366D01*
Y-1799D01*
X-12477Y-1760D01*
X-12288Y-2950D01*
X-11675Y-4836D01*
X-10775Y-6603D01*
X-9610Y-8207D01*
X-8207Y-9610D01*
X-6603Y-10775D01*
X-4836Y-11675D01*
X-2950Y-12288D01*
X-991Y-12598D01*
X991D01*
X2950Y-12288D01*
X4836Y-11675D01*
X6603Y-10775D01*
X8207Y-9610D01*
X9610Y-8207D01*
X10775Y-6603D01*
X11675Y-4836D01*
X12288Y-2950D01*
X12598Y-991D01*
Y991D01*
X12288Y2950D01*
X11675Y4836D01*
X10775Y6603D01*
X9610Y8207D01*
X8207Y9610D01*
X6603Y10775D01*
X4836Y11675D01*
X2950Y12288D01*
X1760Y12477D01*
X1799Y12977D01*
X175366D01*
X175406Y12477D01*
D02*
G37*
%LPC*%
G36*
X114764Y-2705D02*
Y-5217D01*
X117276D01*
X117108Y-4591D01*
X116693Y-3873D01*
X116107Y-3287D01*
X115389Y-2872D01*
X114764Y-2705D01*
D02*
G37*
G36*
X113583Y-2705D02*
X112958Y-2872D01*
X112239Y-3287D01*
X111653Y-3873D01*
X111238Y-4591D01*
X111071Y-5217D01*
X113583D01*
Y-2705D01*
D02*
G37*
G36*
X117276Y-6398D02*
X114764D01*
Y-8910D01*
X115389Y-8742D01*
X116107Y-8327D01*
X116693Y-7741D01*
X117108Y-7023D01*
X117276Y-6398D01*
D02*
G37*
G36*
X38535D02*
X36024D01*
Y-8910D01*
X36649Y-8742D01*
X37367Y-8327D01*
X37953Y-7741D01*
X38368Y-7023D01*
X38535Y-6398D01*
D02*
G37*
G36*
X113583D02*
X111071D01*
X111238Y-7023D01*
X111653Y-7741D01*
X112239Y-8327D01*
X112958Y-8742D01*
X113583Y-8910D01*
Y-6398D01*
D02*
G37*
G36*
X34843D02*
X32331D01*
X32498Y-7023D01*
X32913Y-7741D01*
X33499Y-8327D01*
X34217Y-8742D01*
X34843Y-8910D01*
Y-6398D01*
D02*
G37*
G36*
X104331Y-2035D02*
X103354Y-2163D01*
X102445Y-2540D01*
X101663Y-3140D01*
X95758Y-9045D01*
X95158Y-9826D01*
X94781Y-10736D01*
X94653Y-11713D01*
Y-29528D01*
X94781Y-30504D01*
X94857Y-30687D01*
Y-31778D01*
X94979Y-32701D01*
X95335Y-33562D01*
X95902Y-34301D01*
X96641Y-34868D01*
X97502Y-35224D01*
X98425Y-35346D01*
X99349Y-35224D01*
X100209Y-34868D01*
X100948Y-34301D01*
X101515Y-33562D01*
X101872Y-32701D01*
X101993Y-31778D01*
Y-30687D01*
X102069Y-30504D01*
X102198Y-29528D01*
Y-13275D01*
X106998Y-8475D01*
X107598Y-7693D01*
X107975Y-6784D01*
X108103Y-5807D01*
X107975Y-4831D01*
X107598Y-3921D01*
X106998Y-3140D01*
X106217Y-2540D01*
X105307Y-2163D01*
X104331Y-2035D01*
D02*
G37*
G36*
X68425Y-23710D02*
X67502Y-23831D01*
X66641Y-24188D01*
X65902Y-24755D01*
X65335Y-25494D01*
X64979Y-26354D01*
X64857Y-27278D01*
Y-31778D01*
X64979Y-32701D01*
X65335Y-33562D01*
X65902Y-34301D01*
X66641Y-34868D01*
X67502Y-35224D01*
X68425Y-35346D01*
X69349Y-35224D01*
X70209Y-34868D01*
X70948Y-34301D01*
X71515Y-33562D01*
X71872Y-32701D01*
X71993Y-31778D01*
Y-27278D01*
X71872Y-26354D01*
X71515Y-25494D01*
X70948Y-24755D01*
X70209Y-24188D01*
X69349Y-23831D01*
X68425Y-23710D01*
D02*
G37*
G36*
X177712Y-46102D02*
X176934D01*
X176183Y-46304D01*
X175510Y-46692D01*
X174960Y-47242D01*
X174571Y-47915D01*
X174370Y-48666D01*
Y-49444D01*
X174571Y-50195D01*
X174960Y-50868D01*
X175510Y-51418D01*
X176183Y-51807D01*
X176934Y-52008D01*
X177712D01*
X178463Y-51807D01*
X179136Y-51418D01*
X179686Y-50868D01*
X180074Y-50195D01*
X180276Y-49444D01*
Y-48666D01*
X180074Y-47915D01*
X179686Y-47242D01*
X179136Y-46692D01*
X178463Y-46304D01*
X177712Y-46102D01*
D02*
G37*
G36*
X167841Y-45118D02*
X166805D01*
X165803Y-45386D01*
X164906Y-45905D01*
X164172Y-46638D01*
X163654Y-47535D01*
X163386Y-48537D01*
Y-49573D01*
X163654Y-50575D01*
X164172Y-51473D01*
X164906Y-52205D01*
X165803Y-52724D01*
X166805Y-52992D01*
X167841D01*
X168842Y-52724D01*
X169740Y-52205D01*
X170473Y-51473D01*
X170992Y-50575D01*
X171260Y-49573D01*
Y-48537D01*
X170992Y-47535D01*
X170473Y-46638D01*
X169740Y-45905D01*
X168842Y-45386D01*
X167841Y-45118D01*
D02*
G37*
G36*
X177712Y-56102D02*
X176934D01*
X176183Y-56304D01*
X175510Y-56692D01*
X174960Y-57242D01*
X174571Y-57915D01*
X174370Y-58666D01*
Y-59444D01*
X174571Y-60195D01*
X174960Y-60868D01*
X175510Y-61418D01*
X176183Y-61807D01*
X176934Y-62008D01*
X177712D01*
X178463Y-61807D01*
X179136Y-61418D01*
X179686Y-60868D01*
X180074Y-60195D01*
X180276Y-59444D01*
Y-58666D01*
X180074Y-57915D01*
X179686Y-57242D01*
X179136Y-56692D01*
X178463Y-56304D01*
X177712Y-56102D01*
D02*
G37*
G36*
X89016Y-74185D02*
Y-78937D01*
X91596D01*
Y-77278D01*
X91488Y-76457D01*
X91171Y-75692D01*
X90667Y-75035D01*
X90011Y-74532D01*
X89246Y-74215D01*
X89016Y-74185D01*
D02*
G37*
G36*
X91596Y-80118D02*
X89016D01*
Y-84871D01*
X89246Y-84840D01*
X90011Y-84524D01*
X90667Y-84020D01*
X91171Y-83363D01*
X91488Y-82598D01*
X91596Y-81778D01*
Y-80118D01*
D02*
G37*
G36*
X58425Y-73710D02*
X57502Y-73831D01*
X56641Y-74188D01*
X55902Y-74755D01*
X55335Y-75494D01*
X54979Y-76354D01*
X54857Y-77278D01*
Y-81778D01*
X54979Y-82701D01*
X55219Y-83281D01*
X48204Y-90296D01*
X47943Y-90687D01*
X47851Y-91148D01*
X47851Y-91148D01*
Y-94264D01*
X47383Y-94390D01*
X46396Y-94960D01*
X45590Y-95766D01*
X45020Y-96754D01*
X44724Y-97855D01*
Y-98995D01*
X45020Y-100097D01*
X45590Y-101084D01*
X46396Y-101891D01*
X47383Y-102461D01*
X48485Y-102756D01*
X49625D01*
X50727Y-102461D01*
X51714Y-101891D01*
X52521Y-101084D01*
X53091Y-100097D01*
X53386Y-98995D01*
Y-97855D01*
X53091Y-96754D01*
X52521Y-95766D01*
X51714Y-94960D01*
X50727Y-94390D01*
X50259Y-94264D01*
Y-91646D01*
X56922Y-84984D01*
X57502Y-85224D01*
X58425Y-85346D01*
X59349Y-85224D01*
X60209Y-84868D01*
X60948Y-84301D01*
X61515Y-83561D01*
X61872Y-82701D01*
X61993Y-81778D01*
Y-77278D01*
X61872Y-76354D01*
X61515Y-75494D01*
X60948Y-74755D01*
X60209Y-74188D01*
X59349Y-73831D01*
X58425Y-73710D01*
D02*
G37*
G36*
X149625Y-94095D02*
X148485D01*
X147383Y-94390D01*
X146396Y-94960D01*
X145590Y-95766D01*
X145020Y-96754D01*
X144724Y-97855D01*
Y-98995D01*
X145020Y-100097D01*
X145590Y-101084D01*
X146396Y-101891D01*
X147383Y-102461D01*
X148485Y-102756D01*
X149625D01*
X150727Y-102461D01*
X151714Y-101891D01*
X152521Y-101084D01*
X153091Y-100097D01*
X153386Y-98995D01*
Y-97855D01*
X153091Y-96754D01*
X152521Y-95766D01*
X151714Y-94960D01*
X150727Y-94390D01*
X149625Y-94095D01*
D02*
G37*
G36*
X139625D02*
X138485D01*
X137383Y-94390D01*
X136396Y-94960D01*
X135590Y-95766D01*
X135020Y-96754D01*
X134724Y-97855D01*
Y-98995D01*
X135020Y-100097D01*
X135590Y-101084D01*
X136396Y-101891D01*
X137383Y-102461D01*
X138485Y-102756D01*
X139625D01*
X140727Y-102461D01*
X141714Y-101891D01*
X142520Y-101084D01*
X143091Y-100097D01*
X143386Y-98995D01*
Y-97855D01*
X143091Y-96754D01*
X142520Y-95766D01*
X141714Y-94960D01*
X140727Y-94390D01*
X139625Y-94095D01*
D02*
G37*
G36*
X129625D02*
X128485D01*
X127383Y-94390D01*
X126396Y-94960D01*
X125590Y-95766D01*
X125020Y-96754D01*
X124724Y-97855D01*
Y-98995D01*
X125020Y-100097D01*
X125590Y-101084D01*
X126396Y-101891D01*
X127383Y-102461D01*
X128485Y-102756D01*
X129625D01*
X130727Y-102461D01*
X131714Y-101891D01*
X132520Y-101084D01*
X133091Y-100097D01*
X133386Y-98995D01*
Y-97855D01*
X133091Y-96754D01*
X132520Y-95766D01*
X131714Y-94960D01*
X130727Y-94390D01*
X129625Y-94095D01*
D02*
G37*
G36*
X78425Y-73710D02*
X77502Y-73831D01*
X76641Y-74188D01*
X75902Y-74755D01*
X75335Y-75494D01*
X74979Y-76354D01*
X74857Y-77278D01*
Y-81778D01*
X74979Y-82701D01*
X75335Y-83561D01*
X75902Y-84301D01*
X76641Y-84868D01*
X77502Y-85224D01*
X77536Y-85228D01*
Y-94349D01*
X77384Y-94390D01*
X76396Y-94960D01*
X75590Y-95766D01*
X75020Y-96754D01*
X74724Y-97855D01*
Y-98995D01*
X75020Y-100097D01*
X75590Y-101084D01*
X76396Y-101891D01*
X77384Y-102461D01*
X78485Y-102756D01*
X79625D01*
X80727Y-102461D01*
X81714Y-101891D01*
X82521Y-101084D01*
X83091Y-100097D01*
X83386Y-98995D01*
Y-97855D01*
X83091Y-96754D01*
X82521Y-95766D01*
X81714Y-94960D01*
X80727Y-94390D01*
X79944Y-94180D01*
Y-84977D01*
X80209Y-84868D01*
X80948Y-84301D01*
X81515Y-83561D01*
X81872Y-82701D01*
X81993Y-81778D01*
Y-77278D01*
X81872Y-76354D01*
X81515Y-75494D01*
X80948Y-74755D01*
X80209Y-74188D01*
X79349Y-73831D01*
X78425Y-73710D01*
D02*
G37*
G36*
X68425D02*
X67502Y-73831D01*
X66641Y-74188D01*
X65902Y-74755D01*
X65335Y-75494D01*
X64979Y-76354D01*
X64857Y-77278D01*
Y-81778D01*
X64979Y-82701D01*
X65335Y-83561D01*
X65902Y-84301D01*
X66641Y-84868D01*
X67502Y-85224D01*
X67536Y-85228D01*
Y-94349D01*
X67383Y-94390D01*
X66396Y-94960D01*
X65590Y-95766D01*
X65020Y-96754D01*
X64724Y-97855D01*
Y-98995D01*
X65020Y-100097D01*
X65590Y-101084D01*
X66396Y-101891D01*
X67383Y-102461D01*
X68485Y-102756D01*
X69625D01*
X70727Y-102461D01*
X71714Y-101891D01*
X72521Y-101084D01*
X73091Y-100097D01*
X73386Y-98995D01*
Y-97855D01*
X73091Y-96754D01*
X72521Y-95766D01*
X71714Y-94960D01*
X70727Y-94390D01*
X69944Y-94180D01*
Y-84977D01*
X70209Y-84868D01*
X70948Y-84301D01*
X71515Y-83561D01*
X71872Y-82701D01*
X71993Y-81778D01*
Y-77278D01*
X71872Y-76354D01*
X71515Y-75494D01*
X70948Y-74755D01*
X70209Y-74188D01*
X69349Y-73831D01*
X68425Y-73710D01*
D02*
G37*
G36*
X59625Y-94095D02*
X58485D01*
X57384Y-94390D01*
X56396Y-94960D01*
X55590Y-95766D01*
X55020Y-96754D01*
X54724Y-97855D01*
Y-98995D01*
X55020Y-100097D01*
X55590Y-101084D01*
X56396Y-101891D01*
X57384Y-102461D01*
X58485Y-102756D01*
X59625D01*
X60727Y-102461D01*
X61714Y-101891D01*
X62520Y-101084D01*
X63091Y-100097D01*
X63386Y-98995D01*
Y-97855D01*
X63091Y-96754D01*
X62520Y-95766D01*
X61714Y-94960D01*
X60727Y-94390D01*
X59625Y-94095D01*
D02*
G37*
G36*
X39625D02*
X38485D01*
X37383Y-94390D01*
X36396Y-94960D01*
X35590Y-95766D01*
X35019Y-96754D01*
X34724Y-97855D01*
Y-98995D01*
X35019Y-100097D01*
X35590Y-101084D01*
X36396Y-101891D01*
X37383Y-102461D01*
X38485Y-102756D01*
X39625D01*
X40727Y-102461D01*
X41714Y-101891D01*
X42520Y-101084D01*
X43091Y-100097D01*
X43386Y-98995D01*
Y-97855D01*
X43091Y-96754D01*
X42520Y-95766D01*
X41714Y-94960D01*
X40727Y-94390D01*
X39625Y-94095D01*
D02*
G37*
G36*
X29625D02*
X28485D01*
X27384Y-94390D01*
X26396Y-94960D01*
X25590Y-95766D01*
X25020Y-96754D01*
X24724Y-97855D01*
Y-98995D01*
X25020Y-100097D01*
X25590Y-101084D01*
X26396Y-101891D01*
X27384Y-102461D01*
X28485Y-102756D01*
X29625D01*
X30727Y-102461D01*
X31714Y-101891D01*
X32520Y-101084D01*
X33091Y-100097D01*
X33386Y-98995D01*
Y-97855D01*
X33091Y-96754D01*
X32520Y-95766D01*
X31714Y-94960D01*
X30727Y-94390D01*
X29625Y-94095D01*
D02*
G37*
G36*
X19625D02*
X18485D01*
X17383Y-94390D01*
X16396Y-94960D01*
X15590Y-95766D01*
X15020Y-96754D01*
X14724Y-97855D01*
Y-98995D01*
X15020Y-100097D01*
X15590Y-101084D01*
X16396Y-101891D01*
X17383Y-102461D01*
X18485Y-102756D01*
X19625D01*
X20727Y-102461D01*
X21714Y-101891D01*
X22521Y-101084D01*
X23091Y-100097D01*
X23386Y-98995D01*
Y-97855D01*
X23091Y-96754D01*
X22521Y-95766D01*
X21714Y-94960D01*
X20727Y-94390D01*
X19625Y-94095D01*
D02*
G37*
G36*
X79516Y5446D02*
X33071D01*
X32094Y5317D01*
X31185Y4940D01*
X30403Y4341D01*
X22923Y-3140D01*
X22323Y-3921D01*
X21947Y-4831D01*
X21818Y-5807D01*
X21947Y-6784D01*
X22323Y-7693D01*
X22923Y-8475D01*
X23704Y-9074D01*
X24614Y-9451D01*
X25591Y-9579D01*
X26567Y-9451D01*
X27477Y-9074D01*
X28258Y-8475D01*
X31922Y-4811D01*
X32370Y-5070D01*
X32331Y-5217D01*
X35433D01*
X38535D01*
X38368Y-4591D01*
X37953Y-3873D01*
X37367Y-3287D01*
X36649Y-2872D01*
X35848Y-2657D01*
X35148D01*
X34914Y-2365D01*
X34849Y-2185D01*
X34901Y-2099D01*
X43611D01*
X43745Y-2599D01*
X43100Y-2972D01*
X42440Y-3632D01*
X41974Y-4439D01*
X41732Y-5341D01*
Y-6274D01*
X41974Y-7175D01*
X42440Y-7983D01*
X43100Y-8642D01*
X43908Y-9109D01*
X44071Y-9153D01*
Y-29134D01*
X44071Y-29134D01*
X44163Y-29595D01*
X44424Y-29985D01*
X82654Y-68215D01*
Y-93228D01*
X82654Y-93228D01*
X82746Y-93689D01*
X83007Y-94080D01*
X85261Y-96335D01*
X85020Y-96754D01*
X84724Y-97855D01*
Y-98995D01*
X85020Y-100097D01*
X85590Y-101084D01*
X86396Y-101891D01*
X87384Y-102461D01*
X88485Y-102756D01*
X89625D01*
X90727Y-102461D01*
X91714Y-101891D01*
X92520Y-101084D01*
X93091Y-100097D01*
X93386Y-98995D01*
Y-97855D01*
X93091Y-96754D01*
X92520Y-95766D01*
X91714Y-94960D01*
X90727Y-94390D01*
X89625Y-94095D01*
X88485D01*
X87384Y-94390D01*
X86964Y-94632D01*
X85062Y-92730D01*
Y-83181D01*
X85562Y-83081D01*
X85679Y-83363D01*
X86183Y-84020D01*
X86840Y-84524D01*
X87604Y-84840D01*
X87835Y-84871D01*
Y-79528D01*
Y-74185D01*
X87604Y-74215D01*
X86840Y-74532D01*
X86183Y-75035D01*
X85679Y-75692D01*
X85562Y-75974D01*
X85062Y-75874D01*
Y-67717D01*
X85062Y-67716D01*
X84971Y-67256D01*
X84710Y-66865D01*
X46480Y-28635D01*
Y-9153D01*
X46643Y-9109D01*
X47451Y-8642D01*
X48111Y-7983D01*
X48577Y-7175D01*
X48819Y-6274D01*
Y-5341D01*
X48577Y-4439D01*
X48111Y-3632D01*
X47451Y-2972D01*
X46806Y-2599D01*
X46940Y-2099D01*
X53454D01*
X53588Y-2599D01*
X52943Y-2972D01*
X52283Y-3632D01*
X51816Y-4439D01*
X51575Y-5341D01*
Y-6274D01*
X51816Y-7175D01*
X52283Y-7983D01*
X52943Y-8642D01*
X53290Y-8843D01*
Y-31778D01*
X53269D01*
X53445Y-33112D01*
X53960Y-34356D01*
X54779Y-35424D01*
X55847Y-36243D01*
X57091Y-36758D01*
X58011Y-36879D01*
X92062Y-70930D01*
X92453Y-71191D01*
X92913Y-71283D01*
X92913Y-71283D01*
X96287D01*
X98234Y-73230D01*
X98055Y-73758D01*
X97502Y-73831D01*
X96641Y-74188D01*
X95902Y-74755D01*
X95335Y-75494D01*
X94979Y-76354D01*
X94857Y-77278D01*
Y-81778D01*
X94979Y-82701D01*
X95335Y-83561D01*
X95902Y-84301D01*
X96641Y-84868D01*
X97502Y-85224D01*
X98425Y-85346D01*
X99349Y-85224D01*
X100209Y-84868D01*
X100948Y-84301D01*
X101515Y-83561D01*
X101872Y-82701D01*
X101993Y-81778D01*
Y-77912D01*
X102490Y-77688D01*
X102747Y-77888D01*
Y-82863D01*
X102747Y-82863D01*
X102839Y-83324D01*
X103100Y-83715D01*
X107851Y-88466D01*
Y-94264D01*
X107384Y-94390D01*
X106396Y-94960D01*
X105590Y-95766D01*
X105020Y-96754D01*
X104724Y-97855D01*
Y-98995D01*
X105020Y-100097D01*
X105590Y-101084D01*
X106396Y-101891D01*
X107384Y-102461D01*
X108485Y-102756D01*
X109625D01*
X110727Y-102461D01*
X111714Y-101891D01*
X112075Y-101530D01*
X112575Y-101737D01*
Y-105013D01*
X109961Y-107628D01*
X102849Y-100516D01*
X103091Y-100097D01*
X103386Y-98995D01*
Y-97855D01*
X103091Y-96754D01*
X102521Y-95766D01*
X101714Y-94960D01*
X100727Y-94390D01*
X99625Y-94095D01*
X98485D01*
X97383Y-94390D01*
X96396Y-94960D01*
X95590Y-95766D01*
X95020Y-96754D01*
X94724Y-97855D01*
Y-98995D01*
X95020Y-100097D01*
X95590Y-101084D01*
X96396Y-101891D01*
X97383Y-102461D01*
X98485Y-102756D01*
X99625D01*
X100727Y-102461D01*
X101146Y-102219D01*
X108783Y-109856D01*
X109174Y-110117D01*
X109634Y-110209D01*
X109634Y-110209D01*
X110287D01*
X110287Y-110209D01*
X110748Y-110117D01*
X111138Y-109856D01*
X114631Y-106363D01*
X114631Y-106363D01*
X114892Y-105973D01*
X114984Y-105512D01*
Y-101035D01*
X115484Y-100901D01*
X115590Y-101084D01*
X116396Y-101891D01*
X117384Y-102461D01*
X118485Y-102756D01*
X119625D01*
X120727Y-102461D01*
X121714Y-101891D01*
X122520Y-101084D01*
X123091Y-100097D01*
X123386Y-98995D01*
Y-97855D01*
X123167Y-97040D01*
X142584Y-77623D01*
X142845Y-77232D01*
X142937Y-76772D01*
X142937Y-76772D01*
Y-46676D01*
X160300Y-29312D01*
X160561Y-28921D01*
X160653Y-28460D01*
Y-1127D01*
X160653Y-1127D01*
X160561Y-666D01*
X160300Y-276D01*
X160300Y-276D01*
X159839Y186D01*
X159448Y447D01*
X158988Y538D01*
X158987Y538D01*
X139000D01*
X138999Y538D01*
X138539Y447D01*
X138148Y186D01*
X138148Y186D01*
X135372Y-2590D01*
X135226Y-2505D01*
X134325Y-2264D01*
X133392D01*
X132491Y-2505D01*
X131683Y-2972D01*
X131023Y-3632D01*
X130556Y-4439D01*
X130315Y-5341D01*
Y-6274D01*
X130556Y-7175D01*
X131023Y-7983D01*
X131683Y-8642D01*
X132491Y-9109D01*
X133392Y-9350D01*
X134325D01*
X135226Y-9109D01*
X136034Y-8642D01*
X136694Y-7983D01*
X137160Y-7175D01*
X137402Y-6274D01*
Y-5341D01*
X137160Y-4439D01*
X137075Y-4293D01*
X139498Y-1870D01*
X142772D01*
X142838Y-2370D01*
X142333Y-2505D01*
X141525Y-2972D01*
X140866Y-3632D01*
X140399Y-4439D01*
X140157Y-5341D01*
Y-6274D01*
X140399Y-7175D01*
X140866Y-7983D01*
X141525Y-8642D01*
X142333Y-9109D01*
X143234Y-9350D01*
X144167D01*
X145069Y-9109D01*
X145876Y-8642D01*
X146536Y-7983D01*
X147003Y-7175D01*
X147244Y-6274D01*
Y-5341D01*
X147003Y-4439D01*
X146536Y-3632D01*
X145876Y-2972D01*
X145069Y-2505D01*
X144564Y-2370D01*
X144630Y-1870D01*
X149743D01*
X150000Y-2264D01*
Y-4588D01*
X149899Y-4831D01*
X149771Y-5807D01*
Y-11429D01*
X147760Y-13440D01*
X116993D01*
X116801Y-12979D01*
X121489Y-8291D01*
X121840Y-8642D01*
X122648Y-9109D01*
X123549Y-9350D01*
X124482D01*
X125383Y-9109D01*
X126191Y-8642D01*
X126851Y-7983D01*
X127318Y-7175D01*
X127559Y-6274D01*
Y-5341D01*
X127318Y-4439D01*
X126851Y-3632D01*
X126191Y-2972D01*
X125383Y-2505D01*
X124482Y-2264D01*
X123549D01*
X122648Y-2505D01*
X121840Y-2972D01*
X121180Y-3632D01*
X120714Y-4439D01*
X120473Y-5341D01*
Y-5901D01*
X103643Y-22731D01*
X103382Y-23122D01*
X103290Y-23583D01*
X103290Y-23583D01*
Y-51161D01*
X103290Y-51161D01*
X103382Y-51622D01*
X103643Y-52012D01*
X112575Y-60945D01*
Y-95114D01*
X112075Y-95321D01*
X111714Y-94960D01*
X110727Y-94390D01*
X110259Y-94264D01*
Y-87967D01*
X110168Y-87506D01*
X109907Y-87115D01*
X109907Y-87115D01*
X108616Y-85825D01*
X108795Y-85297D01*
X109349Y-85224D01*
X110209Y-84868D01*
X110948Y-84301D01*
X111515Y-83561D01*
X111872Y-82701D01*
X111993Y-81778D01*
Y-77278D01*
X111872Y-76354D01*
X111515Y-75494D01*
X110948Y-74755D01*
X110209Y-74188D01*
X109349Y-73831D01*
X108425Y-73710D01*
X107502Y-73831D01*
X106641Y-74188D01*
X105902Y-74755D01*
X105335Y-75494D01*
X105123Y-76006D01*
X104533Y-76123D01*
X97637Y-69227D01*
X97247Y-68966D01*
X96786Y-68875D01*
X96786Y-68875D01*
X93412D01*
X59959Y-35421D01*
X60056Y-34931D01*
X60209Y-34868D01*
X60948Y-34301D01*
X61515Y-33562D01*
X61872Y-32701D01*
X61993Y-31778D01*
Y-27278D01*
X61872Y-26354D01*
X61515Y-25494D01*
X60948Y-24755D01*
X60209Y-24188D01*
X59349Y-23831D01*
X58425Y-23710D01*
X57502Y-23831D01*
X56641Y-24188D01*
X56198Y-24528D01*
X55698Y-24281D01*
Y-9320D01*
X56486Y-9109D01*
X57294Y-8642D01*
X57953Y-7983D01*
X58420Y-7175D01*
X58661Y-6274D01*
Y-5341D01*
X58420Y-4439D01*
X57953Y-3632D01*
X57294Y-2972D01*
X56648Y-2599D01*
X56782Y-2099D01*
X63296D01*
X63430Y-2599D01*
X62785Y-2972D01*
X62125Y-3632D01*
X61659Y-4439D01*
X61417Y-5341D01*
Y-6274D01*
X61659Y-7175D01*
X62125Y-7983D01*
X62785Y-8642D01*
X63593Y-9109D01*
X64494Y-9350D01*
X65427D01*
X66328Y-9109D01*
X67136Y-8642D01*
X67796Y-7983D01*
X68262Y-7175D01*
X68504Y-6274D01*
Y-5341D01*
X68262Y-4439D01*
X67796Y-3632D01*
X67136Y-2972D01*
X66491Y-2599D01*
X66625Y-2099D01*
X70828D01*
X71260Y-2264D01*
Y-4588D01*
X71159Y-4831D01*
X71031Y-5807D01*
X71159Y-6784D01*
X71260Y-7026D01*
Y-9350D01*
X73011D01*
X74653Y-10992D01*
Y-29528D01*
X74781Y-30504D01*
X74857Y-30687D01*
Y-31778D01*
X74979Y-32701D01*
X75335Y-33562D01*
X75902Y-34301D01*
X76641Y-34868D01*
X77502Y-35224D01*
X78425Y-35346D01*
X79349Y-35224D01*
X80209Y-34868D01*
X80948Y-34301D01*
X81515Y-33562D01*
X81872Y-32701D01*
X81993Y-31778D01*
Y-30687D01*
X82069Y-30504D01*
X82198Y-29528D01*
Y-9429D01*
X82069Y-8453D01*
X81692Y-7543D01*
X81093Y-6762D01*
X78347Y-4015D01*
Y-3145D01*
X78808Y-2954D01*
X83629Y-7775D01*
Y-26659D01*
X83758Y-27636D01*
X84135Y-28546D01*
X84450Y-28957D01*
Y-29325D01*
X84579Y-30301D01*
X84857Y-30974D01*
Y-31778D01*
X84979Y-32701D01*
X85335Y-33562D01*
X85902Y-34301D01*
X86641Y-34868D01*
X87502Y-35224D01*
X88425Y-35346D01*
X89349Y-35224D01*
X90209Y-34868D01*
X90948Y-34301D01*
X91515Y-33562D01*
X91872Y-32701D01*
X91993Y-31778D01*
Y-30687D01*
X92069Y-30504D01*
X92198Y-29528D01*
X92069Y-28551D01*
X91995Y-28372D01*
Y-27480D01*
X91993Y-27467D01*
Y-27278D01*
X91872Y-26354D01*
X91515Y-25494D01*
X91174Y-25049D01*
Y-6212D01*
X91045Y-5236D01*
X90669Y-4326D01*
X90069Y-3545D01*
X82183Y4341D01*
X81402Y4940D01*
X80492Y5317D01*
X79516Y5446D01*
D02*
G37*
G36*
X129646Y-154508D02*
Y-157835D01*
X132973D01*
X132724Y-156906D01*
X132205Y-156008D01*
X131473Y-155275D01*
X130575Y-154756D01*
X129646Y-154508D01*
D02*
G37*
G36*
X128465D02*
X127535Y-154756D01*
X126638Y-155275D01*
X125905Y-156008D01*
X125386Y-156906D01*
X125137Y-157835D01*
X128465D01*
Y-154508D01*
D02*
G37*
G36*
X132973Y-159016D02*
X129646D01*
Y-162343D01*
X130575Y-162094D01*
X131473Y-161576D01*
X132205Y-160843D01*
X132724Y-159945D01*
X132973Y-159016D01*
D02*
G37*
G36*
X128465D02*
X125137D01*
X125386Y-159945D01*
X125905Y-160843D01*
X126638Y-161576D01*
X127535Y-162094D01*
X128465Y-162343D01*
Y-159016D01*
D02*
G37*
G36*
X149625Y-154095D02*
X148485D01*
X147383Y-154390D01*
X146396Y-154960D01*
X145590Y-155766D01*
X145020Y-156754D01*
X144724Y-157855D01*
Y-158995D01*
X145020Y-160097D01*
X145590Y-161084D01*
X146396Y-161891D01*
X147383Y-162461D01*
X148485Y-162756D01*
X149625D01*
X150727Y-162461D01*
X151714Y-161891D01*
X152521Y-161084D01*
X153091Y-160097D01*
X153386Y-158995D01*
Y-157855D01*
X153091Y-156754D01*
X152521Y-155766D01*
X151714Y-154960D01*
X150727Y-154390D01*
X149625Y-154095D01*
D02*
G37*
G36*
X139625D02*
X138485D01*
X137383Y-154390D01*
X136396Y-154960D01*
X135590Y-155766D01*
X135020Y-156754D01*
X134724Y-157855D01*
Y-158995D01*
X135020Y-160097D01*
X135590Y-161084D01*
X136396Y-161891D01*
X137383Y-162461D01*
X138485Y-162756D01*
X139625D01*
X140727Y-162461D01*
X141714Y-161891D01*
X142520Y-161084D01*
X143091Y-160097D01*
X143386Y-158995D01*
Y-157855D01*
X143091Y-156754D01*
X142520Y-155766D01*
X141714Y-154960D01*
X140727Y-154390D01*
X139625Y-154095D01*
D02*
G37*
G36*
X119625D02*
X118485D01*
X117384Y-154390D01*
X116396Y-154960D01*
X115590Y-155766D01*
X115020Y-156754D01*
X114724Y-157855D01*
Y-158995D01*
X115020Y-160097D01*
X115590Y-161084D01*
X116396Y-161891D01*
X117384Y-162461D01*
X118485Y-162756D01*
X119625D01*
X120727Y-162461D01*
X121714Y-161891D01*
X122520Y-161084D01*
X123091Y-160097D01*
X123386Y-158995D01*
Y-157855D01*
X123091Y-156754D01*
X122520Y-155766D01*
X121714Y-154960D01*
X120727Y-154390D01*
X119625Y-154095D01*
D02*
G37*
G36*
X109625D02*
X108485D01*
X107384Y-154390D01*
X106396Y-154960D01*
X105590Y-155766D01*
X105020Y-156754D01*
X104724Y-157855D01*
Y-158995D01*
X105020Y-160097D01*
X105590Y-161084D01*
X106396Y-161891D01*
X107384Y-162461D01*
X108485Y-162756D01*
X109625D01*
X110727Y-162461D01*
X111714Y-161891D01*
X112521Y-161084D01*
X113091Y-160097D01*
X113386Y-158995D01*
Y-157855D01*
X113091Y-156754D01*
X112521Y-155766D01*
X111714Y-154960D01*
X110727Y-154390D01*
X109625Y-154095D01*
D02*
G37*
G36*
X99625D02*
X98485D01*
X97383Y-154390D01*
X96396Y-154960D01*
X95590Y-155766D01*
X95020Y-156754D01*
X94724Y-157855D01*
Y-158995D01*
X95020Y-160097D01*
X95590Y-161084D01*
X96396Y-161891D01*
X97383Y-162461D01*
X98485Y-162756D01*
X99625D01*
X100727Y-162461D01*
X101714Y-161891D01*
X102521Y-161084D01*
X103091Y-160097D01*
X103386Y-158995D01*
Y-157855D01*
X103091Y-156754D01*
X102521Y-155766D01*
X101714Y-154960D01*
X100727Y-154390D01*
X99625Y-154095D01*
D02*
G37*
G36*
X89625D02*
X88485D01*
X87384Y-154390D01*
X86396Y-154960D01*
X85590Y-155766D01*
X85020Y-156754D01*
X84724Y-157855D01*
Y-158995D01*
X85020Y-160097D01*
X85590Y-161084D01*
X86396Y-161891D01*
X87384Y-162461D01*
X88485Y-162756D01*
X89625D01*
X90727Y-162461D01*
X91714Y-161891D01*
X92520Y-161084D01*
X93091Y-160097D01*
X93386Y-158995D01*
Y-157855D01*
X93091Y-156754D01*
X92520Y-155766D01*
X91714Y-154960D01*
X90727Y-154390D01*
X89625Y-154095D01*
D02*
G37*
G36*
X79625D02*
X78485D01*
X77384Y-154390D01*
X76396Y-154960D01*
X75590Y-155766D01*
X75020Y-156754D01*
X74724Y-157855D01*
Y-158995D01*
X75020Y-160097D01*
X75590Y-161084D01*
X76396Y-161891D01*
X77384Y-162461D01*
X78485Y-162756D01*
X79625D01*
X80727Y-162461D01*
X81714Y-161891D01*
X82521Y-161084D01*
X83091Y-160097D01*
X83386Y-158995D01*
Y-157855D01*
X83091Y-156754D01*
X82521Y-155766D01*
X81714Y-154960D01*
X80727Y-154390D01*
X79625Y-154095D01*
D02*
G37*
G36*
X69625D02*
X68485D01*
X67383Y-154390D01*
X66396Y-154960D01*
X65590Y-155766D01*
X65020Y-156754D01*
X64724Y-157855D01*
Y-158995D01*
X65020Y-160097D01*
X65590Y-161084D01*
X66396Y-161891D01*
X67383Y-162461D01*
X68485Y-162756D01*
X69625D01*
X70727Y-162461D01*
X71714Y-161891D01*
X72521Y-161084D01*
X73091Y-160097D01*
X73386Y-158995D01*
Y-157855D01*
X73091Y-156754D01*
X72521Y-155766D01*
X71714Y-154960D01*
X70727Y-154390D01*
X69625Y-154095D01*
D02*
G37*
G36*
X59625D02*
X58485D01*
X57384Y-154390D01*
X56396Y-154960D01*
X55590Y-155766D01*
X55020Y-156754D01*
X54724Y-157855D01*
Y-158995D01*
X55020Y-160097D01*
X55590Y-161084D01*
X56396Y-161891D01*
X57384Y-162461D01*
X58485Y-162756D01*
X59625D01*
X60727Y-162461D01*
X61714Y-161891D01*
X62520Y-161084D01*
X63091Y-160097D01*
X63386Y-158995D01*
Y-157855D01*
X63091Y-156754D01*
X62520Y-155766D01*
X61714Y-154960D01*
X60727Y-154390D01*
X59625Y-154095D01*
D02*
G37*
G36*
X49625D02*
X48485D01*
X47383Y-154390D01*
X46396Y-154960D01*
X45590Y-155766D01*
X45020Y-156754D01*
X44724Y-157855D01*
Y-158995D01*
X45020Y-160097D01*
X45590Y-161084D01*
X46396Y-161891D01*
X47383Y-162461D01*
X48485Y-162756D01*
X49625D01*
X50727Y-162461D01*
X51714Y-161891D01*
X52521Y-161084D01*
X53091Y-160097D01*
X53386Y-158995D01*
Y-157855D01*
X53091Y-156754D01*
X52521Y-155766D01*
X51714Y-154960D01*
X50727Y-154390D01*
X49625Y-154095D01*
D02*
G37*
G36*
X39625D02*
X38485D01*
X37383Y-154390D01*
X36396Y-154960D01*
X35590Y-155766D01*
X35019Y-156754D01*
X34724Y-157855D01*
Y-158995D01*
X35019Y-160097D01*
X35590Y-161084D01*
X36396Y-161891D01*
X37383Y-162461D01*
X38485Y-162756D01*
X39625D01*
X40727Y-162461D01*
X41714Y-161891D01*
X42520Y-161084D01*
X43091Y-160097D01*
X43386Y-158995D01*
Y-157855D01*
X43091Y-156754D01*
X42520Y-155766D01*
X41714Y-154960D01*
X40727Y-154390D01*
X39625Y-154095D01*
D02*
G37*
G36*
X29625D02*
X28485D01*
X27384Y-154390D01*
X26396Y-154960D01*
X25590Y-155766D01*
X25020Y-156754D01*
X24724Y-157855D01*
Y-158995D01*
X25020Y-160097D01*
X25590Y-161084D01*
X26396Y-161891D01*
X27384Y-162461D01*
X28485Y-162756D01*
X29625D01*
X30727Y-162461D01*
X31714Y-161891D01*
X32520Y-161084D01*
X33091Y-160097D01*
X33386Y-158995D01*
Y-157855D01*
X33091Y-156754D01*
X32520Y-155766D01*
X31714Y-154960D01*
X30727Y-154390D01*
X29625Y-154095D01*
D02*
G37*
G36*
X19625D02*
X18485D01*
X17383Y-154390D01*
X16396Y-154960D01*
X15590Y-155766D01*
X15020Y-156754D01*
X14724Y-157855D01*
Y-158995D01*
X15020Y-160097D01*
X15590Y-161084D01*
X16396Y-161891D01*
X17383Y-162461D01*
X18485Y-162756D01*
X19625D01*
X20727Y-162461D01*
X21714Y-161891D01*
X22521Y-161084D01*
X23091Y-160097D01*
X23386Y-158995D01*
Y-157855D01*
X23091Y-156754D01*
X22521Y-155766D01*
X21714Y-154960D01*
X20727Y-154390D01*
X19625Y-154095D01*
D02*
G37*
G36*
X167323Y-54290D02*
X166089Y-54452D01*
X164940Y-54928D01*
X164693Y-55118D01*
X163386D01*
Y-56425D01*
X163196Y-56673D01*
X162720Y-57822D01*
X162558Y-59055D01*
Y-94095D01*
X154724D01*
Y-102756D01*
X162558D01*
Y-148184D01*
X155686Y-155056D01*
X154928Y-156043D01*
X154452Y-157192D01*
X154290Y-158425D01*
X154452Y-159659D01*
X154928Y-160808D01*
X155686Y-161795D01*
X156673Y-162552D01*
X157822Y-163028D01*
X159055Y-163190D01*
X160288Y-163028D01*
X161438Y-162552D01*
X162425Y-161795D01*
X170692Y-153527D01*
X171450Y-152540D01*
X171926Y-151391D01*
X172088Y-150157D01*
Y-59055D01*
X171926Y-57822D01*
X171450Y-56673D01*
X171260Y-56425D01*
Y-55118D01*
X169953D01*
X169705Y-54928D01*
X168556Y-54452D01*
X167323Y-54290D01*
D02*
G37*
%LPD*%
G36*
X158245Y-27961D02*
X140881Y-45325D01*
X140620Y-45716D01*
X140528Y-46177D01*
X140528Y-46177D01*
Y-76273D01*
X121778Y-95023D01*
X121714Y-94960D01*
X120727Y-94390D01*
X119625Y-94095D01*
X118485D01*
X117384Y-94390D01*
X116396Y-94960D01*
X115590Y-95766D01*
X115484Y-95950D01*
X114984Y-95816D01*
Y-83925D01*
X115484Y-83755D01*
X115902Y-84301D01*
X116641Y-84868D01*
X117502Y-85224D01*
X118425Y-85346D01*
X119349Y-85224D01*
X120209Y-84868D01*
X120948Y-84301D01*
X121515Y-83561D01*
X121872Y-82701D01*
X121993Y-81778D01*
Y-77278D01*
X121872Y-76354D01*
X121515Y-75494D01*
X120948Y-74755D01*
X120209Y-74188D01*
X119349Y-73831D01*
X118425Y-73710D01*
X117502Y-73831D01*
X116641Y-74188D01*
X115902Y-74755D01*
X115484Y-75300D01*
X114984Y-75130D01*
Y-60446D01*
X114892Y-59985D01*
X114631Y-59595D01*
X105698Y-50662D01*
Y-34774D01*
X106198Y-34528D01*
X106641Y-34868D01*
X107502Y-35224D01*
X108425Y-35346D01*
X109349Y-35224D01*
X110209Y-34868D01*
X110948Y-34301D01*
X111515Y-33562D01*
X111872Y-32701D01*
X111993Y-31778D01*
Y-30687D01*
X112069Y-30504D01*
X112198Y-29528D01*
Y-26504D01*
X117716Y-20985D01*
X149323D01*
X150299Y-20857D01*
X151209Y-20480D01*
X151990Y-19880D01*
X156211Y-15660D01*
X156810Y-14878D01*
X157187Y-13969D01*
X157316Y-12992D01*
Y-5807D01*
X157187Y-4831D01*
X157087Y-4588D01*
Y-2264D01*
X157343Y-1870D01*
X158245D01*
Y-27961D01*
D02*
G37*
%LPC*%
G36*
X119016Y-24184D02*
Y-28937D01*
X121596D01*
Y-27278D01*
X121488Y-26457D01*
X121171Y-25692D01*
X120667Y-25035D01*
X120011Y-24532D01*
X119246Y-24215D01*
X119016Y-24184D01*
D02*
G37*
G36*
X117835D02*
X117604Y-24215D01*
X116840Y-24532D01*
X116183Y-25035D01*
X115679Y-25692D01*
X115362Y-26457D01*
X115254Y-27278D01*
Y-28937D01*
X117835D01*
Y-24184D01*
D02*
G37*
G36*
X121596Y-30118D02*
X119016D01*
Y-34871D01*
X119246Y-34840D01*
X120011Y-34524D01*
X120667Y-34020D01*
X121171Y-33363D01*
X121488Y-32598D01*
X121596Y-31778D01*
Y-30118D01*
D02*
G37*
G36*
X117835D02*
X115254D01*
Y-31778D01*
X115362Y-32598D01*
X115679Y-33363D01*
X116183Y-34020D01*
X116840Y-34524D01*
X117604Y-34840D01*
X117835Y-34871D01*
Y-30118D01*
D02*
G37*
G36*
X131963Y-23740D02*
X124888D01*
Y-35315D01*
X131963D01*
Y-23740D01*
D02*
G37*
G36*
X128425Y-73710D02*
X127502Y-73831D01*
X126641Y-74188D01*
X125902Y-74755D01*
X125335Y-75494D01*
X124979Y-76354D01*
X124857Y-77278D01*
Y-81778D01*
X124979Y-82701D01*
X125335Y-83561D01*
X125902Y-84301D01*
X126641Y-84868D01*
X127502Y-85224D01*
X128425Y-85346D01*
X129349Y-85224D01*
X130209Y-84868D01*
X130948Y-84301D01*
X131515Y-83561D01*
X131872Y-82701D01*
X131993Y-81778D01*
Y-77278D01*
X131872Y-76354D01*
X131515Y-75494D01*
X130948Y-74755D01*
X130209Y-74188D01*
X129349Y-73831D01*
X128425Y-73710D01*
D02*
G37*
%LPD*%
D10*
X54494Y-31778D02*
X54633Y-32814D01*
X55040Y-33777D01*
X55687Y-34598D01*
X56527Y-35220D01*
X57502Y-35599D01*
X58542Y-35707D01*
X158988Y-666D02*
X159449Y-1127D01*
X138999Y-666D02*
X158988D01*
X159449Y-28460D02*
Y-1127D01*
X133858Y-5807D02*
X138999Y-666D01*
X141732Y-46177D02*
X159449Y-28460D01*
X119055Y-98425D02*
X120079D01*
X141732Y-76772D01*
Y-46177D01*
X104494Y-51161D02*
Y-23583D01*
X121366Y-6711D01*
X123112D02*
X124016Y-5807D01*
X104494Y-51161D02*
X113779Y-60446D01*
X121366Y-6711D02*
X123112D01*
X83858Y-93228D02*
X89055Y-98425D01*
X83858Y-93228D02*
Y-67716D01*
X68740Y-98110D02*
Y-79843D01*
X68425Y-79528D02*
X68740Y-79843D01*
Y-98110D02*
X69055Y-98425D01*
X78740Y-98110D02*
Y-79843D01*
Y-98110D02*
X79055Y-98425D01*
X78425Y-79528D02*
X78740Y-79843D01*
X45276Y-29134D02*
Y-5807D01*
Y-29134D02*
X83858Y-67716D01*
X113779Y-105512D02*
Y-60446D01*
X110287Y-109004D02*
X113779Y-105512D01*
X99055Y-98425D02*
X109634Y-109004D01*
X110287D01*
X58542Y-35707D02*
X92913Y-70079D01*
X96786D01*
X103952Y-77245D01*
Y-82863D02*
X109055Y-87967D01*
X103952Y-82863D02*
Y-77245D01*
X109055Y-98425D02*
Y-87967D01*
X54494Y-31778D02*
Y-6431D01*
X29055Y-98425D02*
X29094Y-98386D01*
X58425Y-81778D02*
Y-79528D01*
X49055Y-98425D02*
Y-91148D01*
X58425Y-81778D01*
X54494Y-6431D02*
X55118Y-5807D01*
D17*
X74803D02*
D03*
X153543D02*
D03*
D18*
X64961D02*
D03*
X55118D02*
D03*
X45276D02*
D03*
X35433D02*
D03*
X25591D02*
D03*
X143701D02*
D03*
X133858D02*
D03*
X124016D02*
D03*
X114173D02*
D03*
X104331D02*
D03*
D23*
X88222Y-29325D02*
Y-27480D01*
X87402Y-26659D02*
Y-6212D01*
X79516Y1673D02*
X87402Y-6212D01*
X88222Y-29325D02*
X88425Y-29528D01*
X87402Y-26659D02*
X88222Y-27480D01*
X116153Y-17213D02*
X149323D01*
X153543Y-12992D02*
Y-5807D01*
X149323Y-17213D02*
X153543Y-12992D01*
X108425Y-24941D02*
X116153Y-17213D01*
X108425Y-29528D02*
Y-24941D01*
X98425Y-29528D02*
Y-11713D01*
X104331Y-5807D01*
X33071Y1673D02*
X79516D01*
X25591Y-5807D02*
X33071Y1673D01*
X78425Y-29528D02*
Y-9429D01*
X74803Y-5807D02*
X78425Y-9429D01*
D24*
X159055Y-158425D02*
X167323Y-150157D01*
Y-59055D01*
D25*
X128425Y-79528D02*
X128740Y-79843D01*
Y-98110D02*
X129055Y-98425D01*
D26*
X177165Y0D02*
D03*
X0D02*
D03*
Y-177165D02*
D03*
X177165D02*
D03*
D27*
X159055Y-98425D02*
D03*
D28*
X149055D02*
D03*
X139055D02*
D03*
X129055D02*
D03*
X119055D02*
D03*
X109055D02*
D03*
X99055D02*
D03*
X89055D02*
D03*
X79055D02*
D03*
X69055D02*
D03*
X59055D02*
D03*
X49055D02*
D03*
X39055D02*
D03*
X29055D02*
D03*
X19055D02*
D03*
Y-158425D02*
D03*
X29055D02*
D03*
X39055D02*
D03*
X49055D02*
D03*
X59055D02*
D03*
X69055D02*
D03*
X79055D02*
D03*
X89055D02*
D03*
X99055D02*
D03*
X109055D02*
D03*
X119055D02*
D03*
X129055D02*
D03*
X139055D02*
D03*
X149055D02*
D03*
X159055D02*
D03*
D29*
X167323Y-59055D02*
D03*
D30*
Y-49055D02*
D03*
D31*
X128425Y-29528D02*
D03*
D32*
X118425D02*
D03*
X108425D02*
D03*
X98425D02*
D03*
X88425D02*
D03*
X78425D02*
D03*
X68425D02*
D03*
X58425D02*
D03*
X128425Y-79528D02*
D03*
X118425D02*
D03*
X108425D02*
D03*
X98425D02*
D03*
X88425D02*
D03*
X78425D02*
D03*
X68425D02*
D03*
X58425D02*
D03*
M02*
