G04*
G04 #@! TF.GenerationSoftware,Altium Limited,Altium Designer,22.11.1 (43)*
G04*
G04 Layer_Color=0*
%FSLAX25Y25*%
%MOIN*%
G70*
G04*
G04 #@! TF.SameCoordinates,256A903A-EE05-4266-A9F3-2A002FD68AA6*
G04*
G04*
G04 #@! TF.FilePolarity,Positive*
G04*
G01*
G75*
%ADD16C,0.00394*%
D16*
X-2756Y-52854D02*
X1181D01*
X-787Y-54823D02*
Y-50886D01*
X-45669Y-131201D02*
Y-127264D01*
X-47638Y-129232D02*
X-43701D01*
X-84646Y-83661D02*
Y-79724D01*
X-86614Y-81693D02*
X-82677D01*
X-122441Y-14567D02*
X-118504D01*
X-120472Y-16535D02*
Y-12598D01*
X-171653Y-94882D02*
X-167717D01*
X-169685Y-96850D02*
Y-92913D01*
X-175197Y-112891D02*
X-171260D01*
X-173228Y-114860D02*
Y-110923D01*
X-2854Y-122835D02*
X1083D01*
X-886Y-124803D02*
Y-120866D01*
X-162697Y-15079D02*
Y-13661D01*
X-163406Y-14370D02*
X-161988D01*
X-155905Y-13780D02*
X-151969D01*
X-153937Y-15748D02*
Y-11811D01*
X-147835Y-33484D02*
Y-32067D01*
X-148543Y-32776D02*
X-147126D01*
X-67047Y-149409D02*
X-65630D01*
X-66339Y-150118D02*
Y-148701D01*
X-23524Y-30315D02*
Y-26378D01*
X-25492Y-28346D02*
X-21555D01*
X-59469Y-83465D02*
Y-79528D01*
X-61437Y-81496D02*
X-57500D01*
X-59469Y-88976D02*
Y-85039D01*
X-61437Y-87008D02*
X-57500D01*
X-118883Y-118904D02*
X-116099Y-116120D01*
X-118883D02*
X-116099Y-118904D01*
X-118124Y-77461D02*
Y-73524D01*
X-120093Y-75492D02*
X-116156D01*
X-59449Y-77854D02*
Y-73917D01*
X-61417Y-75886D02*
X-57480D01*
X-117815Y-82972D02*
Y-79035D01*
X-119783Y-81004D02*
X-115847D01*
X-130413Y-75197D02*
X-126476D01*
X-128445Y-77165D02*
Y-73228D01*
X-150044Y-75197D02*
X-146107D01*
X-148076Y-77165D02*
Y-73228D01*
X-136614Y-75197D02*
X-132677D01*
X-134646Y-77165D02*
Y-73228D01*
X-112711Y-114052D02*
X-109927Y-111268D01*
X-112711D02*
X-109927Y-114052D01*
X-154134Y-75197D02*
X-150197D01*
X-152165Y-77165D02*
Y-73228D01*
X-100020Y-37126D02*
Y-33189D01*
X-101988Y-35157D02*
X-98051D01*
X-55315Y-58661D02*
X-51378D01*
X-53347Y-60630D02*
Y-56693D01*
X-113880Y-126611D02*
X-111096Y-129394D01*
X-113880D02*
X-111096Y-126611D01*
X-128471Y-132540D02*
X-125687Y-135324D01*
X-128471D02*
X-125687Y-132540D01*
X-53750Y-12205D02*
Y-8268D01*
X-55718Y-10236D02*
X-51781D01*
M02*
