G04*
G04 #@! TF.GenerationSoftware,Altium Limited,Altium Designer,22.11.1 (43)*
G04*
G04 Layer_Color=8388736*
%FSLAX25Y25*%
%MOIN*%
G70*
G04*
G04 #@! TF.SameCoordinates,256A903A-EE05-4266-A9F3-2A002FD68AA6*
G04*
G04*
G04 #@! TF.FilePolarity,Negative*
G04*
G01*
G75*
G04:AMPARAMS|DCode=23|XSize=76.91mil|YSize=17.01mil|CornerRadius=8.51mil|HoleSize=0mil|Usage=FLASHONLY|Rotation=180.000|XOffset=0mil|YOffset=0mil|HoleType=Round|Shape=RoundedRectangle|*
%AMROUNDEDRECTD23*
21,1,0.07691,0.00000,0,0,180.0*
21,1,0.05990,0.01701,0,0,180.0*
1,1,0.01701,-0.02995,0.00000*
1,1,0.01701,0.02995,0.00000*
1,1,0.01701,0.02995,0.00000*
1,1,0.01701,-0.02995,0.00000*
%
%ADD23ROUNDEDRECTD23*%
%ADD24R,0.07691X0.01701*%
%ADD29R,0.03150X0.06693*%
%ADD30R,0.06693X0.03150*%
%ADD31R,0.03568X0.03366*%
%ADD40R,0.03543X0.03347*%
%ADD42R,0.03543X0.02953*%
%ADD44R,0.03347X0.03543*%
%ADD45R,0.02362X0.04921*%
%ADD46R,0.02029X0.01860*%
G04:AMPARAMS|DCode=47|XSize=20.29mil|YSize=18.6mil|CornerRadius=0mil|HoleSize=0mil|Usage=FLASHONLY|Rotation=315.000|XOffset=0mil|YOffset=0mil|HoleType=Round|Shape=Rectangle|*
%AMROTATEDRECTD47*
4,1,4,-0.01375,0.00060,-0.00060,0.01375,0.01375,-0.00060,0.00060,-0.01375,-0.01375,0.00060,0.0*
%
%ADD47ROTATEDRECTD47*%

%ADD48R,0.02254X0.02423*%
%ADD49R,0.01860X0.02029*%
%ADD50R,0.04921X0.02362*%
G04:AMPARAMS|DCode=51|XSize=24.23mil|YSize=22.54mil|CornerRadius=0mil|HoleSize=0mil|Usage=FLASHONLY|Rotation=45.000|XOffset=0mil|YOffset=0mil|HoleType=Round|Shape=Rectangle|*
%AMROTATEDRECTD51*
4,1,4,-0.00060,-0.01653,-0.01653,-0.00060,0.00060,0.01653,0.01653,0.00060,-0.00060,-0.01653,0.0*
%
%ADD51ROTATEDRECTD51*%

%ADD54C,0.02362*%
%ADD55R,0.01323X0.03410*%
%ADD56R,0.03410X0.01323*%
G04:AMPARAMS|DCode=57|XSize=223.46mil|YSize=85.67mil|CornerRadius=0mil|HoleSize=0mil|Usage=FLASHONLY|Rotation=45.000|XOffset=0mil|YOffset=0mil|HoleType=Round|Shape=Rectangle|*
%AMROTATEDRECTD57*
4,1,4,-0.04872,-0.10930,-0.10930,-0.04872,0.04872,0.10930,0.10930,0.04872,-0.04872,-0.10930,0.0*
%
%ADD57ROTATEDRECTD57*%

G04:AMPARAMS|DCode=58|XSize=10.87mil|YSize=37.44mil|CornerRadius=2.48mil|HoleSize=0mil|Usage=FLASHONLY|Rotation=45.000|XOffset=0mil|YOffset=0mil|HoleType=Round|Shape=RoundedRectangle|*
%AMROUNDEDRECTD58*
21,1,0.01087,0.03248,0,0,45.0*
21,1,0.00591,0.03744,0,0,45.0*
1,1,0.00496,0.01357,-0.00940*
1,1,0.00496,0.00940,-0.01357*
1,1,0.00496,-0.01357,0.00940*
1,1,0.00496,-0.00940,0.01357*
%
%ADD58ROUNDEDRECTD58*%
G04:AMPARAMS|DCode=59|XSize=37.44mil|YSize=10.87mil|CornerRadius=2.48mil|HoleSize=0mil|Usage=FLASHONLY|Rotation=45.000|XOffset=0mil|YOffset=0mil|HoleType=Round|Shape=RoundedRectangle|*
%AMROUNDEDRECTD59*
21,1,0.03744,0.00591,0,0,45.0*
21,1,0.03248,0.01087,0,0,45.0*
1,1,0.00496,0.01357,0.00940*
1,1,0.00496,-0.00940,-0.01357*
1,1,0.00496,-0.01357,-0.00940*
1,1,0.00496,0.00940,0.01357*
%
%ADD59ROUNDEDRECTD59*%
G04:AMPARAMS|DCode=60|XSize=128.98mil|YSize=128.98mil|CornerRadius=4.02mil|HoleSize=0mil|Usage=FLASHONLY|Rotation=45.000|XOffset=0mil|YOffset=0mil|HoleType=Round|Shape=RoundedRectangle|*
%AMROUNDEDRECTD60*
21,1,0.12898,0.12095,0,0,45.0*
21,1,0.12095,0.12898,0,0,45.0*
1,1,0.00803,0.08552,0.00000*
1,1,0.00803,0.00000,-0.08552*
1,1,0.00803,-0.08552,0.00000*
1,1,0.00803,0.00000,0.08552*
%
%ADD60ROUNDEDRECTD60*%
G04:AMPARAMS|DCode=61|XSize=66.38mil|YSize=25.83mil|CornerRadius=4.35mil|HoleSize=0mil|Usage=FLASHONLY|Rotation=0.000|XOffset=0mil|YOffset=0mil|HoleType=Round|Shape=RoundedRectangle|*
%AMROUNDEDRECTD61*
21,1,0.06638,0.01713,0,0,0.0*
21,1,0.05768,0.02583,0,0,0.0*
1,1,0.00870,0.02884,-0.00856*
1,1,0.00870,-0.02884,-0.00856*
1,1,0.00870,-0.02884,0.00856*
1,1,0.00870,0.02884,0.00856*
%
%ADD61ROUNDEDRECTD61*%
G04:AMPARAMS|DCode=62|XSize=22.68mil|YSize=26.61mil|CornerRadius=0mil|HoleSize=0mil|Usage=FLASHONLY|Rotation=225.000|XOffset=0mil|YOffset=0mil|HoleType=Round|Shape=Rectangle|*
%AMROTATEDRECTD62*
4,1,4,-0.00139,0.01743,0.01743,-0.00139,0.00139,-0.01743,-0.01743,0.00139,-0.00139,0.01743,0.0*
%
%ADD62ROTATEDRECTD62*%

%ADD63R,0.02858X0.03055*%
%ADD64R,0.02268X0.02661*%
%ADD65R,0.07484X0.03055*%
G04:AMPARAMS|DCode=66|XSize=54.17mil|YSize=130.95mil|CornerRadius=9.17mil|HoleSize=0mil|Usage=FLASHONLY|Rotation=180.000|XOffset=0mil|YOffset=0mil|HoleType=Round|Shape=RoundedRectangle|*
%AMROUNDEDRECTD66*
21,1,0.05417,0.11260,0,0,180.0*
21,1,0.03583,0.13095,0,0,180.0*
1,1,0.01835,-0.01791,0.05630*
1,1,0.01835,0.01791,0.05630*
1,1,0.01835,0.01791,-0.05630*
1,1,0.01835,-0.01791,-0.05630*
%
%ADD66ROUNDEDRECTD66*%
%ADD67R,0.08173X0.06047*%
%ADD68R,0.01874X0.07189*%
%ADD69R,0.05910X0.10142*%
%ADD70R,0.04236X0.03842*%
%ADD71R,0.04039X0.02465*%
%ADD72R,0.06307X0.08276*%
%ADD73R,0.15362X0.08276*%
%ADD74C,0.05512*%
%ADD75R,0.05512X0.05512*%
%ADD76C,0.02661*%
G04:AMPARAMS|DCode=77|XSize=60.08mil|YSize=44.33mil|CornerRadius=22.17mil|HoleSize=0mil|Usage=FLASHONLY|Rotation=270.000|XOffset=0mil|YOffset=0mil|HoleType=Round|Shape=RoundedRectangle|*
%AMROUNDEDRECTD77*
21,1,0.06008,0.00000,0,0,270.0*
21,1,0.01575,0.04433,0,0,270.0*
1,1,0.04433,0.00000,-0.00787*
1,1,0.04433,0.00000,0.00787*
1,1,0.04433,0.00000,0.00787*
1,1,0.04433,0.00000,-0.00787*
%
%ADD77ROUNDEDRECTD77*%
G04:AMPARAMS|DCode=78|XSize=73.86mil|YSize=54.17mil|CornerRadius=27.09mil|HoleSize=0mil|Usage=FLASHONLY|Rotation=270.000|XOffset=0mil|YOffset=0mil|HoleType=Round|Shape=RoundedRectangle|*
%AMROUNDEDRECTD78*
21,1,0.07386,0.00000,0,0,270.0*
21,1,0.01968,0.05417,0,0,270.0*
1,1,0.05417,0.00000,-0.00984*
1,1,0.05417,0.00000,0.00984*
1,1,0.05417,0.00000,0.00984*
1,1,0.05417,0.00000,-0.00984*
%
%ADD78ROUNDEDRECTD78*%
%ADD79C,0.15748*%
%ADD80C,0.06299*%
D23*
X-59548Y-143307D02*
D03*
Y-140748D02*
D03*
Y-138189D02*
D03*
Y-135630D02*
D03*
Y-133071D02*
D03*
Y-130512D02*
D03*
Y-127953D02*
D03*
Y-125394D02*
D03*
Y-122835D02*
D03*
Y-120276D02*
D03*
Y-117717D02*
D03*
Y-115157D02*
D03*
X-31790D02*
D03*
Y-117717D02*
D03*
Y-120276D02*
D03*
Y-122835D02*
D03*
Y-125394D02*
D03*
Y-127953D02*
D03*
Y-130512D02*
D03*
Y-133071D02*
D03*
Y-135630D02*
D03*
Y-138189D02*
D03*
Y-140748D02*
D03*
D24*
Y-143307D02*
D03*
D29*
X-91339Y-81693D02*
D03*
X-77953D02*
D03*
D30*
X-120472Y-21260D02*
D03*
Y-7874D02*
D03*
D31*
X-169685Y-97345D02*
D03*
Y-92419D02*
D03*
X-173228Y-110428D02*
D03*
Y-115354D02*
D03*
D40*
X-162697Y-11811D02*
D03*
Y-16929D02*
D03*
X-147835Y-35335D02*
D03*
Y-30217D02*
D03*
D42*
X-153937Y-11417D02*
D03*
Y-16142D02*
D03*
D44*
X-63779Y-149409D02*
D03*
X-68898D02*
D03*
D45*
X-19980Y-28346D02*
D03*
X-27067D02*
D03*
X-50207Y-10236D02*
D03*
X-57293D02*
D03*
D46*
X-57978Y-81496D02*
D03*
X-60959D02*
D03*
X-57978Y-87008D02*
D03*
X-60959D02*
D03*
X-116634Y-75492D02*
D03*
X-119615D02*
D03*
X-57958Y-75886D02*
D03*
X-60939D02*
D03*
X-116324Y-81004D02*
D03*
X-119305D02*
D03*
X-101510Y-35157D02*
D03*
X-98529D02*
D03*
D47*
X-116437Y-118566D02*
D03*
X-118545Y-116458D02*
D03*
X-110265Y-113714D02*
D03*
X-112373Y-111606D02*
D03*
D48*
X-128445Y-73510D02*
D03*
Y-76884D02*
D03*
X-134646Y-73510D02*
D03*
Y-76884D02*
D03*
D49*
X-148076Y-73706D02*
D03*
Y-76687D02*
D03*
X-152165Y-73706D02*
D03*
Y-76687D02*
D03*
D50*
X-53347Y-62205D02*
D03*
Y-55118D02*
D03*
D51*
X-111295Y-126809D02*
D03*
X-113681Y-129196D02*
D03*
X-128272Y-135125D02*
D03*
X-125886Y-132739D02*
D03*
D54*
X-153839Y-33169D02*
D03*
D55*
X-172638Y-39547D02*
D03*
X-170669D02*
D03*
X-168701D02*
D03*
X-166732D02*
D03*
X-164764D02*
D03*
X-162795D02*
D03*
Y-24035D02*
D03*
X-164764D02*
D03*
X-166732D02*
D03*
X-168701D02*
D03*
X-170669D02*
D03*
X-172638D02*
D03*
D56*
X-159961Y-36713D02*
D03*
Y-34744D02*
D03*
Y-32776D02*
D03*
Y-30807D02*
D03*
Y-28839D02*
D03*
Y-26870D02*
D03*
X-175472D02*
D03*
Y-28839D02*
D03*
Y-30807D02*
D03*
Y-32776D02*
D03*
Y-34744D02*
D03*
Y-36713D02*
D03*
D57*
X-120626Y-156613D02*
D03*
X-95571Y-131558D02*
D03*
D58*
X-155199Y-99156D02*
D03*
X-154086Y-98043D02*
D03*
X-152972Y-96929D02*
D03*
X-151858Y-95816D02*
D03*
X-150745Y-94702D02*
D03*
X-149631Y-93589D02*
D03*
X-148518Y-92475D02*
D03*
X-147404Y-91361D02*
D03*
X-146291Y-90248D02*
D03*
X-145177Y-89134D02*
D03*
X-144064Y-88021D02*
D03*
X-142950Y-86907D02*
D03*
X-141837Y-85794D02*
D03*
X-140723Y-84680D02*
D03*
X-121584Y-103819D02*
D03*
X-122697Y-104933D02*
D03*
X-123811Y-106046D02*
D03*
X-124924Y-107160D02*
D03*
X-126038Y-108273D02*
D03*
X-127152Y-109387D02*
D03*
X-128265Y-110501D02*
D03*
X-129379Y-111614D02*
D03*
X-130492Y-112728D02*
D03*
X-131606Y-113841D02*
D03*
X-132719Y-114955D02*
D03*
X-133833Y-116068D02*
D03*
X-134946Y-117182D02*
D03*
X-136060Y-118296D02*
D03*
D59*
Y-84680D02*
D03*
X-134946Y-85794D02*
D03*
X-133833Y-86907D02*
D03*
X-132719Y-88021D02*
D03*
X-131606Y-89134D02*
D03*
X-130492Y-90248D02*
D03*
X-129379Y-91361D02*
D03*
X-128265Y-92475D02*
D03*
X-127152Y-93589D02*
D03*
X-126038Y-94702D02*
D03*
X-124924Y-95816D02*
D03*
X-123811Y-96929D02*
D03*
X-122697Y-98043D02*
D03*
X-121584Y-99156D02*
D03*
X-140723Y-118296D02*
D03*
X-141837Y-117182D02*
D03*
X-142950Y-116068D02*
D03*
X-144064Y-114955D02*
D03*
X-145177Y-113841D02*
D03*
X-146291Y-112728D02*
D03*
X-147404Y-111614D02*
D03*
X-148518Y-110501D02*
D03*
X-149631Y-109387D02*
D03*
X-150745Y-108273D02*
D03*
X-151858Y-107160D02*
D03*
X-152972Y-106046D02*
D03*
X-154086Y-104933D02*
D03*
X-155199Y-103819D02*
D03*
D60*
X-138391Y-101488D02*
D03*
D61*
X-98169Y-45158D02*
D03*
Y-50157D02*
D03*
Y-55158D02*
D03*
Y-60158D02*
D03*
X-126555D02*
D03*
Y-55158D02*
D03*
Y-50157D02*
D03*
Y-45158D02*
D03*
D62*
X-122343Y-123290D02*
D03*
X-119559Y-126074D02*
D03*
D63*
X-139469Y-76772D02*
D03*
Y-73032D02*
D03*
X-143602Y-76772D02*
D03*
Y-73032D02*
D03*
X-120433Y-31260D02*
D03*
Y-35000D02*
D03*
D64*
X-126339Y-35098D02*
D03*
Y-31161D02*
D03*
D65*
X-96762Y-3543D02*
D03*
X-73238D02*
D03*
D66*
X-95728Y1476D02*
D03*
X-74272D02*
D03*
D67*
X-73583Y-8779D02*
D03*
X-96417D02*
D03*
D68*
X-79882Y-7972D02*
D03*
X-82441D02*
D03*
X-85000D02*
D03*
X-87559D02*
D03*
X-90118D02*
D03*
D69*
X-81211Y4134D02*
D03*
X-88789D02*
D03*
D70*
X-179921Y-15945D02*
D03*
Y-21260D02*
D03*
D71*
X-68799Y-155512D02*
D03*
X-64272D02*
D03*
D72*
X-44449Y-22835D02*
D03*
X-62559D02*
D03*
X-53504D02*
D03*
D73*
Y-47638D02*
D03*
D74*
X1280Y-28248D02*
D03*
Y-38091D02*
D03*
Y-47933D02*
D03*
Y-57776D02*
D03*
Y-67618D02*
D03*
X1181Y-98228D02*
D03*
Y-108071D02*
D03*
Y-117913D02*
D03*
Y-127756D02*
D03*
Y-137598D02*
D03*
D75*
X1280Y-77461D02*
D03*
X1181Y-147441D02*
D03*
D76*
X-131293Y-101488D02*
D03*
X-134842Y-105037D02*
D03*
X-138391Y-108587D02*
D03*
X-134842Y-97938D02*
D03*
X-138391Y-101488D02*
D03*
X-141941Y-105037D02*
D03*
X-138391Y-94389D02*
D03*
X-141941Y-97938D02*
D03*
X-145490Y-101488D02*
D03*
D77*
X-94547Y-8779D02*
D03*
X-75453D02*
D03*
D78*
X-74272Y3150D02*
D03*
X-95728D02*
D03*
D79*
X-173228Y0D02*
D03*
Y-173228D02*
D03*
X0D02*
D03*
Y0D02*
D03*
D80*
X-39347Y-165748D02*
D03*
X-59347D02*
D03*
M02*
