M48
;Layer_Color=9474304
;FILE_FORMAT=2:5
INCH,LZ
;TYPE=PLATED
T1F00S00C0.01181
T4F00S00C0.02800
T5F00S00C0.03543
T6F00S00C0.03937
T7F00S00C0.11024
%
T01
X-0125591Y-0169685
X-0134941Y-0159511
X-013061Y-0137463
X-0128642Y-0128015
X-0114341Y-0120661
X-0108563Y-0124077
X-0108169Y-011581
X-0094095Y-0119291
X-0083794Y-0128411
X-007441Y-0135433
X-0067716Y-0135827
X-0066929Y-0127165
X-0046457Y-0135827
X-0018898Y-0137008
X-002126Y-013937
X-0023228Y-012126
X-0025591Y-0122441
X-0053504Y-008744
Y-0081496
X-0053642Y-0075886
X-0053445Y-0066929
X-0072441Y-0081693
X-0097244
X-0113695Y-0081102
X-0113484Y-0075492
X-0128347Y-0070494
X-0134646
X-0148031Y-0070472
X-0151969
Y-0084252
X-0140748Y-0091929
X-0138391Y-0094389
X-0134842Y-0097938
X-0131293Y-0101488
X-0129921Y-0106615
X-0134842Y-0105037
X-0138391Y-0108587
Y-0101488
X-014549
X-0141941Y-0105037
Y-0097938
X-0152756Y-0116929
X-0121817Y-01092
X-0108619Y-0135495
X-0108068Y-0144842
X-011565Y-0142581
X-007522Y-0150394
X-0070079Y-0168898
X-0121221Y-0060236
X-0139469Y-0042421
X-0154058Y-004004
X-0162205Y-004685
X-0105866Y-0035039
X-0003976Y-006811
X-0004823Y-0137894
X-0016535Y-002874
X-004563Y-0016142
X-0065354Y-0003937
X-0090551Y-0015354
X-0102756Y-0003543
X-0153937Y-000748
X-0162598Y-0007087
X-018002Y-0011811
X-0172638Y-001998
T04
X-0066535Y-0116535
X-0120472Y-0001969
T05
X0001181Y-0147441
Y-0137598
Y-0127756
Y-0117913
Y-0108071
Y-0098228
X000128Y-0077461
Y-0067618
Y-0057776
Y-0047933
Y-0038091
Y-0028248
T06
X-0059347Y-0165748
X-0039347
T07
X-0173228Y-0173228
X0
Y0
X-0173228
M30
