G04*
G04 #@! TF.GenerationSoftware,Altium Limited,Altium Designer,22.11.1 (43)*
G04*
G04 Layer_Color=65535*
%FSLAX25Y25*%
%MOIN*%
G70*
G04*
G04 #@! TF.SameCoordinates,AF9D1AC7-D161-4756-986D-43FDA94486ED*
G04*
G04*
G04 #@! TF.FilePolarity,Positive*
G04*
G01*
G75*
%ADD10C,0.01000*%
%ADD11C,0.00984*%
%ADD12C,0.00787*%
%ADD13C,0.00500*%
D10*
X162480Y-52028D02*
X161524Y-52218D01*
X160713Y-52760D01*
X160171Y-53571D01*
X159980Y-54528D01*
X160171Y-55484D01*
X160713Y-56295D01*
X161524Y-56837D01*
X162480Y-57028D01*
X-3700Y-147500D02*
X-2743Y-147310D01*
X-1932Y-146768D01*
X-1390Y-145957D01*
X-1200Y-145000D01*
X-1390Y-144043D01*
X-1932Y-143232D01*
X-2743Y-142690D01*
X-3700Y-142500D01*
X82480Y-38028D02*
X162480D01*
X82480Y-71028D02*
Y-38028D01*
Y-71028D02*
X162480D01*
Y-57028D01*
Y-52028D02*
Y-38028D01*
X-3700Y-173350D02*
Y-147500D01*
Y-142500D02*
Y-116650D01*
X196300D01*
Y-173350D02*
Y-116650D01*
X-3700Y-173350D02*
X196300D01*
X81020Y-144162D02*
Y-138164D01*
X84019D01*
X85018Y-139163D01*
Y-141163D01*
X84019Y-142162D01*
X81020D01*
X87018Y-144162D02*
X89017D01*
X88017D01*
Y-140163D01*
X87018D01*
X96015D02*
X93016D01*
X92016Y-141163D01*
Y-143162D01*
X93016Y-144162D01*
X96015D01*
X99014D02*
X101013D01*
X102013Y-143162D01*
Y-141163D01*
X101013Y-140163D01*
X99014D01*
X98014Y-141163D01*
Y-143162D01*
X99014Y-144162D01*
X104012Y-145161D02*
X108011D01*
X110010Y-138164D02*
Y-144162D01*
X113009D01*
X114009Y-143162D01*
Y-142162D01*
X113009Y-141163D01*
X110010D01*
X113009D01*
X114009Y-140163D01*
Y-139163D01*
X113009Y-138164D01*
X110010D01*
X116008Y-140163D02*
Y-144162D01*
Y-142162D01*
X117008Y-141163D01*
X118008Y-140163D01*
X119007D01*
X125005Y-144162D02*
X123006D01*
X122006Y-143162D01*
Y-141163D01*
X123006Y-140163D01*
X125005D01*
X126005Y-141163D01*
Y-142162D01*
X122006D01*
X129004Y-140163D02*
X131003D01*
X132003Y-141163D01*
Y-144162D01*
X129004D01*
X128005Y-143162D01*
X129004Y-142162D01*
X132003D01*
X134002Y-144162D02*
Y-138164D01*
Y-142162D02*
X137002Y-140163D01*
X134002Y-142162D02*
X137002Y-144162D01*
X141000D02*
X143000D01*
X143999Y-143162D01*
Y-141163D01*
X143000Y-140163D01*
X141000D01*
X140001Y-141163D01*
Y-143162D01*
X141000Y-144162D01*
X145999Y-140163D02*
Y-143162D01*
X146998Y-144162D01*
X149997D01*
Y-140163D01*
X152996Y-139163D02*
Y-140163D01*
X151997D01*
X153996D01*
X152996D01*
Y-143162D01*
X153996Y-144162D01*
X156995Y-145161D02*
X160994D01*
X162993Y-138164D02*
Y-142162D01*
X164992Y-144162D01*
X166992Y-142162D01*
Y-138164D01*
X168991Y-144162D02*
X170991D01*
X169991D01*
Y-138164D01*
X168991Y-139163D01*
X173990Y-144162D02*
Y-143162D01*
X174989D01*
Y-144162D01*
X173990D01*
X178988Y-139163D02*
X179988Y-138164D01*
X181987D01*
X182987Y-139163D01*
Y-143162D01*
X181987Y-144162D01*
X179988D01*
X178988Y-143162D01*
Y-139163D01*
X12692Y-68261D02*
Y-74259D01*
X15691D01*
X16690Y-73259D01*
Y-72259D01*
X15691Y-71260D01*
X12692D01*
X15691D01*
X16690Y-70260D01*
Y-69261D01*
X15691Y-68261D01*
X12692D01*
X21689D02*
X19689D01*
X18690Y-69261D01*
Y-73259D01*
X19689Y-74259D01*
X21689D01*
X22688Y-73259D01*
Y-69261D01*
X21689Y-68261D01*
X24688Y-69261D02*
X25687Y-68261D01*
X27687D01*
X28686Y-69261D01*
Y-70260D01*
X27687Y-71260D01*
X26687D01*
X27687D01*
X28686Y-72259D01*
Y-73259D01*
X27687Y-74259D01*
X25687D01*
X24688Y-73259D01*
X1845Y-142670D02*
Y-148668D01*
X4844D01*
X5844Y-147669D01*
Y-146669D01*
X4844Y-145669D01*
X1845D01*
X4844D01*
X5844Y-144670D01*
Y-143670D01*
X4844Y-142670D01*
X1845D01*
X10842D02*
X8843D01*
X7843Y-143670D01*
Y-147669D01*
X8843Y-148668D01*
X10842D01*
X11842Y-147669D01*
Y-143670D01*
X10842Y-142670D01*
X17840Y-148668D02*
X13841D01*
X17840Y-144670D01*
Y-143670D01*
X16840Y-142670D01*
X14841D01*
X13841Y-143670D01*
D11*
X87008Y-5807D02*
X86270Y-5381D01*
Y-6233D01*
X87008Y-5807D01*
X165748D02*
X165010Y-5381D01*
Y-6233D01*
X165748Y-5807D01*
D12*
X84449Y-19193D02*
Y3445D01*
X15945D02*
X84449D01*
X15945Y-19193D02*
Y3445D01*
Y-19193D02*
X84449D01*
X163189D02*
Y3445D01*
X94685D02*
X163189D01*
X94685Y-19193D02*
Y3445D01*
Y-19193D02*
X163189D01*
X27559Y-23229D02*
X25985D01*
X26772D01*
Y-27165D01*
X25985Y-27952D01*
X25198D01*
X24411Y-27165D01*
X29134Y-24016D02*
X29921Y-23229D01*
X31495D01*
X32282Y-24016D01*
Y-24803D01*
X31495Y-25591D01*
X30708D01*
X31495D01*
X32282Y-26378D01*
Y-27165D01*
X31495Y-27952D01*
X29921D01*
X29134Y-27165D01*
X146063Y-22835D02*
X144489D01*
X145276D01*
Y-26771D01*
X144489Y-27558D01*
X143702D01*
X142915Y-26771D01*
X150786Y-27558D02*
X147637D01*
X150786Y-24410D01*
Y-23623D01*
X149999Y-22835D01*
X148425D01*
X147637Y-23623D01*
X116065Y-51182D02*
Y-55905D01*
X118426D01*
X119213Y-55118D01*
Y-54330D01*
X118426Y-53543D01*
X116065D01*
X118426D01*
X119213Y-52756D01*
Y-51969D01*
X118426Y-51182D01*
X116065D01*
X123149D02*
X121575D01*
X120788Y-51969D01*
Y-55118D01*
X121575Y-55905D01*
X123149D01*
X123936Y-55118D01*
Y-51969D01*
X123149Y-51182D01*
X125511Y-55905D02*
X127085D01*
X126298D01*
Y-51182D01*
X125511Y-51969D01*
D13*
X43553Y-90465D02*
Y-89132D01*
Y-89798D01*
X47551D01*
Y-90465D01*
Y-89132D01*
Y-87132D02*
X43553D01*
X47551Y-84466D01*
X43553D01*
Y-83134D02*
Y-80468D01*
Y-81801D01*
X47551D01*
X3553Y-90465D02*
X6218D01*
X7551Y-89132D01*
X6218Y-87799D01*
X3553D01*
X4219Y-86466D02*
X3553Y-85799D01*
Y-84466D01*
X4219Y-83800D01*
X4885D01*
X5552Y-84466D01*
Y-85133D01*
Y-84466D01*
X6218Y-83800D01*
X6885D01*
X7551Y-84466D01*
Y-85799D01*
X6885Y-86466D01*
X7551Y-81801D02*
Y-80468D01*
X6885Y-79801D01*
X5552D01*
X4885Y-80468D01*
Y-81801D01*
X5552Y-82467D01*
X6885D01*
X7551Y-81801D01*
X24219Y-87799D02*
X23552Y-88465D01*
Y-89798D01*
X24219Y-90465D01*
X24885D01*
X25552Y-89798D01*
Y-88465D01*
X26218Y-87799D01*
X26885D01*
X27551Y-88465D01*
Y-89798D01*
X26885Y-90465D01*
X24219Y-83800D02*
X23552Y-84466D01*
Y-85799D01*
X24219Y-86466D01*
X26885D01*
X27551Y-85799D01*
Y-84466D01*
X26885Y-83800D01*
X23552Y-82467D02*
X27551D01*
Y-79801D01*
X14219Y-87799D02*
X13553Y-88465D01*
Y-89798D01*
X14219Y-90465D01*
X16885D01*
X17551Y-89798D01*
Y-88465D01*
X16885Y-87799D01*
X15552D01*
Y-89132D01*
X17551Y-86466D02*
X13553D01*
X17551Y-83800D01*
X13553D01*
Y-82467D02*
X17551D01*
Y-80468D01*
X16885Y-79801D01*
X14219D01*
X13553Y-80468D01*
Y-82467D01*
X34219Y-87799D02*
X33553Y-88465D01*
Y-89798D01*
X34219Y-90465D01*
X34885D01*
X35552Y-89798D01*
Y-88465D01*
X36218Y-87799D01*
X36885D01*
X37551Y-88465D01*
Y-89798D01*
X36885Y-90465D01*
X33553Y-86466D02*
X37551D01*
Y-84466D01*
X36885Y-83800D01*
X34219D01*
X33553Y-84466D01*
Y-86466D01*
X37551Y-82467D02*
X34885D01*
X33553Y-81134D01*
X34885Y-79801D01*
X37551D01*
X35552D01*
Y-82467D01*
X-6447Y-90465D02*
X-3782D01*
X-2449Y-89132D01*
X-3782Y-87799D01*
X-6447D01*
X-2449Y-86466D02*
Y-85133D01*
Y-85799D01*
X-5115D01*
Y-86466D01*
X-2449Y-83134D02*
X-5115D01*
Y-81134D01*
X-4448Y-80468D01*
X-2449D01*
M02*
