G04*
G04 #@! TF.GenerationSoftware,Altium Limited,Altium Designer,22.11.1 (43)*
G04*
G04 Layer_Color=8388736*
%FSLAX25Y25*%
%MOIN*%
G70*
G04*
G04 #@! TF.SameCoordinates,AF9D1AC7-D161-4756-986D-43FDA94486ED*
G04*
G04*
G04 #@! TF.FilePolarity,Negative*
G04*
G01*
G75*
%ADD14C,0.23921*%
%ADD15C,0.06299*%
%ADD16O,0.05799X0.10299*%
%ADD17R,0.05799X0.10299*%
%ADD18C,0.08173*%
%ADD19C,0.06799*%
%ADD20C,0.05512*%
%ADD21R,0.05512X0.05512*%
D14*
X188976Y-209646D02*
D03*
X0D02*
D03*
X188976Y0D02*
D03*
X0D02*
D03*
D15*
X185039Y-59055D02*
D03*
Y-39055D02*
D03*
D16*
X87480Y-79528D02*
D03*
X97480D02*
D03*
X107480D02*
D03*
X117480D02*
D03*
X127480D02*
D03*
X137480D02*
D03*
X147480D02*
D03*
X157480D02*
D03*
X87480Y-29528D02*
D03*
X97480D02*
D03*
X107480D02*
D03*
X117480D02*
D03*
X127480D02*
D03*
X137480D02*
D03*
X147480D02*
D03*
D17*
X157480D02*
D03*
D18*
X31300Y-180000D02*
D03*
X81300D02*
D03*
X71300D02*
D03*
X61300D02*
D03*
X51300D02*
D03*
X41300D02*
D03*
X101300D02*
D03*
X171300D02*
D03*
X161300D02*
D03*
X151300D02*
D03*
X141300D02*
D03*
X131300D02*
D03*
X121300D02*
D03*
X111300D02*
D03*
X1300D02*
D03*
X21300D02*
D03*
X11300D02*
D03*
X91300D02*
D03*
X191300D02*
D03*
X181300D02*
D03*
X1300Y-110000D02*
D03*
X11300D02*
D03*
X21300D02*
D03*
X31300D02*
D03*
X41300D02*
D03*
X51300D02*
D03*
X61300D02*
D03*
X71300D02*
D03*
X81300D02*
D03*
X91300D02*
D03*
X101300D02*
D03*
X111300D02*
D03*
X121300D02*
D03*
X131300D02*
D03*
X141300D02*
D03*
X151300D02*
D03*
X161300D02*
D03*
X171300D02*
D03*
X181300D02*
D03*
X191300D02*
D03*
D19*
X-4449Y-95965D02*
D03*
X5551D02*
D03*
X15551D02*
D03*
X25551D02*
D03*
X35551D02*
D03*
X45551D02*
D03*
D20*
X25591Y-5807D02*
D03*
X35433D02*
D03*
X45276D02*
D03*
X55118D02*
D03*
X64961D02*
D03*
X104331D02*
D03*
X114173D02*
D03*
X124016D02*
D03*
X133858D02*
D03*
X143701D02*
D03*
D21*
X74803D02*
D03*
X153543D02*
D03*
M02*
