M48
;Layer_Color=9474304
;FILE_FORMAT=2:4
INCH,TZ
;TYPE=PLATED
T1F00S00C0.0354
T2F00S00C0.0400
T3F00S00C0.0433
T4F00S00C0.0866
;TYPE=NON_PLATED
T5F00S00C0.0433
%
T01
X7906Y-15843
X8906
X9906
X10906
X11906
X12906
X13906
X14906
X15906
Y-9843
X14906
X13906
X12906
X11906
X10906
X9906
X8906
X7906
X6906
X5906
X4906
X3906
X2906
X1906
Y-15843
X2906
X3906
X4906
X5906
X6906
X6496Y-581
X7480
X5512
X4528
X3543
X2559
X10433
X11417
X12402
X13386
X14370
X15354
T02
X5843Y-7953
X6843
Y-2953
X5843
X7843
X8843
X9843
X10843
X11843
X12843
Y-7953
X11843
X10843
X9843
X8843
X7843
T03
X16732Y-5906
Y-4906
T04
X17717Y-17717
X0
Y0
X17717
T05
X17732Y-5906
Y-4906
M30
