G04*
G04 #@! TF.GenerationSoftware,Altium Limited,Altium Designer,22.11.1 (43)*
G04*
G04 Layer_Physical_Order=4*
G04 Layer_Color=16711680*
%FSLAX25Y25*%
%MOIN*%
G70*
G04*
G04 #@! TF.SameCoordinates,AF9D1AC7-D161-4756-986D-43FDA94486ED*
G04*
G04*
G04 #@! TF.FilePolarity,Positive*
G04*
G01*
G75*
%ADD12C,0.00787*%
%ADD20C,0.05512*%
%ADD21R,0.05512X0.05512*%
%ADD23C,0.23622*%
%ADD24C,0.06000*%
%ADD25O,0.05500X0.10000*%
%ADD26R,0.05500X0.10000*%
%ADD27C,0.07874*%
%ADD28C,0.06500*%
%ADD29C,0.05000*%
%ADD30C,0.07874*%
G36*
X185395Y12083D02*
X184140Y11675D01*
X182373Y10775D01*
X180769Y9610D01*
X179367Y8207D01*
X178201Y6603D01*
X177301Y4836D01*
X176688Y2950D01*
X176378Y991D01*
Y-991D01*
X176688Y-2950D01*
X177301Y-4836D01*
X178201Y-6603D01*
X179367Y-8207D01*
X180769Y-9610D01*
X182373Y-10775D01*
X184140Y-11675D01*
X186026Y-12288D01*
X187985Y-12598D01*
X189968D01*
X191927Y-12288D01*
X193813Y-11675D01*
X195579Y-10775D01*
X197184Y-9610D01*
X198586Y-8207D01*
X199751Y-6603D01*
X200652Y-4836D01*
X201265Y-2950D01*
X201453Y-1760D01*
X201953Y-1799D01*
Y-207847D01*
X201453Y-207886D01*
X201265Y-206696D01*
X200652Y-204809D01*
X199751Y-203043D01*
X198586Y-201438D01*
X197184Y-200036D01*
X195579Y-198871D01*
X194076Y-198104D01*
X194195Y-197604D01*
X199342D01*
X199342Y-197604D01*
X199803Y-197513D01*
X200193Y-197251D01*
X200655Y-196790D01*
X200655Y-196790D01*
X200916Y-196400D01*
X201007Y-195939D01*
X201007Y-195939D01*
Y-36614D01*
X200916Y-36153D01*
X200655Y-35763D01*
X200655Y-35763D01*
X175064Y-10172D01*
X174673Y-9911D01*
X174213Y-9819D01*
X174213Y-9819D01*
X157161D01*
X157087Y-9350D01*
X157087Y-9319D01*
Y-2264D01*
X150000D01*
Y-9319D01*
X150000Y-9350D01*
X149925Y-9819D01*
X139574D01*
X137075Y-7321D01*
X137160Y-7175D01*
X137402Y-6274D01*
Y-5341D01*
X137160Y-4439D01*
X136694Y-3632D01*
X136034Y-2972D01*
X135226Y-2505D01*
X134325Y-2264D01*
X133392D01*
X132491Y-2505D01*
X131683Y-2972D01*
X131023Y-3632D01*
X130556Y-4439D01*
X130315Y-5341D01*
Y-6274D01*
X130556Y-7175D01*
X131023Y-7983D01*
X131683Y-8642D01*
X132491Y-9109D01*
X133392Y-9350D01*
X134325D01*
X135226Y-9109D01*
X135372Y-9024D01*
X138223Y-11875D01*
X138223Y-11875D01*
X138464Y-12036D01*
X138313Y-12536D01*
X132448D01*
X127233Y-7321D01*
X127318Y-7175D01*
X127559Y-6274D01*
Y-5341D01*
X127318Y-4439D01*
X126851Y-3632D01*
X126191Y-2972D01*
X125383Y-2505D01*
X124482Y-2264D01*
X123549D01*
X122648Y-2505D01*
X121840Y-2972D01*
X121180Y-3632D01*
X120714Y-4439D01*
X120473Y-5341D01*
Y-6274D01*
X120714Y-7175D01*
X121180Y-7983D01*
X121840Y-8642D01*
X122648Y-9109D01*
X123549Y-9350D01*
X124482D01*
X125383Y-9109D01*
X125530Y-9024D01*
X131097Y-14592D01*
X131488Y-14853D01*
X131949Y-14945D01*
X172887D01*
X196630Y-38688D01*
Y-132966D01*
X153679Y-175918D01*
X153124Y-175598D01*
X151922Y-175276D01*
X150678D01*
X149476Y-175598D01*
X148399Y-176219D01*
X147520Y-177099D01*
X146898Y-178176D01*
X146576Y-179378D01*
Y-180622D01*
X146898Y-181824D01*
X147520Y-182901D01*
X148399Y-183781D01*
X149476Y-184402D01*
X150678Y-184724D01*
X151922D01*
X153124Y-184402D01*
X154201Y-183781D01*
X155080Y-182901D01*
X155702Y-181824D01*
X156024Y-180622D01*
Y-179378D01*
X155702Y-178176D01*
X155382Y-177621D01*
X198137Y-134866D01*
X198599Y-135057D01*
Y-195196D01*
X161781D01*
X161763Y-195131D01*
X161331Y-194381D01*
X160719Y-193769D01*
X159969Y-193337D01*
X159133Y-193113D01*
X158267D01*
X157431Y-193337D01*
X156682Y-193769D01*
X156069Y-194381D01*
X155637Y-195131D01*
X155413Y-195967D01*
Y-196833D01*
X155637Y-197669D01*
X156069Y-198418D01*
X156682Y-199031D01*
X157431Y-199463D01*
X158267Y-199687D01*
X159133D01*
X159969Y-199463D01*
X160719Y-199031D01*
X161331Y-198418D01*
X161763Y-197669D01*
X161781Y-197604D01*
X183757D01*
X183877Y-198104D01*
X182373Y-198871D01*
X180769Y-200036D01*
X179367Y-201438D01*
X178201Y-203043D01*
X177301Y-204809D01*
X176688Y-206696D01*
X176378Y-208654D01*
Y-210637D01*
X176688Y-212596D01*
X177301Y-214482D01*
X178201Y-216249D01*
X179367Y-217853D01*
X180769Y-219255D01*
X182373Y-220421D01*
X184140Y-221321D01*
X184789Y-221532D01*
X184710Y-222032D01*
X4267D01*
X4187Y-221532D01*
X4836Y-221321D01*
X6603Y-220421D01*
X8207Y-219255D01*
X9610Y-217853D01*
X10775Y-216249D01*
X11675Y-214482D01*
X12288Y-212596D01*
X12598Y-210637D01*
Y-208654D01*
X12288Y-206696D01*
X11675Y-204809D01*
X10775Y-203043D01*
X9610Y-201438D01*
X8207Y-200036D01*
X6603Y-198871D01*
X4836Y-197970D01*
X2950Y-197357D01*
X991Y-197047D01*
X-991D01*
X-2950Y-197357D01*
X-4836Y-197970D01*
X-6603Y-198871D01*
X-8207Y-200036D01*
X-9610Y-201438D01*
X-10775Y-203043D01*
X-11675Y-204809D01*
X-12288Y-206696D01*
X-12477Y-207886D01*
X-12977Y-207846D01*
Y-1799D01*
X-12477Y-1760D01*
X-12288Y-2950D01*
X-11675Y-4836D01*
X-10775Y-6603D01*
X-9610Y-8207D01*
X-8207Y-9610D01*
X-6603Y-10775D01*
X-4836Y-11675D01*
X-2950Y-12288D01*
X-991Y-12598D01*
X991D01*
X2950Y-12288D01*
X4836Y-11675D01*
X6603Y-10775D01*
X8207Y-9610D01*
X9610Y-8207D01*
X10775Y-6603D01*
X11675Y-4836D01*
X12288Y-2950D01*
X12598Y-991D01*
Y991D01*
X12288Y2950D01*
X11675Y4836D01*
X10775Y6603D01*
X9610Y8207D01*
X8207Y9610D01*
X6603Y10775D01*
X4836Y11675D01*
X3582Y12083D01*
X3661Y12583D01*
X185316D01*
X185395Y12083D01*
D02*
G37*
%LPC*%
G36*
X144291Y-2705D02*
Y-5217D01*
X146803D01*
X146636Y-4591D01*
X146221Y-3873D01*
X145635Y-3287D01*
X144916Y-2872D01*
X144291Y-2705D01*
D02*
G37*
G36*
X65551D02*
Y-5217D01*
X68063D01*
X67896Y-4591D01*
X67481Y-3873D01*
X66895Y-3287D01*
X66176Y-2872D01*
X65551Y-2705D01*
D02*
G37*
G36*
X143110Y-2705D02*
X142485Y-2872D01*
X141767Y-3287D01*
X141181Y-3873D01*
X140766Y-4591D01*
X140598Y-5217D01*
X143110D01*
Y-2705D01*
D02*
G37*
G36*
X64370D02*
X63745Y-2872D01*
X63027Y-3287D01*
X62440Y-3873D01*
X62026Y-4591D01*
X61858Y-5217D01*
X64370D01*
Y-2705D01*
D02*
G37*
G36*
X146803Y-6398D02*
X144291D01*
Y-8910D01*
X144916Y-8742D01*
X145635Y-8327D01*
X146221Y-7741D01*
X146636Y-7023D01*
X146803Y-6398D01*
D02*
G37*
G36*
X68063D02*
X65551D01*
Y-8910D01*
X66176Y-8742D01*
X66895Y-8327D01*
X67481Y-7741D01*
X67896Y-7023D01*
X68063Y-6398D01*
D02*
G37*
G36*
X143110D02*
X140598D01*
X140766Y-7023D01*
X141181Y-7741D01*
X141767Y-8327D01*
X142485Y-8742D01*
X143110Y-8910D01*
Y-6398D01*
D02*
G37*
G36*
X64370D02*
X61858D01*
X62026Y-7023D01*
X62440Y-7741D01*
X63027Y-8327D01*
X63745Y-8742D01*
X64370Y-8910D01*
Y-6398D01*
D02*
G37*
G36*
X114640Y-2264D02*
X113707D01*
X112806Y-2505D01*
X111998Y-2972D01*
X111338Y-3632D01*
X110871Y-4439D01*
X110630Y-5341D01*
Y-6274D01*
X110871Y-7175D01*
X111338Y-7983D01*
X111998Y-8642D01*
X112806Y-9109D01*
X113707Y-9350D01*
X114640D01*
X115541Y-9109D01*
X116349Y-8642D01*
X117009Y-7983D01*
X117475Y-7175D01*
X117717Y-6274D01*
Y-5341D01*
X117475Y-4439D01*
X117009Y-3632D01*
X116349Y-2972D01*
X115541Y-2505D01*
X114640Y-2264D01*
D02*
G37*
G36*
X104797D02*
X103864D01*
X102963Y-2505D01*
X102155Y-2972D01*
X101495Y-3632D01*
X101029Y-4439D01*
X100787Y-5341D01*
Y-6274D01*
X101029Y-7175D01*
X101495Y-7983D01*
X102155Y-8642D01*
X102963Y-9109D01*
X103864Y-9350D01*
X104797D01*
X105698Y-9109D01*
X106506Y-8642D01*
X107166Y-7983D01*
X107633Y-7175D01*
X107874Y-6274D01*
Y-5341D01*
X107633Y-4439D01*
X107166Y-3632D01*
X106506Y-2972D01*
X105698Y-2505D01*
X104797Y-2264D01*
D02*
G37*
G36*
X78347D02*
X71260D01*
Y-9350D01*
X78347D01*
Y-2264D01*
D02*
G37*
G36*
X55585D02*
X54652D01*
X53750Y-2505D01*
X52943Y-2972D01*
X52283Y-3632D01*
X51816Y-4439D01*
X51575Y-5341D01*
Y-6274D01*
X51816Y-7175D01*
X52283Y-7983D01*
X52943Y-8642D01*
X53750Y-9109D01*
X54652Y-9350D01*
X55585D01*
X56486Y-9109D01*
X57294Y-8642D01*
X57953Y-7983D01*
X58420Y-7175D01*
X58661Y-6274D01*
Y-5341D01*
X58420Y-4439D01*
X57953Y-3632D01*
X57294Y-2972D01*
X56486Y-2505D01*
X55585Y-2264D01*
D02*
G37*
G36*
X45742D02*
X44809D01*
X43908Y-2505D01*
X43100Y-2972D01*
X42440Y-3632D01*
X41974Y-4439D01*
X41732Y-5341D01*
Y-6274D01*
X41974Y-7175D01*
X42440Y-7983D01*
X43100Y-8642D01*
X43908Y-9109D01*
X44809Y-9350D01*
X45742D01*
X46643Y-9109D01*
X47451Y-8642D01*
X48111Y-7983D01*
X48577Y-7175D01*
X48819Y-6274D01*
Y-5341D01*
X48577Y-4439D01*
X48111Y-3632D01*
X47451Y-2972D01*
X46643Y-2505D01*
X45742Y-2264D01*
D02*
G37*
G36*
X35899D02*
X34967D01*
X34065Y-2505D01*
X33257Y-2972D01*
X32598Y-3632D01*
X32131Y-4439D01*
X31890Y-5341D01*
Y-6274D01*
X32131Y-7175D01*
X32598Y-7983D01*
X33257Y-8642D01*
X34065Y-9109D01*
X34967Y-9350D01*
X35899D01*
X36801Y-9109D01*
X37609Y-8642D01*
X38268Y-7983D01*
X38735Y-7175D01*
X38976Y-6274D01*
Y-5341D01*
X38735Y-4439D01*
X38268Y-3632D01*
X37609Y-2972D01*
X36801Y-2505D01*
X35899Y-2264D01*
D02*
G37*
G36*
X26057D02*
X25124D01*
X24223Y-2505D01*
X23415Y-2972D01*
X22755Y-3632D01*
X22289Y-4439D01*
X22047Y-5341D01*
Y-6274D01*
X22289Y-7175D01*
X22755Y-7983D01*
X23415Y-8642D01*
X24223Y-9109D01*
X25124Y-9350D01*
X26057D01*
X26958Y-9109D01*
X27766Y-8642D01*
X28426Y-7983D01*
X28892Y-7175D01*
X29134Y-6274D01*
Y-5341D01*
X28892Y-4439D01*
X28426Y-3632D01*
X27766Y-2972D01*
X26958Y-2505D01*
X26057Y-2264D01*
D02*
G37*
G36*
X160624Y-24134D02*
X158071D01*
Y-28937D01*
X160624D01*
Y-24134D01*
D02*
G37*
G36*
X88071Y-24184D02*
Y-28937D01*
X90651D01*
Y-27278D01*
X90543Y-26457D01*
X90226Y-25692D01*
X89722Y-25035D01*
X89066Y-24532D01*
X88301Y-24215D01*
X88071Y-24184D01*
D02*
G37*
G36*
X156890Y-24134D02*
X154337D01*
Y-28937D01*
X156890D01*
Y-24134D01*
D02*
G37*
G36*
X86890Y-24184D02*
X86660Y-24215D01*
X85895Y-24532D01*
X85238Y-25035D01*
X84734Y-25692D01*
X84417Y-26457D01*
X84310Y-27278D01*
Y-28937D01*
X86890D01*
Y-24184D01*
D02*
G37*
G36*
X90651Y-30118D02*
X88071D01*
Y-34871D01*
X88301Y-34840D01*
X89066Y-34524D01*
X89722Y-34020D01*
X90226Y-33363D01*
X90543Y-32598D01*
X90651Y-31778D01*
Y-30118D01*
D02*
G37*
G36*
X86890D02*
X84310D01*
Y-31778D01*
X84417Y-32598D01*
X84734Y-33363D01*
X85238Y-34020D01*
X85895Y-34524D01*
X86660Y-34840D01*
X86890Y-34871D01*
Y-30118D01*
D02*
G37*
G36*
X160624D02*
X158071D01*
Y-34921D01*
X160624D01*
Y-30118D01*
D02*
G37*
G36*
X156890D02*
X154337D01*
Y-34921D01*
X156890D01*
Y-30118D01*
D02*
G37*
G36*
X147480Y-23710D02*
X146557Y-23831D01*
X145696Y-24188D01*
X144957Y-24755D01*
X144390Y-25494D01*
X144034Y-26354D01*
X143912Y-27278D01*
Y-31778D01*
X144034Y-32701D01*
X144390Y-33562D01*
X144957Y-34301D01*
X145696Y-34868D01*
X146557Y-35224D01*
X147480Y-35346D01*
X148404Y-35224D01*
X149264Y-34868D01*
X150003Y-34301D01*
X150570Y-33562D01*
X150927Y-32701D01*
X151048Y-31778D01*
Y-27278D01*
X150927Y-26354D01*
X150570Y-25494D01*
X150003Y-24755D01*
X149264Y-24188D01*
X148404Y-23831D01*
X147480Y-23710D01*
D02*
G37*
G36*
X137480D02*
X136557Y-23831D01*
X135696Y-24188D01*
X134957Y-24755D01*
X134390Y-25494D01*
X134034Y-26354D01*
X133912Y-27278D01*
Y-31778D01*
X134034Y-32701D01*
X134390Y-33562D01*
X134957Y-34301D01*
X135696Y-34868D01*
X136557Y-35224D01*
X137480Y-35346D01*
X138404Y-35224D01*
X139264Y-34868D01*
X140003Y-34301D01*
X140570Y-33562D01*
X140927Y-32701D01*
X141048Y-31778D01*
Y-27278D01*
X140927Y-26354D01*
X140570Y-25494D01*
X140003Y-24755D01*
X139264Y-24188D01*
X138404Y-23831D01*
X137480Y-23710D01*
D02*
G37*
G36*
X127480D02*
X126557Y-23831D01*
X125696Y-24188D01*
X124957Y-24755D01*
X124390Y-25494D01*
X124034Y-26354D01*
X123912Y-27278D01*
Y-31778D01*
X124034Y-32701D01*
X124390Y-33562D01*
X124957Y-34301D01*
X125696Y-34868D01*
X126557Y-35224D01*
X127480Y-35346D01*
X128404Y-35224D01*
X129264Y-34868D01*
X130003Y-34301D01*
X130570Y-33562D01*
X130927Y-32701D01*
X131048Y-31778D01*
Y-27278D01*
X130927Y-26354D01*
X130570Y-25494D01*
X130003Y-24755D01*
X129264Y-24188D01*
X128404Y-23831D01*
X127480Y-23710D01*
D02*
G37*
G36*
X117480D02*
X116557Y-23831D01*
X115696Y-24188D01*
X114957Y-24755D01*
X114390Y-25494D01*
X114034Y-26354D01*
X113912Y-27278D01*
Y-31778D01*
X114034Y-32701D01*
X114390Y-33562D01*
X114957Y-34301D01*
X115696Y-34868D01*
X116557Y-35224D01*
X117480Y-35346D01*
X118404Y-35224D01*
X119264Y-34868D01*
X120003Y-34301D01*
X120570Y-33562D01*
X120927Y-32701D01*
X121048Y-31778D01*
Y-27278D01*
X120927Y-26354D01*
X120570Y-25494D01*
X120003Y-24755D01*
X119264Y-24188D01*
X118404Y-23831D01*
X117480Y-23710D01*
D02*
G37*
G36*
X107480D02*
X106557Y-23831D01*
X105696Y-24188D01*
X104957Y-24755D01*
X104390Y-25494D01*
X104034Y-26354D01*
X103912Y-27278D01*
Y-31778D01*
X104034Y-32701D01*
X104390Y-33562D01*
X104957Y-34301D01*
X105696Y-34868D01*
X106557Y-35224D01*
X107480Y-35346D01*
X108404Y-35224D01*
X109264Y-34868D01*
X110003Y-34301D01*
X110570Y-33562D01*
X110927Y-32701D01*
X111048Y-31778D01*
Y-27278D01*
X110927Y-26354D01*
X110570Y-25494D01*
X110003Y-24755D01*
X109264Y-24188D01*
X108404Y-23831D01*
X107480Y-23710D01*
D02*
G37*
G36*
X185538Y-35268D02*
X184541D01*
X183578Y-35526D01*
X182714Y-36024D01*
X182009Y-36730D01*
X181510Y-37593D01*
X181252Y-38557D01*
Y-39554D01*
X181510Y-40517D01*
X182009Y-41381D01*
X182714Y-42086D01*
X183578Y-42584D01*
X184541Y-42843D01*
X185538D01*
X186501Y-42584D01*
X187365Y-42086D01*
X188070Y-41381D01*
X188569Y-40517D01*
X188827Y-39554D01*
Y-38557D01*
X188569Y-37593D01*
X188070Y-36730D01*
X187365Y-36024D01*
X186501Y-35526D01*
X185538Y-35268D01*
D02*
G37*
G36*
X97480Y-23710D02*
X96557Y-23831D01*
X95696Y-24188D01*
X94957Y-24755D01*
X94390Y-25494D01*
X94034Y-26354D01*
X93912Y-27278D01*
Y-27480D01*
X93353Y-28208D01*
X92878Y-29357D01*
X92715Y-30591D01*
Y-54443D01*
X92878Y-55676D01*
X93353Y-56825D01*
X94111Y-57812D01*
X98723Y-62425D01*
X99710Y-63182D01*
X100859Y-63658D01*
X102093Y-63820D01*
X185925D01*
X187159Y-63658D01*
X188308Y-63182D01*
X189295Y-62425D01*
X190052Y-61438D01*
X190528Y-60288D01*
X190690Y-59055D01*
X190528Y-57822D01*
X190052Y-56673D01*
X189295Y-55686D01*
X188308Y-54928D01*
X187159Y-54452D01*
X185925Y-54290D01*
X104067D01*
X102245Y-52469D01*
Y-30591D01*
X102083Y-29357D01*
X101607Y-28208D01*
X101048Y-27480D01*
Y-27278D01*
X100927Y-26354D01*
X100570Y-25494D01*
X100003Y-24755D01*
X99264Y-24188D01*
X98404Y-23831D01*
X97480Y-23710D01*
D02*
G37*
G36*
X158071Y-74185D02*
Y-78937D01*
X160651D01*
Y-77278D01*
X160543Y-76457D01*
X160226Y-75692D01*
X159722Y-75035D01*
X159066Y-74532D01*
X158301Y-74215D01*
X158071Y-74185D01*
D02*
G37*
G36*
X156890Y-74185D02*
X156660Y-74215D01*
X155895Y-74532D01*
X155238Y-75035D01*
X154734Y-75692D01*
X154418Y-76457D01*
X154309Y-77278D01*
Y-78937D01*
X156890D01*
Y-74185D01*
D02*
G37*
G36*
X160651Y-80118D02*
X158071D01*
Y-84871D01*
X158301Y-84840D01*
X159066Y-84524D01*
X159722Y-84020D01*
X160226Y-83363D01*
X160543Y-82598D01*
X160651Y-81778D01*
Y-80118D01*
D02*
G37*
G36*
X156890D02*
X154309D01*
Y-81778D01*
X154418Y-82598D01*
X154734Y-83363D01*
X155238Y-84020D01*
X155895Y-84524D01*
X156660Y-84840D01*
X156890Y-84871D01*
Y-80118D01*
D02*
G37*
G36*
X147480Y-73710D02*
X146557Y-73831D01*
X145696Y-74188D01*
X144957Y-74755D01*
X144390Y-75494D01*
X144034Y-76354D01*
X143912Y-77278D01*
Y-81778D01*
X144034Y-82701D01*
X144390Y-83561D01*
X144957Y-84301D01*
X145696Y-84868D01*
X146557Y-85224D01*
X147480Y-85346D01*
X148404Y-85224D01*
X149264Y-84868D01*
X150003Y-84301D01*
X150570Y-83561D01*
X150927Y-82701D01*
X151048Y-81778D01*
Y-77278D01*
X150927Y-76354D01*
X150570Y-75494D01*
X150003Y-74755D01*
X149264Y-74188D01*
X148404Y-73831D01*
X147480Y-73710D01*
D02*
G37*
G36*
X137480D02*
X136557Y-73831D01*
X135696Y-74188D01*
X134957Y-74755D01*
X134390Y-75494D01*
X134034Y-76354D01*
X133912Y-77278D01*
Y-81778D01*
X134034Y-82701D01*
X134390Y-83561D01*
X134957Y-84301D01*
X135696Y-84868D01*
X136557Y-85224D01*
X137480Y-85346D01*
X138404Y-85224D01*
X139264Y-84868D01*
X140003Y-84301D01*
X140570Y-83561D01*
X140927Y-82701D01*
X141048Y-81778D01*
Y-77278D01*
X140927Y-76354D01*
X140570Y-75494D01*
X140003Y-74755D01*
X139264Y-74188D01*
X138404Y-73831D01*
X137480Y-73710D01*
D02*
G37*
G36*
X127480D02*
X126557Y-73831D01*
X125696Y-74188D01*
X124957Y-74755D01*
X124390Y-75494D01*
X124034Y-76354D01*
X123912Y-77278D01*
Y-81778D01*
X124034Y-82701D01*
X124390Y-83561D01*
X124957Y-84301D01*
X125696Y-84868D01*
X126557Y-85224D01*
X127480Y-85346D01*
X128404Y-85224D01*
X129264Y-84868D01*
X130003Y-84301D01*
X130570Y-83561D01*
X130927Y-82701D01*
X131048Y-81778D01*
Y-77278D01*
X130927Y-76354D01*
X130570Y-75494D01*
X130003Y-74755D01*
X129264Y-74188D01*
X128404Y-73831D01*
X127480Y-73710D01*
D02*
G37*
G36*
X117480D02*
X116557Y-73831D01*
X115696Y-74188D01*
X114957Y-74755D01*
X114390Y-75494D01*
X114034Y-76354D01*
X113912Y-77278D01*
Y-81778D01*
X114034Y-82701D01*
X114390Y-83561D01*
X114957Y-84301D01*
X115696Y-84868D01*
X116557Y-85224D01*
X117480Y-85346D01*
X118404Y-85224D01*
X119264Y-84868D01*
X120003Y-84301D01*
X120570Y-83561D01*
X120927Y-82701D01*
X121048Y-81778D01*
Y-77278D01*
X120927Y-76354D01*
X120570Y-75494D01*
X120003Y-74755D01*
X119264Y-74188D01*
X118404Y-73831D01*
X117480Y-73710D01*
D02*
G37*
G36*
X107480D02*
X106557Y-73831D01*
X105696Y-74188D01*
X104957Y-74755D01*
X104390Y-75494D01*
X104034Y-76354D01*
X103912Y-77278D01*
Y-81778D01*
X104034Y-82701D01*
X104390Y-83561D01*
X104957Y-84301D01*
X105696Y-84868D01*
X106557Y-85224D01*
X107480Y-85346D01*
X108404Y-85224D01*
X109264Y-84868D01*
X110003Y-84301D01*
X110570Y-83561D01*
X110927Y-82701D01*
X111048Y-81778D01*
Y-77278D01*
X110927Y-76354D01*
X110570Y-75494D01*
X110003Y-74755D01*
X109264Y-74188D01*
X108404Y-73831D01*
X107480Y-73710D01*
D02*
G37*
G36*
X97480D02*
X96557Y-73831D01*
X95696Y-74188D01*
X94957Y-74755D01*
X94390Y-75494D01*
X94034Y-76354D01*
X93912Y-77278D01*
Y-81778D01*
X94034Y-82701D01*
X94390Y-83561D01*
X94957Y-84301D01*
X95696Y-84868D01*
X96557Y-85224D01*
X97480Y-85346D01*
X98404Y-85224D01*
X99264Y-84868D01*
X100003Y-84301D01*
X100570Y-83561D01*
X100927Y-82701D01*
X101048Y-81778D01*
Y-77278D01*
X100927Y-76354D01*
X100570Y-75494D01*
X100003Y-74755D01*
X99264Y-74188D01*
X98404Y-73831D01*
X97480Y-73710D01*
D02*
G37*
G36*
X87480D02*
X86557Y-73831D01*
X85696Y-74188D01*
X84957Y-74755D01*
X84390Y-75494D01*
X84034Y-76354D01*
X83912Y-77278D01*
Y-81778D01*
X84034Y-82701D01*
X84390Y-83561D01*
X84957Y-84301D01*
X85696Y-84868D01*
X86557Y-85224D01*
X87480Y-85346D01*
X88404Y-85224D01*
X89264Y-84868D01*
X90003Y-84301D01*
X90570Y-83561D01*
X90927Y-82701D01*
X91048Y-81778D01*
Y-77278D01*
X90927Y-76354D01*
X90570Y-75494D01*
X90003Y-74755D01*
X89264Y-74188D01*
X88404Y-73831D01*
X87480Y-73710D01*
D02*
G37*
G36*
X16142Y-92351D02*
Y-95374D01*
X19165D01*
X18947Y-94558D01*
X18467Y-93727D01*
X17788Y-93049D01*
X16958Y-92569D01*
X16142Y-92351D01*
D02*
G37*
G36*
X14961Y-92351D02*
X14145Y-92569D01*
X13314Y-93049D01*
X12636Y-93727D01*
X12156Y-94558D01*
X11937Y-95374D01*
X14961D01*
Y-92351D01*
D02*
G37*
G36*
X19165Y-96555D02*
X16142D01*
Y-99579D01*
X16958Y-99360D01*
X17788Y-98880D01*
X18467Y-98202D01*
X18947Y-97371D01*
X19165Y-96555D01*
D02*
G37*
G36*
X14961D02*
X11937D01*
X12156Y-97371D01*
X12636Y-98202D01*
X13314Y-98880D01*
X14145Y-99360D01*
X14961Y-99579D01*
Y-96555D01*
D02*
G37*
G36*
X46083Y-91927D02*
X45020D01*
X43993Y-92202D01*
X43072Y-92734D01*
X42320Y-93486D01*
X41789Y-94406D01*
X41514Y-95433D01*
Y-96496D01*
X41789Y-97523D01*
X42320Y-98444D01*
X43072Y-99195D01*
X43993Y-99727D01*
X45020Y-100002D01*
X46083D01*
X47110Y-99727D01*
X48030Y-99195D01*
X48782Y-98444D01*
X49313Y-97523D01*
X49589Y-96496D01*
Y-95433D01*
X49313Y-94406D01*
X48782Y-93486D01*
X48030Y-92734D01*
X47110Y-92202D01*
X46083Y-91927D01*
D02*
G37*
G36*
X36083D02*
X35020D01*
X33993Y-92202D01*
X33072Y-92734D01*
X32320Y-93486D01*
X31789Y-94406D01*
X31514Y-95433D01*
Y-96496D01*
X31789Y-97523D01*
X32320Y-98444D01*
X33072Y-99195D01*
X33993Y-99727D01*
X35020Y-100002D01*
X36083D01*
X37110Y-99727D01*
X38030Y-99195D01*
X38782Y-98444D01*
X39313Y-97523D01*
X39589Y-96496D01*
Y-95433D01*
X39313Y-94406D01*
X38782Y-93486D01*
X38030Y-92734D01*
X37110Y-92202D01*
X36083Y-91927D01*
D02*
G37*
G36*
X26083D02*
X25020D01*
X23993Y-92202D01*
X23072Y-92734D01*
X22320Y-93486D01*
X21789Y-94406D01*
X21514Y-95433D01*
Y-96496D01*
X21789Y-97523D01*
X22320Y-98444D01*
X23072Y-99195D01*
X23993Y-99727D01*
X25020Y-100002D01*
X26083D01*
X27110Y-99727D01*
X28030Y-99195D01*
X28782Y-98444D01*
X29313Y-97523D01*
X29589Y-96496D01*
Y-95433D01*
X29313Y-94406D01*
X28782Y-93486D01*
X28030Y-92734D01*
X27110Y-92202D01*
X26083Y-91927D01*
D02*
G37*
G36*
X6083D02*
X5020D01*
X3993Y-92202D01*
X3072Y-92734D01*
X2320Y-93486D01*
X1789Y-94406D01*
X1514Y-95433D01*
Y-96496D01*
X1789Y-97523D01*
X2320Y-98444D01*
X3072Y-99195D01*
X3993Y-99727D01*
X5020Y-100002D01*
X6083D01*
X7110Y-99727D01*
X8030Y-99195D01*
X8782Y-98444D01*
X9313Y-97523D01*
X9589Y-96496D01*
Y-95433D01*
X9313Y-94406D01*
X8782Y-93486D01*
X8030Y-92734D01*
X7110Y-92202D01*
X6083Y-91927D01*
D02*
G37*
G36*
X-3917D02*
X-4980D01*
X-6007Y-92202D01*
X-6928Y-92734D01*
X-7680Y-93486D01*
X-8211Y-94406D01*
X-8486Y-95433D01*
Y-96496D01*
X-8211Y-97523D01*
X-7680Y-98444D01*
X-6928Y-99195D01*
X-6007Y-99727D01*
X-4980Y-100002D01*
X-3917D01*
X-2890Y-99727D01*
X-1970Y-99195D01*
X-1218Y-98444D01*
X-687Y-97523D01*
X-411Y-96496D01*
Y-95433D01*
X-687Y-94406D01*
X-1218Y-93486D01*
X-1970Y-92734D01*
X-2890Y-92202D01*
X-3917Y-91927D01*
D02*
G37*
G36*
X21891Y-105675D02*
Y-109409D01*
X25625D01*
X25336Y-108328D01*
X24765Y-107341D01*
X23959Y-106535D01*
X22972Y-105964D01*
X21891Y-105675D01*
D02*
G37*
G36*
X20709D02*
X19628Y-105964D01*
X18641Y-106535D01*
X17835Y-107341D01*
X17264Y-108328D01*
X16975Y-109409D01*
X20709D01*
Y-105675D01*
D02*
G37*
G36*
X25625Y-110591D02*
X21891D01*
Y-114325D01*
X22972Y-114036D01*
X23959Y-113465D01*
X24765Y-112659D01*
X25336Y-111672D01*
X25625Y-110591D01*
D02*
G37*
G36*
X20709D02*
X16975D01*
X17264Y-111672D01*
X17835Y-112659D01*
X18641Y-113465D01*
X19628Y-114036D01*
X20709Y-114325D01*
Y-110591D01*
D02*
G37*
G36*
X191922Y-105276D02*
X190678D01*
X189476Y-105598D01*
X188399Y-106219D01*
X187520Y-107099D01*
X186898Y-108176D01*
X186576Y-109378D01*
Y-110622D01*
X186898Y-111824D01*
X187520Y-112901D01*
X188399Y-113780D01*
X189476Y-114402D01*
X190678Y-114724D01*
X191922D01*
X193124Y-114402D01*
X194201Y-113780D01*
X195080Y-112901D01*
X195702Y-111824D01*
X196024Y-110622D01*
Y-109378D01*
X195702Y-108176D01*
X195080Y-107099D01*
X194201Y-106219D01*
X193124Y-105598D01*
X191922Y-105276D01*
D02*
G37*
G36*
X181922D02*
X180678D01*
X179476Y-105598D01*
X178399Y-106219D01*
X177520Y-107099D01*
X176898Y-108176D01*
X176576Y-109378D01*
Y-110622D01*
X176898Y-111824D01*
X177520Y-112901D01*
X178399Y-113780D01*
X179476Y-114402D01*
X180678Y-114724D01*
X181922D01*
X183124Y-114402D01*
X184201Y-113780D01*
X185081Y-112901D01*
X185702Y-111824D01*
X186024Y-110622D01*
Y-109378D01*
X185702Y-108176D01*
X185081Y-107099D01*
X184201Y-106219D01*
X183124Y-105598D01*
X181922Y-105276D01*
D02*
G37*
G36*
X171922D02*
X170678D01*
X169476Y-105598D01*
X168399Y-106219D01*
X167519Y-107099D01*
X166898Y-108176D01*
X166576Y-109378D01*
Y-110622D01*
X166898Y-111824D01*
X167519Y-112901D01*
X168399Y-113780D01*
X169476Y-114402D01*
X170678Y-114724D01*
X171922D01*
X173124Y-114402D01*
X174201Y-113780D01*
X175081Y-112901D01*
X175702Y-111824D01*
X176024Y-110622D01*
Y-109378D01*
X175702Y-108176D01*
X175081Y-107099D01*
X174201Y-106219D01*
X173124Y-105598D01*
X171922Y-105276D01*
D02*
G37*
G36*
X161922D02*
X160678D01*
X159476Y-105598D01*
X158399Y-106219D01*
X157519Y-107099D01*
X156898Y-108176D01*
X156576Y-109378D01*
Y-110622D01*
X156898Y-111824D01*
X157519Y-112901D01*
X158399Y-113780D01*
X159476Y-114402D01*
X160678Y-114724D01*
X161922D01*
X163124Y-114402D01*
X164201Y-113780D01*
X165080Y-112901D01*
X165702Y-111824D01*
X166024Y-110622D01*
Y-109378D01*
X165702Y-108176D01*
X165080Y-107099D01*
X164201Y-106219D01*
X163124Y-105598D01*
X161922Y-105276D01*
D02*
G37*
G36*
X151922D02*
X150678D01*
X149476Y-105598D01*
X148399Y-106219D01*
X147520Y-107099D01*
X146898Y-108176D01*
X146576Y-109378D01*
Y-110622D01*
X146898Y-111824D01*
X147520Y-112901D01*
X148399Y-113780D01*
X149476Y-114402D01*
X150678Y-114724D01*
X151922D01*
X153124Y-114402D01*
X154201Y-113780D01*
X155080Y-112901D01*
X155702Y-111824D01*
X156024Y-110622D01*
Y-109378D01*
X155702Y-108176D01*
X155080Y-107099D01*
X154201Y-106219D01*
X153124Y-105598D01*
X151922Y-105276D01*
D02*
G37*
G36*
X141922D02*
X140678D01*
X139476Y-105598D01*
X138399Y-106219D01*
X137520Y-107099D01*
X136898Y-108176D01*
X136576Y-109378D01*
Y-110622D01*
X136898Y-111824D01*
X137520Y-112901D01*
X138399Y-113780D01*
X139476Y-114402D01*
X140678Y-114724D01*
X141922D01*
X143124Y-114402D01*
X144201Y-113780D01*
X145080Y-112901D01*
X145702Y-111824D01*
X146024Y-110622D01*
Y-109378D01*
X145702Y-108176D01*
X145080Y-107099D01*
X144201Y-106219D01*
X143124Y-105598D01*
X141922Y-105276D01*
D02*
G37*
G36*
X131922D02*
X130678D01*
X129476Y-105598D01*
X128399Y-106219D01*
X127520Y-107099D01*
X126898Y-108176D01*
X126576Y-109378D01*
Y-110622D01*
X126898Y-111824D01*
X127520Y-112901D01*
X128399Y-113780D01*
X129476Y-114402D01*
X130678Y-114724D01*
X131922D01*
X133124Y-114402D01*
X134201Y-113780D01*
X135081Y-112901D01*
X135702Y-111824D01*
X136024Y-110622D01*
Y-109378D01*
X135702Y-108176D01*
X135081Y-107099D01*
X134201Y-106219D01*
X133124Y-105598D01*
X131922Y-105276D01*
D02*
G37*
G36*
X121922D02*
X120678D01*
X119476Y-105598D01*
X118399Y-106219D01*
X117519Y-107099D01*
X116898Y-108176D01*
X116576Y-109378D01*
Y-110622D01*
X116898Y-111824D01*
X117519Y-112901D01*
X118399Y-113780D01*
X119476Y-114402D01*
X120678Y-114724D01*
X121922D01*
X123124Y-114402D01*
X124201Y-113780D01*
X125081Y-112901D01*
X125702Y-111824D01*
X126024Y-110622D01*
Y-109378D01*
X125702Y-108176D01*
X125081Y-107099D01*
X124201Y-106219D01*
X123124Y-105598D01*
X121922Y-105276D01*
D02*
G37*
G36*
X111922D02*
X110678D01*
X109476Y-105598D01*
X108399Y-106219D01*
X107519Y-107099D01*
X106898Y-108176D01*
X106576Y-109378D01*
Y-110622D01*
X106898Y-111824D01*
X107519Y-112901D01*
X108399Y-113780D01*
X109476Y-114402D01*
X110678Y-114724D01*
X111922D01*
X113124Y-114402D01*
X114201Y-113780D01*
X115080Y-112901D01*
X115702Y-111824D01*
X116024Y-110622D01*
Y-109378D01*
X115702Y-108176D01*
X115080Y-107099D01*
X114201Y-106219D01*
X113124Y-105598D01*
X111922Y-105276D01*
D02*
G37*
G36*
X101922D02*
X100678D01*
X99476Y-105598D01*
X98399Y-106219D01*
X97519Y-107099D01*
X96898Y-108176D01*
X96576Y-109378D01*
Y-110622D01*
X96898Y-111824D01*
X97519Y-112901D01*
X98399Y-113780D01*
X99476Y-114402D01*
X100678Y-114724D01*
X101922D01*
X103124Y-114402D01*
X104201Y-113780D01*
X105080Y-112901D01*
X105702Y-111824D01*
X106024Y-110622D01*
Y-109378D01*
X105702Y-108176D01*
X105080Y-107099D01*
X104201Y-106219D01*
X103124Y-105598D01*
X101922Y-105276D01*
D02*
G37*
G36*
X91922D02*
X90678D01*
X89476Y-105598D01*
X88399Y-106219D01*
X87520Y-107099D01*
X86898Y-108176D01*
X86576Y-109378D01*
Y-110622D01*
X86898Y-111824D01*
X87520Y-112901D01*
X88399Y-113780D01*
X89476Y-114402D01*
X90678Y-114724D01*
X91922D01*
X93124Y-114402D01*
X94201Y-113780D01*
X95081Y-112901D01*
X95702Y-111824D01*
X96024Y-110622D01*
Y-109378D01*
X95702Y-108176D01*
X95081Y-107099D01*
X94201Y-106219D01*
X93124Y-105598D01*
X91922Y-105276D01*
D02*
G37*
G36*
X81922D02*
X80678D01*
X79476Y-105598D01*
X78399Y-106219D01*
X77520Y-107099D01*
X76898Y-108176D01*
X76576Y-109378D01*
Y-110622D01*
X76898Y-111824D01*
X77520Y-112901D01*
X78399Y-113780D01*
X79476Y-114402D01*
X80678Y-114724D01*
X81922D01*
X83124Y-114402D01*
X84201Y-113780D01*
X85080Y-112901D01*
X85702Y-111824D01*
X86024Y-110622D01*
Y-109378D01*
X85702Y-108176D01*
X85080Y-107099D01*
X84201Y-106219D01*
X83124Y-105598D01*
X81922Y-105276D01*
D02*
G37*
G36*
X71922D02*
X70678D01*
X69476Y-105598D01*
X68399Y-106219D01*
X67519Y-107099D01*
X66898Y-108176D01*
X66576Y-109378D01*
Y-110622D01*
X66898Y-111824D01*
X67519Y-112901D01*
X68399Y-113780D01*
X69476Y-114402D01*
X70678Y-114724D01*
X71922D01*
X73124Y-114402D01*
X74201Y-113780D01*
X75081Y-112901D01*
X75702Y-111824D01*
X76024Y-110622D01*
Y-109378D01*
X75702Y-108176D01*
X75081Y-107099D01*
X74201Y-106219D01*
X73124Y-105598D01*
X71922Y-105276D01*
D02*
G37*
G36*
X61922D02*
X60678D01*
X59476Y-105598D01*
X58399Y-106219D01*
X57520Y-107099D01*
X56898Y-108176D01*
X56576Y-109378D01*
Y-110622D01*
X56898Y-111824D01*
X57520Y-112901D01*
X58399Y-113780D01*
X59476Y-114402D01*
X60678Y-114724D01*
X61922D01*
X63124Y-114402D01*
X64201Y-113780D01*
X65080Y-112901D01*
X65702Y-111824D01*
X66024Y-110622D01*
Y-109378D01*
X65702Y-108176D01*
X65080Y-107099D01*
X64201Y-106219D01*
X63124Y-105598D01*
X61922Y-105276D01*
D02*
G37*
G36*
X51922D02*
X50678D01*
X49476Y-105598D01*
X48399Y-106219D01*
X47519Y-107099D01*
X46898Y-108176D01*
X46576Y-109378D01*
Y-110622D01*
X46898Y-111824D01*
X47519Y-112901D01*
X48399Y-113780D01*
X49476Y-114402D01*
X50678Y-114724D01*
X51922D01*
X53124Y-114402D01*
X54201Y-113780D01*
X55080Y-112901D01*
X55702Y-111824D01*
X56024Y-110622D01*
Y-109378D01*
X55702Y-108176D01*
X55080Y-107099D01*
X54201Y-106219D01*
X53124Y-105598D01*
X51922Y-105276D01*
D02*
G37*
G36*
X41922D02*
X40678D01*
X39476Y-105598D01*
X38399Y-106219D01*
X37519Y-107099D01*
X36898Y-108176D01*
X36576Y-109378D01*
Y-110622D01*
X36898Y-111824D01*
X37519Y-112901D01*
X38399Y-113780D01*
X39476Y-114402D01*
X40678Y-114724D01*
X41922D01*
X43124Y-114402D01*
X44201Y-113780D01*
X45081Y-112901D01*
X45702Y-111824D01*
X46024Y-110622D01*
Y-109378D01*
X45702Y-108176D01*
X45081Y-107099D01*
X44201Y-106219D01*
X43124Y-105598D01*
X41922Y-105276D01*
D02*
G37*
G36*
X31922D02*
X30678D01*
X29476Y-105598D01*
X28399Y-106219D01*
X27520Y-107099D01*
X26898Y-108176D01*
X26576Y-109378D01*
Y-110622D01*
X26898Y-111824D01*
X27520Y-112901D01*
X28399Y-113780D01*
X29476Y-114402D01*
X30678Y-114724D01*
X31922D01*
X33124Y-114402D01*
X34201Y-113780D01*
X35081Y-112901D01*
X35702Y-111824D01*
X36024Y-110622D01*
Y-109378D01*
X35702Y-108176D01*
X35081Y-107099D01*
X34201Y-106219D01*
X33124Y-105598D01*
X31922Y-105276D01*
D02*
G37*
G36*
X11922D02*
X10678D01*
X9476Y-105598D01*
X8399Y-106219D01*
X7519Y-107099D01*
X6898Y-108176D01*
X6576Y-109378D01*
Y-110622D01*
X6898Y-111824D01*
X7519Y-112901D01*
X8399Y-113780D01*
X9476Y-114402D01*
X10678Y-114724D01*
X11922D01*
X13124Y-114402D01*
X14201Y-113780D01*
X15080Y-112901D01*
X15702Y-111824D01*
X16024Y-110622D01*
Y-109378D01*
X15702Y-108176D01*
X15080Y-107099D01*
X14201Y-106219D01*
X13124Y-105598D01*
X11922Y-105276D01*
D02*
G37*
G36*
X1922D02*
X678D01*
X-524Y-105598D01*
X-1601Y-106219D01*
X-2481Y-107099D01*
X-3102Y-108176D01*
X-3424Y-109378D01*
Y-110622D01*
X-3102Y-111824D01*
X-2481Y-112901D01*
X-1601Y-113780D01*
X-524Y-114402D01*
X678Y-114724D01*
X1922D01*
X3124Y-114402D01*
X4201Y-113780D01*
X5080Y-112901D01*
X5703Y-111824D01*
X6024Y-110622D01*
Y-109378D01*
X5703Y-108176D01*
X5080Y-107099D01*
X4201Y-106219D01*
X3124Y-105598D01*
X1922Y-105276D01*
D02*
G37*
G36*
X191922Y-175276D02*
X190678D01*
X189476Y-175598D01*
X188399Y-176219D01*
X187520Y-177099D01*
X186898Y-178176D01*
X186576Y-179378D01*
Y-180622D01*
X186898Y-181824D01*
X187520Y-182901D01*
X188399Y-183781D01*
X189476Y-184402D01*
X190678Y-184724D01*
X191922D01*
X193124Y-184402D01*
X194201Y-183781D01*
X195080Y-182901D01*
X195702Y-181824D01*
X196024Y-180622D01*
Y-179378D01*
X195702Y-178176D01*
X195080Y-177099D01*
X194201Y-176219D01*
X193124Y-175598D01*
X191922Y-175276D01*
D02*
G37*
G36*
X181922D02*
X180678D01*
X179476Y-175598D01*
X178399Y-176219D01*
X177520Y-177099D01*
X176898Y-178176D01*
X176576Y-179378D01*
Y-180622D01*
X176898Y-181824D01*
X177520Y-182901D01*
X178399Y-183781D01*
X179476Y-184402D01*
X180678Y-184724D01*
X181922D01*
X183124Y-184402D01*
X184201Y-183781D01*
X185081Y-182901D01*
X185702Y-181824D01*
X186024Y-180622D01*
Y-179378D01*
X185702Y-178176D01*
X185081Y-177099D01*
X184201Y-176219D01*
X183124Y-175598D01*
X181922Y-175276D01*
D02*
G37*
G36*
X171922D02*
X170678D01*
X169476Y-175598D01*
X168399Y-176219D01*
X167519Y-177099D01*
X166898Y-178176D01*
X166576Y-179378D01*
Y-180622D01*
X166898Y-181824D01*
X167519Y-182901D01*
X168399Y-183781D01*
X169476Y-184402D01*
X170678Y-184724D01*
X171922D01*
X173124Y-184402D01*
X174201Y-183781D01*
X175081Y-182901D01*
X175702Y-181824D01*
X176024Y-180622D01*
Y-179378D01*
X175702Y-178176D01*
X175081Y-177099D01*
X174201Y-176219D01*
X173124Y-175598D01*
X171922Y-175276D01*
D02*
G37*
G36*
X161922D02*
X160678D01*
X159476Y-175598D01*
X158399Y-176219D01*
X157519Y-177099D01*
X156898Y-178176D01*
X156576Y-179378D01*
Y-180622D01*
X156898Y-181824D01*
X157519Y-182901D01*
X158399Y-183781D01*
X159476Y-184402D01*
X160678Y-184724D01*
X161922D01*
X163124Y-184402D01*
X164201Y-183781D01*
X165080Y-182901D01*
X165702Y-181824D01*
X166024Y-180622D01*
Y-179378D01*
X165702Y-178176D01*
X165080Y-177099D01*
X164201Y-176219D01*
X163124Y-175598D01*
X161922Y-175276D01*
D02*
G37*
G36*
X141922D02*
X140678D01*
X139476Y-175598D01*
X138399Y-176219D01*
X137520Y-177099D01*
X136898Y-178176D01*
X136576Y-179378D01*
Y-180622D01*
X136898Y-181824D01*
X137520Y-182901D01*
X138399Y-183781D01*
X139476Y-184402D01*
X140678Y-184724D01*
X141922D01*
X143124Y-184402D01*
X144201Y-183781D01*
X145080Y-182901D01*
X145702Y-181824D01*
X146024Y-180622D01*
Y-179378D01*
X145702Y-178176D01*
X145080Y-177099D01*
X144201Y-176219D01*
X143124Y-175598D01*
X141922Y-175276D01*
D02*
G37*
G36*
X131922D02*
X130678D01*
X129476Y-175598D01*
X128399Y-176219D01*
X127520Y-177099D01*
X126898Y-178176D01*
X126576Y-179378D01*
Y-180622D01*
X126898Y-181824D01*
X127520Y-182901D01*
X128399Y-183781D01*
X129476Y-184402D01*
X130678Y-184724D01*
X131922D01*
X133124Y-184402D01*
X134201Y-183781D01*
X135081Y-182901D01*
X135702Y-181824D01*
X136024Y-180622D01*
Y-179378D01*
X135702Y-178176D01*
X135081Y-177099D01*
X134201Y-176219D01*
X133124Y-175598D01*
X131922Y-175276D01*
D02*
G37*
G36*
X121922D02*
X120678D01*
X119476Y-175598D01*
X118399Y-176219D01*
X117519Y-177099D01*
X116898Y-178176D01*
X116576Y-179378D01*
Y-180622D01*
X116898Y-181824D01*
X117519Y-182901D01*
X118399Y-183781D01*
X119476Y-184402D01*
X120678Y-184724D01*
X121922D01*
X123124Y-184402D01*
X124201Y-183781D01*
X125081Y-182901D01*
X125702Y-181824D01*
X126024Y-180622D01*
Y-179378D01*
X125702Y-178176D01*
X125081Y-177099D01*
X124201Y-176219D01*
X123124Y-175598D01*
X121922Y-175276D01*
D02*
G37*
G36*
X111922D02*
X110678D01*
X109476Y-175598D01*
X108399Y-176219D01*
X107519Y-177099D01*
X106898Y-178176D01*
X106576Y-179378D01*
Y-180622D01*
X106898Y-181824D01*
X107519Y-182901D01*
X108399Y-183781D01*
X109476Y-184402D01*
X110678Y-184724D01*
X111922D01*
X113124Y-184402D01*
X114201Y-183781D01*
X115080Y-182901D01*
X115702Y-181824D01*
X116024Y-180622D01*
Y-179378D01*
X115702Y-178176D01*
X115080Y-177099D01*
X114201Y-176219D01*
X113124Y-175598D01*
X111922Y-175276D01*
D02*
G37*
G36*
X101922D02*
X100678D01*
X99476Y-175598D01*
X98399Y-176219D01*
X97519Y-177099D01*
X96898Y-178176D01*
X96576Y-179378D01*
Y-180622D01*
X96898Y-181824D01*
X97519Y-182901D01*
X98399Y-183781D01*
X99476Y-184402D01*
X100678Y-184724D01*
X101922D01*
X103124Y-184402D01*
X104201Y-183781D01*
X105080Y-182901D01*
X105702Y-181824D01*
X106024Y-180622D01*
Y-179378D01*
X105702Y-178176D01*
X105080Y-177099D01*
X104201Y-176219D01*
X103124Y-175598D01*
X101922Y-175276D01*
D02*
G37*
G36*
X91922D02*
X90678D01*
X89476Y-175598D01*
X88399Y-176219D01*
X87520Y-177099D01*
X86898Y-178176D01*
X86576Y-179378D01*
Y-180622D01*
X86898Y-181824D01*
X87520Y-182901D01*
X88399Y-183781D01*
X89476Y-184402D01*
X90678Y-184724D01*
X91922D01*
X93124Y-184402D01*
X94201Y-183781D01*
X95081Y-182901D01*
X95702Y-181824D01*
X96024Y-180622D01*
Y-179378D01*
X95702Y-178176D01*
X95081Y-177099D01*
X94201Y-176219D01*
X93124Y-175598D01*
X91922Y-175276D01*
D02*
G37*
G36*
X81922D02*
X80678D01*
X79476Y-175598D01*
X78399Y-176219D01*
X77520Y-177099D01*
X76898Y-178176D01*
X76576Y-179378D01*
Y-180622D01*
X76898Y-181824D01*
X77520Y-182901D01*
X78399Y-183781D01*
X79476Y-184402D01*
X80678Y-184724D01*
X81922D01*
X83124Y-184402D01*
X84201Y-183781D01*
X85080Y-182901D01*
X85702Y-181824D01*
X86024Y-180622D01*
Y-179378D01*
X85702Y-178176D01*
X85080Y-177099D01*
X84201Y-176219D01*
X83124Y-175598D01*
X81922Y-175276D01*
D02*
G37*
G36*
X71922D02*
X70678D01*
X69476Y-175598D01*
X68399Y-176219D01*
X67519Y-177099D01*
X66898Y-178176D01*
X66576Y-179378D01*
Y-180622D01*
X66898Y-181824D01*
X67519Y-182901D01*
X68399Y-183781D01*
X69476Y-184402D01*
X70678Y-184724D01*
X71922D01*
X73124Y-184402D01*
X74201Y-183781D01*
X75081Y-182901D01*
X75702Y-181824D01*
X76024Y-180622D01*
Y-179378D01*
X75702Y-178176D01*
X75081Y-177099D01*
X74201Y-176219D01*
X73124Y-175598D01*
X71922Y-175276D01*
D02*
G37*
G36*
X61922D02*
X60678D01*
X59476Y-175598D01*
X58399Y-176219D01*
X57520Y-177099D01*
X56898Y-178176D01*
X56576Y-179378D01*
Y-180622D01*
X56898Y-181824D01*
X57520Y-182901D01*
X58399Y-183781D01*
X59476Y-184402D01*
X60678Y-184724D01*
X61922D01*
X63124Y-184402D01*
X64201Y-183781D01*
X65080Y-182901D01*
X65702Y-181824D01*
X66024Y-180622D01*
Y-179378D01*
X65702Y-178176D01*
X65080Y-177099D01*
X64201Y-176219D01*
X63124Y-175598D01*
X61922Y-175276D01*
D02*
G37*
G36*
X51922D02*
X50678D01*
X49476Y-175598D01*
X48399Y-176219D01*
X47519Y-177099D01*
X46898Y-178176D01*
X46576Y-179378D01*
Y-180622D01*
X46898Y-181824D01*
X47519Y-182901D01*
X48399Y-183781D01*
X49476Y-184402D01*
X50678Y-184724D01*
X51922D01*
X53124Y-184402D01*
X54201Y-183781D01*
X55080Y-182901D01*
X55702Y-181824D01*
X56024Y-180622D01*
Y-179378D01*
X55702Y-178176D01*
X55080Y-177099D01*
X54201Y-176219D01*
X53124Y-175598D01*
X51922Y-175276D01*
D02*
G37*
G36*
X41922D02*
X40678D01*
X39476Y-175598D01*
X38399Y-176219D01*
X37519Y-177099D01*
X36898Y-178176D01*
X36576Y-179378D01*
Y-180622D01*
X36898Y-181824D01*
X37519Y-182901D01*
X38399Y-183781D01*
X39476Y-184402D01*
X40678Y-184724D01*
X41922D01*
X43124Y-184402D01*
X44201Y-183781D01*
X45081Y-182901D01*
X45702Y-181824D01*
X46024Y-180622D01*
Y-179378D01*
X45702Y-178176D01*
X45081Y-177099D01*
X44201Y-176219D01*
X43124Y-175598D01*
X41922Y-175276D01*
D02*
G37*
G36*
X31922D02*
X30678D01*
X29476Y-175598D01*
X28399Y-176219D01*
X27520Y-177099D01*
X26898Y-178176D01*
X26576Y-179378D01*
Y-180622D01*
X26898Y-181824D01*
X27520Y-182901D01*
X28399Y-183781D01*
X29476Y-184402D01*
X30678Y-184724D01*
X31922D01*
X33124Y-184402D01*
X34201Y-183781D01*
X35081Y-182901D01*
X35702Y-181824D01*
X36024Y-180622D01*
Y-179378D01*
X35702Y-178176D01*
X35081Y-177099D01*
X34201Y-176219D01*
X33124Y-175598D01*
X31922Y-175276D01*
D02*
G37*
G36*
X21922D02*
X20678D01*
X19476Y-175598D01*
X18399Y-176219D01*
X17519Y-177099D01*
X16898Y-178176D01*
X16576Y-179378D01*
Y-180622D01*
X16898Y-181824D01*
X17519Y-182901D01*
X18399Y-183781D01*
X19476Y-184402D01*
X20678Y-184724D01*
X21922D01*
X23124Y-184402D01*
X24201Y-183781D01*
X25080Y-182901D01*
X25702Y-181824D01*
X26024Y-180622D01*
Y-179378D01*
X25702Y-178176D01*
X25080Y-177099D01*
X24201Y-176219D01*
X23124Y-175598D01*
X21922Y-175276D01*
D02*
G37*
G36*
X11922D02*
X10678D01*
X9476Y-175598D01*
X8399Y-176219D01*
X7519Y-177099D01*
X6898Y-178176D01*
X6576Y-179378D01*
Y-180622D01*
X6898Y-181824D01*
X7519Y-182901D01*
X8399Y-183781D01*
X9476Y-184402D01*
X10678Y-184724D01*
X11922D01*
X13124Y-184402D01*
X14201Y-183781D01*
X15080Y-182901D01*
X15702Y-181824D01*
X16024Y-180622D01*
Y-179378D01*
X15702Y-178176D01*
X15080Y-177099D01*
X14201Y-176219D01*
X13124Y-175598D01*
X11922Y-175276D01*
D02*
G37*
G36*
X1922D02*
X678D01*
X-524Y-175598D01*
X-1601Y-176219D01*
X-2481Y-177099D01*
X-3102Y-178176D01*
X-3424Y-179378D01*
Y-180622D01*
X-3102Y-181824D01*
X-2481Y-182901D01*
X-1601Y-183781D01*
X-524Y-184402D01*
X678Y-184724D01*
X1922D01*
X3124Y-184402D01*
X4201Y-183781D01*
X5080Y-182901D01*
X5703Y-181824D01*
X6024Y-180622D01*
Y-179378D01*
X5703Y-178176D01*
X5080Y-177099D01*
X4201Y-176219D01*
X3124Y-175598D01*
X1922Y-175276D01*
D02*
G37*
G36*
X150233Y-193013D02*
X149367D01*
X148531Y-193237D01*
X147782Y-193669D01*
X147169Y-194281D01*
X146737Y-195031D01*
X146513Y-195867D01*
Y-196733D01*
X146737Y-197569D01*
X147169Y-198319D01*
X147782Y-198931D01*
X148531Y-199363D01*
X149367Y-199587D01*
X150233D01*
X151069Y-199363D01*
X151819Y-198931D01*
X152431Y-198319D01*
X152863Y-197569D01*
X153087Y-196733D01*
Y-195867D01*
X152863Y-195031D01*
X152431Y-194281D01*
X151819Y-193669D01*
X151069Y-193237D01*
X150233Y-193013D01*
D02*
G37*
%LPD*%
D12*
X131949Y-13740D02*
X173386D01*
X124016Y-5807D02*
X131949Y-13740D01*
X173386D02*
X197835Y-38189D01*
Y-133465D02*
Y-38189D01*
X199803Y-195939D02*
Y-36614D01*
X139075Y-11024D02*
X174213D01*
X199803Y-36614D01*
X133858Y-5807D02*
X139075Y-11024D01*
X151300Y-180000D02*
X197835Y-133465D01*
X158700Y-196400D02*
X199342D01*
X199803Y-195939D01*
D20*
X25591Y-5807D02*
D03*
X35433D02*
D03*
X45276D02*
D03*
X55118D02*
D03*
X64961D02*
D03*
X104331D02*
D03*
X114173D02*
D03*
X124016D02*
D03*
X133858D02*
D03*
X143701D02*
D03*
D21*
X74803D02*
D03*
X153543D02*
D03*
D23*
X188976Y-209646D02*
D03*
X0D02*
D03*
X188976Y0D02*
D03*
X0D02*
D03*
D24*
X185039Y-59055D02*
D03*
Y-39055D02*
D03*
D25*
X87480Y-79528D02*
D03*
X97480D02*
D03*
X107480D02*
D03*
X117480D02*
D03*
X127480D02*
D03*
X137480D02*
D03*
X147480D02*
D03*
X157480D02*
D03*
X87480Y-29528D02*
D03*
X97480D02*
D03*
X107480D02*
D03*
X117480D02*
D03*
X127480D02*
D03*
X137480D02*
D03*
X147480D02*
D03*
D26*
X157480D02*
D03*
D27*
X31300Y-180000D02*
D03*
X81300D02*
D03*
X71300D02*
D03*
X61300D02*
D03*
X51300D02*
D03*
X41300D02*
D03*
X101300D02*
D03*
X171300D02*
D03*
X161300D02*
D03*
X151300D02*
D03*
X141300D02*
D03*
X131300D02*
D03*
X121300D02*
D03*
X111300D02*
D03*
X1300D02*
D03*
X21300D02*
D03*
X11300D02*
D03*
X91300D02*
D03*
X191300D02*
D03*
X181300D02*
D03*
X1300Y-110000D02*
D03*
X11300D02*
D03*
X21300D02*
D03*
X31300D02*
D03*
X41300D02*
D03*
X51300D02*
D03*
X61300D02*
D03*
X71300D02*
D03*
X81300D02*
D03*
X91300D02*
D03*
X101300D02*
D03*
X111300D02*
D03*
X121300D02*
D03*
X131300D02*
D03*
X141300D02*
D03*
X151300D02*
D03*
X161300D02*
D03*
X171300D02*
D03*
X181300D02*
D03*
X191300D02*
D03*
D28*
X-4449Y-95965D02*
D03*
X5551D02*
D03*
X15551D02*
D03*
X25551D02*
D03*
X35551D02*
D03*
X45551D02*
D03*
D29*
X158700Y-196400D02*
D03*
X149800Y-196300D02*
D03*
D30*
X97480Y-54443D02*
X102093Y-59055D01*
X97480Y-54443D02*
Y-30591D01*
X102093Y-59055D02*
X185925D01*
M02*
