G04*
G04 #@! TF.GenerationSoftware,Altium Limited,Altium Designer,22.11.1 (43)*
G04*
G04 Layer_Color=16711935*
%FSLAX25Y25*%
%MOIN*%
G70*
G04*
G04 #@! TF.SameCoordinates,256A903A-EE05-4266-A9F3-2A002FD68AA6*
G04*
G04*
G04 #@! TF.FilePolarity,Positive*
G04*
G01*
G75*
%ADD11C,0.00787*%
%ADD13C,0.00500*%
%ADD16C,0.00394*%
%ADD87R,0.00953X0.04134*%
D11*
X-132500Y-45158D02*
X-133287D01*
X-132500D01*
X-12106Y-87106D02*
X10531D01*
Y-18602D01*
X-12106D02*
X10531D01*
X-12106Y-87106D02*
Y-18602D01*
X-34646Y-145571D02*
Y-112894D01*
X-56693D02*
X-34646D01*
X-56693Y-145571D02*
Y-112894D01*
Y-145571D02*
X-34646D01*
X-78347Y-87008D02*
Y-76378D01*
X-90945D02*
X-78347D01*
X-90945Y-87008D02*
Y-76378D01*
Y-87008D02*
X-78347D01*
X-125787Y-8268D02*
X-115157D01*
X-125787Y-20866D02*
Y-8268D01*
Y-20866D02*
X-115157D01*
Y-8268D01*
X-171260Y-91732D02*
X-168110D01*
X-171260Y-98032D02*
Y-91732D01*
Y-98032D02*
X-168110D01*
Y-91732D01*
X-174803Y-116041D02*
X-171653D01*
Y-109741D01*
X-174803D02*
X-171653D01*
X-174803Y-116041D02*
Y-109741D01*
X-12205Y-157087D02*
X10433D01*
Y-88583D01*
X-12205D02*
X10433D01*
X-12205Y-157087D02*
Y-88583D01*
X-164567Y-17854D02*
X-160827D01*
Y-10886D01*
X-164567D02*
X-160827D01*
X-164567Y-17854D02*
Y-10886D01*
X-155807Y-17224D02*
X-152067D01*
Y-10335D01*
X-155807D02*
X-152067D01*
X-155807Y-17224D02*
Y-10335D01*
X-149705Y-29291D02*
X-145965D01*
X-149705Y-36260D02*
Y-29291D01*
Y-36260D02*
X-145965D01*
Y-29291D01*
X-69823Y-151279D02*
Y-147539D01*
Y-151279D02*
X-62854D01*
Y-147539D01*
X-69823D02*
X-62854D01*
X-27657Y-31004D02*
Y-25689D01*
Y-31004D02*
X-19390D01*
Y-25689D01*
X-27657D02*
X-19390D01*
X-61437Y-82480D02*
Y-80512D01*
Y-82480D02*
X-57500D01*
Y-80512D01*
X-61437D02*
X-57500D01*
X-61437Y-87992D02*
Y-86024D01*
Y-87992D02*
X-57500D01*
Y-86024D01*
X-61437D02*
X-57500D01*
X-119579Y-116816D02*
X-118187Y-115424D01*
X-119579Y-116816D02*
X-116795Y-119600D01*
X-115403Y-118208D01*
X-118187Y-115424D02*
X-115403Y-118208D01*
X-120093Y-76476D02*
Y-74508D01*
Y-76476D02*
X-116156D01*
Y-74508D01*
X-120093D02*
X-116156D01*
X-61417Y-76870D02*
Y-74902D01*
Y-76870D02*
X-57480D01*
Y-74902D01*
X-61417D02*
X-57480D01*
X-119783Y-81988D02*
Y-80020D01*
Y-81988D02*
X-115847D01*
Y-80020D01*
X-119783D02*
X-115847D01*
X-129429Y-77165D02*
X-127461D01*
Y-73228D01*
X-129429D02*
X-127461D01*
X-129429Y-77165D02*
Y-73228D01*
X-149060Y-77165D02*
X-147091D01*
Y-73228D01*
X-149060D02*
X-147091D01*
X-149060Y-77165D02*
Y-73228D01*
X-135630Y-77165D02*
X-133661D01*
Y-73228D01*
X-135630D02*
X-133661D01*
X-135630Y-77165D02*
Y-73228D01*
X-113407Y-111964D02*
X-112015Y-110572D01*
X-113407Y-111964D02*
X-110623Y-114748D01*
X-109231Y-113356D01*
X-112015Y-110572D02*
X-109231Y-113356D01*
X-153150Y-77165D02*
X-151181D01*
Y-73228D01*
X-153150D02*
X-151181D01*
X-153150Y-77165D02*
Y-73228D01*
X-98051Y-36142D02*
Y-34173D01*
X-101988D02*
X-98051D01*
X-101988Y-36142D02*
Y-34173D01*
Y-36142D02*
X-98051D01*
X-56004Y-54528D02*
X-50689D01*
X-56004Y-62795D02*
Y-54528D01*
Y-62795D02*
X-50689D01*
Y-54528D01*
X-114576Y-128699D02*
X-113184Y-130090D01*
X-110400Y-127306D01*
X-111792Y-125915D02*
X-110400Y-127306D01*
X-114576Y-128699D02*
X-111792Y-125915D01*
X-126383Y-131844D02*
X-124991Y-133236D01*
X-129167Y-134628D02*
X-126383Y-131844D01*
X-129167Y-134628D02*
X-127775Y-136020D01*
X-124991Y-133236D01*
X-57884Y-12894D02*
Y-7579D01*
Y-12894D02*
X-49616D01*
Y-7579D01*
X-57884D02*
X-49616D01*
D13*
X-175787Y-39862D02*
Y-23720D01*
X-159646Y-39862D02*
Y-23720D01*
X-175787D02*
X-159646D01*
X-175787Y-39862D02*
X-159646D01*
X-101969Y-63051D02*
Y-42264D01*
X-122756Y-63051D02*
Y-42264D01*
Y-63051D02*
X-101969D01*
X-122756Y-42264D02*
X-101969D01*
D16*
X-121647Y-122316D02*
X-118584Y-125378D01*
X-123317Y-123986D02*
X-120255Y-127048D01*
X-123317Y-123986D02*
X-121647Y-122316D01*
X-120255Y-127048D02*
X-118584Y-125378D01*
X-140551Y-76968D02*
X-138386D01*
X-140551Y-72835D02*
X-138386D01*
X-140551Y-76968D02*
Y-72835D01*
X-138386Y-76968D02*
Y-72835D01*
X-144685Y-76968D02*
X-142520D01*
X-144685Y-72835D02*
X-142520D01*
X-144685Y-76968D02*
Y-72835D01*
X-142520Y-76968D02*
Y-72835D01*
X-127520Y-35295D02*
Y-30965D01*
X-125157Y-35295D02*
Y-30965D01*
X-127520Y-35295D02*
X-125157D01*
X-127520Y-30965D02*
X-125157D01*
X-121516Y-31063D02*
X-119350D01*
X-121516Y-35197D02*
X-119350D01*
Y-31063D01*
X-121516Y-35197D02*
Y-31063D01*
X-178051Y-22047D02*
Y-15157D01*
X-181791Y-22047D02*
Y-15157D01*
X-178051D01*
X-181791Y-22047D02*
X-178051D01*
X-70079Y-153445D02*
X-62992D01*
X-70079Y-157579D02*
X-62992D01*
X-70079D02*
Y-153445D01*
X-62992Y-157579D02*
Y-153445D01*
D87*
X-63469Y-155512D02*
D03*
M02*
