G04*
G04 #@! TF.GenerationSoftware,Altium Limited,Altium Designer,22.11.1 (43)*
G04*
G04 Layer_Physical_Order=1*
G04 Layer_Color=255*
%FSLAX25Y25*%
%MOIN*%
G70*
G04*
G04 #@! TF.SameCoordinates,AF9D1AC7-D161-4756-986D-43FDA94486ED*
G04*
G04*
G04 #@! TF.FilePolarity,Positive*
G04*
G01*
G75*
%ADD12C,0.00787*%
%ADD20C,0.05512*%
%ADD21R,0.05512X0.05512*%
%ADD22C,0.03937*%
%ADD23C,0.23622*%
%ADD24C,0.06000*%
%ADD25O,0.05500X0.10000*%
%ADD26R,0.05500X0.10000*%
%ADD27C,0.07874*%
%ADD28C,0.06500*%
%ADD29C,0.05000*%
G36*
X185395Y12083D02*
X184140Y11675D01*
X182373Y10775D01*
X180769Y9610D01*
X179367Y8207D01*
X178201Y6603D01*
X177301Y4836D01*
X176688Y2950D01*
X176378Y991D01*
Y-991D01*
X176688Y-2950D01*
X177301Y-4836D01*
X178201Y-6603D01*
X179367Y-8207D01*
X180769Y-9610D01*
X182373Y-10775D01*
X184140Y-11675D01*
X186026Y-12288D01*
X187985Y-12598D01*
X189968D01*
X191927Y-12288D01*
X193813Y-11675D01*
X195579Y-10775D01*
X197184Y-9610D01*
X198586Y-8207D01*
X199751Y-6603D01*
X200652Y-4836D01*
X201265Y-2950D01*
X201453Y-1760D01*
X201953Y-1799D01*
Y-207847D01*
X201453Y-207886D01*
X201265Y-206696D01*
X200652Y-204809D01*
X199751Y-203043D01*
X198586Y-201438D01*
X197184Y-200036D01*
X195579Y-198871D01*
X193813Y-197970D01*
X191927Y-197357D01*
X189968Y-197047D01*
X187985D01*
X186026Y-197357D01*
X184140Y-197970D01*
X182373Y-198871D01*
X180769Y-200036D01*
X179367Y-201438D01*
X178201Y-203043D01*
X177301Y-204809D01*
X176688Y-206696D01*
X176378Y-208654D01*
Y-210637D01*
X176688Y-212596D01*
X177301Y-214482D01*
X178201Y-216249D01*
X179367Y-217853D01*
X180769Y-219255D01*
X182373Y-220421D01*
X184140Y-221321D01*
X184789Y-221532D01*
X184710Y-222032D01*
X4267D01*
X4187Y-221532D01*
X4836Y-221321D01*
X6603Y-220421D01*
X8207Y-219255D01*
X9610Y-217853D01*
X10775Y-216249D01*
X11675Y-214482D01*
X12288Y-212596D01*
X12598Y-210637D01*
Y-208654D01*
X12288Y-206696D01*
X11675Y-204809D01*
X10775Y-203043D01*
X9610Y-201438D01*
X8207Y-200036D01*
X6603Y-198871D01*
X4836Y-197970D01*
X2950Y-197357D01*
X991Y-197047D01*
X-991D01*
X-2950Y-197357D01*
X-4836Y-197970D01*
X-6603Y-198871D01*
X-8207Y-200036D01*
X-9610Y-201438D01*
X-10775Y-203043D01*
X-11675Y-204809D01*
X-12288Y-206696D01*
X-12477Y-207886D01*
X-12977Y-207846D01*
Y-1799D01*
X-12477Y-1760D01*
X-12288Y-2950D01*
X-11675Y-4836D01*
X-10775Y-6603D01*
X-9610Y-8207D01*
X-8207Y-9610D01*
X-6603Y-10775D01*
X-4836Y-11675D01*
X-2950Y-12288D01*
X-991Y-12598D01*
X991D01*
X2950Y-12288D01*
X4836Y-11675D01*
X6603Y-10775D01*
X8207Y-9610D01*
X9610Y-8207D01*
X10775Y-6603D01*
X11675Y-4836D01*
X12288Y-2950D01*
X12598Y-991D01*
Y991D01*
X12288Y2950D01*
X11675Y4836D01*
X10775Y6603D01*
X9610Y8207D01*
X8207Y9610D01*
X6603Y10775D01*
X4836Y11675D01*
X3582Y12083D01*
X3661Y12583D01*
X185316D01*
X185395Y12083D01*
D02*
G37*
%LPC*%
G36*
X36024Y-2705D02*
Y-5217D01*
X38535D01*
X38368Y-4591D01*
X37953Y-3873D01*
X37367Y-3287D01*
X36649Y-2872D01*
X36024Y-2705D01*
D02*
G37*
G36*
X114764D02*
Y-5217D01*
X117276D01*
X117108Y-4591D01*
X116693Y-3873D01*
X116107Y-3287D01*
X115389Y-2872D01*
X114764Y-2705D01*
D02*
G37*
G36*
X34843Y-2705D02*
X34217Y-2872D01*
X33499Y-3287D01*
X32913Y-3873D01*
X32498Y-4591D01*
X32331Y-5217D01*
X34843D01*
Y-2705D01*
D02*
G37*
G36*
X113583D02*
X112958Y-2872D01*
X112239Y-3287D01*
X111653Y-3873D01*
X111238Y-4591D01*
X111071Y-5217D01*
X113583D01*
Y-2705D01*
D02*
G37*
G36*
X117276Y-6398D02*
X114764D01*
Y-8910D01*
X115389Y-8742D01*
X116107Y-8327D01*
X116693Y-7741D01*
X117108Y-7023D01*
X117276Y-6398D01*
D02*
G37*
G36*
X38535D02*
X36024D01*
Y-8910D01*
X36649Y-8742D01*
X37367Y-8327D01*
X37953Y-7741D01*
X38368Y-7023D01*
X38535Y-6398D01*
D02*
G37*
G36*
X113583D02*
X111071D01*
X111238Y-7023D01*
X111653Y-7741D01*
X112239Y-8327D01*
X112958Y-8742D01*
X113583Y-8910D01*
Y-6398D01*
D02*
G37*
G36*
X34843D02*
X32331D01*
X32498Y-7023D01*
X32913Y-7741D01*
X33499Y-8327D01*
X34217Y-8742D01*
X34843Y-8910D01*
Y-6398D01*
D02*
G37*
G36*
X144167Y-2264D02*
X143234D01*
X142333Y-2505D01*
X141525Y-2972D01*
X140866Y-3632D01*
X140399Y-4439D01*
X140157Y-5341D01*
Y-6274D01*
X140399Y-7175D01*
X140866Y-7983D01*
X141525Y-8642D01*
X142333Y-9109D01*
X143234Y-9350D01*
X144167D01*
X145069Y-9109D01*
X145876Y-8642D01*
X146536Y-7983D01*
X147003Y-7175D01*
X147244Y-6274D01*
Y-5341D01*
X147003Y-4439D01*
X146536Y-3632D01*
X145876Y-2972D01*
X145069Y-2505D01*
X144167Y-2264D01*
D02*
G37*
G36*
X134325D02*
X133392D01*
X132491Y-2505D01*
X131683Y-2972D01*
X131023Y-3632D01*
X130556Y-4439D01*
X130315Y-5341D01*
Y-6274D01*
X130556Y-7175D01*
X131023Y-7983D01*
X131683Y-8642D01*
X132491Y-9109D01*
X133392Y-9350D01*
X134325D01*
X135226Y-9109D01*
X136034Y-8642D01*
X136694Y-7983D01*
X137160Y-7175D01*
X137402Y-6274D01*
Y-5341D01*
X137160Y-4439D01*
X136694Y-3632D01*
X136034Y-2972D01*
X135226Y-2505D01*
X134325Y-2264D01*
D02*
G37*
G36*
X124482D02*
X123549D01*
X122648Y-2505D01*
X121840Y-2972D01*
X121180Y-3632D01*
X120714Y-4439D01*
X120473Y-5341D01*
Y-6274D01*
X120714Y-7175D01*
X121180Y-7983D01*
X121840Y-8642D01*
X122648Y-9109D01*
X123549Y-9350D01*
X124482D01*
X125383Y-9109D01*
X126191Y-8642D01*
X126851Y-7983D01*
X127318Y-7175D01*
X127559Y-6274D01*
Y-5341D01*
X127318Y-4439D01*
X126851Y-3632D01*
X126191Y-2972D01*
X125383Y-2505D01*
X124482Y-2264D01*
D02*
G37*
G36*
X65427D02*
X64494D01*
X63593Y-2505D01*
X62785Y-2972D01*
X62125Y-3632D01*
X61659Y-4439D01*
X61417Y-5341D01*
Y-6274D01*
X61659Y-7175D01*
X62125Y-7983D01*
X62785Y-8642D01*
X63593Y-9109D01*
X64494Y-9350D01*
X65427D01*
X66328Y-9109D01*
X67136Y-8642D01*
X67796Y-7983D01*
X68262Y-7175D01*
X68504Y-6274D01*
Y-5341D01*
X68262Y-4439D01*
X67796Y-3632D01*
X67136Y-2972D01*
X66328Y-2505D01*
X65427Y-2264D01*
D02*
G37*
G36*
X55585D02*
X54652D01*
X53750Y-2505D01*
X52943Y-2972D01*
X52283Y-3632D01*
X51816Y-4439D01*
X51575Y-5341D01*
Y-6274D01*
X51816Y-7175D01*
X52283Y-7983D01*
X52943Y-8642D01*
X53750Y-9109D01*
X54652Y-9350D01*
X55585D01*
X56486Y-9109D01*
X56632Y-9024D01*
X67004Y-19396D01*
Y-25180D01*
X66543Y-25371D01*
X48493Y-7321D01*
X48577Y-7175D01*
X48819Y-6274D01*
Y-5341D01*
X48577Y-4439D01*
X48111Y-3632D01*
X47451Y-2972D01*
X46643Y-2505D01*
X45742Y-2264D01*
X44809D01*
X43908Y-2505D01*
X43100Y-2972D01*
X42440Y-3632D01*
X41974Y-4439D01*
X41732Y-5341D01*
Y-6274D01*
X41974Y-7175D01*
X42440Y-7983D01*
X43100Y-8642D01*
X43908Y-9109D01*
X44809Y-9350D01*
X45742D01*
X46643Y-9109D01*
X46790Y-9024D01*
X65725Y-27959D01*
Y-73130D01*
X65725Y-73130D01*
X65817Y-73591D01*
X66078Y-73981D01*
X89011Y-96914D01*
X89011Y-96914D01*
X89401Y-97176D01*
X89862Y-97267D01*
X129029D01*
X129701Y-97940D01*
Y-105537D01*
X129476Y-105598D01*
X128399Y-106219D01*
X127520Y-107099D01*
X126898Y-108176D01*
X126576Y-109378D01*
Y-110622D01*
X126898Y-111824D01*
X127520Y-112901D01*
X128399Y-113780D01*
X129476Y-114402D01*
X130678Y-114724D01*
X131922D01*
X133124Y-114402D01*
X134201Y-113780D01*
X135081Y-112901D01*
X135702Y-111824D01*
X136024Y-110622D01*
Y-109378D01*
X135702Y-108176D01*
X135081Y-107099D01*
X134201Y-106219D01*
X133124Y-105598D01*
X132110Y-105326D01*
Y-97441D01*
X132110Y-97441D01*
X132018Y-96980D01*
X131757Y-96589D01*
X131757Y-96589D01*
X131716Y-96548D01*
X131907Y-96086D01*
X139659D01*
X140096Y-96523D01*
Y-105432D01*
X139476Y-105598D01*
X138399Y-106219D01*
X137520Y-107099D01*
X136898Y-108176D01*
X136576Y-109378D01*
Y-110622D01*
X136898Y-111824D01*
X137520Y-112901D01*
X138399Y-113780D01*
X139476Y-114402D01*
X140678Y-114724D01*
X141922D01*
X143124Y-114402D01*
X144201Y-113780D01*
X145080Y-112901D01*
X145702Y-111824D01*
X146024Y-110622D01*
Y-109378D01*
X145702Y-108176D01*
X145080Y-107099D01*
X144201Y-106219D01*
X143124Y-105598D01*
X142504Y-105432D01*
Y-96024D01*
X142413Y-95564D01*
X142307Y-95405D01*
X142574Y-94905D01*
X146352D01*
X150567Y-99121D01*
Y-105305D01*
X149476Y-105598D01*
X148399Y-106219D01*
X147520Y-107099D01*
X146898Y-108176D01*
X146576Y-109378D01*
Y-110622D01*
X146898Y-111824D01*
X147520Y-112901D01*
X148399Y-113780D01*
X149476Y-114402D01*
X150678Y-114724D01*
X151922D01*
X153124Y-114402D01*
X154201Y-113780D01*
X155080Y-112901D01*
X155702Y-111824D01*
X156024Y-110622D01*
Y-109378D01*
X155702Y-108176D01*
X155080Y-107099D01*
X154201Y-106219D01*
X153124Y-105598D01*
X152976Y-105558D01*
Y-98622D01*
X152884Y-98161D01*
X152623Y-97771D01*
X152623Y-97771D01*
X149039Y-94186D01*
X149230Y-93724D01*
X156292D01*
X160213Y-97645D01*
Y-105400D01*
X159476Y-105598D01*
X158399Y-106219D01*
X157519Y-107099D01*
X156898Y-108176D01*
X156576Y-109378D01*
Y-110622D01*
X156898Y-111824D01*
X157519Y-112901D01*
X158399Y-113780D01*
X159476Y-114402D01*
X160678Y-114724D01*
X161922D01*
X163124Y-114402D01*
X164201Y-113780D01*
X165080Y-112901D01*
X165702Y-111824D01*
X166024Y-110622D01*
Y-109378D01*
X165702Y-108176D01*
X165080Y-107099D01*
X164201Y-106219D01*
X163124Y-105598D01*
X162622Y-105463D01*
Y-97146D01*
X162530Y-96685D01*
X162269Y-96294D01*
X162269Y-96294D01*
X158979Y-93005D01*
X159171Y-92543D01*
X175978D01*
X179898Y-96463D01*
Y-105485D01*
X179476Y-105598D01*
X178399Y-106219D01*
X177520Y-107099D01*
X176898Y-108176D01*
X176576Y-109378D01*
Y-110622D01*
X176898Y-111824D01*
X177520Y-112901D01*
X178399Y-113780D01*
X179476Y-114402D01*
X180678Y-114724D01*
X181922D01*
X183124Y-114402D01*
X184201Y-113780D01*
X185081Y-112901D01*
X185702Y-111824D01*
X186024Y-110622D01*
Y-109378D01*
X185702Y-108176D01*
X185081Y-107099D01*
X184201Y-106219D01*
X183124Y-105598D01*
X182307Y-105379D01*
Y-95965D01*
X182307Y-95965D01*
X182215Y-95504D01*
X181954Y-95113D01*
X181954Y-95113D01*
X178665Y-91824D01*
X178856Y-91362D01*
X185722D01*
X189741Y-95381D01*
Y-105527D01*
X189476Y-105598D01*
X188399Y-106219D01*
X187520Y-107099D01*
X186898Y-108176D01*
X186576Y-109378D01*
Y-110622D01*
X186898Y-111824D01*
X187520Y-112901D01*
X188399Y-113780D01*
X189476Y-114402D01*
X190678Y-114724D01*
X191922D01*
X193124Y-114402D01*
X194201Y-113780D01*
X195080Y-112901D01*
X195702Y-111824D01*
X196024Y-110622D01*
Y-109378D01*
X195702Y-108176D01*
X195080Y-107099D01*
X194201Y-106219D01*
X193124Y-105598D01*
X192149Y-105336D01*
Y-96772D01*
X192611Y-96581D01*
X196729Y-100699D01*
Y-172868D01*
X193679Y-175918D01*
X193124Y-175598D01*
X191922Y-175276D01*
X190678D01*
X189476Y-175598D01*
X188399Y-176219D01*
X187520Y-177099D01*
X186898Y-178176D01*
X186576Y-179378D01*
Y-180622D01*
X186898Y-181824D01*
X187520Y-182901D01*
X188399Y-183781D01*
X189476Y-184402D01*
X190678Y-184724D01*
X191922D01*
X193124Y-184402D01*
X194201Y-183781D01*
X195080Y-182901D01*
X195702Y-181824D01*
X196024Y-180622D01*
Y-179378D01*
X195702Y-178176D01*
X195382Y-177621D01*
X198038Y-174964D01*
X198501Y-175156D01*
Y-182701D01*
X195497Y-185705D01*
X188708D01*
X185382Y-182379D01*
X185702Y-181824D01*
X186024Y-180622D01*
Y-179378D01*
X185702Y-178176D01*
X185081Y-177099D01*
X184201Y-176219D01*
X183124Y-175598D01*
X181922Y-175276D01*
X180678D01*
X179476Y-175598D01*
X178399Y-176219D01*
X177520Y-177099D01*
X176898Y-178176D01*
X176576Y-179378D01*
Y-180622D01*
X176898Y-181824D01*
X177520Y-182901D01*
X178399Y-183781D01*
X179476Y-184402D01*
X180678Y-184724D01*
X181922D01*
X183124Y-184402D01*
X183679Y-184082D01*
X187358Y-187761D01*
X187358Y-187761D01*
X187749Y-188022D01*
X188209Y-188114D01*
X188209Y-188114D01*
X195995D01*
X195995Y-188114D01*
X196456Y-188022D01*
X196847Y-187761D01*
X200556Y-184052D01*
X200556Y-184052D01*
X200817Y-183661D01*
X200909Y-183200D01*
Y-100197D01*
X200909Y-100197D01*
X200817Y-99736D01*
X200556Y-99345D01*
X200556Y-99345D01*
X168273Y-67062D01*
X167882Y-66801D01*
X167421Y-66709D01*
X167421Y-66709D01*
X92618D01*
X92618Y-66709D01*
X92157Y-66801D01*
X91767Y-67062D01*
X91767Y-67062D01*
X86629Y-72200D01*
X86368Y-72590D01*
X86276Y-73051D01*
X86276Y-73051D01*
Y-73948D01*
X85696Y-74188D01*
X84957Y-74755D01*
X84390Y-75494D01*
X84034Y-76354D01*
X83912Y-77278D01*
Y-81778D01*
X84034Y-82701D01*
X84390Y-83561D01*
X84957Y-84301D01*
X85696Y-84868D01*
X86557Y-85224D01*
X87480Y-85346D01*
X88404Y-85224D01*
X89264Y-84868D01*
X90003Y-84301D01*
X90570Y-83561D01*
X90927Y-82701D01*
X91048Y-81778D01*
Y-77278D01*
X90927Y-76354D01*
X90570Y-75494D01*
X90003Y-74755D01*
X89264Y-74188D01*
X88808Y-73999D01*
X88749Y-73486D01*
X93117Y-69118D01*
X147719D01*
X147910Y-69580D01*
X146629Y-70861D01*
X146368Y-71252D01*
X146276Y-71713D01*
X146276Y-71713D01*
Y-73948D01*
X145696Y-74188D01*
X144957Y-74755D01*
X144390Y-75494D01*
X144034Y-76354D01*
X143912Y-77278D01*
Y-81778D01*
X144034Y-82701D01*
X144390Y-83561D01*
X144957Y-84301D01*
X145696Y-84868D01*
X146557Y-85224D01*
X147480Y-85346D01*
X148404Y-85224D01*
X149264Y-84868D01*
X150003Y-84301D01*
X150570Y-83561D01*
X150927Y-82701D01*
X151048Y-81778D01*
Y-77278D01*
X150927Y-76354D01*
X150570Y-75494D01*
X150003Y-74755D01*
X149264Y-74188D01*
X148685Y-73948D01*
Y-72211D01*
X150499Y-70397D01*
X166427D01*
X184522Y-88491D01*
X184330Y-88953D01*
X141936D01*
X138684Y-85702D01*
Y-85108D01*
X139264Y-84868D01*
X140003Y-84301D01*
X140570Y-83561D01*
X140927Y-82701D01*
X141048Y-81778D01*
Y-77278D01*
X140927Y-76354D01*
X140570Y-75494D01*
X140003Y-74755D01*
X139264Y-74188D01*
X138404Y-73831D01*
X137480Y-73710D01*
X136557Y-73831D01*
X135696Y-74188D01*
X134957Y-74755D01*
X134390Y-75494D01*
X134034Y-76354D01*
X133912Y-77278D01*
Y-81778D01*
X134034Y-82701D01*
X134390Y-83561D01*
X134957Y-84301D01*
X135696Y-84868D01*
X136276Y-85108D01*
Y-86201D01*
X136276Y-86201D01*
X136368Y-86662D01*
X136629Y-87052D01*
X139249Y-89672D01*
X139058Y-90134D01*
X136326D01*
X130215Y-84024D01*
X130570Y-83561D01*
X130927Y-82701D01*
X131048Y-81778D01*
Y-77278D01*
X130927Y-76354D01*
X130570Y-75494D01*
X130003Y-74755D01*
X129264Y-74188D01*
X128404Y-73831D01*
X127480Y-73710D01*
X126557Y-73831D01*
X125696Y-74188D01*
X124957Y-74755D01*
X124390Y-75494D01*
X124034Y-76354D01*
X123912Y-77278D01*
Y-81778D01*
X124034Y-82701D01*
X124390Y-83561D01*
X124957Y-84301D01*
X125696Y-84868D01*
X126557Y-85224D01*
X127480Y-85346D01*
X128055Y-85270D01*
X133639Y-90854D01*
X133447Y-91315D01*
X117428D01*
X110181Y-84069D01*
X110570Y-83561D01*
X110927Y-82701D01*
X111048Y-81778D01*
Y-77278D01*
X110927Y-76354D01*
X110570Y-75494D01*
X110003Y-74755D01*
X109264Y-74188D01*
X108404Y-73831D01*
X107480Y-73710D01*
X106557Y-73831D01*
X105696Y-74188D01*
X104957Y-74755D01*
X104390Y-75494D01*
X104034Y-76354D01*
X103912Y-77278D01*
Y-81778D01*
X104034Y-82701D01*
X104390Y-83561D01*
X104957Y-84301D01*
X105696Y-84868D01*
X106557Y-85224D01*
X107480Y-85346D01*
X107985Y-85279D01*
X114741Y-92035D01*
X114550Y-92497D01*
X108570D01*
X100164Y-84091D01*
X100570Y-83561D01*
X100927Y-82701D01*
X101048Y-81778D01*
Y-77278D01*
X100927Y-76354D01*
X100570Y-75494D01*
X100003Y-74755D01*
X99264Y-74188D01*
X98404Y-73831D01*
X97480Y-73710D01*
X96557Y-73831D01*
X95696Y-74188D01*
X94957Y-74755D01*
X94390Y-75494D01*
X94034Y-76354D01*
X93912Y-77278D01*
Y-81778D01*
X94034Y-82701D01*
X94390Y-83561D01*
X94957Y-84301D01*
X95696Y-84868D01*
X96557Y-85224D01*
X97480Y-85346D01*
X97952Y-85283D01*
X97955Y-85288D01*
X105883Y-93216D01*
X105691Y-93678D01*
X91345D01*
X69413Y-71745D01*
Y-18898D01*
X69321Y-18437D01*
X69060Y-18046D01*
X69060Y-18046D01*
X58335Y-7321D01*
X58420Y-7175D01*
X58661Y-6274D01*
Y-5341D01*
X58420Y-4439D01*
X57953Y-3632D01*
X57294Y-2972D01*
X56486Y-2505D01*
X55585Y-2264D01*
D02*
G37*
G36*
X148071Y-24184D02*
Y-28937D01*
X150651D01*
Y-27278D01*
X150543Y-26457D01*
X150226Y-25692D01*
X149722Y-25035D01*
X149066Y-24532D01*
X148301Y-24215D01*
X148071Y-24184D01*
D02*
G37*
G36*
X146890Y-24184D02*
X146660Y-24215D01*
X145895Y-24532D01*
X145238Y-25035D01*
X144734Y-25692D01*
X144418Y-26457D01*
X144309Y-27278D01*
Y-28937D01*
X146890D01*
Y-24184D01*
D02*
G37*
G36*
X150651Y-30118D02*
X148071D01*
Y-34871D01*
X148301Y-34840D01*
X149066Y-34524D01*
X149722Y-34020D01*
X150226Y-33363D01*
X150543Y-32598D01*
X150651Y-31778D01*
Y-30118D01*
D02*
G37*
G36*
X146890D02*
X144309D01*
Y-31778D01*
X144418Y-32598D01*
X144734Y-33363D01*
X145238Y-34020D01*
X145895Y-34524D01*
X146660Y-34840D01*
X146890Y-34871D01*
Y-30118D01*
D02*
G37*
G36*
X161018Y-23740D02*
X153943D01*
Y-35315D01*
X161018D01*
Y-23740D01*
D02*
G37*
G36*
X157087Y-2264D02*
X150000D01*
Y-9350D01*
X150764D01*
Y-11841D01*
X148171Y-14433D01*
X140940D01*
X140220Y-14528D01*
X139550Y-14806D01*
X138974Y-15247D01*
X135515Y-18707D01*
X135073Y-19282D01*
X134795Y-19953D01*
X134701Y-20672D01*
Y-25089D01*
X134390Y-25494D01*
X134034Y-26354D01*
X133912Y-27278D01*
Y-31778D01*
X134034Y-32701D01*
X134390Y-33562D01*
X134957Y-34301D01*
X135696Y-34868D01*
X136557Y-35224D01*
X137480Y-35346D01*
X138404Y-35224D01*
X139264Y-34868D01*
X140003Y-34301D01*
X140570Y-33562D01*
X140927Y-32701D01*
X141048Y-31778D01*
Y-27278D01*
X140927Y-26354D01*
X140570Y-25494D01*
X140260Y-25089D01*
Y-21824D01*
X142091Y-19993D01*
X149323D01*
X150042Y-19898D01*
X150712Y-19620D01*
X151288Y-19178D01*
X155509Y-14958D01*
X155951Y-14382D01*
X156228Y-13712D01*
X156323Y-12992D01*
Y-9350D01*
X157087D01*
Y-2264D01*
D02*
G37*
G36*
X104797D02*
X103864D01*
X102963Y-2505D01*
X102155Y-2972D01*
X101495Y-3632D01*
X101029Y-4439D01*
X100787Y-5341D01*
Y-6274D01*
X101029Y-7175D01*
X101495Y-7983D01*
X101637Y-8125D01*
X101646Y-8189D01*
X101923Y-8859D01*
X102365Y-9435D01*
X107691Y-14761D01*
X108267Y-15202D01*
X108937Y-15480D01*
X109656Y-15575D01*
X122870D01*
X124701Y-17406D01*
Y-25089D01*
X124390Y-25494D01*
X124034Y-26354D01*
X123912Y-27278D01*
Y-31778D01*
X124034Y-32701D01*
X124390Y-33562D01*
X124957Y-34301D01*
X125696Y-34868D01*
X126557Y-35224D01*
X127480Y-35346D01*
X128404Y-35224D01*
X129264Y-34868D01*
X130003Y-34301D01*
X130570Y-33562D01*
X130927Y-32701D01*
X131048Y-31778D01*
Y-27278D01*
X130927Y-26354D01*
X130570Y-25494D01*
X130260Y-25089D01*
Y-16255D01*
X130165Y-15535D01*
X129888Y-14865D01*
X129446Y-14289D01*
X125987Y-10830D01*
X125411Y-10388D01*
X124740Y-10110D01*
X124021Y-10016D01*
X110808D01*
X107703Y-6911D01*
X107874Y-6274D01*
Y-5341D01*
X107633Y-4439D01*
X107166Y-3632D01*
X106506Y-2972D01*
X105698Y-2505D01*
X104797Y-2264D01*
D02*
G37*
G36*
X77756Y4453D02*
X33071D01*
X32351Y4358D01*
X31681Y4081D01*
X31105Y3639D01*
X25203Y-2264D01*
X25124D01*
X24223Y-2505D01*
X23415Y-2972D01*
X22755Y-3632D01*
X22289Y-4439D01*
X22047Y-5341D01*
Y-6274D01*
X22289Y-7175D01*
X22755Y-7983D01*
X23415Y-8642D01*
X24223Y-9109D01*
X25124Y-9350D01*
X26057D01*
X26958Y-9109D01*
X27766Y-8642D01*
X28426Y-7983D01*
X28892Y-7175D01*
X29134Y-6274D01*
Y-6195D01*
X34222Y-1106D01*
X76604D01*
X76775Y-1276D01*
X77350Y-1718D01*
X77460Y-1764D01*
X77361Y-2264D01*
X71260D01*
Y-9350D01*
X72023D01*
Y-38075D01*
X72118Y-38795D01*
X72396Y-39465D01*
X72838Y-40041D01*
X76297Y-43500D01*
X76873Y-43942D01*
X77543Y-44220D01*
X78263Y-44314D01*
X97318D01*
X98037Y-44220D01*
X98707Y-43942D01*
X99283Y-43500D01*
X107443Y-35341D01*
X107480Y-35346D01*
X108404Y-35224D01*
X109264Y-34868D01*
X110003Y-34301D01*
X110570Y-33562D01*
X110927Y-32701D01*
X111048Y-31778D01*
Y-27278D01*
X110927Y-26354D01*
X110570Y-25494D01*
X110003Y-24755D01*
X109264Y-24188D01*
X108404Y-23831D01*
X107480Y-23710D01*
X106557Y-23831D01*
X105696Y-24188D01*
X104957Y-24755D01*
X104390Y-25494D01*
X104034Y-26354D01*
X103912Y-27278D01*
Y-31009D01*
X100675Y-34246D01*
X100298Y-33916D01*
X100570Y-33562D01*
X100927Y-32701D01*
X101048Y-31778D01*
Y-27278D01*
X100927Y-26354D01*
X100570Y-25494D01*
X100003Y-24755D01*
X99264Y-24188D01*
X98404Y-23831D01*
X97480Y-23710D01*
X96557Y-23831D01*
X95696Y-24188D01*
X94957Y-24755D01*
X94390Y-25494D01*
X94034Y-26354D01*
X93912Y-27278D01*
Y-31778D01*
X94034Y-32701D01*
X94390Y-33562D01*
X94957Y-34301D01*
X95696Y-34868D01*
X96557Y-35224D01*
X97480Y-35346D01*
X98404Y-35224D01*
X99264Y-34868D01*
X99619Y-34596D01*
X99949Y-34972D01*
X96166Y-38755D01*
X79414D01*
X77583Y-36924D01*
Y-9350D01*
X78347D01*
Y-3249D01*
X78847Y-3150D01*
X78892Y-3260D01*
X79334Y-3836D01*
X97247Y-21749D01*
X97823Y-22191D01*
X98493Y-22468D01*
X99213Y-22563D01*
X112667D01*
X114498Y-24394D01*
Y-25354D01*
X114390Y-25494D01*
X114034Y-26354D01*
X113912Y-27278D01*
Y-31778D01*
X114034Y-32701D01*
X114390Y-33562D01*
X114957Y-34301D01*
X115696Y-34868D01*
X116557Y-35224D01*
X117480Y-35346D01*
X118404Y-35224D01*
X119264Y-34868D01*
X120003Y-34301D01*
X120570Y-33562D01*
X120927Y-32701D01*
X121048Y-31778D01*
Y-27278D01*
X120927Y-26354D01*
X120570Y-25494D01*
X120057Y-24825D01*
Y-23243D01*
X119963Y-22523D01*
X119685Y-21853D01*
X119243Y-21277D01*
X115784Y-17818D01*
X115208Y-17376D01*
X114538Y-17098D01*
X113818Y-17004D01*
X100364D01*
X83872Y-512D01*
X83706Y-112D01*
X83265Y464D01*
X81074Y2654D01*
X80498Y3096D01*
X80098Y3262D01*
X79721Y3639D01*
X79146Y4081D01*
X78475Y4358D01*
X77756Y4453D01*
D02*
G37*
G36*
X87480Y-23710D02*
X86557Y-23831D01*
X85696Y-24188D01*
X84957Y-24755D01*
X84390Y-25494D01*
X84034Y-26354D01*
X83912Y-27278D01*
Y-31778D01*
X84034Y-32701D01*
X84390Y-33562D01*
X84957Y-34301D01*
X85696Y-34868D01*
X86557Y-35224D01*
X87480Y-35346D01*
X88404Y-35224D01*
X89264Y-34868D01*
X90003Y-34301D01*
X90570Y-33562D01*
X90927Y-32701D01*
X91048Y-31778D01*
Y-27278D01*
X90927Y-26354D01*
X90570Y-25494D01*
X90003Y-24755D01*
X89264Y-24188D01*
X88404Y-23831D01*
X87480Y-23710D01*
D02*
G37*
G36*
X185630Y-35700D02*
Y-38465D01*
X188395D01*
X188202Y-37745D01*
X187755Y-36971D01*
X187123Y-36340D01*
X186349Y-35893D01*
X185630Y-35700D01*
D02*
G37*
G36*
X184449D02*
X183729Y-35893D01*
X182956Y-36340D01*
X182324Y-36971D01*
X181877Y-37745D01*
X181684Y-38465D01*
X184449D01*
Y-35700D01*
D02*
G37*
G36*
X188395Y-39646D02*
X185630D01*
Y-42410D01*
X186349Y-42217D01*
X187123Y-41771D01*
X187755Y-41139D01*
X188202Y-40365D01*
X188395Y-39646D01*
D02*
G37*
G36*
X184449D02*
X181684D01*
X181877Y-40365D01*
X182324Y-41139D01*
X182956Y-41771D01*
X183729Y-42217D01*
X184449Y-42410D01*
Y-39646D01*
D02*
G37*
G36*
X185538Y-55268D02*
X184541D01*
X183578Y-55526D01*
X182714Y-56024D01*
X182009Y-56730D01*
X181510Y-57593D01*
X181252Y-58556D01*
Y-59554D01*
X181510Y-60517D01*
X182009Y-61381D01*
X182714Y-62086D01*
X183578Y-62584D01*
X184541Y-62843D01*
X185538D01*
X186501Y-62584D01*
X187365Y-62086D01*
X188070Y-61381D01*
X188569Y-60517D01*
X188827Y-59554D01*
Y-58556D01*
X188569Y-57593D01*
X188070Y-56730D01*
X187365Y-56024D01*
X186501Y-55526D01*
X185538Y-55268D01*
D02*
G37*
G36*
X118071Y-74185D02*
Y-78937D01*
X120651D01*
Y-77278D01*
X120543Y-76457D01*
X120226Y-75692D01*
X119722Y-75035D01*
X119066Y-74532D01*
X118301Y-74215D01*
X118071Y-74185D01*
D02*
G37*
G36*
X116890Y-74185D02*
X116660Y-74215D01*
X115895Y-74532D01*
X115238Y-75035D01*
X114734Y-75692D01*
X114418Y-76457D01*
X114310Y-77278D01*
Y-78937D01*
X116890D01*
Y-74185D01*
D02*
G37*
G36*
X120651Y-80118D02*
X118071D01*
Y-84871D01*
X118301Y-84840D01*
X119066Y-84524D01*
X119722Y-84020D01*
X120226Y-83363D01*
X120543Y-82598D01*
X120651Y-81778D01*
Y-80118D01*
D02*
G37*
G36*
X116890D02*
X114310D01*
Y-81778D01*
X114418Y-82598D01*
X114734Y-83363D01*
X115238Y-84020D01*
X115895Y-84524D01*
X116660Y-84840D01*
X116890Y-84871D01*
Y-80118D01*
D02*
G37*
G36*
X157480Y-73710D02*
X156557Y-73831D01*
X155696Y-74188D01*
X154957Y-74755D01*
X154390Y-75494D01*
X154034Y-76354D01*
X153912Y-77278D01*
Y-81778D01*
X154034Y-82701D01*
X154390Y-83561D01*
X154957Y-84301D01*
X155696Y-84868D01*
X156557Y-85224D01*
X157480Y-85346D01*
X158404Y-85224D01*
X159264Y-84868D01*
X160003Y-84301D01*
X160570Y-83561D01*
X160927Y-82701D01*
X161048Y-81778D01*
Y-77278D01*
X160927Y-76354D01*
X160570Y-75494D01*
X160003Y-74755D01*
X159264Y-74188D01*
X158404Y-73831D01*
X157480Y-73710D01*
D02*
G37*
G36*
X38169Y-87378D02*
X38169Y-87378D01*
X-9972D01*
X-9972Y-87378D01*
X-10433Y-87470D01*
X-10823Y-87731D01*
X-10823Y-87731D01*
X-11285Y-88192D01*
X-11546Y-88583D01*
X-11637Y-89044D01*
X-11637Y-89044D01*
Y-128267D01*
X-11637Y-128267D01*
X-11546Y-128728D01*
X-11285Y-129119D01*
X37218Y-177621D01*
X36898Y-178176D01*
X36576Y-179378D01*
Y-180622D01*
X36898Y-181824D01*
X37519Y-182901D01*
X38399Y-183781D01*
X39476Y-184402D01*
X40678Y-184724D01*
X41922D01*
X43124Y-184402D01*
X44201Y-183781D01*
X45081Y-182901D01*
X45702Y-181824D01*
X46024Y-180622D01*
Y-179378D01*
X45702Y-178176D01*
X45081Y-177099D01*
X44201Y-176219D01*
X43124Y-175598D01*
X41922Y-175276D01*
X40678D01*
X39476Y-175598D01*
X38921Y-175918D01*
X37701Y-174698D01*
X37892Y-174236D01*
X43833D01*
X47218Y-177621D01*
X46898Y-178176D01*
X46576Y-179378D01*
Y-180622D01*
X46898Y-181824D01*
X47519Y-182901D01*
X48399Y-183781D01*
X49476Y-184402D01*
X50678Y-184724D01*
X51922D01*
X53124Y-184402D01*
X54201Y-183781D01*
X55080Y-182901D01*
X55702Y-181824D01*
X56024Y-180622D01*
Y-179378D01*
X55702Y-178176D01*
X55080Y-177099D01*
X54201Y-176219D01*
X53124Y-175598D01*
X51922Y-175276D01*
X50678D01*
X49476Y-175598D01*
X48921Y-175918D01*
X46309Y-173306D01*
X46500Y-172844D01*
X52441D01*
X57218Y-177621D01*
X56898Y-178176D01*
X56576Y-179378D01*
Y-180622D01*
X56898Y-181824D01*
X57520Y-182901D01*
X58399Y-183781D01*
X59476Y-184402D01*
X60678Y-184724D01*
X61922D01*
X63124Y-184402D01*
X64201Y-183781D01*
X65080Y-182901D01*
X65702Y-181824D01*
X66024Y-180622D01*
Y-179378D01*
X65702Y-178176D01*
X65080Y-177099D01*
X64201Y-176219D01*
X63124Y-175598D01*
X61922Y-175276D01*
X60678D01*
X59476Y-175598D01*
X58921Y-175918D01*
X53791Y-170788D01*
X53400Y-170527D01*
X52939Y-170435D01*
X52939Y-170435D01*
X37591D01*
X-6374Y-126470D01*
Y-106208D01*
X-3734Y-103566D01*
X19153D01*
X19154Y-103567D01*
X19614Y-103475D01*
X20005Y-103214D01*
X23675Y-99543D01*
X23993Y-99727D01*
X25020Y-100002D01*
X26083D01*
X27110Y-99727D01*
X28030Y-99195D01*
X28782Y-98444D01*
X29313Y-97523D01*
X29589Y-96496D01*
Y-95433D01*
X29313Y-94406D01*
X28782Y-93486D01*
X28030Y-92734D01*
X27110Y-92202D01*
X26083Y-91927D01*
X25020D01*
X23993Y-92202D01*
X23072Y-92734D01*
X22320Y-93486D01*
X21789Y-94406D01*
X21514Y-95433D01*
Y-96496D01*
X21789Y-97523D01*
X21972Y-97840D01*
X18655Y-101158D01*
X-4232D01*
X-4232Y-101158D01*
X-4693Y-101250D01*
X-5084Y-101511D01*
X-7389Y-103816D01*
X-7851Y-103624D01*
Y-98359D01*
X-7414Y-98218D01*
X-7351Y-98216D01*
X-6686Y-98880D01*
X-5855Y-99360D01*
X-5039Y-99579D01*
Y-95965D01*
Y-92351D01*
X-5855Y-92569D01*
X-6686Y-93049D01*
X-7351Y-93714D01*
X-7414Y-93711D01*
X-7851Y-93570D01*
Y-90968D01*
X28852D01*
X31972Y-94089D01*
X31789Y-94406D01*
X31514Y-95433D01*
Y-96496D01*
X31789Y-97523D01*
X32320Y-98444D01*
X33072Y-99195D01*
X33993Y-99727D01*
X35020Y-100002D01*
X36083D01*
X37110Y-99727D01*
X38030Y-99195D01*
X38782Y-98444D01*
X39313Y-97523D01*
X39589Y-96496D01*
Y-95433D01*
X39313Y-94406D01*
X38782Y-93486D01*
X38030Y-92734D01*
X37110Y-92202D01*
X36083Y-91927D01*
X35020D01*
X33993Y-92202D01*
X33675Y-92386D01*
X31539Y-90249D01*
X31730Y-89787D01*
X37670D01*
X41972Y-94089D01*
X41789Y-94406D01*
X41514Y-95433D01*
Y-96496D01*
X41789Y-97523D01*
X42320Y-98444D01*
X43072Y-99195D01*
X43993Y-99727D01*
X45020Y-100002D01*
X46083D01*
X47110Y-99727D01*
X48030Y-99195D01*
X48782Y-98444D01*
X49313Y-97523D01*
X49589Y-96496D01*
Y-95433D01*
X49313Y-94406D01*
X48782Y-93486D01*
X48030Y-92734D01*
X47110Y-92202D01*
X46083Y-91927D01*
X45020D01*
X43993Y-92202D01*
X43675Y-92386D01*
X39021Y-87731D01*
X38630Y-87470D01*
X38169Y-87378D01*
D02*
G37*
G36*
X-3858Y-92351D02*
Y-95374D01*
X-835D01*
X-1053Y-94558D01*
X-1533Y-93727D01*
X-2211Y-93049D01*
X-3042Y-92569D01*
X-3858Y-92351D01*
D02*
G37*
G36*
X-835Y-96555D02*
X-3858D01*
Y-99579D01*
X-3042Y-99360D01*
X-2211Y-98880D01*
X-1533Y-98202D01*
X-1053Y-97371D01*
X-835Y-96555D01*
D02*
G37*
G36*
X16083Y-91927D02*
X15020D01*
X13993Y-92202D01*
X13072Y-92734D01*
X12320Y-93486D01*
X11789Y-94406D01*
X11514Y-95433D01*
Y-96496D01*
X11789Y-97523D01*
X12320Y-98444D01*
X13072Y-99195D01*
X13993Y-99727D01*
X15020Y-100002D01*
X16083D01*
X17110Y-99727D01*
X18030Y-99195D01*
X18782Y-98444D01*
X19313Y-97523D01*
X19589Y-96496D01*
Y-95433D01*
X19313Y-94406D01*
X18782Y-93486D01*
X18030Y-92734D01*
X17110Y-92202D01*
X16083Y-91927D01*
D02*
G37*
G36*
X6083D02*
X5020D01*
X3993Y-92202D01*
X3072Y-92734D01*
X2320Y-93486D01*
X1789Y-94406D01*
X1514Y-95433D01*
Y-96496D01*
X1789Y-97523D01*
X2320Y-98444D01*
X3072Y-99195D01*
X3993Y-99727D01*
X5020Y-100002D01*
X6083D01*
X7110Y-99727D01*
X8030Y-99195D01*
X8782Y-98444D01*
X9313Y-97523D01*
X9589Y-96496D01*
Y-95433D01*
X9313Y-94406D01*
X8782Y-93486D01*
X8030Y-92734D01*
X7110Y-92202D01*
X6083Y-91927D01*
D02*
G37*
G36*
X41891Y-105675D02*
Y-109409D01*
X45625D01*
X45336Y-108328D01*
X44765Y-107341D01*
X43959Y-106535D01*
X42972Y-105964D01*
X41891Y-105675D01*
D02*
G37*
G36*
X40709D02*
X39628Y-105964D01*
X38641Y-106535D01*
X37835Y-107341D01*
X37264Y-108328D01*
X36975Y-109409D01*
X40709D01*
Y-105675D01*
D02*
G37*
G36*
X45625Y-110591D02*
X41891D01*
Y-114325D01*
X42972Y-114036D01*
X43959Y-113465D01*
X44765Y-112659D01*
X45336Y-111672D01*
X45625Y-110591D01*
D02*
G37*
G36*
X40709D02*
X36975D01*
X37264Y-111672D01*
X37835Y-112659D01*
X38641Y-113465D01*
X39628Y-114036D01*
X40709Y-114325D01*
Y-110591D01*
D02*
G37*
G36*
X171922Y-105276D02*
X170678D01*
X169476Y-105598D01*
X168399Y-106219D01*
X167519Y-107099D01*
X166898Y-108176D01*
X166576Y-109378D01*
Y-110622D01*
X166898Y-111824D01*
X167519Y-112901D01*
X168399Y-113780D01*
X169476Y-114402D01*
X170678Y-114724D01*
X171922D01*
X173124Y-114402D01*
X174201Y-113780D01*
X175081Y-112901D01*
X175702Y-111824D01*
X176024Y-110622D01*
Y-109378D01*
X175702Y-108176D01*
X175081Y-107099D01*
X174201Y-106219D01*
X173124Y-105598D01*
X171922Y-105276D01*
D02*
G37*
G36*
X121922D02*
X120678D01*
X119476Y-105598D01*
X118399Y-106219D01*
X117519Y-107099D01*
X116898Y-108176D01*
X116576Y-109378D01*
Y-110622D01*
X116898Y-111824D01*
X117519Y-112901D01*
X118399Y-113780D01*
X119476Y-114402D01*
X120678Y-114724D01*
X121922D01*
X123124Y-114402D01*
X124201Y-113780D01*
X125081Y-112901D01*
X125702Y-111824D01*
X126024Y-110622D01*
Y-109378D01*
X125702Y-108176D01*
X125081Y-107099D01*
X124201Y-106219D01*
X123124Y-105598D01*
X121922Y-105276D01*
D02*
G37*
G36*
X111922D02*
X110678D01*
X109476Y-105598D01*
X108399Y-106219D01*
X107519Y-107099D01*
X106898Y-108176D01*
X106576Y-109378D01*
Y-110622D01*
X106898Y-111824D01*
X107519Y-112901D01*
X108399Y-113780D01*
X109476Y-114402D01*
X110678Y-114724D01*
X111922D01*
X113124Y-114402D01*
X114201Y-113780D01*
X115080Y-112901D01*
X115702Y-111824D01*
X116024Y-110622D01*
Y-109378D01*
X115702Y-108176D01*
X115080Y-107099D01*
X114201Y-106219D01*
X113124Y-105598D01*
X111922Y-105276D01*
D02*
G37*
G36*
X101922D02*
X100678D01*
X99476Y-105598D01*
X98399Y-106219D01*
X97519Y-107099D01*
X96898Y-108176D01*
X96576Y-109378D01*
Y-110622D01*
X96898Y-111824D01*
X97519Y-112901D01*
X98399Y-113780D01*
X99476Y-114402D01*
X100678Y-114724D01*
X101922D01*
X103124Y-114402D01*
X104201Y-113780D01*
X105080Y-112901D01*
X105702Y-111824D01*
X106024Y-110622D01*
Y-109378D01*
X105702Y-108176D01*
X105080Y-107099D01*
X104201Y-106219D01*
X103124Y-105598D01*
X101922Y-105276D01*
D02*
G37*
G36*
X91922D02*
X90678D01*
X89476Y-105598D01*
X88399Y-106219D01*
X87520Y-107099D01*
X86898Y-108176D01*
X86576Y-109378D01*
Y-110622D01*
X86898Y-111824D01*
X87520Y-112901D01*
X88399Y-113780D01*
X89476Y-114402D01*
X90678Y-114724D01*
X91922D01*
X93124Y-114402D01*
X94201Y-113780D01*
X95081Y-112901D01*
X95702Y-111824D01*
X96024Y-110622D01*
Y-109378D01*
X95702Y-108176D01*
X95081Y-107099D01*
X94201Y-106219D01*
X93124Y-105598D01*
X91922Y-105276D01*
D02*
G37*
G36*
X81922D02*
X80678D01*
X79476Y-105598D01*
X78399Y-106219D01*
X77520Y-107099D01*
X76898Y-108176D01*
X76576Y-109378D01*
Y-110622D01*
X76898Y-111824D01*
X77520Y-112901D01*
X78399Y-113780D01*
X79476Y-114402D01*
X80678Y-114724D01*
X81922D01*
X83124Y-114402D01*
X84201Y-113780D01*
X85080Y-112901D01*
X85702Y-111824D01*
X86024Y-110622D01*
Y-109378D01*
X85702Y-108176D01*
X85080Y-107099D01*
X84201Y-106219D01*
X83124Y-105598D01*
X81922Y-105276D01*
D02*
G37*
G36*
X71922D02*
X70678D01*
X69476Y-105598D01*
X68399Y-106219D01*
X67519Y-107099D01*
X66898Y-108176D01*
X66576Y-109378D01*
Y-110622D01*
X66898Y-111824D01*
X67519Y-112901D01*
X68399Y-113780D01*
X69476Y-114402D01*
X70678Y-114724D01*
X71922D01*
X73124Y-114402D01*
X74201Y-113780D01*
X75081Y-112901D01*
X75702Y-111824D01*
X76024Y-110622D01*
Y-109378D01*
X75702Y-108176D01*
X75081Y-107099D01*
X74201Y-106219D01*
X73124Y-105598D01*
X71922Y-105276D01*
D02*
G37*
G36*
X61922D02*
X60678D01*
X59476Y-105598D01*
X58399Y-106219D01*
X57520Y-107099D01*
X56898Y-108176D01*
X56576Y-109378D01*
Y-110622D01*
X56898Y-111824D01*
X57520Y-112901D01*
X58399Y-113780D01*
X59476Y-114402D01*
X60678Y-114724D01*
X61922D01*
X63124Y-114402D01*
X64201Y-113780D01*
X65080Y-112901D01*
X65702Y-111824D01*
X66024Y-110622D01*
Y-109378D01*
X65702Y-108176D01*
X65080Y-107099D01*
X64201Y-106219D01*
X63124Y-105598D01*
X61922Y-105276D01*
D02*
G37*
G36*
X51922D02*
X50678D01*
X49476Y-105598D01*
X48399Y-106219D01*
X47519Y-107099D01*
X46898Y-108176D01*
X46576Y-109378D01*
Y-110622D01*
X46898Y-111824D01*
X47519Y-112901D01*
X48399Y-113780D01*
X49476Y-114402D01*
X50678Y-114724D01*
X51922D01*
X53124Y-114402D01*
X54201Y-113780D01*
X55080Y-112901D01*
X55702Y-111824D01*
X56024Y-110622D01*
Y-109378D01*
X55702Y-108176D01*
X55080Y-107099D01*
X54201Y-106219D01*
X53124Y-105598D01*
X51922Y-105276D01*
D02*
G37*
G36*
X31922D02*
X30678D01*
X29476Y-105598D01*
X28399Y-106219D01*
X27520Y-107099D01*
X26898Y-108176D01*
X26576Y-109378D01*
Y-110622D01*
X26898Y-111824D01*
X27520Y-112901D01*
X28399Y-113780D01*
X29476Y-114402D01*
X30678Y-114724D01*
X31922D01*
X33124Y-114402D01*
X34201Y-113780D01*
X35081Y-112901D01*
X35702Y-111824D01*
X36024Y-110622D01*
Y-109378D01*
X35702Y-108176D01*
X35081Y-107099D01*
X34201Y-106219D01*
X33124Y-105598D01*
X31922Y-105276D01*
D02*
G37*
G36*
X21922D02*
X20678D01*
X19476Y-105598D01*
X18399Y-106219D01*
X17519Y-107099D01*
X16898Y-108176D01*
X16576Y-109378D01*
Y-110622D01*
X16898Y-111824D01*
X17519Y-112901D01*
X18399Y-113780D01*
X19476Y-114402D01*
X20678Y-114724D01*
X21922D01*
X23124Y-114402D01*
X24201Y-113780D01*
X25080Y-112901D01*
X25702Y-111824D01*
X26024Y-110622D01*
Y-109378D01*
X25702Y-108176D01*
X25080Y-107099D01*
X24201Y-106219D01*
X23124Y-105598D01*
X21922Y-105276D01*
D02*
G37*
G36*
X11922D02*
X10678D01*
X9476Y-105598D01*
X8399Y-106219D01*
X7519Y-107099D01*
X6898Y-108176D01*
X6576Y-109378D01*
Y-110622D01*
X6898Y-111824D01*
X7519Y-112901D01*
X8399Y-113780D01*
X9476Y-114402D01*
X10678Y-114724D01*
X11922D01*
X13124Y-114402D01*
X14201Y-113780D01*
X15080Y-112901D01*
X15702Y-111824D01*
X16024Y-110622D01*
Y-109378D01*
X15702Y-108176D01*
X15080Y-107099D01*
X14201Y-106219D01*
X13124Y-105598D01*
X11922Y-105276D01*
D02*
G37*
G36*
X1922D02*
X678D01*
X-524Y-105598D01*
X-1601Y-106219D01*
X-2481Y-107099D01*
X-3102Y-108176D01*
X-3424Y-109378D01*
Y-110622D01*
X-3102Y-111824D01*
X-2481Y-112901D01*
X-1601Y-113780D01*
X-524Y-114402D01*
X678Y-114724D01*
X1922D01*
X3124Y-114402D01*
X4201Y-113780D01*
X5080Y-112901D01*
X5703Y-111824D01*
X6024Y-110622D01*
Y-109378D01*
X5703Y-108176D01*
X5080Y-107099D01*
X4201Y-106219D01*
X3124Y-105598D01*
X1922Y-105276D01*
D02*
G37*
G36*
X171922Y-175276D02*
X170678D01*
X169476Y-175598D01*
X168399Y-176219D01*
X167519Y-177099D01*
X166898Y-178176D01*
X166576Y-179378D01*
Y-180622D01*
X166898Y-181824D01*
X167519Y-182901D01*
X168399Y-183781D01*
X169476Y-184402D01*
X170678Y-184724D01*
X171922D01*
X173124Y-184402D01*
X174201Y-183781D01*
X175081Y-182901D01*
X175702Y-181824D01*
X176024Y-180622D01*
Y-179378D01*
X175702Y-178176D01*
X175081Y-177099D01*
X174201Y-176219D01*
X173124Y-175598D01*
X171922Y-175276D01*
D02*
G37*
G36*
X141922D02*
X140678D01*
X139476Y-175598D01*
X138399Y-176219D01*
X137520Y-177099D01*
X136898Y-178176D01*
X136576Y-179378D01*
Y-180622D01*
X136898Y-181824D01*
X137520Y-182901D01*
X138399Y-183781D01*
X139476Y-184402D01*
X140678Y-184724D01*
X141922D01*
X143124Y-184402D01*
X144201Y-183781D01*
X145080Y-182901D01*
X145702Y-181824D01*
X146024Y-180622D01*
Y-179378D01*
X145702Y-178176D01*
X145080Y-177099D01*
X144201Y-176219D01*
X143124Y-175598D01*
X141922Y-175276D01*
D02*
G37*
G36*
X131922D02*
X130678D01*
X129476Y-175598D01*
X128399Y-176219D01*
X127520Y-177099D01*
X126898Y-178176D01*
X126576Y-179378D01*
Y-180622D01*
X126898Y-181824D01*
X127520Y-182901D01*
X128399Y-183781D01*
X129476Y-184402D01*
X130678Y-184724D01*
X131922D01*
X133124Y-184402D01*
X134201Y-183781D01*
X135081Y-182901D01*
X135702Y-181824D01*
X136024Y-180622D01*
Y-179378D01*
X135702Y-178176D01*
X135081Y-177099D01*
X134201Y-176219D01*
X133124Y-175598D01*
X131922Y-175276D01*
D02*
G37*
G36*
X121922D02*
X120678D01*
X119476Y-175598D01*
X118399Y-176219D01*
X117519Y-177099D01*
X116898Y-178176D01*
X116576Y-179378D01*
Y-180622D01*
X116898Y-181824D01*
X117519Y-182901D01*
X118399Y-183781D01*
X119476Y-184402D01*
X120678Y-184724D01*
X121922D01*
X123124Y-184402D01*
X124201Y-183781D01*
X125081Y-182901D01*
X125702Y-181824D01*
X126024Y-180622D01*
Y-179378D01*
X125702Y-178176D01*
X125081Y-177099D01*
X124201Y-176219D01*
X123124Y-175598D01*
X121922Y-175276D01*
D02*
G37*
G36*
X111922D02*
X110678D01*
X109476Y-175598D01*
X108399Y-176219D01*
X107519Y-177099D01*
X106898Y-178176D01*
X106576Y-179378D01*
Y-180622D01*
X106898Y-181824D01*
X107519Y-182901D01*
X108399Y-183781D01*
X109476Y-184402D01*
X110678Y-184724D01*
X111922D01*
X113124Y-184402D01*
X114201Y-183781D01*
X115080Y-182901D01*
X115702Y-181824D01*
X116024Y-180622D01*
Y-179378D01*
X115702Y-178176D01*
X115080Y-177099D01*
X114201Y-176219D01*
X113124Y-175598D01*
X111922Y-175276D01*
D02*
G37*
G36*
X101922D02*
X100678D01*
X99476Y-175598D01*
X98399Y-176219D01*
X97519Y-177099D01*
X96898Y-178176D01*
X96576Y-179378D01*
Y-180622D01*
X96898Y-181824D01*
X97519Y-182901D01*
X98399Y-183781D01*
X99476Y-184402D01*
X100678Y-184724D01*
X101922D01*
X103124Y-184402D01*
X104201Y-183781D01*
X105080Y-182901D01*
X105702Y-181824D01*
X106024Y-180622D01*
Y-179378D01*
X105702Y-178176D01*
X105080Y-177099D01*
X104201Y-176219D01*
X103124Y-175598D01*
X101922Y-175276D01*
D02*
G37*
G36*
X91922D02*
X90678D01*
X89476Y-175598D01*
X88399Y-176219D01*
X87520Y-177099D01*
X86898Y-178176D01*
X86576Y-179378D01*
Y-180622D01*
X86898Y-181824D01*
X87520Y-182901D01*
X88399Y-183781D01*
X89476Y-184402D01*
X90678Y-184724D01*
X91922D01*
X93124Y-184402D01*
X94201Y-183781D01*
X95081Y-182901D01*
X95702Y-181824D01*
X96024Y-180622D01*
Y-179378D01*
X95702Y-178176D01*
X95081Y-177099D01*
X94201Y-176219D01*
X93124Y-175598D01*
X91922Y-175276D01*
D02*
G37*
G36*
X81922D02*
X80678D01*
X79476Y-175598D01*
X78399Y-176219D01*
X77520Y-177099D01*
X76898Y-178176D01*
X76576Y-179378D01*
Y-180622D01*
X76898Y-181824D01*
X77520Y-182901D01*
X78399Y-183781D01*
X79476Y-184402D01*
X80678Y-184724D01*
X81922D01*
X83124Y-184402D01*
X84201Y-183781D01*
X85080Y-182901D01*
X85702Y-181824D01*
X86024Y-180622D01*
Y-179378D01*
X85702Y-178176D01*
X85080Y-177099D01*
X84201Y-176219D01*
X83124Y-175598D01*
X81922Y-175276D01*
D02*
G37*
G36*
X71922D02*
X70678D01*
X69476Y-175598D01*
X68399Y-176219D01*
X67519Y-177099D01*
X66898Y-178176D01*
X66576Y-179378D01*
Y-180622D01*
X66898Y-181824D01*
X67519Y-182901D01*
X68399Y-183781D01*
X69476Y-184402D01*
X70678Y-184724D01*
X71922D01*
X73124Y-184402D01*
X74201Y-183781D01*
X75081Y-182901D01*
X75702Y-181824D01*
X76024Y-180622D01*
Y-179378D01*
X75702Y-178176D01*
X75081Y-177099D01*
X74201Y-176219D01*
X73124Y-175598D01*
X71922Y-175276D01*
D02*
G37*
G36*
X31922D02*
X30678D01*
X29476Y-175598D01*
X28399Y-176219D01*
X27520Y-177099D01*
X26898Y-178176D01*
X26576Y-179378D01*
Y-180622D01*
X26898Y-181824D01*
X27520Y-182901D01*
X28399Y-183781D01*
X29476Y-184402D01*
X30678Y-184724D01*
X31922D01*
X33124Y-184402D01*
X34201Y-183781D01*
X35081Y-182901D01*
X35702Y-181824D01*
X36024Y-180622D01*
Y-179378D01*
X35702Y-178176D01*
X35081Y-177099D01*
X34201Y-176219D01*
X33124Y-175598D01*
X31922Y-175276D01*
D02*
G37*
G36*
X21922D02*
X20678D01*
X19476Y-175598D01*
X18399Y-176219D01*
X17519Y-177099D01*
X16898Y-178176D01*
X16576Y-179378D01*
Y-180622D01*
X16898Y-181824D01*
X17519Y-182901D01*
X18399Y-183781D01*
X19476Y-184402D01*
X20678Y-184724D01*
X21922D01*
X23124Y-184402D01*
X24201Y-183781D01*
X25080Y-182901D01*
X25702Y-181824D01*
X26024Y-180622D01*
Y-179378D01*
X25702Y-178176D01*
X25080Y-177099D01*
X24201Y-176219D01*
X23124Y-175598D01*
X21922Y-175276D01*
D02*
G37*
G36*
X11922D02*
X10678D01*
X9476Y-175598D01*
X8399Y-176219D01*
X7519Y-177099D01*
X6898Y-178176D01*
X6576Y-179378D01*
Y-180622D01*
X6898Y-181824D01*
X7519Y-182901D01*
X8399Y-183781D01*
X9476Y-184402D01*
X10678Y-184724D01*
X11922D01*
X13124Y-184402D01*
X14201Y-183781D01*
X15080Y-182901D01*
X15702Y-181824D01*
X16024Y-180622D01*
Y-179378D01*
X15702Y-178176D01*
X15080Y-177099D01*
X14201Y-176219D01*
X13124Y-175598D01*
X11922Y-175276D01*
D02*
G37*
G36*
X1922D02*
X678D01*
X-524Y-175598D01*
X-1601Y-176219D01*
X-2481Y-177099D01*
X-3102Y-178176D01*
X-3424Y-179378D01*
Y-180622D01*
X-3102Y-181824D01*
X-2481Y-182901D01*
X-1601Y-183781D01*
X-524Y-184402D01*
X678Y-184724D01*
X1922D01*
X3124Y-184402D01*
X4201Y-183781D01*
X5080Y-182901D01*
X5703Y-181824D01*
X6024Y-180622D01*
Y-179378D01*
X5703Y-178176D01*
X5080Y-177099D01*
X4201Y-176219D01*
X3124Y-175598D01*
X1922Y-175276D01*
D02*
G37*
G36*
X161922D02*
X160678D01*
X159476Y-175598D01*
X158399Y-176219D01*
X157519Y-177099D01*
X156898Y-178176D01*
X156576Y-179378D01*
Y-180622D01*
X156898Y-181824D01*
X157519Y-182901D01*
X158399Y-183781D01*
X159476Y-184402D01*
X160096Y-184568D01*
Y-192853D01*
X159596Y-193237D01*
X159133Y-193113D01*
X158267D01*
X157431Y-193337D01*
X156682Y-193769D01*
X156069Y-194381D01*
X155637Y-195131D01*
X155413Y-195967D01*
Y-196833D01*
X155637Y-197669D01*
X156069Y-198418D01*
X156682Y-199031D01*
X157431Y-199463D01*
X158267Y-199687D01*
X159133D01*
X159969Y-199463D01*
X160719Y-199031D01*
X161331Y-198418D01*
X161763Y-197669D01*
X161987Y-196833D01*
Y-195967D01*
X161763Y-195131D01*
X161730Y-195073D01*
X162152Y-194651D01*
X162152Y-194651D01*
X162413Y-194261D01*
X162504Y-193800D01*
X162504Y-193800D01*
Y-184568D01*
X163124Y-184402D01*
X164201Y-183781D01*
X165080Y-182901D01*
X165702Y-181824D01*
X166024Y-180622D01*
Y-179378D01*
X165702Y-178176D01*
X165080Y-177099D01*
X164201Y-176219D01*
X163124Y-175598D01*
X161922Y-175276D01*
D02*
G37*
G36*
X151922D02*
X150678D01*
X149476Y-175598D01*
X148399Y-176219D01*
X147520Y-177099D01*
X146898Y-178176D01*
X146576Y-179378D01*
Y-180622D01*
X146898Y-181824D01*
X147520Y-182901D01*
X148399Y-183781D01*
X149476Y-184402D01*
X150096Y-184568D01*
Y-193013D01*
X149367D01*
X148531Y-193237D01*
X147782Y-193669D01*
X147169Y-194281D01*
X146737Y-195031D01*
X146513Y-195867D01*
Y-196733D01*
X146737Y-197569D01*
X147169Y-198319D01*
X147782Y-198931D01*
X148531Y-199363D01*
X149367Y-199587D01*
X150233D01*
X151069Y-199363D01*
X151819Y-198931D01*
X152431Y-198319D01*
X152863Y-197569D01*
X153087Y-196733D01*
Y-195867D01*
X152863Y-195031D01*
X152431Y-194281D01*
X152384Y-194235D01*
X152413Y-194193D01*
X152504Y-193732D01*
X152504Y-193732D01*
Y-184568D01*
X153124Y-184402D01*
X154201Y-183781D01*
X155080Y-182901D01*
X155702Y-181824D01*
X156024Y-180622D01*
Y-179378D01*
X155702Y-178176D01*
X155080Y-177099D01*
X154201Y-176219D01*
X153124Y-175598D01*
X151922Y-175276D01*
D02*
G37*
%LPD*%
D12*
X158700Y-196400D02*
X161300Y-193800D01*
Y-180000D01*
X149800Y-196300D02*
Y-195232D01*
X151300Y-193732D01*
Y-180000D01*
X-4232Y-102362D02*
X19154D01*
X-7579Y-126969D02*
Y-105709D01*
X-4232Y-102362D01*
X68209Y-72244D02*
X90847Y-94882D01*
X55118Y-5807D02*
X68209Y-18898D01*
Y-72244D02*
Y-18898D01*
X45276Y-5807D02*
X66929Y-27461D01*
Y-73130D02*
Y-27461D01*
Y-73130D02*
X89862Y-96063D01*
X141437Y-90158D02*
X186221D01*
X137480Y-86201D02*
Y-79528D01*
Y-86201D02*
X141437Y-90158D01*
X135827Y-91339D02*
X176476D01*
X127480Y-82992D02*
Y-79528D01*
Y-82992D02*
X135827Y-91339D01*
X107480Y-83053D02*
X108826Y-84398D01*
X107480Y-83053D02*
Y-79528D01*
X116929Y-92520D02*
X156791D01*
X108826Y-84417D02*
X116929Y-92520D01*
X108826Y-84417D02*
Y-84398D01*
X97480Y-83053D02*
X98806Y-84379D01*
Y-84436D02*
X108071Y-93701D01*
X146850D01*
X97480Y-83053D02*
Y-79528D01*
X98806Y-84436D02*
Y-84379D01*
X147480Y-79528D02*
Y-71713D01*
X150000Y-69193D02*
X166926D01*
X147480Y-71713D02*
X150000Y-69193D01*
X166926D02*
X197933Y-100200D01*
X92618Y-67913D02*
X167421D01*
X199705Y-100197D01*
X87480Y-73051D02*
X92618Y-67913D01*
X186221Y-90158D02*
X190945Y-94882D01*
X197933Y-173367D02*
Y-100200D01*
X190945Y-106014D02*
Y-94882D01*
X199705Y-183200D02*
Y-100197D01*
X181102Y-109802D02*
Y-95965D01*
X176476Y-91339D02*
X181102Y-95965D01*
X161417Y-106147D02*
Y-97146D01*
X156791Y-92520D02*
X161417Y-97146D01*
X146850Y-93701D02*
X151772Y-98622D01*
X90847Y-94882D02*
X140157D01*
X141300Y-96024D01*
Y-110000D02*
Y-96024D01*
X151772Y-106286D02*
Y-98622D01*
X37092Y-171640D02*
X52939D01*
X61300Y-180000D01*
X36516Y-173031D02*
X44331D01*
X51300Y-180000D01*
X-9055Y-127461D02*
X36516Y-173031D01*
X-7579Y-126969D02*
X37092Y-171640D01*
X-9055Y-127461D02*
Y-90225D01*
X-10433Y-128267D02*
Y-89044D01*
Y-128267D02*
X41300Y-180000D01*
X-9055Y-90225D02*
X-8594Y-89764D01*
X-10433Y-89044D02*
X-9972Y-88583D01*
X38169D01*
X19154Y-102362D02*
X25551Y-95965D01*
X-8594Y-89764D02*
X29350D01*
X38169Y-88583D02*
X45551Y-95965D01*
X29350Y-89764D02*
X35551Y-95965D01*
X89862Y-96063D02*
X129528D01*
X130905Y-97441D01*
X181300Y-180000D02*
X188209Y-186909D01*
X195995D01*
X199705Y-183200D01*
X191300Y-180000D02*
X197933Y-173367D01*
X87480Y-79528D02*
Y-73051D01*
X181102Y-109802D02*
X181300Y-110000D01*
X130905Y-108828D02*
Y-97441D01*
Y-108828D02*
X132278Y-110200D01*
X123112Y-6711D02*
X124016Y-5807D01*
D20*
X25591D02*
D03*
X35433D02*
D03*
X45276D02*
D03*
X55118D02*
D03*
X64961D02*
D03*
X104331D02*
D03*
X114173D02*
D03*
X124016D02*
D03*
X133858D02*
D03*
X143701D02*
D03*
D21*
X74803D02*
D03*
X153543D02*
D03*
D22*
X74803Y-38075D02*
Y-5807D01*
Y-38075D02*
X78263Y-41535D01*
X97318D01*
X78740Y689D02*
X79108D01*
X81299Y-1870D02*
X99213Y-19783D01*
X113818D01*
X79108Y689D02*
X81299Y-1502D01*
Y-1870D02*
Y-1502D01*
X117278Y-29325D02*
X117480Y-29528D01*
X117278Y-29325D02*
Y-23243D01*
X113818Y-19783D02*
X117278Y-23243D01*
X97318Y-41535D02*
X107480Y-31372D01*
Y-29528D01*
X77756Y1673D02*
X78740Y689D01*
X33071Y1673D02*
X77756D01*
X104331Y-7469D02*
X109656Y-12795D01*
X124021D01*
X104331Y-7469D02*
Y-5807D01*
X124021Y-12795D02*
X127480Y-16255D01*
Y-29528D02*
Y-16255D01*
X137480Y-20672D02*
X140940Y-17213D01*
X149323D01*
X137480Y-29528D02*
Y-20672D01*
X153543Y-12992D02*
Y-5807D01*
X149323Y-17213D02*
X153543Y-12992D01*
X25591Y-5807D02*
X33071Y1673D01*
D23*
X188976Y-209646D02*
D03*
X0D02*
D03*
X188976Y0D02*
D03*
X0D02*
D03*
D24*
X185039Y-59055D02*
D03*
Y-39055D02*
D03*
D25*
X87480Y-79528D02*
D03*
X97480D02*
D03*
X107480D02*
D03*
X117480D02*
D03*
X127480D02*
D03*
X137480D02*
D03*
X147480D02*
D03*
X157480D02*
D03*
X87480Y-29528D02*
D03*
X97480D02*
D03*
X107480D02*
D03*
X117480D02*
D03*
X127480D02*
D03*
X137480D02*
D03*
X147480D02*
D03*
D26*
X157480D02*
D03*
D27*
X31300Y-180000D02*
D03*
X81300D02*
D03*
X71300D02*
D03*
X61300D02*
D03*
X51300D02*
D03*
X41300D02*
D03*
X101300D02*
D03*
X171300D02*
D03*
X161300D02*
D03*
X151300D02*
D03*
X141300D02*
D03*
X131300D02*
D03*
X121300D02*
D03*
X111300D02*
D03*
X1300D02*
D03*
X21300D02*
D03*
X11300D02*
D03*
X91300D02*
D03*
X191300D02*
D03*
X181300D02*
D03*
X1300Y-110000D02*
D03*
X11300D02*
D03*
X21300D02*
D03*
X31300D02*
D03*
X41300D02*
D03*
X51300D02*
D03*
X61300D02*
D03*
X71300D02*
D03*
X81300D02*
D03*
X91300D02*
D03*
X101300D02*
D03*
X111300D02*
D03*
X121300D02*
D03*
X131300D02*
D03*
X141300D02*
D03*
X151300D02*
D03*
X161300D02*
D03*
X171300D02*
D03*
X181300D02*
D03*
X191300D02*
D03*
D28*
X-4449Y-95965D02*
D03*
X5551D02*
D03*
X15551D02*
D03*
X25551D02*
D03*
X35551D02*
D03*
X45551D02*
D03*
D29*
X158700Y-196400D02*
D03*
X149800Y-196300D02*
D03*
M02*
