G04*
G04 #@! TF.GenerationSoftware,Altium Limited,Altium Designer,22.11.1 (43)*
G04*
G04 Layer_Color=16711935*
%FSLAX25Y25*%
%MOIN*%
G70*
G04*
G04 #@! TF.SameCoordinates,AF9D1AC7-D161-4756-986D-43FDA94486ED*
G04*
G04*
G04 #@! TF.FilePolarity,Positive*
G04*
G01*
G75*
%ADD10C,0.01000*%
D10*
X202756Y1575D02*
X202716Y2550D01*
X202595Y3519D01*
X202395Y4474D01*
X202116Y5410D01*
X201761Y6319D01*
X201332Y7196D01*
X200833Y8035D01*
X200265Y8829D01*
X199635Y9574D01*
X198944Y10264D01*
X198199Y10895D01*
X197405Y11463D01*
X196566Y11962D01*
X195689Y12391D01*
X194780Y12746D01*
X193844Y13024D01*
X192889Y13225D01*
X191920Y13345D01*
X190945Y13386D01*
Y-222835D02*
X191920Y-222794D01*
X192889Y-222674D01*
X193844Y-222473D01*
X194780Y-222195D01*
X195689Y-221840D01*
X196566Y-221411D01*
X197405Y-220911D01*
X198199Y-220344D01*
X198944Y-219713D01*
X199635Y-219023D01*
X200266Y-218278D01*
X200833Y-217484D01*
X201332Y-216645D01*
X201761Y-215768D01*
X202116Y-214859D01*
X202395Y-213923D01*
X202595Y-212968D01*
X202716Y-211999D01*
X202756Y-211024D01*
X-1969Y13386D02*
X-2944Y13345D01*
X-3912Y13225D01*
X-4868Y13024D01*
X-5804Y12746D01*
X-6713Y12391D01*
X-7590Y11962D01*
X-8428Y11463D01*
X-9223Y10895D01*
X-9968Y10264D01*
X-10658Y9574D01*
X-11289Y8829D01*
X-11856Y8035D01*
X-12356Y7196D01*
X-12785Y6319D01*
X-13140Y5410D01*
X-13418Y4474D01*
X-13618Y3519D01*
X-13739Y2550D01*
X-13780Y1575D01*
Y-211024D02*
X-13739Y-211999D01*
X-13618Y-212968D01*
X-13418Y-213923D01*
X-13140Y-214859D01*
X-12785Y-215768D01*
X-12356Y-216645D01*
X-11856Y-217484D01*
X-11289Y-218278D01*
X-10658Y-219023D01*
X-9968Y-219713D01*
X-9223Y-220344D01*
X-8428Y-220911D01*
X-7590Y-221411D01*
X-6713Y-221840D01*
X-5804Y-222195D01*
X-4868Y-222473D01*
X-3912Y-222674D01*
X-2944Y-222794D01*
X-1969Y-222835D01*
X190945D01*
X-1969Y13386D02*
X190945D01*
X202756Y-211024D02*
Y1575D01*
X-13780Y-211024D02*
Y1575D01*
M02*
