M48
;Layer_Color=9474304
;FILE_FORMAT=2:4
INCH,TZ
;TYPE=PLATED
T1F00S00C0.0280
T2F00S00C0.0300
T3F00S00C0.0354
T4F00S00C0.0394
T5F00S00C0.0400
T6F00S00C0.1260
%
T01
X14980Y-19630
X15870Y-19640
T02
X18504Y-5906
Y-3906
T03
X2559Y-581
X3543
X4528
X5512
X6496
X7480
X10433
X11417
X12402
X13386
X14370
X15354
T04
X8130Y-18000
X9130
X10130
X11130
X12130
X13130
X14130
X15130
X16130
X17130
X18130
X19130
Y-11000
X18130
X17130
X16130
X15130
X14130
X13130
X12130
X11130
X10130
X9130
X8130
X7130
X6130
X5130
X4130
X3130
X2130
X1130
X130
Y-18000
X1130
X2130
X3130
X4130
X5130
X6130
X7130
T05
X-445Y-9596
X555
X1555
X2555
X3555
X4555
X8748Y-7953
X9748
X10748
X11748
X12748
X13748
X14748
X15748
Y-2953
X14748
X13748
X12748
X11748
X10748
X9748
X8748
T06
X18898Y-20965
X0
Y0
X18898
M30
